<svg xmlns="http://www.w3.org/2000/svg" viewBox="0 0 170 150"><defs><style>.cls-1{fill:#eff9fe;}.cls-2{fill:#e6e6e6;}.cls-3{fill:#495b14;}</style></defs><title>NSW-ICON</title><g id="Layer_3" data-name="Layer 3"><rect class="cls-1" x="0.282" width="169.718" height="150"/></g><g id="aus5fgd_r_area"><polygon class="cls-2" points="93.182 139.536 93.215 139.54 93.297 139.501 93.233 139.409 93.182 139.536"/><polygon class="cls-2" points="93.608 139.13 93.628 139.213 93.714 139.234 93.835 139.182 93.835 139.107 93.608 139.13"/><polygon class="cls-2" points="100.039 136.799 100.019 136.6 99.924 136.575 99.969 136.353 99.905 136.319 99.716 135.974 99.672 135.974 99.635 136.046 99.503 136.144 99.466 136.246 99.406 136.267 99.534 136.376 99.593 136.31 99.674 136.376 99.549 136.44 99.544 136.503 99.413 136.41 99.316 136.466 99.341 136.535 99.266 136.541 99.224 136.587 99.36 136.607 99.362 136.674 99.591 136.608 99.627 136.635 99.559 136.7 99.692 136.708 99.741 136.646 99.872 136.685 99.865 136.834 99.822 136.877 99.751 136.842 99.652 136.91 99.722 137.092 99.706 137.146 99.41 137.371 99.319 137.035 99.28 137.195 99.203 137.238 99.192 137.362 99.029 137.431 99.017 137.551 98.903 137.626 98.881 137.847 98.814 137.886 98.762 137.865 98.77 137.806 98.704 137.685 98.643 137.701 98.684 137.91 98.596 138.022 98.627 138.119 98.681 138.095 98.721 138.16 98.616 138.214 98.6 138.294 98.652 138.336 98.531 138.37 98.268 138.06 98.175 138.057 98.127 138.11 98.166 138.188 98.253 138.208 98.369 138.313 98.401 138.543 98.453 138.558 98.516 138.488 98.668 138.518 98.651 138.414 98.728 138.388 98.788 138.313 98.78 138.218 99.062 138.252 99.102 138.34 99.021 138.386 99.069 138.546 99.147 138.515 99.337 138.682 99.507 138.602 99.537 138.552 99.494 138.407 99.562 138.234 99.634 138.208 99.598 138.128 99.758 137.936 99.844 137.927 99.857 137.776 99.769 137.69 99.669 137.797 99.537 137.744 99.492 137.448 99.93 137.058 100.066 137.035 100.1 137.107 100.151 137.099 100.131 136.838 100.039 136.799"/><polygon class="cls-2" points="104.39 133.245 104.287 133.107 104.101 133.104 103.998 133.014 103.723 133.378 103.772 133.405 103.795 133.481 103.728 133.545 103.638 133.565 103.716 133.607 103.864 133.532 103.936 133.577 103.959 133.671 103.909 133.71 103.797 133.707 103.722 133.873 103.641 133.917 103.652 134.05 103.85 133.935 104.122 133.919 104.138 133.864 104.087 133.734 103.979 133.695 103.981 133.638 104.049 133.57 104.236 133.557 104.282 133.607 104.42 133.601 104.483 133.515 104.572 133.492 104.409 133.385 104.39 133.245"/><polygon class="cls-2" points="105.448 131.496 105.465 131.43 105.379 131.37 105.312 131.359 105.239 131.402 105.089 131.356 104.98 131.442 104.983 131.5 105.051 131.565 105.224 131.551 105.444 131.67 105.636 131.649 105.523 131.607 105.448 131.496"/><polygon class="cls-2" points="101.429 122.347 101.414 122.288 101.258 122.475 101.289 122.498 101.374 122.453 101.429 122.347"/><polygon class="cls-2" points="85.854 122.306 86.188 122.385 86.215 122.376 85.854 122.123 85.828 122.252 85.854 122.306"/><polygon class="cls-2" points="104.096 122.055 104.12 122.077 104.157 122.047 104.202 122.071 104.3 122.023 104.317 121.992 104.271 121.976 104.209 122.017 104.12 122.023 104.096 122.055"/><polygon class="cls-2" points="105.314 125.87 105.711 125.291 105.688 125.255 105.547 125.306 105.503 125.393 105.427 125.443 105.415 125.504 105.14 125.647 105.043 125.579 105.217 125.501 105.182 125.459 105.247 125.298 105.417 125.338 105.542 125.255 105.588 125.152 105.535 125.101 105.471 125.137 105.429 125.093 105.364 125.122 105.203 124.857 105.19 124.69 105.261 124.581 105.181 124.482 105.341 123.992 105.252 123.923 105.13 123.916 105.115 123.88 105.304 123.803 105.275 123.896 105.329 123.95 105.338 123.83 105.566 123.583 105.648 123.567 105.622 123.536 105.533 123.556 105.488 123.53 105.459 123.441 105.379 123.379 105.368 123.255 105.199 123.134 105.124 122.964 104.982 122.929 104.874 122.789 104.9 122.692 104.746 122.652 104.622 122.541 104.604 122.591 104.394 122.591 104.072 122.254 103.828 122.217 103.753 122.119 103.672 122.132 103.627 122.088 103.261 122.092 103.196 122.054 103.218 122.129 103.312 122.2 103.287 122.264 103.224 122.27 103.241 122.373 102.859 122.847 102.82 122.833 102.576 122.932 102.145 122.825 102.11 122.76 101.822 122.78 101.586 122.578 101.583 122.538 100.23 123.62 99.943 123.628 99.876 123.493 99.719 123.475 99.639 123.249 99.363 123.357 99.277 123.325 99.24 123.266 99.064 123.333 98.87 123.572 98.458 123.684 98.257 123.583 97.987 123.601 97.922 123.54 97.761 123.554 97.692 123.497 97.538 123.53 97.28 123.752 96.928 123.787 96.815 123.725 96.406 123.989 96.296 123.936 96.542 124.428 96.876 124.4 97.024 124.466 97.062 124.54 97.274 124.685 97.119 124.733 97.105 124.778 97.232 124.861 97.244 124.978 97.659 125.255 97.65 125.306 97.565 125.316 97.478 125.395 97.478 125.448 97.56 125.503 97.818 125.52 97.841 125.621 98.015 125.599 98.064 125.663 98.02 125.711 98.035 125.783 98.213 125.987 98.105 125.986 98.013 125.904 97.999 125.655 97.899 125.65 97.771 125.711 97.609 125.54 97.491 125.533 97.395 125.462 97.384 125.382 97.442 125.296 97.376 125.183 97.246 125.167 97.167 124.994 96.971 124.856 97.057 124.793 97.108 124.626 96.833 124.509 96.714 124.636 96.524 124.6 96.512 124.512 96.464 124.477 96.317 124.486 96.201 124.598 96.178 124.511 96.244 124.506 96.378 124.416 96.481 124.433 96.228 124.105 96.137 124.08 96.04 124.116 95.82 123.992 95.856 124.053 95.612 124.216 95.509 124.17 95.438 124.183 95.46 124.271 95.115 124.484 94.962 124.497 94.943 124.554 94.974 124.589 95.055 124.545 95.174 124.555 95.069 124.638 95.032 125.046 94.987 125.051 94.949 125.038 94.963 124.975 95.016 124.928 94.951 124.794 95.011 124.741 94.906 124.579 94.829 124.546 94.847 124.388 94.776 124.322 94.706 124.416 93.763 124.641 93.763 124.606 93.524 124.534 93.319 124.575 93.127 124.523 93.086 124.562 92.592 124.512 92.542 124.458 92.353 124.422 92.292 124.325 91.339 123.987 91.126 124.009 91.034 123.955 91.046 123.904 90.891 123.875 90.844 123.831 90.428 123.789 89.928 123.427 89.977 123.348 89.955 123.283 89.322 123.213 89.3 123.168 89.164 123.161 89.058 123.091 88.933 123.102 88.713 122.936 88.64 122.793 88.677 122.759 88.617 122.722 88.51 122.811 87.456 122.641 87.298 122.396 87.335 122.545 87.211 122.49 87.186 122.415 87.32 122.212 87.439 122.197 87.363 122.047 87.247 122.028 87.15 121.889 87.103 121.909 87.093 121.993 87.154 122.087 87.198 122.096 87.189 122.347 87.139 122.446 87.033 122.493 86.891 122.472 87.042 122.419 87.088 122.354 86.273 122.377 86.265 122.419 86.512 122.479 86.572 122.538 86.389 122.528 86.32 122.627 86.209 122.478 86.127 122.493 85.836 122.309 85.725 122.303 85.733 122.236 85.467 122.072 85.407 122.121 85.219 122.145 85.129 122.211 85.096 122.146 84.698 122.045 84.631 122.069 84.602 121.919 84.455 121.974 84.415 121.892 84.304 121.864 84.265 121.893 84.246 122.032 84.198 122.046 84.213 121.829 84.111 121.796 83.948 121.463 83.872 121.555 83.75 121.592 83.697 121.657 83.776 121.752 83.666 121.91 83.742 122.142 83.823 122.125 83.854 122.183 83.847 122.248 83.782 122.31 83.829 122.376 83.774 122.481 83.864 122.619 83.873 122.714 83.715 123.038 83.658 123.068 83.488 123.014 83.529 123.091 83.274 123.227 83.268 123.277 83.328 123.283 83.388 123.379 83.386 123.558 83.347 123.637 83.237 123.664 83.431 123.88 83.552 123.928 83.655 124.229 83.631 124.308 83.586 124.331 83.616 124.437 83.668 124.474 83.631 124.577 83.761 124.805 83.696 125.027 83.848 125.175 83.91 125.408 84.04 125.476 84.007 125.513 84.023 125.561 84.243 125.774 84.275 126.011 84.215 126.077 84.132 126.064 84.071 126.134 85.02 127.37 84.975 127.44 85.143 127.619 85.053 127.723 85.11 127.89 85.188 127.953 85.274 127.909 85.639 128.232 85.637 128.31 85.994 128.626 86.024 128.733 86.313 128.946 86.352 129.021 86.726 129.275 87.16 130.199 87.12 130.689 86.943 130.877 87.202 130.997 87.309 130.978 87.312 130.853 87.245 130.857 87.196 130.814 87.281 130.718 87.568 130.647 87.614 130.605 87.73 130.652 87.725 130.816 87.814 130.956 87.749 131.006 87.775 131.111 87.846 131.111 88.118 131.341 88.179 131.487 88.362 131.545 88.387 131.678 88.45 131.694 88.58 131.596 88.689 131.635 88.692 131.69 88.784 131.778 88.848 131.714 88.931 131.741 88.795 131.945 88.808 132.003 88.741 132.14 88.617 132.213 88.528 132.132 88.374 132.199 88.454 132.478 88.42 132.602 88.464 132.778 88.379 132.714 88.339 132.348 88.263 132.227 88.298 132.029 88.242 132.01 88.195 131.918 88.049 131.823 87.944 131.849 87.577 131.634 87.574 131.584 87.449 131.525 87.457 131.394 87.343 131.374 87.32 131.298 87.22 131.306 87.186 131.347 87.112 131.334 87.086 131.29 87.118 131.205 87.004 131.179 86.999 131.069 86.87 130.871 86.774 130.839 86.769 130.787 86.591 130.783 86.707 130.927 86.73 131.055 86.824 131.127 86.863 131.396 86.757 131.474 86.767 131.566 86.933 131.738 86.96 131.828 86.935 131.918 87.009 131.952 87.033 132.13 87.107 132.225 87.112 132.285 87.005 132.43 87.114 132.526 87.252 132.974 87.403 133.022 87.372 133.161 87.273 133.285 87.168 133.273 87.162 133.319 87.209 133.37 87.294 133.381 87.32 133.333 87.456 133.32 87.573 133.423 87.597 133.527 87.674 133.502 87.782 133.539 87.778 133.72 87.825 133.759 87.885 133.959 87.945 133.938 87.925 134.041 87.864 134.106 87.884 134.21 88.03 134.26 88.341 135.024 88.408 135.027 88.486 135.088 88.483 135.165 88.576 135.296 88.537 135.328 88.585 135.514 88.677 135.478 88.773 135.49 88.952 135.418 89.127 135.43 89.256 135.654 89.417 135.741 89.476 135.883 89.552 135.857 89.7 135.917 89.701 135.989 89.635 136.019 89.598 136.177 89.634 136.212 89.693 136.203 89.794 136.309 89.896 136.251 89.973 136.274 89.934 136.414 90.03 136.45 90.141 136.699 90.353 136.739 90.415 136.847 90.385 136.935 90.404 137.053 90.489 137.088 90.499 137.27 90.693 137.349 90.734 137.489 90.808 137.524 90.855 137.457 90.956 137.472 90.979 137.394 91.147 137.394 91.106 137.343 91.13 137.195 91.015 137.192 90.97 137.286 90.873 137.328 90.771 137.251 90.822 137.142 90.97 137.174 91.036 137.077 91.147 137.074 91.091 136.887 91.171 136.861 91.265 136.969 91.44 136.99 91.39 137.167 91.426 137.231 91.311 137.283 91.487 137.525 91.609 137.512 91.611 137.58 91.739 137.621 91.82 137.593 91.889 137.613 91.938 137.567 91.874 137.52 91.956 137.415 92.081 137.63 92.366 137.685 92.429 137.527 92.527 137.464 92.491 137.416 92.599 137.345 92.638 137.383 92.615 137.484 92.643 137.551 92.692 137.486 92.957 137.545 92.92 137.591 92.944 137.901 92.88 137.907 92.831 137.779 92.58 137.76 92.55 137.784 92.59 137.868 92.533 137.944 92.358 137.786 92.364 137.725 91.602 137.663 91.509 137.569 91.397 137.757 91.303 137.751 91.119 137.881 91.188 137.931 91.274 137.877 91.368 137.881 91.442 137.969 91.412 138.01 91.564 138.031 91.581 138.189 91.686 138.316 91.672 138.347 91.77 138.404 91.748 138.523 91.834 138.64 91.758 139.008 91.782 139.011 91.856 138.906 91.997 138.924 92.064 138.835 92.124 138.849 92.146 138.926 92.237 138.932 92.228 138.755 92.397 138.698 92.465 138.76 92.435 138.617 92.463 138.603 92.529 138.609 92.55 138.688 92.639 138.654 92.683 138.784 92.772 138.827 92.849 138.791 92.867 138.57 93.086 138.528 93.216 138.581 93.191 138.745 93.296 138.803 93.306 138.853 93.472 138.809 93.514 138.732 93.639 138.679 93.761 138.697 93.819 138.799 94.514 138.845 94.617 138.738 94.75 138.774 94.829 138.736 95.509 139.09 95.491 139.169 95.531 139.228 95.687 139.169 95.804 139.383 95.919 139.372 96.047 139.25 96.259 139.246 96.294 139.189 96.571 139.288 96.603 139.374 96.533 139.446 96.64 139.388 96.797 139.408 96.816 139.325 97.098 139.185 97.093 139.013 96.928 139.086 96.897 139.061 96.914 138.802 96.951 138.75 97.004 138.751 97.036 138.784 96.995 138.828 97.073 138.869 97.171 138.794 97.289 138.788 97.307 138.651 97.436 138.551 97.398 138.536 97.237 138.66 97.231 138.604 97.144 138.557 97.223 138.458 97.398 138.404 97.458 138.433 97.458 138.514 97.587 138.463 97.548 138.36 97.068 138.271 97.141 138.2 97.105 138.098 97.273 138.273 97.412 138.184 97.49 138.236 97.539 138.193 97.681 138.247 97.732 138.2 97.746 137.938 97.855 137.866 97.933 137.723 97.693 137.593 97.615 137.647 97.597 137.533 97.648 137.487 97.852 137.467 97.966 137.584 98.058 137.345 98.168 137.342 98.156 137.27 98.006 137.197 97.959 137.085 97.406 136.821 97.357 136.736 97.377 136.657 97.331 136.55 97.451 136.545 97.402 136.427 97.525 136.369 97.566 136.288 97.61 136.31 97.552 136.473 97.567 136.523 97.528 136.641 97.472 136.662 97.473 136.73 97.635 136.741 97.95 136.937 98.006 136.807 98.092 136.743 98.053 136.623 98.077 136.582 98.129 136.616 98.206 136.811 98.123 136.906 98.165 137.022 98.11 137.052 98.189 137.102 98.323 137.047 98.42 137.118 98.446 137.223 98.579 137.289 98.701 137.249 98.868 137.277 99.02 137.195 99.017 137.113 99.133 136.931 99.099 136.717 99.004 136.641 99 136.517 99.076 136.39 99.053 136.331 99.181 136.322 99.372 136.122 99.314 136.068 99.111 136.022 99.153 135.987 99.186 135.719 99.274 135.654 99.459 135.95 99.567 135.942 99.634 135.88 99.512 135.627 99.554 135.529 99.519 135.493 99.604 135.433 99.649 135.314 99.706 135.301 99.743 135.138 99.715 135.047 99.562 134.989 99.622 134.859 99.585 134.777 99.459 134.677 99.504 134.599 99.358 134.507 99.261 134.55 99.121 134.487 99.104 134.424 99.18 134.349 99.121 134.308 99.092 134.206 98.824 134.046 98.675 134.063 98.639 134.038 98.683 133.969 98.784 133.955 99.135 134.123 99.168 134.275 99.281 134.274 99.327 134.333 99.258 134.384 99.275 134.412 99.491 134.497 99.478 134.545 99.734 134.834 99.997 134.898 100.076 135.062 100.029 135.106 100.026 135.224 100.098 135.231 100.175 135.13 100.185 135.044 100.441 135.034 100.479 135.071 100.48 135.167 100.432 135.104 100.36 135.133 100.247 135.378 100.263 135.431 100.362 135.412 100.419 135.447 100.443 135.501 100.379 135.588 100.406 135.705 100.365 135.76 100.257 135.784 100.141 135.747 100.132 135.668 100.074 135.614 100.08 135.5 99.996 135.461 100.023 135.433 99.997 135.369 99.976 135.436 99.922 135.447 99.994 135.497 99.949 135.629 100.057 135.713 99.992 135.813 100.08 135.893 100.693 135.717 100.736 135.633 100.709 135.554 100.89 135.509 100.867 135.399 100.773 135.336 100.755 135.186 100.658 135.142 100.64 135.092 100.538 135.063 100.634 134.853 100.589 134.798 100.914 134.629 101.191 134.657 101.141 134.574 100.68 134.556 100.647 134.466 100.59 134.471 100.517 134.56 100.458 134.555 100.393 134.502 100.405 134.471 100.332 134.452 100.187 134.297 100.289 134.263 100.289 134.287 100.487 134.413 100.656 134.296 100.694 134.31 100.719 134.412 100.77 134.428 100.797 134.378 100.739 134.297 100.778 134.245 100.926 134.38 101.115 134.378 101.223 134.6 101.294 134.647 101.248 134.802 101.41 134.842 101.425 134.938 101.536 134.918 101.591 134.992 101.65 134.998 101.722 134.943 101.798 134.959 101.905 134.914 102.163 135.025 102.188 134.992 102.31 135.008 102.317 134.949 102.453 134.988 102.502 135.104 102.439 135.179 102.56 135.206 102.613 135.337 102.549 135.384 102.432 135.367 102.501 135.449 102.585 135.473 102.617 135.581 102.592 135.614 102.638 135.673 102.774 135.659 102.891 135.716 102.792 135.733 102.737 135.808 102.723 135.926 102.696 135.844 102.601 135.815 102.574 135.842 102.629 135.925 102.586 135.956 102.52 135.927 102.444 135.954 102.394 135.876 102.241 135.887 102.163 135.793 102.058 135.855 102.008 135.678 101.811 135.636 101.985 135.409 101.944 135.312 101.892 135.292 101.803 135.331 101.767 135.261 101.648 135.2 101.567 135.225 101.625 135.339 101.586 135.374 101.676 135.439 101.669 135.506 101.574 135.592 101.415 135.553 101.275 135.644 101.331 135.837 101.302 135.986 101.47 136.13 101.594 136.113 101.676 136.208 101.769 136.179 101.837 136.202 101.956 136.143 102.008 136.171 102.04 136.262 101.976 136.273 101.954 136.34 101.795 136.324 101.702 136.442 101.75 136.466 101.77 136.554 101.734 136.607 101.865 136.783 102.222 136.872 102.248 136.987 102.348 137.027 102.345 136.897 102.619 136.721 102.804 136.834 102.814 136.739 102.677 136.677 102.723 136.579 102.635 136.522 102.701 136.457 102.662 136.336 102.741 136.242 102.775 136.378 102.881 136.337 102.936 136.735 103.058 136.729 103.145 136.781 103.226 136.759 103.255 136.883 103.568 136.957 103.625 136.92 103.341 136.739 103.592 136.425 103.388 136.403 103.342 136.448 103.287 136.413 103.29 136.346 103.438 136.333 103.441 136.236 103.369 136.188 103.292 135.982 103.234 135.946 103.282 135.905 103.272 135.829 103.13 135.772 103.115 135.706 103.133 135.66 103.272 135.6 103.332 135.496 103.423 135.49 103.56 135.378 103.469 135.239 103.536 135.168 103.554 135.076 103.401 134.893 103.388 134.781 103.19 134.853 103.095 134.778 103.094 134.704 102.998 134.65 102.914 134.651 102.779 134.835 102.992 134.89 102.972 134.989 102.816 134.923 102.786 134.957 102.478 134.965 102.436 134.932 102.529 134.872 102.536 134.804 102.611 134.743 102.63 134.666 102.68 134.658 102.736 134.515 102.848 134.666 102.776 134.418 102.836 134.198 102.97 134.055 103.241 133.964 103.218 133.879 103.247 133.851 103.197 133.8 103.305 133.708 103.337 133.62 103.286 133.565 103.302 133.48 103.155 133.397 103.241 133.244 103.061 133.134 102.981 132.995 102.848 133 102.835 132.931 102.892 132.873 103.057 132.876 103.042 132.786 102.955 132.736 103.012 132.658 103.137 132.785 103.156 132.9 103.212 132.883 103.255 132.919 103.291 132.91 103.293 132.831 103.371 132.774 103.377 132.722 103.461 132.697 103.526 132.761 103.63 132.653 103.544 132.611 103.538 132.476 103.638 132.306 103.623 132.242 103.562 132.23 103.536 132.125 103.448 132.031 103.514 131.912 103.619 131.842 103.624 131.778 103.722 131.702 103.655 131.556 103.673 131.493 103.511 131.486 103.442 131.556 103.463 131.62 103.315 131.719 103.293 131.664 103.185 131.689 103.161 131.638 103.39 131.596 103.381 131.551 103.449 131.462 103.569 131.455 103.655 131.212 103.73 131.169 103.64 131.095 103.647 131.036 103.961 130.756 103.995 130.655 104.053 130.607 103.995 130.288 104.183 130.177 104.962 130.172 104.252 130.065 104.332 129.976 104.47 129.978 104.532 129.93 104.53 129.839 104.421 129.794 104.422 129.709 104.58 129.587 104.599 129.659 104.75 129.729 104.862 129.624 104.854 129.537 104.946 129.508 105.012 129.534 105.017 129.607 104.848 129.818 104.599 129.862 104.582 129.94 104.498 130 104.513 130.048 104.693 130.069 104.734 130.013 104.809 130.011 104.823 130.072 105.009 130.153 104.975 130.193 105.047 130.302 105.163 130.276 105.37 130.399 105.127 130.571 105.124 130.61 105.211 130.629 105.309 130.758 105.219 130.849 105.181 130.957 105.066 130.995 105.109 131.115 105.299 131.17 105.312 131.289 105.445 131.263 105.506 131.122 105.497 131.041 105.526 130.984 105.638 130.939 105.618 130.875 105.692 130.762 105.689 130.685 105.596 130.691 105.45 130.62 105.385 130.653 105.344 130.602 105.503 130.498 105.477 130.402 105.584 130.398 105.567 130.362 105.629 130.331 105.6 130.221 105.555 130.236 105.417 129.946 105.346 129.949 105.26 129.821 105.31 129.448 105.417 129.375 105.37 129.31 105.372 129.223 105.496 129.107 105.383 128.957 105.423 128.85 105.287 128.805 105.193 128.707 105.143 128.446 105.309 128.104 105.375 128.096 105.372 128.041 105.287 128.009 105.348 127.492 105.451 127.408 105.445 127.035 105.395 127.024 105.354 126.952 105.294 126.952 105.153 126.52 105.314 125.87"/><polygon class="cls-2" points="85.738 121.72 85.217 121.515 85.165 121.351 85.106 121.366 85.043 121.516 84.816 121.698 84.846 121.87 84.795 121.944 84.885 122.026 85.024 122.047 85.107 121.983 85.247 121.998 85.365 121.885 85.778 121.852 85.852 121.919 85.994 121.888 85.851 121.745 85.885 121.694 85.738 121.72"/><polygon class="cls-2" points="85.153 121.08 85.128 121.106 85.105 121.286 85.181 121.327 85.206 121.389 85.282 121.336 85.196 121.197 85.213 121.146 85.153 121.08"/><polygon class="cls-2" points="105.599 120.716 105.636 120.745 105.651 120.724 105.62 120.609 105.547 120.594 105.524 120.629 105.574 120.647 105.599 120.716"/><polygon class="cls-2" points="105.036 120.599 105.039 120.493 104.922 120.53 104.814 120.637 104.716 120.553 104.336 120.63 104.131 120.795 104.147 120.837 104.279 120.847 104.239 121.008 104.323 121.042 104.348 121.009 104.453 121.011 104.635 121.177 104.745 121.148 104.708 121.059 104.964 120.811 104.924 120.77 104.944 120.669 105.036 120.599"/><polygon class="cls-2" points="104.018 120.555 104.051 120.525 103.907 120.428 103.846 120.459 103.853 120.478 103.988 120.504 104.018 120.555"/><polygon class="cls-2" points="83.98 120.547 83.94 120.491 83.859 120.513 83.847 120.669 83.924 120.717 83.99 120.913 83.951 121.066 84.011 121.174 84.138 121.248 84.248 121.102 84.226 120.805 84.338 120.66 84.312 120.601 84.348 120.567 84.302 120.009 84.298 120.122 84.244 120.166 84.184 120.324 84.225 120.408 84.128 120.528 83.98 120.547"/><polygon class="cls-2" points="84.732 120.218 84.639 120.2 84.605 120.283 84.693 120.331 84.725 120.408 84.95 120.513 85.297 120.375 85.28 120.243 85.406 120.169 85.332 120.101 85.359 120.03 85.317 119.965 85.239 120.001 85.141 119.964 85.069 119.997 84.913 119.948 84.841 120.021 84.899 120.061 84.863 120.142 84.732 120.218"/><polygon class="cls-2" points="103.519 119.793 103.457 119.796 103.453 119.832 103.71 119.741 103.701 119.721 103.606 119.723 103.519 119.793"/><polygon class="cls-2" points="106.302 120.136 106.304 120.076 106.25 120.061 106.219 119.897 106.104 119.849 106.015 119.858 105.553 119.39 105.366 119.545 105.251 119.537 105.152 119.647 105.005 119.583 104.923 119.598 104.912 119.55 104.837 119.523 104.808 119.654 104.733 119.739 104.661 119.686 104.43 119.675 104.414 119.64 104.113 119.69 104.049 119.654 103.928 119.77 103.794 119.768 103.477 119.953 103.496 120.146 103.672 120.104 103.816 120.21 103.84 120.309 104.08 120.359 104.107 120.317 104.245 120.302 104.312 120.254 104.404 120.312 104.416 120.373 104.467 120.314 104.732 120.24 104.793 120.266 104.851 120.384 104.91 120.412 105.261 120.185 105.325 120.222 105.413 120.174 105.574 120.405 105.581 120.524 105.62 120.56 105.665 120.574 105.822 120.478 105.94 120.557 105.961 120.459 106.036 120.394 106.134 120.409 106.167 120.338 106.132 120.313 106.177 120.261 106.258 120.236 106.396 120.275 106.444 120.23 106.302 120.136"/><polygon class="cls-2" points="102.745 119.535 102.844 119.57 102.989 119.515 103.001 119.382 102.949 119.37 102.933 119.417 102.815 119.451 102.77 119.403 102.609 119.384 102.582 119.447 102.666 119.447 102.643 119.559 102.745 119.535"/><polygon class="cls-2" points="103.028 119.281 103.088 119.314 103.129 119.307 103.182 119.247 103.155 119.168 103.064 119.22 103.028 119.281"/><polygon class="cls-2" points="105.326 119.166 105.282 119.296 105.236 119.305 105.234 119.342 105.397 119.376 105.491 119.331 105.432 119.216 105.326 119.166"/><polygon class="cls-2" points="104.953 119.138 105.007 119.115 105.052 119.156 105.154 119.155 105.112 119.076 104.923 119.066 104.953 119.138"/><polygon class="cls-2" points="101.912 118.177 101.924 118.239 102.057 118.217 102.114 118.168 102.118 118.033 102.285 117.874 102.218 117.812 102.218 117.761 102.151 117.792 102.045 118.102 101.912 118.177"/><polygon class="cls-2" points="105.608 117.37 105.638 117.338 105.626 117.3 105.596 117.294 105.583 117.253 105.533 117.215 105.5 117.288 105.461 117.302 105.494 117.377 105.579 117.354 105.608 117.37"/><polygon class="cls-2" points="102.207 116.733 102.175 116.82 102.048 116.863 102.108 116.966 102.301 117.02 102.386 117.121 102.726 117.009 102.868 117.132 102.992 117.416 102.978 117.568 102.702 117.747 102.821 117.753 102.963 117.846 103.057 117.801 103.194 117.849 103.281 118.211 103.38 118.138 103.61 118.264 103.667 118.643 103.813 118.833 103.786 118.905 103.734 118.919 103.728 118.997 103.807 119.003 103.838 119.116 103.922 119.112 103.956 119.169 104.29 119.262 104.678 119.11 104.715 119.018 104.693 118.974 104.818 118.883 105.11 118.879 105.19 118.923 105.185 119 105.266 119.006 105.566 118.885 105.284 118.107 105.249 118.115 105.261 118.292 105.231 118.319 104.962 118.387 104.898 118.347 104.985 118.233 105.173 118.166 105.253 118.078 105.303 117.413 104.789 117.296 104.725 117.321 103.208 115.942 103.075 116.089 102.991 116.103 102.866 116.191 102.792 116.174 102.738 116.108 102.648 116.129 102.663 116.189 102.767 116.268 102.735 116.41 102.605 116.474 102.661 116.559 102.632 116.611 102.377 116.637 102.378 116.677 102.293 116.731 102.207 116.733"/><polygon class="cls-2" points="103.029 115.819 103.062 115.824 103.068 115.849 103.217 115.835 103.234 115.805 103.139 115.742 103.003 115.76 102.96 115.715 102.897 115.728 102.886 115.768 102.899 115.824 102.967 115.851 103.029 115.819"/><polygon class="cls-2" points="103.351 115.583 103.412 115.61 103.504 115.604 103.546 115.552 103.609 115.537 103.623 115.511 103.56 115.464 103.453 115.446 103.433 115.485 103.471 115.535 103.368 115.558 103.351 115.583"/><polygon class="cls-2" points="80.261 117.1 80.237 116.809 80.361 116.564 80.208 116.22 80.253 115.64 79.62 115.213 79.496 115.229 79.294 115.103 79.209 115.196 79.144 115.195 79.201 115.465 78.953 115.807 78.666 115.911 78.698 116.245 78.777 116.366 78.756 116.519 78.8 116.619 78.723 116.819 78.681 116.845 78.651 116.934 78.678 116.991 78.615 117.034 78.634 117.088 78.601 117.121 78.636 117.241 78.928 117.531 78.91 117.611 78.95 117.681 78.903 117.79 78.938 117.948 78.883 117.994 78.774 117.979 78.744 118.006 78.818 118.094 78.853 118.319 79.027 118.35 79.049 118.387 79.001 118.448 79.148 118.562 79.178 118.502 79.127 118.42 79.368 118.275 79.426 118.322 79.518 118.217 79.762 118.185 80.013 117.931 80.109 117.906 80.159 117.931 80.228 117.88 80.203 117.789 80.289 117.727 80.272 117.666 80.361 117.577 80.422 117.217 80.408 117.172 80.261 117.1"/><polygon class="cls-2" points="99.133 114.487 99.173 114.511 99.241 114.471 99.281 114.506 99.348 114.425 99.331 114.398 99.268 114.436 99.193 114.428 99.133 114.487"/><polygon class="cls-2" points="99.567 114.334 99.492 114.342 99.396 114.473 99.406 114.526 99.468 114.525 99.482 114.639 99.518 114.656 99.556 114.629 99.553 114.568 99.617 114.557 99.678 114.608 99.715 114.51 99.646 114.453 99.738 114.413 99.567 114.334"/><polygon class="cls-2" points="99.382 114.256 99.214 114.29 99.332 114.395 99.367 114.396 99.399 114.355 99.367 114.308 99.394 114.281 99.382 114.256"/><polygon class="cls-2" points="97.474 112.881 97.445 112.967 97.453 113.038 97.491 113.03 97.539 112.969 97.503 112.942 97.525 112.903 97.474 112.881"/><polygon class="cls-2" points="94.532 110.27 94.831 110.371 95.437 110.11 95.191 110.146 95.189 110.098 95.044 110.04 94.725 110.183 94.624 110.14 94.826 110.001 94.688 110.028 94.626 109.933 94.546 110.009 94.379 110.019 94.383 110.106 94.532 110.27"/><polygon class="cls-2" points="94.542 109.982 94.596 109.925 94.252 109.904 94.209 109.977 94.263 110 94.384 109.934 94.46 109.935 94.542 109.982"/><polygon class="cls-2" points="95.291 109.822 95.211 109.826 95.114 109.905 95.186 109.958 95.616 109.916 95.64 109.875 95.609 109.842 95.318 109.88 95.326 109.848 95.291 109.822"/><polygon class="cls-2" points="95.861 109.762 95.914 109.701 95.98 109.696 96.008 109.668 95.993 109.616 95.936 109.598 95.896 109.632 95.891 109.69 95.842 109.688 95.756 109.747 95.759 109.78 95.797 109.79 95.861 109.762"/><polygon class="cls-2" points="96.383 109.629 96.458 109.638 96.54 109.598 96.379 109.56 96.335 109.576 96.296 109.651 96.383 109.629"/><polygon class="cls-2" points="96.818 109.473 96.757 109.464 96.681 109.535 96.584 109.558 96.599 109.626 96.584 109.682 96.818 109.473"/><polygon class="cls-2" points="96.854 109.333 96.681 109.302 96.631 109.335 96.539 109.33 96.503 109.303 96.388 109.363 96.382 109.425 96.315 109.433 96.352 109.507 96.486 109.532 96.835 109.391 96.854 109.333"/><polygon class="cls-2" points="86.786 108.343 86.579 108.44 86.462 108.656 86.346 108.669 86.287 108.741 86.613 108.691 86.912 108.801 87.018 108.674 87.212 108.662 87.616 108.894 87.64 108.986 87.703 109.035 87.761 108.941 87.626 108.846 87.653 108.769 87.762 108.726 87.727 108.687 87.477 108.691 87.415 108.549 87.329 108.513 87.446 108.406 87.358 108.343 86.786 108.343"/><polygon class="cls-2" points="87.248 108.007 87.455 108.055 87.504 108.111 87.612 108.113 87.677 108.167 87.746 108.077 87.9 108.072 87.939 108.006 87.929 107.94 88.02 107.871 88.44 107.829 88.586 107.74 88.306 107.472 87.656 107.478 87.558 107.38 87.391 107.323 87.326 107.342 87.248 108.007"/><polygon class="cls-2" points="83.804 107.097 83.77 107.082 83.694 107.1 83.676 107.066 83.659 107.063 83.57 107.145 83.616 107.171 83.778 107.124 83.804 107.097"/><polygon class="cls-2" points="87.404 107.113 87.413 107.034 87.374 106.976 87.259 107 87.278 107.088 87.368 107.119 87.404 107.113"/><polygon class="cls-2" points="102.023 105.049 101.962 105.089 101.946 105.143 101.894 105.188 101.928 105.201 102.188 105.107 102.229 104.971 102.023 105.049"/><polygon class="cls-2" points="44.362 92.577 44.397 92.466 44.277 92.511 44.132 92.448 44.05 92.345 44.047 92.209 43.322 91.987 43.292 91.958 43.046 91.983 43.004 92.037 42.999 92.207 42.76 92.426 42.566 92.457 42.329 92.376 42.316 92.435 42.225 92.447 42.198 92.495 42.275 92.544 42.307 92.51 42.479 92.535 42.525 92.604 42.412 92.659 42.17 92.662 42.123 92.592 42.126 92.467 42.283 92.38 42.285 92.339 42.467 92.206 42.329 92.007 41.233 92.074 41.112 91.995 41.122 91.917 41.258 91.824 41.27 91.775 41.511 91.583 41.488 91.506 41.179 91.517 41.068 91.453 41.068 91.374 41.326 91.196 41.41 91.242 41.457 91.055 41.384 91.027 41.276 91.09 41.202 91.046 40.778 91.236 40.681 91.217 40.672 91.177 40.59 91.138 40.338 91.234 39.518 91.136 38.879 91.402 38.757 91.389 38.636 91.45 38.502 91.437 38.338 91.591 38.099 91.637 38.077 91.669 36.358 91.856 36.328 91.927 36.212 91.986 35.983 91.976 35.842 92.09 35.18 92.147 35.1 92.25 35.124 92.415 35.016 92.625 35.035 92.752 34.898 92.805 34.851 92.912 34.863 92.971 35.13 93.233 35.134 93.345 35.212 93.369 35.227 93.416 35.396 93.376 35.567 93.443 35.912 93.867 35.903 93.962 35.842 93.983 35.889 94.041 36.018 93.928 36.114 93.913 36.22 93.95 36.297 93.925 36.348 93.846 36.55 93.875 36.706 93.76 37.158 93.913 37.634 93.756 37.897 93.813 37.999 93.776 38.208 93.799 38.296 93.766 38.442 93.85 38.532 93.778 38.629 93.805 38.787 93.636 38.72 93.592 38.748 93.535 39.868 93.634 40.395 94.052 40.417 94.099 40.569 93.998 40.676 93.983 40.895 93.798 41.173 93.765 41.266 93.704 41.359 93.527 41.277 93.44 41.233 93.293 41.325 93.124 42.005 92.918 42.083 92.782 42.756 92.807 42.892 92.88 43.113 92.817 43.897 93.076 44.453 92.699 44.385 92.658 44.362 92.577"/><polygon class="cls-2" points="34.479 88.565 34.404 88.483 34.368 88.474 34.383 88.534 34.308 88.559 34.328 88.63 34.379 88.663 34.477 88.649 34.596 88.725 34.627 88.666 34.617 88.628 34.479 88.565"/><polygon class="cls-2" points="32.724 87.706 32.306 87.255 32.16 87.339 32.135 87.382 32.169 87.475 32.318 87.485 32.339 87.537 32.601 87.705 32.619 87.794 32.55 87.825 32.602 87.948 32.723 88.033 32.845 87.972 32.801 87.696 32.724 87.706"/><polygon class="cls-2" points="31.716 86.859 31.669 86.897 31.669 86.947 31.725 87.017 31.746 87.004 31.743 86.87 31.716 86.859"/><polygon class="cls-2" points="120.01 86.837 119.931 86.852 119.816 86.978 119.826 87.006 119.975 87.08 120.095 87.068 120.037 86.996 120.03 86.857 120.01 86.837"/><polygon class="cls-2" points="46.919 86.479 46.769 86.236 46.736 86.489 46.775 86.524 46.837 86.472 46.919 86.479"/><polygon class="cls-2" points="31.252 86.017 31.29 85.988 31.355 86.03 31.383 86.007 31.351 85.955 31.306 85.939 31.32 85.83 31.302 85.795 31.167 85.711 31.138 85.843 31.208 85.881 31.192 85.951 31.252 86.017"/><polygon class="cls-2" points="33.678 85.582 33.648 85.651 33.747 85.763 33.814 85.652 33.779 85.595 33.678 85.582"/><polygon class="cls-2" points="33.392 84.712 33.34 84.694 33.328 84.872 33.288 84.918 33.323 84.969 33.38 84.944 33.357 84.792 33.373 84.757 33.498 84.7 33.477 84.681 33.392 84.712"/><polygon class="cls-2" points="39.841 84.446 39.684 84.595 39.701 84.82 39.747 84.834 39.763 84.866 39.849 84.836 39.881 84.701 39.944 84.653 39.893 84.551 39.914 84.495 39.841 84.446"/><polygon class="cls-2" points="22.503 79.852 22.469 79.903 22.484 80.061 22.368 80.315 22.744 80.017 22.96 80.018 22.84 79.736 22.503 79.852"/><polygon class="cls-2" points="24.376 79.226 24.331 79.244 24.349 79.277 24.398 79.272 24.514 79.338 24.547 79.23 24.508 79.248 24.376 79.226"/><polygon class="cls-2" points="15.534 72.678 15.453 72.706 15.403 72.679 15.409 72.636 15.309 72.668 15.302 72.696 15.349 72.708 15.385 72.754 15.358 72.796 15.416 72.859 15.505 72.818 15.497 72.79 15.545 72.742 15.534 72.678"/><polygon class="cls-2" points="17.437 72.429 17.515 72.463 17.569 72.451 17.612 72.395 17.45 72.396 17.437 72.429"/><polygon class="cls-2" points="17.699 72.303 17.694 72.339 17.657 72.345 17.626 72.394 17.634 72.42 17.784 72.324 17.751 72.291 17.699 72.303"/><polygon class="cls-2" points="18.79 71.973 18.793 71.923 18.661 71.801 18.459 71.813 18.411 71.839 18.82 72.014 18.79 71.973"/><polygon class="cls-2" points="16.702 71.541 16.693 71.597 16.805 71.57 16.867 71.513 16.762 71.5 16.702 71.541"/><polygon class="cls-2" points="17.367 71.228 17.72 71.08 17.431 71.122 17.247 71.248 17.164 71.208 16.98 71.284 16.928 71.373 16.982 71.533 17.116 71.604 17.285 71.533 17.412 71.337 17.346 71.264 17.367 71.228"/><polygon class="cls-2" points="130.468 71.118 130.501 71.098 130.454 71.006 130.48 70.885 130.394 70.854 130.323 70.886 130.344 71.056 130.468 71.118"/><polygon class="cls-2" points="170 66.862 169.897 66.77 169.795 66.761 169.819 66.856 169.904 66.913 169.939 66.99 169.876 67.152 169.9 67.22 169.976 67.22 170 67.199 170 66.862"/><polygon class="cls-2" points="0.25 66.833 2.476 66.483 8.375 69.37 8.398 69.455 8.611 69.705 8.7 69.717 8.756 69.795 9.323 69.892 9.33 69.853 9.406 69.823 9.703 69.863 9.759 69.776 10.007 69.748 10.064 69.695 10.202 69.682 10.516 69.868 10.535 69.824 10.462 69.748 10.358 69.735 10.319 69.645 10.415 69.464 10.831 69.301 11.752 69.435 11.81 69.393 12.094 69.424 12.116 69.384 13.531 70.119 13.579 70.194 13.566 70.325 13.716 70.185 14.521 70.74 14.461 70.821 14.446 70.932 14.566 70.857 14.566 70.737 14.664 70.703 15.233 70.924 15.334 70.855 15.365 70.786 16.222 70.875 16.238 70.796 16.346 70.755 16.613 70.885 16.631 70.862 16.472 70.641 16.262 70.597 16.201 70.616 16.088 70.528 16.195 70.46 16.252 70.479 16.512 70.288 16.573 70.324 16.58 70.443 16.699 70.464 16.666 70.598 16.749 70.609 16.832 70.546 16.822 70.621 16.993 70.708 17.019 70.642 17.189 70.534 17.122 70.409 17.176 70.265 17.237 70.213 17.702 70.325 17.709 70.49 17.547 70.543 17.555 70.595 17.723 70.543 17.832 70.611 17.85 70.655 17.755 70.907 17.971 70.858 18.233 70.938 18.252 71.039 18.21 71.103 18.308 71.274 18.368 71.216 18.463 71.207 18.525 71.148 18.528 71.083 18.61 71.094 18.658 71.216 18.74 71.228 18.84 71.362 18.906 71.385 19.266 71.862 19.275 71.966 19.343 71.978 19.39 72.036 19.326 72.188 19.171 72.242 19.077 72.086 18.882 72.079 18.789 72.452 18.852 72.594 18.782 72.649 18.76 72.727 18.881 72.913 18.935 72.885 19.042 72.936 19.057 72.831 19.199 72.661 19.627 72.72 19.64 72.605 19.902 72.45 20.188 72.52 20.178 72.469 20.216 72.442 20.439 72.419 21.266 73.111 21.353 73.578 21.444 73.676 20.96 74.452 20.894 74.467 20.838 74.431 20.819 74.276 20.89 74.171 20.688 74.093 20.761 74.053 20.966 74.07 20.166 73.944 20.066 73.979 20.055 74.043 20.482 74.566 20.51 74.728 20.471 74.821 20.115 74.984 20.157 75.054 20.132 75.121 20.041 75.127 20.169 75.243 20.224 75.243 20.31 75.163 20.396 75.174 20.456 75.25 20.429 75.278 20.525 75.349 20.567 75.242 20.766 75.286 20.894 75.482 20.897 75.696 20.819 75.777 20.685 75.74 20.513 75.792 20.712 75.978 20.784 75.97 20.858 75.892 21.069 75.948 21.165 76.206 21.251 76.272 21.279 76.513 21.244 76.599 21.646 76.877 21.788 76.822 21.749 76.655 21.789 76.516 21.581 76.443 21.556 76.354 21.437 76.393 21.257 76.184 21.253 76.045 21.357 76.001 21.266 75.87 21.356 75.833 21.48 75.985 21.416 76.048 21.444 76.141 21.519 76.216 21.623 76.225 21.836 76.449 21.889 76.734 21.988 76.719 22.171 76.572 23.12 76.836 23.469 77.137 23.525 77.009 23.396 76.831 23.359 76.815 23.273 76.864 23.141 76.821 23.03 76.646 23.251 76.515 23.474 76.655 23.677 76.648 23.919 76.764 23.98 76.863 23.988 77.058 23.866 77.011 23.825 77.055 23.658 77.077 23.845 77.26 23.987 77.266 24.486 77.656 24.851 78.975 24.716 79.235 24.729 79.402 24.653 79.431 26.641 80.94 26.689 80.912 26.759 80.934 27.304 81.816 27.262 81.864 27.357 82.08 27.305 82.238 27.348 82.39 27.116 82.568 27.502 82.79 27.828 83.727 27.776 83.874 27.858 83.978 27.818 84.174 27.989 84.3 28.043 84.633 27.932 84.747 27.944 84.828 27.991 84.852 28.061 84.999 28.004 85.235 28.034 85.267 28.2 85.278 28.144 85.207 28.112 84.996 28.203 84.957 28.185 84.905 28.245 84.832 28.34 84.891 28.298 85.189 28.334 85.242 28.418 85.188 28.742 85.266 28.771 85.335 28.729 85.395 28.636 85.35 28.139 85.495 28.061 85.481 28.063 85.433 27.846 85.392 27.772 85.281 27.815 85.199 27.796 85.146 27.455 84.978 27.562 84.792 27.796 84.794 27.492 84.76 27.448 84.715 26.977 84.64 26.941 84.316 26.974 84.27 26.91 84.241 26.823 84.304 26.787 84.431 26.713 84.454 26.554 84.674 26.536 84.788 26.454 84.835 26.476 84.917 26.426 85.126 26.343 85.156 26.328 85.201 26.533 85.219 26.571 85.083 26.711 85.002 26.929 85.017 26.926 84.961 27.013 84.933 27.716 85.433 27.755 85.648 27.714 85.693 27.643 85.684 27.592 85.748 27.62 85.786 27.939 85.794 28.635 86.278 28.642 86.357 29.291 86.942 29.3 87.015 29.346 87.019 29.413 87.107 29.384 87.298 29.411 87.341 29.506 87.322 29.518 87.286 29.792 87.332 29.8 87.202 29.755 87.149 29.905 87.098 29.948 86.859 30.406 86.833 30.789 86.989 30.826 87.063 30.802 87.228 30.884 87.187 31.235 87.359 31.255 87.491 31.358 87.547 31.316 87.581 31.324 87.68 31.408 87.699 31.427 87.618 31.524 87.635 31.599 87.549 31.685 87.576 31.657 87.423 31.59 87.416 31.578 87.116 31.44 86.917 31.427 86.761 31.658 86.585 31.696 86.452 31.678 86.358 31.751 86.208 31.639 86.021 31.54 86.05 31.603 86.293 31.548 86.374 31.436 86.37 31.398 86.208 31.364 86.258 31.241 86.277 31.041 86.495 30.39 86.521 30.76 86.174 30.85 86.283 31.022 86.177 30.977 86.017 30.791 85.96 30.838 85.472 31.004 85.364 31.139 85.385 31.139 85.454 31.225 85.548 31.289 85.564 31.268 85.332 31.139 85.33 31.075 85.225 31.248 84.861 31.511 84.696 31.63 84.775 31.763 84.707 31.766 84.649 31.843 84.559 32.004 84.543 32.125 84.588 32.172 84.653 32.125 84.712 32.207 84.817 32.18 84.914 32.241 84.906 32.256 84.817 32.338 84.769 32.371 84.603 32.325 84.544 32.395 84.473 32.35 84.363 32.383 84.269 32.308 84.203 32.367 84.122 32.344 84.005 32.291 83.964 32.347 83.811 32.506 83.713 32.736 83.703 33.612 82.762 33.653 82.562 33.801 82.406 33.752 82.356 33.744 82.278 35.117 81.324 35.098 81.197 36.323 80.657 36.327 80.612 37.468 80.13 37.448 80.088 37.214 80.049 37.176 80.091 37.217 80.138 37.213 80.213 37.133 80.223 37.067 80.31 36.931 80.338 36.88 80.109 37.186 79.909 37.252 79.71 37.513 79.755 37.513 79.811 37.446 79.851 37.464 79.885 37.649 79.91 37.594 80.031 37.789 80.004 37.876 79.925 38.674 79.812 38.736 79.726 38.941 79.632 39.479 78.68 39.461 78.644 39.958 77.935 39.932 77.532 40.287 77.001 40.359 76.51 40.924 76.198 41.092 75.951 41.219 75.897 41.165 75.813 41.244 75.786 41.218 75.673 41.312 75.532 41.622 75.397 41.925 75.528 41.974 75.625 42.355 75.655 42.149 75.199 42.196 75.127 42.371 75.173 42.403 75.14 42.438 75.036 42.404 74.904 42.512 74.749 42.509 74.201 42.331 73.954 42.202 73.962 42.155 73.925 42.203 73.856 42.198 72.981 42.265 72.917 42.181 72.869 42.231 72.747 42.174 72.65 42.249 72.687 42.285 72.766 42.238 72.838 42.318 72.846 42.355 72.9 42.298 73.037 42.584 73.045 42.565 73.199 42.466 73.319 42.792 73.686 42.7 73.852 43.186 74.174 43.095 74.278 43.036 74.287 43.031 74.336 43.076 74.371 43.344 75.727 43.465 75.806 43.561 75.796 43.745 75.888 43.917 76.21 43.807 76.254 43.788 76.316 43.888 76.335 43.929 76.41 43.885 76.484 43.715 76.583 43.675 76.544 43.703 76.489 43.639 76.459 43.563 76.526 43.283 76.607 43.173 76.722 43.129 76.685 42.641 76.927 42.648 76.995 42.552 77.153 42.574 77.181 42.526 77.235 42.509 77.327 42.621 77.475 42.685 77.507 42.763 77.644 42.941 77.659 42.951 77.793 42.892 77.864 42.866 78.055 43.22 78.56 43.236 78.668 43.328 78.77 43.286 78.818 43.283 78.971 43.461 78.982 43.509 79.03 43.434 79.112 43.368 79.112 43.328 79.007 43.258 78.998 43.202 79.383 43.104 79.462 43.054 79.462 43.016 79.409 43.044 79.345 43.086 79.381 43.128 79.36 43.177 79.216 43.011 79.203 41.248 80.933 41.398 81.053 41.421 81.206 41.241 81.293 41.101 81.47 41.026 81.504 40.976 81.617 40.902 81.612 40.82 81.696 40.978 81.762 41.059 81.931 40.967 82.109 40.921 82.123 40.893 82.24 40.816 82.303 40.789 82.44 40.695 82.494 40.411 82.464 40.352 82.496 40.657 83.022 40.508 84.025 40.442 84.075 40.328 84.059 40.279 84.238 40.137 84.375 40.21 84.504 40.373 84.252 40.49 84.253 40.551 84.3 40.569 84.575 40.5 84.73 40.712 85.421 40.69 85.566 40.609 85.663 40.351 87.12 39.895 87.385 39.783 87.332 39.736 87.237 39.514 87.229 39.398 87.06 37.711 87.032 37.729 87.183 37.516 87.315 37.465 87.671 37.245 87.828 37.424 88.188 37.321 88.298 37.303 88.426 37.249 88.503 37.018 88.625 37.023 88.727 36.982 88.771 36.857 88.821 36.734 88.798 36.736 89.031 36.623 89.151 36.742 89.351 36.881 89.386 36.951 89.467 37.066 89.378 37.305 89.365 37.326 89.275 37.463 89.262 37.478 89.175 37.549 89.16 37.55 89.075 37.671 89 38.32 89.119 38.36 89.088 38.497 89.124 38.794 89.041 38.796 88.911 39.077 88.649 39.652 88.673 39.721 88.641 39.693 88.566 39.742 88.484 40.187 88.252 40.719 88.38 40.785 88.345 41.726 88.674 41.833 88.515 42.216 88.343 42.111 88.265 42.15 88.154 42.018 87.952 42.241 87.908 42.206 87.655 42.388 87.216 42.481 87.139 42.43 87.102 42.833 86.332 42.794 86.287 43.092 85.358 42.957 85.313 42.902 85.242 43.156 84.232 43.685 83.76 43.785 83.324 43.678 83.246 43.708 83.069 43.833 82.976 44.068 82.494 44.189 82.459 44.27 82.506 44.294 82.605 44.454 82.805 44.505 82.822 44.62 83.019 44.624 83.146 44.515 83.229 44.517 83.273 44.799 83.296 45.025 83.714 44.995 83.853 45.241 84.531 45.707 84.891 45.806 85.151 46.11 85.401 46.179 85.388 46.316 85.588 46.253 85.594 46.226 85.675 46.351 85.758 46.398 85.848 46.492 85.858 46.834 86.122 46.959 86.403 46.929 86.521 46.85 86.555 46.729 86.525 46.694 86.453 46.733 86.292 46.682 86.247 46.621 86.25 46.512 86.359 46.579 86.452 46.498 86.799 46.746 87.858 46.451 88.381 46.456 89.108 46.29 89.322 46.284 89.76 44.808 90.801 44.641 90.775 44.217 91.262 44.217 91.402 44.813 91.647 46.774 91.515 47.263 91.223 47.236 91.13 47.335 91.021 47.396 91.007 47.435 90.919 47.745 90.886 47.812 90.832 47.801 90.791 47.899 90.739 48.956 91.016 48.495 90.829 48.498 90.794 48.568 90.779 48.926 90.957 49.033 90.955 49.185 91.057 49.277 91.006 49.377 91.005 50.698 91.88 50.758 91.879 51.36 92.374 51.462 92.382 51.769 92.677 51.94 92.723 52.038 93.042 52.069 93.043 52.057 92.934 52.107 92.897 52.209 92.992 52.134 92.998 52.105 93.066 52.182 93.113 52.282 93.054 53.031 93.78 53.044 93.877 53.094 93.891 53.106 93.963 53.233 94.046 53.202 94.108 53.259 94.254 53.382 94.272 53.482 94.422 53.44 94.525 53.956 95.324 53.958 95.368 53.922 95.361 52.916 93.919 52.782 93.866 52.556 93.604 52.538 93.522 52.411 93.46 52.417 93.427 50.472 91.803 50.468 91.747 50.388 91.749 49.997 91.444 49.882 91.419 49.85 91.364 49.565 91.227 49.552 91.161 49.501 91.132 49.424 91.147 49.265 91.057 49.185 91.081 49.003 91.027 54.476 96.753 54.736 98.59 53.846 99.277 53.688 99.304 53.662 99.406 54.077 99.786 54.095 100.098 54.271 100.165 54.41 100.476 54.352 100.616 54.297 100.645 54.138 100.628 54.091 100.586 54.07 100.746 54.711 101.613 54.826 101.661 55.339 102.299 55.388 102.305 55.613 102.506 55.628 102.567 55.724 102.59 55.754 102.505 55.839 102.494 56.372 102.848 56.418 102.996 56.354 103.068 56.279 103.043 57.879 105.033 57.968 105.059 58.007 105.148 58.06 105.145 59.024 105.682 59.099 105.817 59.168 105.782 59.275 105.805 59.361 105.884 59.483 105.886 59.599 106.004 60.236 105.979 60.323 105.909 61.797 106.07 63.931 107.485 64.007 107.662 63.848 107.784 63.801 107.888 63.857 107.949 64.104 108.015 64.056 107.856 64.306 107.795 64.738 107.977 64.791 108.071 64.744 108.121 64.875 108.23 64.954 108.194 64.973 108.073 65.054 107.978 65.29 108 65.372 108.073 65.515 107.991 65.345 107.738 65.272 107.734 65.227 107.512 66.046 107.156 69.053 108.001 69.098 107.885 69.878 107.742 70.457 108.059 70.476 108.009 70.55 107.997 72.546 109.092 72.565 109.147 73.218 109.387 73.296 109.347 75.152 110.254 75.418 110.132 75.961 110.252 76.01 110.314 76.163 110.329 76.646 110.767 76.919 110.762 77.289 110.402 77.592 110.307 77.62 110.144 77.686 110.055 78.625 109.785 78.659 109.7 78.79 109.666 78.825 109.561 78.964 109.484 78.948 109.442 79.065 109.366 79.138 109.192 79.522 108.929 79.462 108.883 79.466 108.839 79.814 108.487 80.228 108.443 80.399 108.237 80.691 108.206 80.677 108.143 81.105 108.013 81.131 107.929 81.555 107.674 81.56 107.592 82.155 107.327 82.596 107.378 82.558 107.336 82.623 107.287 83.272 107.386 83.33 107.279 83.56 107.27 83.586 107.212 83.401 107.234 83.338 107.167 83.761 106.802 83.812 106.844 83.754 106.942 83.797 106.95 83.909 106.513 83.74 106.355 83.379 106.283 82.92 106.572 82.44 106.623 82.231 106.518 82.139 106.384 82.089 106.566 81.999 106.563 81.89 106.495 81.806 106.516 81.727 106.465 81.748 106.328 81.881 106.219 81.929 106.093 82.259 106.185 82.343 106.096 82.452 106.096 82.636 106.184 82.707 105.93 83.215 105.641 83.514 105.634 84.356 105.197 84.477 104.888 84.81 104.797 84.859 104.848 85.033 104.87 85.077 104.837 85.01 104.811 84.963 104.732 84.978 104.687 85.191 104.696 85.409 104.81 85.65 105.412 85.64 105.461 85.768 105.604 85.809 105.619 85.92 105.567 86.175 105.785 86.33 106.324 86.295 106.493 86.17 106.611 86.113 106.616 85.854 106.912 85.782 106.913 85.73 107.17 85.487 107.413 85.554 107.462 85.517 107.535 84.732 107.836 84.189 107.77 83.999 107.573 83.493 107.456 84.908 108.497 84.908 108.612 85.08 108.571 85.098 108.613 85.211 108.615 85.281 108.568 85.781 108.55 85.744 108.457 85.891 108.215 86.05 108.183 86.049 108.144 86.363 107.976 86.989 108.086 86.949 108.025 86.882 108.009 86.851 107.798 86.889 107.714 86.724 107.591 86.772 107.501 86.74 107.409 86.799 107.384 86.824 107.456 86.918 107.468 86.952 107.381 86.903 107.323 87.081 107.113 87.073 107.012 87.117 106.954 87.271 106.971 87.313 106.93 87.305 106.883 87.454 106.932 87.426 106.997 87.513 107.042 87.612 107.01 87.65 106.919 88.052 107.004 88.128 106.932 88.292 106.949 88.367 107.004 88.522 107.035 88.568 107.284 88.707 107.418 88.665 107.665 88.797 107.652 88.892 107.746 88.686 108.118 88.542 108.128 88.454 108.079 88.112 108.086 88.185 108.265 88.148 108.3 88.142 108.415 88.087 108.46 88.176 108.515 88.185 108.584 88.106 108.707 87.766 108.76 87.817 108.85 88.456 108.952 89.221 109.699 89.512 109.692 90.012 109.44 90.488 109.514 90.654 109.791 90.632 109.807 90.433 109.733 90.369 109.656 90.388 109.6 90.198 109.566 90.164 109.526 89.98 109.51 91.079 110.896 91.048 110.977 91.109 111.083 91.212 111.005 91.4 111.008 91.611 110.885 91.557 110.74 91.645 110.576 91.962 110.502 92.617 110.799 92.626 110.76 92.544 110.729 92.481 110.643 92.589 110.531 92.6 110.675 92.698 110.758 92.68 110.847 93.209 111.509 93.179 111.569 93.082 111.602 93.224 111.612 93.636 111.992 93.623 112.083 93.507 112.113 93.656 112.382 93.887 112.439 94.109 112.382 94.227 112.167 94.131 112.131 94.168 112.022 94.235 112.012 94.309 111.954 94.461 112.025 94.474 111.979 94.442 111.891 94.414 111.905 94.343 111.847 94.424 111.781 94.342 111.745 94.208 111.754 94.172 111.72 94.176 111.678 94.248 111.66 94.258 111.62 94.196 111.5 94.501 111.017 94.387 110.877 94.432 110.684 94.398 110.635 94.404 110.512 94.455 110.424 94.369 110.313 94.195 110.313 94.195 110.386 94.107 110.453 94.069 110.736 93.6 110.912 93.526 111.046 93.377 111.065 93.324 111.035 93.346 110.888 93.305 110.817 93.212 110.776 93.163 110.587 93.191 110.464 92.966 110.475 92.706 110.062 92.723 109.982 92.858 109.97 92.946 109.856 92.966 109.763 93.037 109.728 93.046 109.81 93.598 109.78 93.626 109.683 93.693 109.684 93.853 109.774 93.893 109.958 94.945 109.701 95.027 109.736 95.035 109.802 95.076 109.821 95.509 109.607 95.501 109.496 95.594 109.618 95.557 109.668 95.745 109.669 95.809 109.619 95.837 109.634 95.866 109.536 96.024 109.618 96.256 109.588 96.293 109.503 96.274 109.439 96.484 109.295 96.614 109.325 96.662 109.273 96.866 109.26 96.984 109.319 96.896 109.355 96.875 109.438 103.384 104.985 102.814 105.036 102.774 104.975 102.719 105.072 102.571 105.036 102.453 105.139 102.502 105.19 102.456 105.232 102.179 105.271 102.143 105.347 102.203 105.4 102.08 105.435 101.996 105.413 101.919 105.474 101.837 105.368 101.474 105.538 101.474 105.604 100.972 105.961 100.768 105.983 100.702 105.958 100.562 106.075 100.482 106.05 100.346 106.073 100.311 105.971 100.389 105.834 100.511 105.77 100.604 105.808 100.679 105.777 100.769 105.801 101.164 105.638 101.158 105.585 101.813 105.245 101.862 105.158 101.923 105.145 101.951 105.05 101.702 105.017 101.658 104.944 101.508 104.891 101.485 104.84 101.506 104.727 101.601 104.818 101.685 104.803 101.734 104.735 101.879 104.678 102.132 104.77 102.321 104.723 102.472 104.78 102.487 104.943 102.774 104.911 102.857 104.972 102.94 104.912 103.29 104.905 103.434 104.975 107.881 104.469 107.933 104.52 108.048 104.417 110.408 104.304 110.279 104.246 110.301 104.185 110.224 104.163 110.255 104.092 110.361 104.092 110.39 104.144 110.374 104.209 110.424 104.305 111.128 104.356 111.146 104.426 111.2 104.458 111.292 104.368 112.468 104.29 112.519 104.239 112.53 104.16 112.651 104.13 112.679 104.076 113.125 103.994 113.16 103.915 113.594 103.76 113.963 103.184 114.147 103.079 114.103 102.911 114.021 102.879 113.905 102.731 113.721 102.696 113.782 102.638 113.9 102.663 114.014 102.6 114.055 102.661 113.976 102.689 113.949 102.743 114.018 102.79 114.063 102.746 114.193 102.754 114.228 102.658 114.347 102.644 114.363 102.689 114.269 102.798 114.357 102.842 114.194 102.918 114.211 102.988 115.401 102.674 115.402 102.47 115.367 102.435 115.406 102.382 115.383 102.289 115.281 102.169 115.242 101.89 115.372 101.591 115.359 101.502 115.256 101.422 115.206 101.298 115.459 101.083 115.854 101.223 115.598 100.678 115.565 100.666 115.599 100.607 115.577 100.495 115.365 100.405 115.366 100.346 115.177 100.243 115.139 100.245 115.117 100.309 115.016 100.315 114.91 100.225 114.865 100.268 114.783 100.215 114.813 100.108 114.998 100.062 115.077 99.93 115.215 99.962 115.182 99.883 115.207 99.76 115.102 99.637 115.182 99.339 115.117 99.306 115.027 99.338 114.961 99.158 114.99 99.084 115.076 99.016 115.163 99.065 115.122 98.914 115.214 98.76 115.149 98.717 115.213 98.461 115.369 98.343 115.493 98.006 115.421 97.985 115.448 97.858 115.526 97.803 115.806 97.183 115.878 97.143 115.908 96.996 115.951 96.97 115.873 96.899 115.913 96.684 115.867 96.584 115.907 96.471 115.975 96.414 115.976 96.319 116.036 96.223 116.033 96.191 115.937 96.153 115.94 96.045 116.374 95.481 116.329 95.388 116.429 95.24 116.396 94.961 116.334 94.908 116.356 94.68 116.294 94.606 116.385 94.228 116.344 94.185 116.521 93.613 116.468 93.603 116.51 93.254 116.456 93.095 116.516 92.871 116.622 92.813 116.609 92.732 116.664 92.658 116.728 92.627 116.891 92.643 116.918 92.56 116.891 92.51 116.96 92.393 116.934 92.284 116.809 92.213 116.839 92.121 116.74 92.035 116.717 91.963 116.532 91.854 116.486 91.912 116.454 91.9 116.446 91.841 116.563 91.793 116.646 91.875 116.786 91.87 116.815 91.907 116.94 91.876 117.135 91.992 117.207 91.979 117.235 91.873 117.325 91.809 117.382 91.663 117.321 91.617 117.342 91.538 117.424 91.474 117.489 91.481 117.481 91.336 117.598 91.278 117.714 91.097 117.798 91.088 117.862 91.034 117.865 90.921 117.984 90.839 117.948 90.701 117.881 90.643 117.897 90.439 118.049 90.212 118.204 90.121 118.228 90.006 118.411 89.867 118.485 89.864 118.395 89.739 118.385 89.661 118.441 89.605 118.369 89.53 118.416 89.386 118.644 89.221 118.705 89.216 118.731 89.163 118.81 89.15 118.726 89.105 118.779 88.959 118.976 88.818 119.098 88.801 119.092 88.767 119.637 88.649 119.712 88.753 119.707 88.86 119.888 88.701 119.966 88.739 120.089 88.649 120.127 88.41 120.065 88.404 120.014 88.47 119.946 88.48 119.745 88.398 119.719 88.085 119.587 88.044 119.574 87.869 119.663 87.762 119.875 87.701 119.881 87.654 119.941 87.626 120.135 87.634 120.204 87.706 120.142 87.759 120.258 87.879 120.191 87.991 120.179 88.121 120.33 88.15 120.337 88.21 120.375 88.225 120.539 88.107 120.592 87.961 120.532 87.906 120.63 87.736 120.544 87.679 120.436 87.746 120.247 87.593 120.209 87.267 120.15 87.216 120.134 87.128 120.162 87.051 120.088 87.111 119.996 87.12 120.086 87.156 120.097 87.22 120.053 87.228 119.928 87.157 119.945 87.097 119.809 87.013 119.822 86.941 119.461 86.802 119.156 86.846 119.478 86.773 119.759 86.875 119.872 86.864 119.973 86.803 120.034 86.83 120.227 86.416 120.361 86.318 120.482 86.327 120.544 86.181 120.532 86.098 120.698 85.797 120.664 85.639 120.721 85.558 120.672 85.523 120.705 85.46 120.67 85.358 120.863 85.252 120.947 85.254 120.791 85.202 120.745 85.002 120.857 84.731 120.962 84.639 121.066 84.627 121.02 84.522 120.938 84.478 120.993 84.202 120.948 84.158 120.966 84.054 121.117 83.88 121.056 83.83 121.081 83.612 122.552 82.213 122.55 82.125 122.434 82.167 122.161 82.135 122.116 82.022 122.218 82.029 122.202 82.101 122.462 82.105 122.473 81.972 122.518 81.916 122.614 81.874 122.721 81.919 122.873 81.891 122.92 81.746 122.877 81.679 122.613 81.731 122.524 81.672 122.373 81.758 122.467 81.849 122.373 81.887 122.208 81.701 122.119 81.704 122.035 81.641 122.141 81.624 122.158 81.672 122.369 81.689 122.428 81.639 122.508 81.391 122.569 81.36 122.599 81.468 122.639 81.478 122.661 81.351 122.829 81.45 122.813 81.574 122.902 81.538 122.967 81.66 123.027 81.675 123.124 81.474 123.075 81.388 123.112 81.324 123.084 81.198 123.157 81.155 123.177 81.034 123.239 81.018 123.223 80.684 123.17 80.792 123.12 80.784 123.136 80.897 122.93 80.923 122.789 80.811 122.727 80.835 122.62 80.766 122.524 80.805 122.448 80.707 122.508 80.739 122.691 80.701 122.754 80.759 122.825 80.723 123.052 80.741 123.144 80.642 123.048 80.633 123.017 80.535 122.913 80.551 122.936 80.424 122.955 80.49 123.032 80.484 123.101 80.581 123.178 80.538 123.123 80.47 123.227 80.47 123.273 80.523 123.249 80.593 123.332 80.616 123.358 80.521 123.272 80.472 123.256 80.406 123.299 80.303 123.351 80.273 123.322 80.181 123.437 80.13 123.347 80.072 123.33 79.987 123.413 79.856 123.391 79.81 123.477 79.659 123.475 79.595 123.586 79.424 123.522 79.351 123.543 79.304 123.486 79.257 123.533 79.165 123.474 79.157 123.428 79.286 123.501 79.403 123.431 79.368 123.421 79.463 123.362 79.495 123.347 79.639 123.194 79.502 123.337 79.369 123.359 79.297 123.32 79.287 123.398 79.158 123.238 79.117 123.105 79.216 123.038 79.207 122.957 79.289 122.851 79.278 122.851 79.334 122.708 79.401 122.724 79.359 122.809 79.327 122.818 79.244 122.935 79.239 123.014 79.148 122.923 79.049 122.907 78.955 122.739 78.969 122.739 78.928 122.652 78.895 122.594 78.765 122.513 78.88 122.428 78.899 122.448 78.969 122.38 78.926 122.397 78.852 122.46 78.819 122.452 78.681 122.404 78.65 122.49 78.475 122.412 78.506 122.423 78.441 122.522 78.46 122.454 78.602 122.521 78.767 122.555 78.694 122.624 78.689 122.742 78.883 122.761 78.806 123.057 78.875 123.01 79.013 123.089 79.099 123.171 78.984 123.37 79.016 123.407 78.866 123.527 78.818 123.549 78.773 123.636 78.77 123.522 78.68 123.55 78.586 123.497 78.578 123.421 78.44 123.457 78.384 123.506 78.383 123.542 78.266 123.57 78.259 123.592 78.328 123.731 78.339 123.66 78.429 123.689 78.491 123.656 78.523 123.549 78.521 123.655 78.581 123.658 78.674 123.621 78.711 123.691 78.75 123.711 78.806 123.576 78.823 123.56 78.895 123.609 78.937 123.729 78.856 123.826 78.87 123.845 78.826 123.959 78.846 124.03 78.819 124.043 78.741 124.099 78.714 124.103 78.635 124.208 78.593 124.146 78.489 124.171 78.421 124.244 78.381 124.195 78.335 124.211 78.275 124.437 78.069 124.43 77.982 124.536 77.848 124.55 77.747 124.494 77.697 124.379 77.865 124.268 77.833 124.168 77.731 124.171 77.667 124.261 77.622 124.199 77.508 124.28 77.46 124.328 77.477 124.387 77.369 124.455 77.361 124.501 77.258 124.642 77.241 124.627 77.129 124.576 77.064 124.591 77.008 124.697 77 124.737 77.111 124.873 77.097 124.852 77.039 124.916 76.919 124.865 76.873 124.894 76.849 124.993 76.856 125.044 76.919 124.913 77.085 124.904 77.155 124.848 77.154 124.748 77.249 124.809 77.34 124.597 77.622 124.549 77.64 124.552 77.728 124.997 77.363 124.916 77.302 124.942 77.127 125.299 76.803 125.347 76.67 125.317 76.589 125.391 76.501 125.411 76.357 125.518 76.218 125.367 76.194 125.334 76.1 125.111 76.647 125.062 76.579 125.075 76.468 125.036 76.432 124.932 76.492 124.876 76.469 124.851 76.552 124.962 76.604 124.936 76.728 124.851 76.634 124.707 76.635 124.669 76.562 124.694 76.512 124.646 76.471 124.766 76.37 124.922 76.385 124.924 76.286 124.83 76.232 124.762 76.303 124.616 76.307 124.592 76.163 124.789 76.111 124.854 76.046 124.961 76.126 125.091 76.107 125.022 76.017 125.092 75.86 125.18 75.808 125.108 75.738 125.135 75.656 125.184 75.673 125.222 75.618 125.192 75.496 125.22 75.455 125.391 75.538 125.329 75.845 125.471 75.893 125.437 75.988 125.371 76.01 125.4 76.13 125.484 76.148 125.542 75.991 125.888 75.748 125.917 75.673 125.891 75.553 126.336 75.187 126.232 75.216 126.177 75.16 126.238 75.024 126.19 74.904 126.223 74.647 126.346 74.633 126.388 74.686 126.362 74.772 126.265 74.826 126.289 74.959 126.201 75.145 126.242 75.198 126.288 75.174 126.27 75.102 126.349 74.986 127.975 74.387 128.184 74.441 128.254 74.393 128.23 74.329 128.286 74.283 128.477 74.271 128.644 74.13 128.643 73.996 128.586 74.003 128.499 73.938 128.402 73.999 128.143 73.987 128.144 74.042 128.104 74.055 127.996 74.007 127.906 73.872 127.845 74.026 127.864 74.148 127.656 74.165 127.555 74.262 127.487 74.25 127.246 74.361 127.78 74.097 127.664 74.005 127.196 74.078 127.198 73.98 127.344 73.966 127.404 73.904 127.398 73.832 127.252 73.817 127.247 73.767 127.332 73.678 127.278 73.513 127.304 73.453 127.37 73.643 127.708 73.694 127.779 73.764 127.81 73.733 127.795 73.647 127.845 73.582 127.899 73.589 127.898 73.695 127.852 73.75 127.873 73.801 127.947 73.821 128.221 73.772 128.212 73.715 128.262 73.642 128.473 73.781 128.593 73.767 128.669 73.883 128.662 73.651 130.769 72.346 130.753 72.286 130.638 72.252 130.625 72.201 130.832 71.69 130.802 71.653 130.741 71.658 130.667 71.555 130.769 71.199 130.923 71.055 130.948 70.974 130.789 70.895 130.741 70.783 130.596 70.73 130.568 70.751 130.592 70.839 130.563 70.993 130.619 71.047 130.721 71.047 130.673 71.134 130.592 71.156 130.668 71.279 130.626 71.515 130.578 71.566 130.687 71.672 130.523 71.741 130.445 71.693 130.474 71.508 130.194 71.319 130.215 71.255 130.343 71.215 130.385 71.107 130.306 71.08 130.182 70.959 130.134 71.008 130.046 70.956 130.008 70.868 129.946 70.854 129.877 70.884 129.93 70.986 129.844 71.078 129.889 70.985 129.834 70.896 129.897 70.821 130.041 70.851 130.127 70.916 130.275 70.88 130.33 70.692 130.477 70.784 130.587 70.72 130.555 70.554 130.655 70.282 130.813 70.131 130.814 70.034 130.774 69.976 132.008 68.777 131.946 68.686 131.946 68.562 132.347 68.085 132.36 68.038 132.287 67.952 132.602 67.556 132.535 67.519 132.598 67.134 133.161 66.529 133.086 66.298 132.999 66.25 133.385 65.576 133.317 65.542 133.342 65.203 133.291 65.187 133.295 65.063 133.422 64.849 133.382 64.761 133.909 63.991 133.844 64.022 133.768 63.955 133.754 63.705 134.056 63.24 133.974 62.972 133.922 62.955 133.878 63.026 133.656 62.937 133.539 62.194 133.467 62.145 133.601 61.595 133.642 61.599 133.713 60.72 133.991 60.293 133.961 60.256 134.364 59.563 134.358 59.429 134.393 59.364 134.352 59.274 134.762 58.398 134.718 58.328 134.703 57.94 135.155 57.212 135.166 57.068 135.12 57.017 135.212 56.707 135.283 56.654 135.244 56.513 135.337 56.375 135.279 56.251 135.503 55.8 135.445 55.635 135.567 55.38 135.512 55.273 135.699 54.744 135.676 54.505 135.743 54.344 135.713 54.278 135.6 54.313 135.476 54.209 135.406 54.272 135.505 54.436 135.609 54.458 135.62 54.55 135.487 54.71 135.413 54.726 135.428 54.789 135.384 54.859 135.23 54.803 135.175 54.722 135.179 54.681 135.292 54.607 135.402 54.61 135.437 54.567 135.446 54.419 135.369 54.286 135.473 54.144 135.278 53.989 135.567 54.065 135.648 54.23 135.703 54.241 135.759 54.092 135.737 54.044 135.771 53.914 135.65 53.858 135.583 53.749 135.602 53.457 136.255 52.547 136.219 52.502 136.23 52.422 136.14 52.397 136.138 52.219 137.032 50.97 136.904 51.011 136.72 50.946 136.798 50.914 137.048 50.957 137.166 50.667 137.159 50.565 137.091 50.501 137.237 49.952 137.198 49.911 137.355 49.541 137.35 49.517 137.233 49.571 137.065 49.471 136.848 48.443 137.006 47.897 136.968 47.846 137.031 47.272 136.941 47.177 136.935 46.932 136.822 46.71 136.694 46.722 136.578 46.666 136.446 46.496 136.391 46.484 136.285 46.266 136.234 46.24 136.097 45.335 136.06 45.35 136.089 45.542 136.068 45.567 135.987 45.44 135.972 45.164 135.904 45.04 135.938 44.907 135.904 44.842 135.902 44.634 135.969 44.559 135.995 44.452 135.961 44.416 135.789 44.44 135.692 44.365 135.637 44.234 135.673 44.128 135.63 44.06 135.663 43.994 135.637 43.907 135.497 43.899 135.442 43.994 135.32 44.001 135.304 43.958 135.45 43.937 135.413 43.818 135.443 43.771 135.375 43.662 135.41 43.561 135.392 43.431 135.328 43.34 135.395 43.231 135.374 43.123 135.264 43.111 135.193 42.967 135.236 42.84 135.092 42.833 135.083 42.624 134.682 42.567 134.65 42.409 134.582 42.373 134.539 42.277 134.549 42.137 134.456 42.146 134.337 42.264 134.354 42.099 134.479 41.995 134.443 41.904 134.007 41.734 133.904 41.423 133.93 41.346 134.095 41.261 134.15 41.306 134.227 41.122 134.209 40.873 134.031 40.955 133.806 40.889 133.742 40.901 133.698 40.816 133.923 40.384 134.385 40.172 134.302 40.113 134.177 40.091 134.137 39.935 133.956 39.779 133.92 39.522 133.798 39.404 133.922 39.369 133.909 39.237 133.974 39.151 134.195 39.045 134.267 38.573 134.422 38.549 134.339 38.381 134.352 37.814 134.252 37.828 134.164 37.75 134.132 37.626 134.102 37.665 134.026 37.599 133.94 37.582 134.125 37.574 134.135 37.021 134.075 36.896 134.235 36.017 134.16 36.007 134.065 36.057 133.989 36.025 133.888 35.588 134.674 33.337 134.608 33.311 134.579 33.413 134.494 33.441 134.221 33.329 134.037 33.083 133.94 32.606 133.876 32.596 133.844 32.609 133.937 32.655 133.944 32.703 133.85 32.707 133.804 32.912 133.869 32.973 133.869 33.144 133.685 33.186 133.686 33.275 133.796 33.313 133.803 33.346 133.717 33.43 133.773 33.449 133.701 33.586 133.568 33.615 133.54 33.458 133.695 33.356 133.57 33.273 133.586 33.128 133.675 33.125 133.713 33.007 133.601 32.912 133.612 32.871 133.676 32.855 133.643 32.72 133.417 32.534 133.373 32.596 133.203 32.613 133.148 32.525 133.305 32.552 133.415 32.501 133.429 32.356 133.261 32.289 133.14 32.318 133.146 32.213 132.997 32.174 133.044 31.985 132.792 31.841 132.812 31.788 132.953 31.802 132.962 31.775 132.91 31.697 132.926 31.618 132.867 31.444 132.781 31.427 132.816 31.215 132.762 31.179 132.883 30.957 132.971 30.948 132.943 30.758 133.082 30.564 133.2 30.506 133.257 30.343 133.142 30.339 133.059 30.456 132.826 30.526 132.609 30.744 132.213 30.786 132.336 30.663 132.491 30.693 132.627 30.653 132.767 30.372 132.808 30.404 132.97 30.322 133.071 30.331 132.982 30.027 133.029 29.934 132.925 29.57 132.977 29.518 132.953 29.446 132.546 29.417 132.483 29.315 132.491 29.236 132.405 29.209 132.352 29.235 132.373 29.328 131.508 29.208 131.215 28.843 130.87 28.849 130.82 28.881 130.811 28.979 130.767 28.893 130.856 28.795 131 28.753 131.23 28.79 131.321 28.659 130.478 27.666 130.391 26.791 130.327 26.722 130.327 26.647 130.004 26.305 129.877 26.303 129.795 26.36 129.769 26.354 129.752 26.293 129.792 26.178 128.489 25.574 127.905 24.861 127.907 24.933 127.697 24.947 127.559 24.839 127.646 24.821 127.788 24.912 127.86 24.836 127.05 23.022 126.964 23.005 126.846 22.654 126.825 22.81 126.75 22.87 126.733 22.954 126.671 22.988 126.723 22.833 126.783 22.786 126.515 22.758 126.247 22.452 126.115 21.963 126.141 21.884 125.984 21.766 125.96 21.803 125.998 21.951 125.881 22.057 125.922 22.129 125.824 22.281 125.854 22.172 125.789 22.009 125.911 21.893 125.284 21.604 125.193 21.634 125.148 21.798 125.337 21.831 125.544 22.07 125.534 22.175 125.634 22.291 125.599 22.42 125.597 22.3 125.383 22.201 125.338 22.093 125.256 22.089 125.192 22.013 125.16 22.047 125.026 22.057 124.972 21.973 124.92 21.98 124.863 22.178 124.907 22.268 124.908 22.429 124.679 22.292 124.634 22.18 124.696 22.134 124.654 22.07 124.468 22.006 124.403 22.049 124.412 22.13 124.366 22.144 124.268 22.072 124.271 21.981 124.188 21.918 124.195 22.275 124.081 22.042 124.14 21.906 124.087 21.675 123.54 21.195 123.474 21.009 123.306 21.271 123.319 21.077 123.283 21.014 123.326 20.918 123.196 20.885 123.138 20.768 122.948 20.761 122.895 20.7 122.827 20.744 122.79 20.69 122.694 20.718 122.562 20.645 122.397 20.384 122.485 20.256 122.322 19.997 122.228 19.981 122.336 19.953 122.291 19.875 122.128 19.832 122.268 19.802 121.811 19.54 121.694 19.195 121.378 19.104 121.343 19.393 121.12 19.494 121.131 19.869 121.072 19.775 121.085 19.492 120.887 19.452 120.833 19.304 120.535 19.137 120.328 19.143 120.37 19.1 120.795 19.155 120.805 19.077 120.279 18.823 120.145 18.826 119.984 18.752 119.752 18.797 119.914 18.679 120.627 18.806 120.701 18.775 120.777 18.654 120.297 17.846 120.302 17.702 120.161 17.67 120.171 17.6 120.303 17.608 120.493 17.439 120.523 17.291 120.461 17.098 120.354 17.125 120.297 17.055 120.299 16.893 120.339 16.858 120.298 16.82 120.306 16.742 120.183 16.748 120.123 16.626 120.043 16.573 120.206 15.551 120.17 15.517 120.152 15.677 120.11 15.732 120.104 15.581 120.171 15.445 120.025 15.461 120.025 15.409 119.95 15.34 120.203 15.283 120.252 15.312 120.249 15.396 120.284 15.432 120.336 15.367 120.26 15.31 120.327 14.707 120.36 14.665 120.4 14.677 120.45 14.171 120.486 14.152 120.464 14.11 120.527 13.874 120.371 13.807 120.358 13.65 120.259 13.668 120.203 13.596 120.264 13.091 120.22 13.011 120.268 12.988 120.206 12.928 120.073 12.918 120.057 12.952 120.124 13.061 120.088 13.194 119.994 13.298 119.981 13.54 119.944 13.535 119.851 13.372 119.896 13.251 119.886 13.15 119.84 13.093 119.687 13.093 119.539 12.907 119.527 12.825 119.634 12.688 119.713 12.737 119.722 12.808 119.892 12.876 119.922 12.682 119.982 12.613 120.026 12.637 120.083 12.585 120.04 12.445 119.836 12.435 119.696 12.356 119.659 12.036 119.54 11.852 119.494 11.886 119.505 11.955 119.441 11.987 119.556 12.172 119.503 12.465 119.439 12.381 119.478 12.257 119.393 12.046 119.33 11.994 119.412 11.857 119.293 11.74 119.249 11.774 118.91 11.674 118.838 11.836 118.774 11.885 118.796 12.411 118.737 12.472 118.876 12.634 118.853 12.676 118.952 12.8 119.16 12.846 119.312 12.985 119.444 12.982 119.273 13.116 119.158 12.904 118.982 12.862 118.937 12.882 119.084 13.157 119.086 13.249 119.313 13.704 118.938 13.175 118.551 12.999 118.489 12.9 118.216 12.906 118.085 12.765 117.968 12.733 117.932 12.638 117.532 12.414 117.474 12.333 117.347 12.3 117.326 12.186 116.845 12.128 116.776 11.988 116.61 11.94 116.596 11.864 116.695 11.725 116.486 11.604 116.451 11.333 116.142 11.081 116.027 10.686 115.951 10.702 115.898 10.589 115.795 10.539 115.719 10.63 115.549 10.638 115.464 10.756 115.327 10.82 115.13 11.36 115.048 11.43 115.038 11.545 115.078 11.604 115.033 11.701 115.374 11.752 115.139 11.765 115.122 11.857 115.027 11.824 115.021 11.848 115.722 13.604 115.629 13.562 115.566 13.423 115.491 13.382 115.49 13.291 115.32 13.008 115.107 12.901 115.076 12.825 114.873 12.729 114.411 12.066 114.363 12.094 114.273 12.332 113.654 12.779 113.552 12.794 113.452 12.906 113.458 12.762 113.664 12.658 113.765 12.516 113.692 12.355 113.709 12.236 113.795 12.137 113.698 11.858 113.633 11.847 113.564 11.908 113.495 11.903 113.483 11.789 113.317 11.552 112.902 11.566 112.939 11.513 113.165 11.404 112.868 10.618 112.806 10.58 112.809 10.516 112.649 10.227 112.686 9.939 112.451 9.636 112.458 9.528 112.343 9.343 112.377 8.809 112.319 8.809 112.326 8.704 112.194 8.651 112.141 8.56 112.186 8.24 112.297 8.155 112.425 8.236 112.387 8.045 112.295 8.047 112.281 7.849 112.219 7.785 112.179 7.619 112.268 7.397 112.387 7.316 112.413 7.21 112.464 7.204 112.455 6.971 112.356 6.99 112.23 7.241 112.174 7.103 112.083 7.062 111.956 7.069 111.933 7.016 111.817 6.976 111.923 6.739 111.718 6.805 111.586 6.628 111.557 6.7 111.359 6.784 111.331 6.848 111.269 6.704 111.194 6.652 111.283 6.56 111.336 6.338 111.561 6.376 111.578 6.343 111.536 6.243 111.32 6.276 111.207 6.186 111.27 6.115 111.361 6.181 111.452 6.138 111.4 5.97 111.439 5.909 111.332 5.826 111.358 5.793 111.31 5.69 111.34 5.422 111.311 5.412 111.256 5.464 111.193 5.448 111.137 5.401 111.084 5.251 110.739 5.56 110.625 5.481 110.64 5.429 110.745 5.391 110.835 5.247 110.802 5.16 110.739 5.153 110.749 4.74 110.88 4.571 110.93 4.209 110.908 4.161 110.797 4.231 110.67 3.989 110.606 3.978 110.582 4.014 110.521 3.952 110.498 3.787 110.357 3.756 110.304 3.828 110.055 3.638 109.851 3.658 109.8 3.721 109.636 3.736 109.673 3.579 109.735 3.527 109.629 3.391 109.72 3.326 109.826 3.369 109.914 3.343 109.827 3.204 109.725 3.172 109.655 3.259 109.583 3.26 109.521 3.197 109.524 3.14 109.345 3.172 109.282 3.047 109.182 3.116 108.893 3.053 108.866 2.931 108.611 3.042 108.649 2.866 108.585 2.733 108.336 2.65 108.463 2.599 108.505 2.528 108.597 2.533 108.53 2.446 108.42 2.415 108.369 2.442 108.237 2.362 108.22 2.18 107.945 2.083 107.95 1.923 107.792 1.807 107.931 1.657 107.916 1.591 107.729 1.604 107.56 1.235 107.845 0.76 107.838 0.681 107.74 0.577 107.777 0.528 107.977 0.675 108.072 0.621 108.135 0.657 108.244 0.568 108.256 0.468 108.371 0.471 108.488 0.602 108.482 0.765 108.51 0.797 108.621 0.801 108.691 0.865 108.696 0.958 108.854 0.923 108.924 1.049 108.989 0.992 109.136 0.998 109.068 0.865 108.859 0.726 108.895 0.648 109.023 0.652 108.947 0.573 108.823 0.612 108.636 0.381 108.583 0.367 108.564 0.264 108.594 0.157 108.537 0.091 108.568 0 0.25 0 0.25 66.833"/><polygon class="cls-2" points="136.165 44.219 136.144 44.24 136.167 44.348 135.969 44.68 135.981 44.863 136.065 44.961 136.039 45.246 136.072 45.315 136.104 45.31 136.198 44.277 136.165 44.219"/><polygon class="cls-2" points="136.078 44.253 136.119 44.191 135.963 44.213 135.945 44.232 135.99 44.273 136.078 44.253"/><polygon class="cls-2" points="135.741 44.31 135.753 44.4 136.028 44.368 135.823 44.328 135.8 44.289 135.738 44.261 135.706 44.182 135.675 44.192 135.673 44.247 135.741 44.31"/><polygon class="cls-2" points="135.818 44.165 135.776 44.238 135.875 44.318 135.969 44.273 135.88 44.158 135.818 44.165"/><polygon class="cls-2" points="135.941 44.137 135.828 44.108 135.804 44.031 135.736 44.026 135.741 44.071 135.793 44.086 135.819 44.144 135.891 44.152 135.924 44.202 135.947 44.215 136.023 44.191 135.97 44.174 135.941 44.137"/><polygon class="cls-2" points="135.812 43.993 135.783 43.98 135.833 44.081 135.864 44.102 135.898 44.094 135.924 44.12 135.934 44.081 135.865 43.978 135.812 43.993"/><polygon class="cls-2" points="135.437 43.799 135.452 43.875 135.553 43.896 135.546 43.841 135.469 43.786 135.437 43.799"/><polygon class="cls-2" points="135.697 43.831 135.652 43.617 135.622 43.811 135.651 43.848 135.697 43.831"/><polygon class="cls-2" points="136.014 43.578 135.942 43.543 135.717 43.63 135.721 43.75 135.766 43.734 135.794 43.768 135.719 43.904 135.827 43.979 135.908 43.899 135.86 43.661 135.947 43.583 136.014 43.578"/><polygon class="cls-2" points="135.496 43.534 135.46 43.633 135.5 43.747 135.569 43.614 135.496 43.534"/><polygon class="cls-2" points="135.702 43.253 135.708 43.223 135.684 43.206 135.609 43.456 135.69 43.512 135.721 43.509 135.781 43.436 135.734 43.357 135.731 43.398 135.714 43.422 135.685 43.393 135.702 43.253"/><polygon class="cls-2" points="135.562 42.694 135.549 42.718 135.594 42.804 135.654 42.744 135.771 42.713 135.76 42.67 135.679 42.64 135.654 42.682 135.562 42.694"/><polygon class="cls-2" points="136.17 42.079 136.062 42.542 135.98 42.585 135.924 42.722 136.001 42.782 135.966 43.388 136.055 43.584 135.916 43.702 135.936 43.887 135.881 43.965 135.966 44.127 136.064 44.166 136.249 44.101 136.794 42.327 136.778 42.276 136.446 42.234 136.261 42.071 136.17 42.079"/><polygon class="cls-2" points="134.547 41.959 134.467 42.123 134.512 42.123 134.533 42.084 134.654 42.139 134.632 41.981 134.547 41.959"/><polygon class="cls-2" points="134.955 41.767 135.035 41.81 135.082 41.781 135.097 41.73 135.006 41.669 134.967 41.697 134.955 41.767"/><polygon class="cls-2" points="135.694 40.549 135.763 40.768 135.714 40.931 136.065 41.74 136.034 41.855 136.098 41.911 136.321 39.914 136.241 39.868 135.693 40.094 135.744 40.344 135.694 40.549"/><polygon class="cls-2" points="134.769 40.19 134.302 38.641 134.28 38.792 134.223 38.872 134.204 39.055 134.135 39.118 133.996 39.159 133.965 39.26 134.019 39.323 134.04 39.432 133.992 39.501 133.984 39.616 134.107 39.717 134.131 39.826 134.515 40.322 134.706 40.302 134.769 40.19"/><polygon class="cls-2" points="133.223 30.634 133.179 30.621 133.109 30.646 133.053 30.716 132.971 30.749 132.968 30.832 133.005 30.913 133.033 30.924 133.13 30.89 133.138 30.856 133.185 30.83 133.252 30.723 133.223 30.634"/><polygon class="cls-2" points="133.222 29.466 133.279 29.563 133.395 29.619 133.482 29.763 133.454 29.635 133.183 29.387 133.188 29.447 133.222 29.466"/><polygon class="cls-2" points="133.572 29.134 133.744 29.091 133.829 29.309 133.756 29.409 133.8 29.49 133.772 29.536 133.823 29.807 133.446 30.432 133.445 30.808 133.235 31.056 133.222 31.206 133.186 31.253 133.299 31.355 133.298 31.423 133.369 31.498 133.342 31.579 133.682 32.442 133.847 32.527 133.991 32.486 134.055 32.277 133.977 31.797 135.664 27.806 135.621 27.726 135.612 27.523 135.469 27.53 135.3 27.407 135.107 25.934 134.225 26.631 134.388 26.657 134.894 27.263 134.833 27.74 133.463 29.091 133.484 29.132 133.572 29.134"/><polygon class="cls-2" points="131.805 22.456 131.825 22.428 131.811 22.413 131.798 22.416 131.782 22.432 131.781 22.447 131.787 22.453 131.805 22.456"/><polygon class="cls-2" points="124.386 22.024 124.802 21.979 124.794 21.934 124.347 21.73 124.285 21.748 124.184 21.71 124.159 21.746 124.192 21.873 124.386 22.024"/><polygon class="cls-2" points="123.651 20.676 123.689 20.7 123.73 21.01 123.774 21.049 123.864 21.013 123.893 20.953 123.775 20.637 123.61 20.518 123.509 20.293 123.475 20.419 123.557 20.711 123.651 20.676"/><polygon class="cls-2" points="120.842 19.292 120.9 19.441 121.063 19.482 121.286 19.365 121.289 19.083 121.132 19.031 120.776 19.232 120.842 19.292"/><polygon class="cls-2" points="121.472 18.749 121.61 19.085 121.73 19.185 121.818 19.5 122.059 19.609 122.105 19.7 122.255 19.731 122.512 20.141 122.581 20.18 122.573 20.246 122.857 20.556 123.003 20.522 123.001 20.438 123.101 20.413 123.24 20.536 123.265 20.334 123.334 20.292 123.421 20.308 123.337 20.229 123.169 19.744 123.086 19.755 122.967 19.611 122.953 19.494 122.887 19.419 122.962 18.682 122.931 18.666 122.844 18.784 122.866 18.819 122.838 18.874 122.706 18.96 122.684 18.915 122.753 18.851 122.73 18.825 122.139 18.694 121.895 18.458 121.848 18.455 121.844 18.501 121.637 18.477 121.618 18.605 121.407 18.712 121.472 18.749"/><polygon class="cls-2" points="127.024 18.426 127.036 18.422 127.031 18.414 127.008 18.407 127.001 18.413 127.005 18.421 127.024 18.426"/><polygon class="cls-2" points="121.175 16.952 121.246 16.902 121.31 16.909 121.405 16.865 121.463 16.918 121.501 16.851 121.5 16.831 121.388 16.793 121.372 16.738 121.401 16.705 121.383 16.674 121.242 16.793 121.148 16.78 121.136 16.835 121.174 16.952 121.175 16.952"/><polygon class="cls-2" points="120.959 16.245 120.988 16.291 121.014 16.292 121.022 16.245 120.931 16.145 120.931 16.104 120.888 16.094 120.89 16.161 120.856 16.183 120.843 16.231 120.872 16.266 120.959 16.245"/><polygon class="cls-2" points="113.762 12.242 113.743 12.341 113.822 12.517 114.01 12.336 114.029 12.086 114.145 12.009 113.931 11.86 113.824 11.913 113.838 12.159 113.762 12.242"/><polygon class="cls-2" points="114.795 11.263 114.863 11.297 114.898 11.288 114.9 11.262 114.851 11.188 114.804 11.186 114.795 11.263"/><polygon class="cls-2" points="117.362 11.272 117.465 11.239 117.48 11.188 117.425 11.173 117.325 11.206 117.362 11.272"/><polygon class="cls-2" points="114.935 11.336 114.99 11.321 115.037 11.201 115.021 11.138 114.921 11.278 114.935 11.336"/><polygon class="cls-2" points="118.037 11.459 118.069 11.57 118.118 11.504 118.094 11.469 118.123 11.409 118.319 11.329 118.323 11.126 118.178 11.17 118.122 11.287 118.169 11.32 118.145 11.38 118.037 11.459"/><polygon class="cls-2" points="118.355 11.375 118.372 11.433 118.294 11.553 118.323 11.58 118.375 11.543 118.454 11.64 118.393 11.785 118.436 11.869 118.595 11.772 118.602 11.813 118.793 11.7 118.804 11.571 118.865 11.604 118.895 11.55 118.845 11.454 118.747 11.426 118.656 11.124 118.42 11.01 118.36 11.104 118.387 11.166 118.479 11.139 118.525 11.218 118.456 11.233 118.355 11.375"/><polygon class="cls-2" points="115.395 10.728 115.595 10.543 115.667 10.537 115.688 10.44 115.605 10.381 115.549 10.407 115.549 10.509 115.496 10.456 115.414 10.481 115.363 10.579 115.301 10.557 115.152 10.657 115.209 10.806 115.395 10.728"/><polygon class="cls-2" points="114.763 10.5 114.792 10.531 114.714 10.765 114.736 10.906 114.818 10.997 114.741 11.106 114.92 11.183 115.055 11.005 115.123 10.577 115.056 10.511 114.969 10.237 115.005 10.125 114.963 10.085 114.833 10.183 114.843 10.254 114.763 10.5"/><polygon class="cls-2" points="114.715 9.855 114.721 9.819 114.815 9.782 114.83 9.742 114.813 9.723 114.755 9.732 114.736 9.779 114.639 9.776 114.609 9.801 114.644 9.848 114.715 9.855"/><polygon class="cls-2" points="116.541 9.716 116.547 9.798 116.623 9.767 116.609 9.673 116.658 9.644 116.633 9.604 116.501 9.642 116.451 9.605 116.468 9.658 116.541 9.716"/><polygon class="cls-2" points="112.361 8.708 112.468 8.797 112.55 8.762 112.532 8.706 112.459 8.685 112.361 8.708"/><polygon class="cls-2" points="117.532 8.408 117.619 8.364 117.631 8.278 117.614 8.237 117.717 8.145 117.712 8.085 117.678 8.157 117.521 8.24 117.423 8.215 117.338 8.251 117.532 8.408"/><polygon class="cls-2" points="117.185 7.864 117.341 7.798 117.285 7.642 117.124 7.627 117.025 7.493 116.999 7.831 117.061 7.786 117.185 7.864"/><polygon class="cls-2" points="114.363 7.428 114.397 7.444 114.457 7.42 114.396 7.378 114.415 7.337 114.364 7.329 114.326 7.382 114.252 7.385 114.229 7.455 114.293 7.478 114.363 7.428"/><polygon class="cls-2" points="113.664 5.776 113.713 5.731 113.704 5.668 113.592 5.634 113.587 5.588 113.552 5.591 113.526 5.641 113.664 5.776"/><polygon class="cls-2" points="112.134 3.283 112.082 3.421 112.107 3.458 112.121 3.43 112.177 3.411 112.199 3.433 112.262 3.385 112.311 3.284 112.262 3.221 112.228 3.203 112.182 3.202 112.158 3.227 112.095 3.232 112.104 3.274 112.134 3.283"/><polygon class="cls-2" points="111.952 3.276 111.989 3.332 112.052 3.348 112.081 3.334 112.084 3.304 112.035 3.256 112.033 3.167 112.006 3.197 111.963 3.177 111.863 3.21 111.858 3.244 111.909 3.295 111.952 3.276"/><polygon class="cls-2" points="113.184 3.062 113.247 3.066 113.301 3.006 113.285 2.924 113.166 2.872 113.156 2.909 113.183 2.959 113.166 2.987 113.048 2.956 113.016 3.008 113.126 3.097 113.184 3.062"/><polygon class="cls-2" points="108.901 2.762 108.909 2.872 108.937 2.916 108.97 2.923 109.043 2.902 108.963 2.762 108.901 2.762"/><polygon class="cls-2" points="111.183 2.662 111.262 2.71 111.284 2.682 111.195 2.565 111.1 2.583 111.069 2.615 111.183 2.662"/><polygon class="cls-2" points="111.249 2.573 111.344 2.586 111.35 2.511 111.314 2.508 111.31 2.445 111.228 2.422 111.189 2.46 111.208 2.547 111.249 2.573"/><polygon class="cls-2" points="110.679 1.923 110.67 1.841 110.713 1.817 110.634 1.786 110.585 1.822 110.679 1.923"/><polygon class="cls-2" points="110.498 1.888 110.549 1.888 110.525 1.772 110.456 1.765 110.471 1.813 110.421 1.838 110.443 1.858 110.439 1.897 110.422 1.917 110.388 1.892 110.366 1.904 110.385 1.958 110.498 1.888"/><polygon class="cls-2" points="109.959 1.594 109.948 1.547 109.882 1.499 109.894 1.565 110.065 1.76 110.084 1.748 109.959 1.594"/><polygon class="cls-2" points="109.812 0.922 109.963 0.892 109.968 0.816 110.05 0.744 110.042 0.695 110.14 0.734 110.178 0.677 110.056 0.545 110.086 0.483 110.05 0.4 109.998 0.475 110.044 0.548 109.996 0.578 110.004 0.678 109.962 0.654 109.937 0.809 109.812 0.832 109.812 0.922"/><polygon class="cls-2" points="109.887 0.484 109.869 0.408 109.791 0.419 109.751 0.369 109.741 0.422 109.699 0.431 109.755 0.551 109.824 0.537 109.887 0.484"/></g><g id="highlight"><polygon class="cls-3" points="137.198 49.911 137.35 49.517 137.233 49.571 136.822 46.71 136.718 46.785 136.375 46.668 135.548 47.223 135.492 47.139 134.984 47.202 134.909 47.31 134.575 47.222 134.573 47.372 134.482 47.406 134.526 47.492 134.375 47.557 134.377 47.595 134.27 47.63 134.3 47.704 134.135 47.867 132.509 47.64 132.343 47.846 132.173 47.8 132.021 47.905 131.201 47.352 130.994 47.748 130.669 47.551 130.722 47.304 130.33 47.271 130.178 47.506 130.008 47.494 130.038 47.713 127.454 48.878 127.405 48.736 127.268 48.832 127.6 49.707 127.771 49.708 127.837 49.811 127.914 49.797 127.981 49.975 127.745 50.259 127.772 50.408 127.721 50.456 127.755 50.492 127.623 50.809 127.676 50.859 127.737 50.828 127.758 50.901 127.533 51.165 127.511 51.09 126.625 51.167 126.548 51.305 126.577 51.354 126.543 51.461 126.459 51.499 126.41 51.46 126.423 51.417 126.159 51.447 125.876 50.927 124.469 52.053 124.529 52.097 124.529 52.146 123.566 52.789 123.386 52.608 123.436 52.538 123.214 52.334 123.273 52.022 123.159 51.895 123.231 51.818 123.164 51.532 123.222 51.441 121.757 50.685 121.79 50.518 121.678 50.479 121.644 50.356 121.712 50.334 120.449 49.716 120.445 49.667 119.626 49.69 119.578 49.627 119.142 49.749 119.021 49.656 118.916 49.692 118.85 49.646 118.852 49.735 118.693 49.721 118.771 49.686 118.018 49.621 118.032 49.528 117.949 49.481 117.871 49.525 117.862 49.474 117.764 49.449 117.716 49.358 117.744 49.308 117.65 49.236 117.642 49.168 117.291 48.94 116.956 49.038 116.971 49.073 116.925 49.049 116.91 49.121 116.825 49.117 116.814 49.159 116.691 49.114 116.643 49.147 116.658 49.109 116.606 49.093 116.638 49.057 116.564 49.093 116.549 49.02 116.459 49.057 116.46 49.017 116.401 49.083 116.36 49.067 116.373 49.106 116.271 49.076 116.209 49.138 116.088 49.103 116.1 49.174 116.018 49.22 115.975 49.178 115.831 49.25 115.814 49.21 115.19 49.43 115.16 49.384 114.662 49.331 114.623 49.38 114.528 49.343 114.459 49.413 114.408 49.359 113.763 49.427 113.766 49.52 113.644 49.476 113.613 49.529 113.554 49.511 113.566 49.46 113.353 49.296 113.204 49.323 113.107 49.177 112.57 49.165 112.561 49.202 112.434 49.214 112.428 49.264 112.184 49.39 112.207 49.437 112.129 49.48 112.131 49.576 112.053 49.624 112.089 49.648 111.875 49.89 111.821 49.849 111.73 49.87 111.695 49.822 111.177 50.12 111.165 50.178 111.119 50.126 110.383 50.568 110.406 50.651 110.313 50.728 110.229 50.695 110.172 50.745 110.161 50.711 109.884 51.039 109.936 51.052 109.298 51.71 61.616 51.71 61.637 81.8 61.697 81.823 61.641 81.907 61.765 82.026 61.825 81.889 61.889 81.931 61.883 82.037 62.011 81.974 62.041 82.035 62.219 81.974 62.339 82.056 62.553 82.001 62.491 82.082 62.545 82.085 62.544 82.159 62.602 82.173 62.673 82.115 62.721 82.219 62.768 82.21 62.738 82.148 62.955 82.043 62.996 82.108 63.087 82.052 63.081 82.193 63.183 82.145 63.532 82.349 63.508 82.423 63.575 82.428 63.568 82.498 63.768 82.331 63.831 82.424 63.849 82.387 63.922 82.406 63.955 82.474 64.078 82.44 64.074 82.553 64.232 82.542 64.221 82.626 64.288 82.674 64.608 82.605 64.737 82.76 64.669 82.808 64.735 82.887 64.675 82.964 64.82 82.928 64.816 82.82 64.895 82.872 64.984 82.815 65.113 82.859 65.151 82.793 65.242 82.801 65.155 82.755 65.233 82.678 65.221 82.636 65.115 82.588 65.33 82.604 65.293 82.503 65.393 82.536 65.411 82.396 65.864 82.243 65.939 82.352 65.988 82.304 65.982 82.218 66.106 82.289 66.154 82.252 66.196 82.261 66.155 82.337 66.293 82.285 66.279 82.366 66.883 82.473 66.938 82.419 66.925 82.36 67.154 82.352 67.203 82.489 67.271 82.386 67.422 82.484 67.447 82.357 67.727 82.418 67.689 82.298 67.858 82.269 67.8 82.428 68.08 82.461 68.012 82.574 68.082 82.602 68.12 82.701 68.334 82.712 68.334 82.609 68.434 82.628 68.483 82.565 68.596 82.575 68.57 82.695 68.619 82.762 68.94 82.761 69.001 82.913 69.083 82.916 69.037 83.011 69.082 83.134 69.01 83.204 69.111 83.265 69.112 83.388 69.017 83.451 69.023 83.499 69.325 83.446 69.409 83.508 69.332 83.526 69.32 83.622 69.98 83.671 69.998 83.732 69.932 83.739 69.95 83.843 69.788 83.848 69.875 83.867 69.818 83.896 69.857 83.996 69.8 83.986 69.726 84.047 69.775 84.136 69.727 84.194 69.794 84.2 69.739 84.483 69.893 84.467 69.917 84.527 69.789 84.593 69.771 84.653 69.822 84.68 69.873 84.612 69.971 84.618 69.882 84.779 69.979 84.761 70.015 84.814 69.851 84.849 69.958 84.953 70.049 84.917 70.059 85.066 70.18 85.042 70.201 85.114 70.335 85.158 70.309 85.027 70.405 85.044 70.437 85.128 70.375 85.201 70.444 85.222 70.387 85.31 70.425 85.351 70.37 85.37 70.397 85.428 70.336 85.46 70.523 85.485 70.451 85.674 70.556 85.689 70.53 85.64 70.615 85.648 70.649 85.6 70.709 85.647 70.604 85.693 70.695 85.823 70.604 85.881 70.726 85.878 70.61 86.102 70.685 86.111 70.657 86.149 70.747 86.211 70.815 86.18 70.84 86.232 70.895 86.227 70.952 86.31 71.021 86.259 71.406 86.361 71.479 86.246 71.325 86.208 71.305 86.039 71.585 85.994 71.603 86.061 71.681 86.095 71.719 86.066 71.658 86.032 71.676 85.995 71.793 86.014 71.707 85.939 71.748 85.876 71.676 85.748 71.721 85.683 71.861 85.73 71.856 85.641 71.74 85.578 71.855 85.389 71.74 85.368 71.824 85.346 71.827 85.246 71.894 85.264 71.949 85.216 72.172 85.256 72.183 85.213 72.074 85.162 72.117 85.118 72.305 85.14 72.226 85.075 72.292 85.056 72.353 84.94 72.468 85.034 72.391 85.095 72.414 85.141 72.327 85.192 72.387 85.246 72.465 85.194 72.431 85.303 72.511 85.333 72.543 85.264 72.66 85.421 72.736 85.38 72.819 85.43 72.74 85.503 72.791 85.498 72.837 85.563 72.77 85.647 72.924 85.703 72.919 85.744 72.994 85.697 72.963 85.655 73.154 85.551 73.142 85.603 73.203 85.597 73.296 85.678 73.362 85.653 73.442 85.83 73.492 85.766 73.452 85.693 73.544 85.636 73.572 85.706 73.709 85.706 73.653 85.789 73.683 85.83 73.771 85.755 73.834 85.871 73.847 85.777 73.928 85.854 74.03 85.744 74.065 85.841 74.15 85.869 74.274 85.745 74.333 85.787 74.277 85.79 74.251 85.868 74.358 85.817 74.31 85.873 74.403 85.867 74.484 85.948 74.575 85.853 74.597 85.97 74.689 85.92 74.682 85.963 74.803 85.969 74.818 86.066 74.917 86.041 74.888 86.086 74.954 86.213 74.968 86.153 75.043 86.134 75.098 86.208 75.193 86.151 75.242 86.177 75.114 86.299 75.241 86.328 75.188 86.356 75.254 86.362 75.272 86.422 75.315 86.43 75.303 86.373 75.362 86.404 75.465 86.344 75.501 86.404 75.707 86.43 75.683 86.501 75.756 86.565 75.65 86.746 75.723 86.737 75.672 86.784 75.713 86.815 75.629 86.885 75.66 86.939 75.529 86.997 75.65 87.263 75.609 87.331 75.592 87.298 75.526 87.32 75.514 87.616 75.629 87.727 75.611 87.887 75.54 87.881 75.571 87.933 75.618 87.919 75.584 87.989 75.622 87.953 75.624 88.025 75.703 88.052 75.635 88.077 75.668 88.104 75.629 88.144 75.671 88.18 75.648 88.228 75.943 88.537 75.899 88.69 75.963 88.722 75.925 88.767 77.082 88.947 77.063 89.047 76.975 89.081 77.031 89.263 77.1 89.25 76.997 89.715 77.067 89.695 77.315 89.976 77.395 89.961 77.374 90.003 77.441 90.06 77.539 89.966 77.597 89.97 77.597 89.888 77.687 89.898 77.694 89.866 77.757 89.958 77.801 89.924 77.816 89.988 77.862 89.962 77.851 90.009 78.028 90.015 78.065 89.976 78.205 90.065 78.173 90.19 78.506 90.29 78.474 90.331 78.728 90.432 78.752 90.535 79.04 90.62 79.027 90.653 79.063 90.623 79.202 90.655 79.196 90.692 79.415 90.662 79.423 90.714 79.369 90.738 79.445 90.854 79.566 90.867 79.585 90.933 79.535 90.975 79.661 91.035 79.671 90.981 79.87 90.97 79.877 91.033 79.98 91.078 79.977 91.115 80.922 91.813 80.891 91.894 81.207 92.179 81.255 92.097 81.37 92.078 81.401 92.121 81.367 92.182 81.558 92.172 81.503 92.251 81.682 92.256 81.765 92.426 81.845 92.402 81.796 92.525 81.857 92.539 81.778 92.581 81.896 92.571 81.829 92.637 81.883 92.649 81.833 92.678 81.895 92.702 81.883 92.764 82.055 92.813 82.017 92.936 82.104 93.016 82.044 93.078 82.146 93.059 82.089 93.1 82.135 93.09 82.351 93.287 82.393 93.258 82.394 93.331 82.52 93.354 82.479 93.399 82.521 93.393 82.55 93.459 82.595 93.402 82.593 93.472 82.711 93.469 82.683 93.608 82.921 93.68 82.945 93.743 82.98 93.708 83.028 93.803 83.093 93.795 83.093 93.889 83.244 93.907 83.293 93.849 83.248 94.04 83.299 94.116 83.357 94.05 83.313 94.016 83.352 94.025 83.342 93.971 83.394 93.945 83.457 93.999 83.515 93.979 83.516 94.105 83.723 94.027 83.696 94.227 83.907 94.174 83.945 94.247 83.899 94.326 83.952 94.361 84.039 94.304 84.081 94.385 84.206 94.354 84.258 94.432 84.353 94.36 84.434 94.394 84.462 94.344 84.424 94.303 84.48 94.319 84.448 94.273 84.641 94.252 84.67 94.095 84.735 94.052 84.751 94.085 84.772 94.014 85.477 94.084 85.484 93.963 85.125 93.592 85.136 93.496 85.317 93.423 85.392 92.844 86.132 92.608 86.138 92.668 86.274 92.577 86.275 92.608 86.322 92.579 86.337 92.632 86.358 92.583 86.398 92.654 86.545 92.644 86.521 92.71 86.914 92.707 86.931 92.646 87.148 92.664 87.171 92.714 87.136 92.75 88.024 92.757 88.102 92.677 88.049 92.64 88.2 92.631 88.238 92.668 88.289 92.583 88.359 92.612 88.419 92.509 88.712 92.56 88.791 92.468 88.832 92.513 88.812 92.582 88.858 92.53 88.959 92.537 88.933 92.617 88.978 92.607 88.967 92.654 89.146 92.751 89.106 92.82 89.169 92.824 89.187 92.902 89.191 92.859 89.333 92.825 89.354 92.858 89.273 92.897 89.33 92.892 89.311 92.964 89.341 92.932 89.598 93.168 89.651 93.155 89.622 93.199 89.675 93.234 89.752 93.174 89.798 93.2 89.756 93.208 89.761 93.265 89.909 93.264 89.946 93.326 89.875 93.344 89.984 93.362 89.971 93.41 90.127 93.402 90.168 93.451 90.248 93.415 90.244 93.487 90.336 93.488 90.339 93.545 90.417 93.547 90.438 93.599 90.463 93.552 90.548 93.55 90.545 93.505 90.613 93.553 90.661 93.542 90.652 93.493 90.725 93.5 90.663 93.465 91.04 93.384 90.991 93.462 91.14 93.445 91.141 93.493 91.279 93.419 91.256 93.548 91.369 93.636 91.341 93.702 91.399 93.687 91.419 93.744 91.926 93.653 91.93 93.734 92.146 93.765 92.119 93.71 92.267 93.715 92.29 93.747 92.373 93.681 92.422 93.708 92.386 93.748 92.605 93.794 92.634 93.879 92.695 93.902 92.76 93.831 92.802 93.888 92.846 93.826 92.835 93.885 92.891 93.874 92.902 93.834 93.073 93.791 93.039 93.764 93.119 93.728 93.213 93.811 93.262 93.719 93.332 93.783 93.264 93.796 93.333 93.831 93.27 93.901 93.32 93.887 93.372 93.94 93.371 93.876 93.548 93.907 93.52 93.858 93.599 93.811 93.786 93.956 93.843 93.922 93.832 93.88 93.89 93.874 93.851 93.736 93.967 93.69 93.952 93.628 94.05 93.561 94.049 93.504 94.109 93.493 94.097 93.447 94.189 93.456 94.227 93.508 94.252 93.442 94.34 93.447 94.369 93.554 94.587 93.563 94.528 93.562 94.585 93.399 94.868 93.6 94.926 93.476 95.085 93.549 95.078 93.5 95.284 93.505 95.224 93.577 95.42 93.713 95.418 93.681 95.522 93.739 95.479 93.767 95.581 93.824 95.569 93.77 95.601 93.81 95.652 93.79 95.627 93.822 95.688 93.897 95.731 93.868 95.705 93.835 95.814 93.867 95.821 93.826 95.955 93.795 95.979 93.938 96.086 93.91 96.062 94.015 96.141 93.964 96.147 94.01 96.347 94.043 96.337 94.003 96.391 93.986 96.461 94.086 96.525 94.087 96.513 94.181 96.816 94.101 96.859 94.175 97.001 94.162 96.995 94.241 97.04 94.281 97.012 94.32 97.065 94.324 97.138 94.24 97.134 94.288 97.247 94.336 97.319 94.127 97.448 94.216 97.613 94.159 97.657 94.186 97.657 94.284 97.694 94.248 97.812 94.359 97.832 94.291 97.902 94.259 97.878 94.228 97.938 94.052 97.963 94.071 97.98 94.019 98.01 94.04 98.168 93.883 98.125 93.838 98.172 93.767 98.148 93.736 98.213 93.736 98.2 93.702 98.251 93.701 98.244 93.676 99.497 94.035 99.9 93.394 100.526 93.314 100.633 93.427 100.692 93.418 100.716 93.441 100.653 93.514 100.875 93.682 101.063 93.55 100.919 93.492 100.849 93.527 100.851 93.448 102.949 93.646 102.933 93.613 103.035 93.629 103.034 93.821 103.099 93.832 103.111 93.917 103.408 93.892 103.404 93.938 103.45 93.9 103.485 93.973 103.559 93.938 103.457 94.194 103.558 94.252 103.518 94.334 103.551 94.354 103.505 94.384 103.562 94.408 103.571 94.476 103.791 94.506 103.77 94.575 103.698 94.578 103.769 94.64 103.712 94.677 103.708 94.786 103.782 94.823 103.774 95.414 103.822 95.452 103.78 95.527 103.913 95.589 103.868 95.601 103.791 95.852 103.832 95.852 103.794 95.993 103.904 96.064 103.919 96.152 104.042 96.188 104.091 96.366 104.299 96.433 104.284 96.542 104.32 96.564 104.273 96.621 104.391 96.808 104.308 96.947 104.362 97.057 104.459 97.001 104.526 97.125 104.702 97.115 104.707 97.161 104.857 97.239 104.774 97.325 104.841 97.323 104.88 97.408 104.663 97.753 104.686 97.788 104.347 98.059 104.35 98.162 104.278 98.2 104.309 98.216 104.188 98.373 104.149 98.375 104.28 98.481 104.634 98.427 104.656 98.477 104.727 98.425 115.401 102.674 115.206 101.298 115.459 101.083 115.854 101.223 115.577 100.495 115.365 100.405 115.366 100.346 115.139 100.245 115.117 100.309 114.91 100.225 114.865 100.268 114.783 100.215 115.077 99.93 115.215 99.962 115.182 99.339 115.117 99.306 115.027 99.338 114.99 99.084 115.076 99.016 115.163 99.065 115.122 98.914 115.214 98.76 115.149 98.717 115.493 98.006 115.421 97.985 115.951 96.97 115.873 96.899 116.033 96.191 115.937 96.153 116.385 94.228 116.344 94.185 116.521 93.613 116.468 93.603 116.516 92.871 116.622 92.813 116.609 92.732 116.728 92.627 116.891 92.643 116.934 92.284 116.809 92.213 116.839 92.121 116.532 91.854 116.486 91.912 116.454 91.9 116.446 91.841 117.207 91.979 117.382 91.663 117.321 91.617 117.424 91.474 117.489 91.481 117.481 91.336 117.862 91.034 117.865 90.921 117.984 90.839 117.881 90.643 118.411 89.867 118.485 89.864 118.385 89.661 118.441 89.605 118.369 89.53 118.81 89.15 118.726 89.105 119.098 88.801 119.092 88.694 119.149 88.683 119.176 88.589 119.117 88.569 119.101 88.526 119.34 88.556 119.504 88.369 119.745 88.398 119.719 88.085 119.587 88.044 119.663 87.762 119.875 87.701 119.881 87.654 120.135 87.634 120.204 87.706 120.142 87.759 120.258 87.879 120.179 88.121 120.33 88.15 120.337 88.21 120.375 88.225 120.592 87.961 120.532 87.906 120.63 87.736 120.544 87.679 120.436 87.746 120.134 87.128 120.162 87.051 119.996 87.12 120.086 87.156 120.097 87.22 119.928 87.157 119.945 87.097 119.809 87.013 119.822 86.941 119.156 86.846 120.034 86.83 120.227 86.416 120.482 86.327 120.721 85.558 120.672 85.523 120.705 85.46 120.67 85.358 120.947 85.254 120.791 85.202 120.857 84.731 121.066 84.627 120.938 84.478 120.993 84.202 120.948 84.158 121.117 83.88 121.056 83.83 122.55 82.125 122.161 82.135 122.116 82.022 122.218 82.029 122.202 82.101 122.462 82.105 122.518 81.916 122.873 81.891 122.92 81.746 122.877 81.679 122.373 81.758 122.467 81.849 122.373 81.887 122.035 81.641 122.141 81.624 122.158 81.672 122.428 81.639 122.508 81.391 122.569 81.36 122.599 81.468 122.639 81.478 122.661 81.351 122.829 81.45 122.813 81.574 122.902 81.538 122.967 81.66 123.027 81.675 123.084 81.198 123.157 81.155 123.177 81.034 123.239 81.018 123.223 80.684 123.17 80.792 123.12 80.784 123.136 80.897 122.93 80.923 122.789 80.811 122.727 80.835 122.62 80.766 122.524 80.805 122.448 80.707 123.144 80.642 123.048 80.633 123.017 80.535 122.913 80.551 122.936 80.424 122.955 80.49 123.032 80.484 123.101 80.581 123.178 80.538 123.123 80.47 123.227 80.47 123.273 80.523 123.249 80.593 123.332 80.616 123.358 80.521 123.272 80.472 123.299 80.303 123.351 80.273 123.322 80.181 123.437 80.13 123.347 80.072 123.586 79.424 123.522 79.351 123.543 79.304 123.486 79.257 123.533 79.165 123.474 79.157 123.428 79.286 123.501 79.403 123.431 79.368 123.421 79.463 123.362 79.495 123.347 79.639 123.194 79.502 123.359 79.297 123.32 79.287 123.398 79.158 122.851 79.278 122.851 79.334 122.708 79.401 122.724 79.359 122.809 79.327 122.818 79.244 122.935 79.239 123.014 79.148 122.907 78.955 122.739 78.969 122.594 78.765 122.428 78.899 122.448 78.969 122.38 78.926 122.397 78.852 122.46 78.819 122.452 78.681 122.404 78.65 122.49 78.475 122.412 78.506 122.423 78.441 122.522 78.46 122.454 78.602 122.521 78.767 122.555 78.694 122.624 78.689 122.742 78.883 122.761 78.806 123.057 78.875 123.01 79.013 123.089 79.099 123.171 78.984 123.37 79.016 123.549 78.773 123.636 78.77 123.522 78.68 123.55 78.586 123.497 78.578 123.421 78.44 123.457 78.384 123.506 78.383 123.542 78.266 123.57 78.259 123.592 78.328 123.731 78.339 123.66 78.429 123.689 78.491 123.549 78.521 123.655 78.581 123.658 78.674 123.621 78.711 123.711 78.806 123.576 78.823 123.56 78.895 123.609 78.937 123.826 78.87 123.845 78.826 124.03 78.819 124.043 78.741 124.099 78.714 124.103 78.635 124.208 78.593 124.146 78.489 124.244 78.381 124.195 78.335 124.55 77.747 124.494 77.697 124.379 77.865 124.168 77.731 124.171 77.667 124.261 77.622 124.199 77.508 124.28 77.46 124.328 77.477 124.387 77.369 124.455 77.361 124.501 77.258 124.642 77.241 124.591 77.008 124.697 77 124.737 77.111 124.873 77.097 124.852 77.039 124.916 76.919 124.865 76.873 124.993 76.856 125.044 76.919 124.748 77.249 124.809 77.34 124.552 77.728 124.997 77.363 124.916 77.302 125.518 76.218 125.367 76.194 125.334 76.1 125.111 76.647 125.036 76.432 124.932 76.492 124.876 76.469 124.851 76.552 124.962 76.604 124.936 76.728 124.851 76.634 124.707 76.635 124.669 76.562 124.694 76.512 124.646 76.471 124.766 76.37 124.922 76.385 124.924 76.286 124.83 76.232 124.762 76.303 124.616 76.307 124.592 76.163 124.854 76.046 124.961 76.126 125.091 76.107 125.022 76.017 125.18 75.808 125.108 75.738 125.135 75.656 125.184 75.673 125.222 75.618 125.192 75.496 125.22 75.455 125.391 75.538 125.329 75.845 125.471 75.893 125.437 75.988 125.371 76.01 125.4 76.13 125.484 76.148 126.336 75.187 126.232 75.216 126.177 75.16 126.223 74.647 126.346 74.633 126.388 74.686 126.201 75.145 126.242 75.198 126.288 75.174 126.27 75.102 128.254 74.393 128.23 74.329 128.644 74.13 128.643 73.996 128.143 73.987 128.144 74.042 127.906 73.872 127.864 74.148 127.246 74.361 127.78 74.097 127.664 74.005 127.196 74.078 127.198 73.98 127.404 73.904 127.398 73.832 127.252 73.817 127.247 73.767 127.332 73.678 127.304 73.453 127.37 73.643 127.779 73.764 127.81 73.733 127.795 73.647 127.845 73.582 127.899 73.589 127.873 73.801 128.221 73.772 128.262 73.642 128.669 73.883 130.769 72.346 130.753 72.286 130.638 72.252 130.832 71.69 130.802 71.653 130.741 71.658 130.674 71.393 130.948 70.974 130.596 70.73 130.568 70.751 130.563 70.993 130.721 71.047 130.673 71.134 130.592 71.156 130.626 71.515 130.578 71.566 130.687 71.672 130.523 71.741 130.445 71.693 130.474 71.508 130.194 71.319 130.215 71.255 130.343 71.215 130.385 71.107 130.182 70.959 130.134 71.008 130.008 70.868 129.877 70.884 129.93 70.986 129.844 71.078 129.889 70.985 129.834 70.896 129.897 70.821 130.275 70.88 130.33 70.692 130.477 70.784 132.008 68.777 131.946 68.562 132.36 68.038 132.287 67.952 132.602 67.556 132.535 67.519 133.161 66.529 132.999 66.25 133.385 65.576 133.317 65.542 133.342 65.203 133.291 65.187 133.422 64.849 133.382 64.761 133.909 63.991 133.844 64.022 133.768 63.955 133.974 62.972 133.922 62.955 133.878 63.026 133.598 62.858 133.601 61.595 133.642 61.599 133.991 60.293 133.961 60.256 135.713 54.278 135.6 54.313 135.476 54.209 135.406 54.272 135.505 54.436 135.609 54.458 135.62 54.55 135.413 54.726 135.428 54.789 135.384 54.859 135.175 54.722 135.179 54.681 135.402 54.61 135.473 54.144 135.278 53.989 135.567 54.065 135.648 54.23 135.703 54.241 135.771 53.914 135.583 53.749 136.255 52.547 136.219 52.502 136.23 52.422 136.14 52.397 137.032 50.97 136.72 50.946 137.048 50.957 137.237 49.952 137.198 49.911"/></g></svg>