<svg xmlns="http://www.w3.org/2000/svg" viewBox="0 0 169.718 150"><defs><style>.cls-1{fill:#eff9fe;}.cls-2{fill:#e6e6e6;}.cls-3{fill:#495b14;}</style></defs><title>QLD-ICON</title><g id="Layer_3" data-name="Layer 3"><rect class="cls-1" width="169.718" height="150"/></g><g id="aus5fgd_r_area"><polygon class="cls-2" points="141.767 150 142.169 149.473 142.107 149.258 142.52 148.734 142.447 148.648 142.763 148.252 142.696 148.215 143.322 147.225 143.16 146.946 143.546 146.272 143.478 146.239 143.502 145.9 143.452 145.883 144.07 144.688 144.005 144.718 144.135 143.668 144.082 143.652 144.039 143.722 143.762 142.291 143.803 142.295 145.874 134.974 145.761 135.009 145.637 134.905 145.566 134.968 145.77 135.154 145.648 135.406 145.574 135.423 145.545 135.555 145.336 135.418 145.339 135.378 145.563 135.306 145.634 134.84 145.439 134.685 145.864 134.937 145.932 134.611 145.744 134.445 146.391 133.118 146.3 133.093 147.192 131.667 146.88 131.642 147.209 131.653 147.397 130.649 147.359 130.607 147.516 130.237 147.511 130.213 147.394 130.268 146.983 127.406 146.879 127.481 146.536 127.364 145.708 127.919 145.653 127.835 144.735 127.918 144.734 128.068 144.643 128.102 144.686 128.189 144.536 128.253 144.538 128.291 144.431 128.326 144.46 128.4 141.362 128.048 141.154 128.444 140.83 128.247 140.882 128 137.615 129.574 137.566 129.432 137.403 129.74 137.761 130.404 137.932 130.404 137.998 130.507 138.075 130.493 137.784 131.505 137.837 131.555 137.898 131.525 137.824 131.745 137.766 131.761 137.746 131.844 137.694 131.861 137.672 131.786 136.786 131.864 136.62 132.195 136.57 132.157 136.584 132.114 136.319 132.143 136.037 131.623 134.63 132.749 134.69 132.794 133.727 133.485 133.547 133.305 133.597 133.234 133.375 133.03 133.434 132.718 133.32 132.592 133.37 132.278 133.325 132.229 133.382 132.138 131.918 131.381 131.951 131.214 131.839 131.175 131.805 131.052 131.873 131.03 130.61 130.412 130.606 130.363 129.786 130.386 129.739 130.323 129.302 130.445 129.182 130.352 129.076 130.388 129.011 130.342 129.012 130.431 128.854 130.417 128.932 130.382 128.178 130.317 128.193 130.224 128.11 130.177 128.032 130.221 127.877 130.054 127.905 130.004 127.452 129.637 127.117 129.734 127.132 129.77 127.086 129.745 127.071 129.818 126.986 129.813 126.975 129.855 126.852 129.81 126.804 129.843 126.818 129.805 126.767 129.789 126.799 129.753 126.725 129.789 126.71 129.716 126.62 129.754 126.621 129.713 126.561 129.779 126.521 129.763 126.534 129.802 126.431 129.772 126.37 129.834 126.249 129.8 126.261 129.87 126.179 129.916 126.136 129.874 125.992 129.946 125.975 129.906 124.62 130.109 124.569 130.055 123.924 130.123 123.927 130.217 123.805 130.172 123.774 130.225 123.715 130.208 123.727 130.156 122.731 129.861 122.721 129.898 122.595 129.91 122.589 129.96 122.345 130.086 122.368 130.133 122.29 130.176 122.292 130.272 122.214 130.32 122.249 130.344 121.338 130.816 121.326 130.874 121.28 130.822 120.544 131.264 120.567 131.347 120.474 131.424 120.39 131.391 120.333 131.441 120.321 131.407 120.045 131.735 120.097 131.748 71.776 132.406 71.777 114.416 53.801 114.419 53.427 57.411 47.806 53.743 47.819 53.799 47.751 53.858 47.55 53.77 47.299 53.914 47.516 54.136 46.465 53.976 46.446 53.862 46.056 54.112 45.963 53.949 46.096 53.656 45.866 53.399 45.89 53.357 43.062 50.927 43.081 50.887 40.258 49.213 40.089 49.285 40.127 49.154 40.025 49.149 40.044 49.065 38.122 46.89 37.973 46.905 37.938 46.861 38.226 46.878 38.261 46.955 38.738 46.539 38.825 46.591 38.855 46.53 38.916 46.524 38.943 46.456 39.053 46.479 39.065 46.391 38.992 46.382 39.159 45.755 39.212 45.776 39.239 45.74 39.211 45.684 39.545 45.077 39.835 45.099 40.208 44.319 40.137 44.246 41.094 43.637 41.241 43.692 41.098 43.541 42.279 40.49 42.132 40.414 42.013 40.508 42.03 40.629 41.318 41.017 41.092 40.747 41.353 40.595 41.269 40.494 41.101 40.553 40.864 39.944 41.041 39.916 41.003 39.158 41.191 39.098 41.397 39.348 41.439 39.296 41.388 39.248 41.415 39.185 41.513 39.161 41.561 39.236 41.645 38.999 41.383 39.054 41.339 38.974 41.378 38.925 41.348 38.813 41.105 38.726 41.304 38.318 41.276 38.269 41.514 38.069 41.613 38.311 41.682 37.94 41.896 37.838 42.096 38.413 42.194 37.909 42.33 37.944 42.29 37.806 42.47 37.583 42.414 37.548 42.69 37.29 42.886 38.239 42.92 38.225 42.779 38.058 42.872 37.946 43.031 38.03 43.133 37.771 43.268 37.762 43.209 37.48 43.107 37.475 43.131 37.379 43.174 37.362 43.282 37.423 43.337 37.277 43.351 37.469 43.499 37.485 43.528 37.559 43.718 37.502 43.661 37.418 43.748 37.27 43.578 37.191 43.821 36.755 44.045 36.958 43.96 37.253 44.05 37.386 43.957 37.432 44.149 37.911 43.972 38.073 43.925 38.024 43.792 38.056 43.801 38.301 43.735 38.339 43.814 38.501 44.458 37.853 44.545 37.895 44.501 38.039 44.549 38.076 44.906 37.389 45.007 37.475 45.219 36.903 45.017 36.861 45.031 36.664 44.884 36.646 44.862 36.53 44.545 36.507 44.594 36.389 44.771 36.505 44.914 36.414 44.997 36.471 45.074 36.426 45.056 36.373 45.171 36.341 45.194 36.659 45.326 36.661 45.3 36.558 45.542 36.36 45.606 36.647 45.815 36.575 45.108 36.062 45.137 35.802 44.709 35.604 44.706 35.446 44.755 35.435 44.748 35.362 44.631 35.317 44.649 35.19 44.72 35.16 45 35.38 44.973 35.096 45.118 34.995 45.549 35.589 45.425 34.983 45.606 34.755 45.708 34.77 45.735 34.821 45.981 34.82 46.012 34.778 45.89 34.568 46.33 33.997 46.389 34.018 46.179 33.729 46.262 33.656 46.149 33.519 46.583 33.254 46.592 33.508 46.471 33.534 46.453 33.887 47.689 32.629 47.607 32.601 47.608 32.652 47.43 32.688 47.364 32.63 47.279 32.762 47.193 32.745 47.419 32.56 47.385 32.253 47.305 32.211 47.27 32.262 47.219 32.227 47.222 32.046 46.512 31.512 46.18 31.592 46.171 31.652 45.922 31.657 45.881 31.791 46.02 31.703 46.212 31.881 46.308 31.851 46.325 31.955 46.399 31.971 46.175 32.213 46.143 32.158 46.072 32.283 45.703 32.175 45.343 31.065 45.246 31.079 45.006 30.508 44.893 30.487 44.838 30.547 44.848 30.591 44.796 30.617 44.781 30.709 44.639 30.557 44.582 30.592 44.513 30.493 44.557 30.433 44.651 30.545 44.652 30.321 45.296 30.058 45.19 29.82 45.165 29.878 45.262 29.973 45.109 30.1 45.082 30.061 44.971 30.101 44.959 30.195 44.92 30.21 44.903 30.176 44.774 30.275 44.484 30.209 44.405 30.386 44.377 30.31 44.32 30.306 44.041 30.725 43.981 30.699 43.857 30.914 43.815 30.915 43.766 30.851 43.671 30.895 43.639 30.85 43.098 31.343 43.125 31.472 42.827 31.536 42.879 31.57 42.84 31.702 43.118 31.668 43.192 31.836 43.844 31.777 43.998 32.102 43.882 32.129 43.946 32.213 42.802 33.334 42.726 33.167 42.338 33.299 42.265 33.244 42.278 33.165 42.206 33.135 42.064 33.428 42.017 33.398 41.952 33.472 41.911 33.464 41.932 33.313 41.799 33.19 41.917 32.938 41.678 32.926 41.735 32.719 41.796 32.715 41.95 32.469 41.878 32.301 41.998 32.316 42.029 32.181 42.148 32.171 42.191 32.002 41.905 31.957 41.831 32.165 41.617 32.19 41.416 31.972 41.572 31.649 41.665 31.669 42.095 30.936 41.807 31.105 41.837 31.259 41.387 31.531 41.356 31.454 41.299 31.457 41.194 31.667 41.098 31.55 41.143 31.462 40.439 32.182 40.42 32.08 40.076 32.424 40.151 32.244 39.723 31.691 40.822 30.563 40.784 30.531 40.816 30.465 41.043 30.414 41.056 30.474 41.293 30.319 41.273 30.273 36.791 31.948 36.952 32.034 36.927 32.072 37.304 32.404 37.292 32.432 34.956 31.33 34.899 30.928 34.624 30.845 34.512 30.579 34.45 30.584 34.399 30.53 34.441 30.49 34.428 30.379 34.468 30.339 34.307 30.256 33.35 30.984 33.314 30.938 33.332 30.887 31.314 30.468 30.918 31.336 30.814 31.161 30.996 30.742 30.741 30.465 30.756 30.382 30.851 30.394 30.892 30.3 30.56 29.944 30.283 30.19 30.247 30.171 30.274 30.134 30.252 30.056 30.316 29.986 30.212 29.888 30.228 29.788 29.325 30.065 29.316 30.001 29.129 30.035 28.992 29.828 28.878 29.823 28.781 29.589 29.484 29.183 29.336 29.016 28.988 29.067 28.859 28.899 28.505 29.007 28.485 29.128 27.83 29.236 27.911 29.294 27.78 29.415 27.823 29.474 27.511 29.617 27.416 29.563 27.485 29.463 27.47 29.421 27.224 29.408 27.169 29.514 27.099 29.509 26.934 29.811 27.048 29.123 26.601 29.373 26.535 29.231 26.309 29.239 26.239 29.106 26.335 29.106 26.307 29.05 26.34 28.998 26.264 28.954 25.754 29.167 25.696 28.995 25.974 28.869 25.907 28.724 25.235 28.956 23.084 26.544 23.041 26.605 23.298 26.873 23.139 27.136 22.954 26.92 22.255 27.674 20.866 26.544 20.876 26.476 20.957 26.468 20.873 26.33 20.776 26.362 20.895 26.199 20.459 25.834 20.337 25.993 20.389 26.139 20.34 26.185 20.292 26.152 20.24 26.36 20.09 26.324 19.916 25.284 19.851 25.265 19.889 25.409 19.773 25.502 19.789 25.56 19.447 25.619 19.558 26.226 19.317 25.75 19.242 25.747 19.207 25.7 19.222 25.648 19.126 25.665 18.978 25.348 18.671 25.301 18.893 26.505 19.047 26.376 19.276 26.604 19.189 26.783 18.999 26.671 18.987 26.845 19.057 26.859 19.05 26.934 19.1 26.962 19.106 27.045 19.052 27.069 18.913 26.946 18.945 27.037 18.908 27.089 18.726 26.859 18.781 26.733 18.73 26.703 18.793 26.501 18.703 26.455 18.678 26.342 18.596 26.638 18.461 26.528 18.501 26.457 18.448 26.383 18.543 26.176 18.461 26.214 18.539 25.833 18.512 25.824 18.449 25.957 18.365 25.955 18.34 25.744 18.256 25.716 18.311 25.644 18.268 25.621 18.187 25.713 18.199 25.777 17.916 25.349 17.689 25.345 17.789 25.632 17.738 25.643 17.679 25.591 17.627 25.641 17.778 25.877 17.439 26.125 17.418 26.08 17.448 26.025 17.284 25.864 17.325 25.807 17.146 25.679 17.15 25.966 17.116 25.973 17.023 25.82 16.889 25.924 16.791 25.804 16.749 25.846 16.991 26.226 16.627 26.175 16.687 26.331 16.651 26.354 16.54 26.313 16.521 26.37 16.416 26.363 16.526 26.516 17.443 26.512 17.459 26.463 17.533 26.516 17.361 26.71 17.442 26.759 17.428 26.712 17.696 26.633 17.71 26.703 17.648 26.736 17.765 26.817 17.493 26.927 17.634 27.031 17.791 26.973 17.817 26.992 17.775 27.086 18.214 27.157 18.164 27.325 18.04 27.317 18.541 27.802 18.593 27.722 18.547 27.663 20.82 27.459 20.853 27.621 21.045 27.686 21.003 27.833 21.179 27.92 21.072 28.058 21.449 28.409 21.914 28.269 21.552 28.463 21.8 28.454 21.751 28.609 22.169 28.551 22.192 28.593 21.816 28.608 21.607 31.034 22.343 31.392 21.191 31.073 21.183 31.148 20.495 31.449 20.106 32.839 20.434 32.445 19.975 31.75 19.552 31.903 19.382 31.584 14.065 32.027 13.662 30.815 13.252 31.844 13.363 31.86 13.34 31.904 12.178 31.508 12.175 31.438 12.139 31.414 11.843 31.57 12.046 32.634 12.112 32.659 12.108 32.703 11.244 32.537 10.771 33.271 10.946 33.379 10.979 33.354 10.976 33.255 11.23 33.35 11.253 33.481 11.445 33.453 11.722 33.787 11.44 33.757 11.404 33.61 11.323 33.662 11.283 33.634 11.159 33.682 11.087 33.589 11.024 33.594 11.042 33.712 11.122 33.743 11.176 34.003 11.284 34.027 11.286 33.99 11.646 34.447 11.162 34.191 11.295 34.465 11.264 34.516 10.918 33.886 10.765 33.903 10.786 34.007 10.759 34.039 10.73 33.794 10.669 33.791 10.591 33.879 10.636 34.025 10.567 34.112 10.602 34.172 10.558 34.18 10.538 33.418 10.42 33.423 10.461 33.18 9.34 32.995 9.61 33.242 9.357 33.331 9.505 33.564 9.393 33.589 9.305 34.133 9.394 34.092 9.53 34.165 9.38 34.317 9.356 34.287 9.219 34.311 9.171 34.25 9.383 34.658 9.455 34.578 9.558 34.616 9.591 34.584 9.874 34.717 9.869 34.775 10.215 34.821 10.12 34.848 10.119 34.889 9.6 34.784 9.573 34.824 9.707 35.016 9.628 35.159 9.648 34.92 9.447 34.861 9.373 34.951 9.307 34.799 9.231 34.802 9.215 34.765 9.116 34.835 8.963 34.761 8.953 34.56 8.504 34.356 8.394 34.426 8.42 34.495 8.23 34.533 8.284 34.779 7.985 34.575 7.872 35.838 7.906 35.86 7.357 36.241 7.03 36.118 7.033 36.028 6.721 36.152 6.572 37.534 7.817 38.759 7.585 39.094 7.805 39.291 7.541 39.123 7.755 38.752 7.492 38.544 6.597 39.342 6.513 39.284 6.261 39.568 6.228 39.542 5.449 39.716 5.241 39.203 5.091 39.481 5.13 39.539 4.83 39.613 4.592 41.173 4.642 41.219 4.735 41.09 4.753 41.112 4.169 41.904 4.362 42.058 4.354 42.224 4.392 42.255 4.234 42.596 3.535 42.755 3.468 42.608 3.424 42.739 3.546 42.922 3.358 43.24 3.355 43.056 3.306 43.029 3.209 43.545 2.859 43.308 2.664 43.702 2.6 43.687 2.022 45.08 2.582 45.431 2.587 45.56 4.727 45.735 3.614 46.658 3.802 46.87 3.977 46.844 3.856 46.943 4.266 47.299 4.645 47.066 4.629 46.986 4.691 47.057 4.375 47.393 4.418 47.476 5.796 46.894 5.599 47.273 5.061 47.345 5.057 47.468 4.955 47.509 4.953 47.591 4.508 47.628 4.487 47.583 3.748 47.542 3.68 48.034 3.638 48.051 3.7 48.738 3.805 48.673 3.865 48.715 3.723 48.786 5.498 51.19 6.125 50.875 6.639 51.137 6.768 51.046 6.667 51.213 6.013 50.945 5.538 51.302 5.285 51.063 5.122 51.147 4.588 49.67 4.398 49.613 4.342 49.761 3.952 49.746 3.916 49.435 3.35 49.468 3.34 49.709 3.291 49.71 3.241 49.462 3.505 49.187 2.225 47.986 2.547 48.387 2.502 48.603 2.458 48.349 2.373 48.365 1.786 47.691 1.482 47.726 1.509 47.942 1.74 48.085 1.448 47.982 1.372 48.04 1.299 48.008 1.391 48.869 1.302 48.939 1.449 49.198 1.674 49.138 1.707 49.181 1.45 49.272 1.307 49.15 1.334 49.308 1.176 49.455 1.276 49.673 1.12 49.486 1.057 49.488 0.929 49.852 0.633 49.921 1.085 49.271 0.245 47.879 0.206 47.912 0.224 47.981 0.09 48.091 0.148 47.945 0 47.917 0 150 141.767 150"/><polygon class="cls-2" points="47.742 53.72 47.669 53.632 47.619 53.735 47.752 53.852 47.797 53.801 47.727 53.752 47.743 53.743 47.742 53.72"/><polygon class="cls-2" points="45.508 53.115 45.525 53.103 45.471 52.899 45.417 52.967 45.468 53.003 45.458 53.03 45.431 53.029 45.422 53.04 45.443 53.121 45.508 53.115"/><polygon class="cls-2" points="46.622 52.98 46.66 53.003 46.691 52.951 46.722 52.967 46.723 52.91 46.794 52.912 46.622 52.892 46.622 52.98"/><polygon class="cls-2" points="45.23 52.977 45.302 52.907 45.294 52.865 45.176 52.892 45.23 52.977"/><polygon class="cls-2" points="45.288 53.012 45.315 53.073 45.409 53.059 45.428 53.004 45.407 52.969 45.474 52.782 45.256 53.013 45.288 53.012"/><polygon class="cls-2" points="45.908 53.196 46.165 52.708 46.045 52.708 45.999 52.628 45.909 52.635 45.852 52.52 45.808 52.598 45.672 52.57 45.512 53.001 45.908 53.196"/><polygon class="cls-2" points="46.785 52.499 46.23 52.408 46.256 53.103 46.644 52.87 46.642 52.808 46.494 52.735 46.564 52.634 46.647 52.644 46.632 52.714 46.807 52.643 46.785 52.499"/><polygon class="cls-2" points="45.862 52.201 45.904 52.183 45.893 52.134 45.756 52.089 45.71 52.164 45.862 52.201"/><polygon class="cls-2" points="46.481 52.176 46.558 52.181 46.565 52.22 46.731 52.147 46.554 52.075 46.481 52.176"/><polygon class="cls-2" points="47.684 52.368 47.703 52.465 47.782 52.475 47.719 52.574 47.721 52.529 47.645 52.494 47.636 52.384 47.569 52.377 47.419 52.877 47.544 52.954 47.502 52.833 47.541 52.788 47.578 52.798 47.599 52.91 47.686 52.801 47.7 52.97 47.634 53.021 47.771 53.279 48.029 53.314 48.054 53.539 48.26 53.604 48.452 53.17 48.277 53.073 48.305 52.462 47.769 52.032 47.815 52.265 47.684 52.368"/><polygon class="cls-2" points="46.831 52.037 46.86 52.009 46.821 51.861 46.662 51.877 46.648 51.906 46.576 51.888 46.459 52 46.507 52.022 46.599 51.967 46.627 52.022 46.831 52.037"/><polygon class="cls-2" points="44.957 52.454 45.357 52.399 45.481 51.671 45.291 51.594 45.24 51.704 44.971 51.714 44.974 51.759 44.891 51.789 44.952 51.93 44.847 52.081 44.9 52.263 44.789 52.389 44.957 52.454"/><polygon class="cls-2" points="46.841 52.299 46.894 52.411 47.098 52.33 47.141 52.109 47.246 52.069 47.101 51.562 47.051 51.633 46.992 51.603 46.98 51.725 46.866 51.783 46.952 52.019 46.805 52.157 46.863 52.151 46.927 52.276 46.899 52.31 46.841 52.299"/><polygon class="cls-2" points="4.013 49.395 3.984 49.39 3.985 49.731 4.22 49.609 4.076 49.517 4.101 49.447 4.013 49.395"/><polygon class="cls-2" points="3.426 48.624 3.351 48.634 3.342 48.653 3.545 48.914 3.426 48.624"/><polygon class="cls-2" points="0.658 48.58 0.964 49.047 1.016 48.456 0.633 48.237 0.549 48.43 0.658 48.58"/><polygon class="cls-2" points="3.582 47.943 3.504 47.856 3.502 48.198 3.53 48.22 3.582 47.943"/><polygon class="cls-2" points="1.275 47.912 1.366 48.018 1.46 47.635 1.346 47.606 1.333 47.577 1.253 47.571 1.275 47.912"/><polygon class="cls-2" points="39.948 47.957 40.075 48.011 40.209 47.89 40.404 47.939 40.382 47.621 40.182 47.543 40.083 47.646 40.152 47.697 39.948 47.957"/><polygon class="cls-2" points="3.406 47.587 3.666 47.839 3.658 47.568 3.334 47.329 3.406 47.587"/><polygon class="cls-2" points="3.046 47.347 2.878 47.276 3.472 48.361 3.046 47.347"/><polygon class="cls-2" points="4.263 47.388 4.271 47.359 3.913 47.234 3.906 47.271 4.263 47.388"/><polygon class="cls-2" points="3.745 46.56 4.358 46.06 4.303 46.003 3.39 46.22 3.466 46.582 3.745 46.56"/><polygon class="cls-2" points="39.442 45.484 39.5 45.647 39.61 45.515 39.577 45.468 39.442 45.484"/><polygon class="cls-2" points="2.803 42.997 2.889 43.04 2.87 43.24 2.946 43.29 2.938 43.33 3.059 43.312 3.083 42.883 2.916 42.952 2.829 42.826 2.745 42.847 2.803 42.997"/><polygon class="cls-2" points="43.942 41.594 44.038 41.589 44.023 41.413 43.949 41.405 43.837 41.609 43.917 41.619 43.942 41.594"/><polygon class="cls-2" points="44.779 40.834 44.646 40.868 44.941 41.299 45.068 41.184 44.974 40.752 44.872 40.744 44.927 40.804 44.895 40.862 44.779 40.834"/><polygon class="cls-2" points="43.522 40.988 43.633 40.956 43.578 40.792 43.466 40.777 43.422 40.696 43.336 40.702 43.351 40.593 42.944 40.596 42.977 40.622 42.865 40.787 42.908 40.854 42.864 40.909 42.913 40.962 42.865 41.034 42.694 41.028 42.66 40.958 42.609 40.975 42.539 40.879 42.457 41.438 42.832 41.551 42.835 41.464 42.754 41.444 42.7 41.227 42.937 41.153 43.019 41.666 43.309 41.643 43.29 41.574 43.349 41.536 43.382 41.249 43.463 41.303 43.524 41.266 43.48 41.082 43.376 41.109 43.336 41.058 43.419 40.969 43.522 40.988"/><polygon class="cls-2" points="47.243 40.545 47.271 40.556 47.298 40.53 47.284 40.499 47.138 40.596 47.2 40.62 47.243 40.545"/><polygon class="cls-2" points="45.403 40.53 45.434 40.487 45.324 40.474 45.271 40.541 45.403 40.53"/><polygon class="cls-2" points="45.814 40.653 45.914 40.497 45.812 40.471 45.79 40.487 45.79 40.518 45.83 40.527 45.785 40.59 45.814 40.653"/><polygon class="cls-2" points="47.506 44.347 47.52 44.313 47.431 44.285 47.428 44.243 47.512 44.208 47.461 44.084 47.547 44.007 47.527 43.857 47.432 43.813 47.457 43.675 47.544 43.694 47.589 43.53 47.366 43.516 47.338 43.456 47.398 43.405 47.31 43.359 47.278 43.457 47.325 43.529 46.961 43.795 46.619 43.422 46.501 43.439 46.443 43.554 46.546 43.65 46.53 43.699 46.06 43.554 46.141 42.961 46.237 42.934 46.244 43.011 46.331 43.062 46.334 42.883 46.37 42.89 46.379 42.82 46.431 42.799 46.512 42.857 46.522 42.78 46.663 42.757 46.674 42.693 46.564 42.659 46.513 42.692 46.321 42.266 46.159 42.401 46.081 42.373 46.111 42.168 46.248 42.098 46.41 42.319 46.693 41.967 46.961 42.007 47.288 41.389 47.356 41.391 46.853 41.016 46.599 41.548 46.841 41.358 46.889 41.465 46.179 41.602 46.143 41.551 46.193 41.462 46.093 41.306 46.145 41.214 46.214 41.214 46.23 41.17 46.001 41.193 45.923 40.917 46.137 40.851 46.173 40.45 46.123 40.54 46.081 40.49 46.004 40.525 45.968 40.484 45.87 40.74 45.661 40.764 45.611 40.868 45.521 40.78 45.637 40.675 45.532 40.677 45.525 40.618 45.286 40.669 45.265 40.71 45.373 40.724 45.327 40.849 45.646 41.245 45.383 41.266 45.428 41.381 45.322 41.395 45.306 41.341 45.264 41.335 45.27 41.397 45.068 41.441 45.075 41.278 45.004 41.254 44.896 41.536 44.597 41.55 44.563 41.458 44.356 41.437 44.292 43.548 43.761 43.837 43.783 44.001 45.588 44.13 45.622 44.241 45.692 44.256 45.718 44.316 46.797 44.207 46.872 44.31 46.89 44.236 46.974 44.209 47.069 44.302 47.064 44.346 47.117 44.334 47.162 44.386 47.24 44.385 47.21 44.322 47.274 44.249 47.506 44.347"/><polygon class="cls-2" points="47.523 40.438 47.585 40.297 47.369 40.409 47.382 40.429 47.518 40.406 47.523 40.438"/><polygon class="cls-2" points="43.221 40.016 43.21 40.072 43.138 40.076 43.173 40.149 43.304 40.145 43.246 40.01 43.221 40.016"/><polygon class="cls-2" points="42.298 39.401 42.464 39.374 42.469 39.31 42.316 39.208 42.294 39.224 42.311 39.302 42.268 39.345 42.298 39.401"/><polygon class="cls-2" points="43.343 39.269 43.433 39.348 43.46 39.315 43.312 39.162 43.255 39.203 43.298 39.281 43.343 39.269"/><polygon class="cls-2" points="42.793 39.051 42.4 38.691 42.358 38.735 42.585 38.795 42.609 39.553 42.667 39.538 42.723 39.612 42.582 39.809 42.671 39.931 42.753 39.658 42.813 39.689 42.76 39.494 42.717 39.518 42.675 39.368 42.729 39.356 42.816 39.458 42.863 39.345 42.923 39.331 42.987 39.382 43.058 39.275 42.885 39.172 42.905 39.105 42.793 39.051"/><polygon class="cls-2" points="42.325 38.405 42.314 38.426 42.342 38.428 42.375 38.478 42.397 38.338 42.292 38.335 42.325 38.405"/><polygon class="cls-2" points="6.421 37.706 6.385 37.808 6.522 37.893 6.487 37.713 6.421 37.706"/><polygon class="cls-2" points="6.318 37.621 6.325 37.576 6.042 37.455 5.987 37.217 5.999 37.628 6.318 37.621"/><polygon class="cls-2" points="8.135 34.255 8.062 34.304 8.096 34.414 8.274 34.317 8.135 34.255"/><polygon class="cls-2" points="8.369 34.124 8.277 34.039 8.222 34.104 8.284 34.166 8.369 34.124"/><polygon class="cls-2" points="8.479 34.033 8.396 33.936 8.305 33.997 8.373 34.107 8.479 34.033"/><polygon class="cls-2" points="8.879 34.432 9.075 34.81 9.137 34.793 8.932 34.098 9 34.09 8.975 33.9 8.781 34.036 8.879 34.432"/><polygon class="cls-2" points="42.085 32.359 42.121 32.422 42.162 32.306 42.215 32.292 42.248 32.213 42.112 32.266 42.085 32.359"/><polygon class="cls-2" points="45.996 31.898 46.026 31.94 46.094 31.86 46.072 31.78 45.995 31.808 46.046 31.842 46.041 31.874 45.996 31.898"/><polygon class="cls-2" points="42.506 31.753 42.759 31.699 42.718 31.593 42.681 31.599 42.66 31.573 42.602 31.624 42.538 31.569 42.53 31.617 42.49 31.621 42.45 31.696 42.474 31.745 42.506 31.753"/><polygon class="cls-2" points="19.923 31.591 19.968 31.691 19.98 31.489 19.923 31.591"/><polygon class="cls-2" points="11.942 31.267 11.955 31.296 12.121 31.306 12.156 31.231 12.051 31.152 11.942 31.267"/><polygon class="cls-2" points="42.037 31.114 41.997 31.516 42.056 31.193 42.109 31.167 42.037 31.114"/><polygon class="cls-2" points="30.829 31.164 30.872 31.233 30.947 31.147 30.932 31.078 30.829 31.164"/><polygon class="cls-2" points="34.963 31.255 34.996 31.28 34.954 31.046 34.963 31.255"/><polygon class="cls-2" points="46.616 31.351 46.707 31.404 46.784 31.369 46.763 31.011 46.6 31.091 46.616 31.351"/><polygon class="cls-2" points="20.323 31.388 20.344 31.111 19.88 31.054 19.874 31.119 20.323 31.388"/><polygon class="cls-2" points="35.518 31.085 35.573 31.128 35.573 31.008 35.492 30.978 35.518 31.085"/><polygon class="cls-2" points="35.77 31.121 35.84 31.111 35.82 30.992 35.692 30.953 35.77 31.121"/><polygon class="cls-2" points="37.35 31.797 37.818 31.996 39.261 31.185 38.953 30.928 38.555 31.243 38.26 31.169 38.354 31.061 38.211 31.05 38.205 31.092 37.666 31.304 37.656 31.373 37.735 31.419 37.174 31.697 37.35 31.797"/><polygon class="cls-2" points="12.444 31.016 12.604 30.98 12.622 30.901 12.248 30.961 12.242 30.981 12.444 31.016"/><polygon class="cls-2" points="35.031 30.983 35.043 31.304 35.234 31.391 35.409 31.102 34.916 30.824 35.031 30.983"/><polygon class="cls-2" points="12.244 30.839 12.251 30.763 11.879 30.873 12.244 30.839"/><polygon class="cls-2" points="35.454 30.85 35.477 30.927 35.596 30.946 35.775 30.768 35.284 30.699 35.454 30.85"/><polygon class="cls-2" points="34.819 30.836 34.654 30.636 34.608 30.729 34.819 30.836"/><polygon class="cls-2" points="34.941 30.785 35.021 30.733 35.021 30.686 34.856 30.597 34.806 30.722 34.941 30.785"/><polygon class="cls-2" points="43.685 30.624 43.681 30.396 43.146 30.759 43.022 30.691 43.07 30.608 43.043 30.557 42.92 30.696 42.859 30.672 42.785 30.801 42.717 30.795 42.698 30.736 42.623 30.71 42.597 30.768 42.665 30.788 42.71 30.902 42.652 30.922 42.601 30.871 42.581 30.907 42.54 30.864 42.593 31.001 42.99 31.018 43.026 30.974 43.009 30.919 43.685 30.624"/><polygon class="cls-2" points="36.318 30.256 36.567 30.124 36.175 30.076 36.114 30.204 36.174 30.286 36.318 30.256"/><polygon class="cls-2" points="44.43 30.076 44.571 30.035 44.568 29.945 44.43 30.076"/><polygon class="cls-2" points="44.312 29.938 44.409 29.926 44.38 29.758 44.336 29.78 44.28 29.746 44.197 29.831 44.22 29.856 44.023 29.977 44.248 29.973 44.235 29.942 44.273 29.922 44.312 29.938"/><polygon class="cls-2" points="41.524 29.987 41.778 29.677 41.771 29.66 41.718 29.649 41.477 29.838 41.493 29.974 41.524 29.987"/><path class="cls-2" d="M45.968,29.6l.252-.108Z" transform="translate(-0.282)"/><polygon class="cls-2" points="44.804 29.325 44.769 29.376 44.687 29.366 44.585 29.753 44.638 29.825 44.596 29.838 44.611 29.984 44.804 29.325"/><polygon class="cls-2" points="42.085 29.369 42.126 29.275 42.071 29.264 41.998 29.436 42.085 29.369"/><polygon class="cls-2" points="39.229 30.983 41.453 29.381 41.378 29.19 41.284 29.17 41.267 29.105 41.084 29.095 41.021 29.257 41.159 29.38 40.922 29.654 40.836 29.586 39.828 30.174 39.834 30.258 39.521 30.382 39.54 30.318 39.385 30.274 39.317 30.327 39.36 30.381 39.153 30.849 39.229 30.983"/><polygon class="cls-2" points="42.297 29.201 42.449 29.052 42.434 29.015 42.289 29.078 42.301 29.143 42.267 29.178 42.297 29.201"/><polygon class="cls-2" points="45.582 29.003 45.146 29.241 45.022 29.122 45.025 29.221 44.914 29.282 44.91 29.396 45.582 29.003"/><polygon class="cls-2" points="41.588 29.122 41.686 28.957 41.541 28.958 41.559 28.99 41.539 29.015 41.481 29.012 41.472 29.153 41.588 29.122"/><polygon class="cls-2" points="36.837 28.817 36.848 28.768 36.774 28.679 36.735 28.685 36.77 28.796 36.837 28.817"/><polygon class="cls-2" points="42.68 28.872 42.744 28.715 42.664 28.653 42.575 28.829 42.612 28.914 42.68 28.872"/><polygon class="cls-2" points="46.836 28.571 46.82 28.502 46.675 28.598 46.836 28.571"/><polygon class="cls-2" points="41.768 28.786 41.784 28.877 42.159 28.481 41.969 28.396 41.547 28.623 41.53 28.747 41.713 28.851 41.768 28.786"/><polygon class="cls-2" points="21.422 28.942 21.639 28.885 21.779 28.476 20.899 28.376 20.854 28.654 21.422 28.942"/><polygon class="cls-2" points="43.07 28.41 43.059 28.262 42.983 28.245 43.07 28.41"/><polygon class="cls-2" points="26 28.551 26.068 28.651 26.187 28.588 26.223 28.603 26.261 28.521 26.168 28.406 26.177 28.363 26.726 28.302 26.688 28.133 25.944 28.303 26.036 28.419 26 28.551"/><polygon class="cls-2" points="18.538 28.305 18.7 28.292 18.753 28.2 18.6 27.947 18.538 28.305"/><polygon class="cls-2" points="19.802 28.05 19.677 27.946 19.658 28.13 19.744 28.164 19.802 28.05"/><polygon class="cls-2" points="42.977 28.619 43.113 28.604 43.164 28.479 43.209 28.496 43.226 28.556 43.398 28.53 43.53 28.285 43.603 28.412 43.795 28.266 43.814 28.303 43.953 28.129 44.011 28.151 44.081 28.077 43.986 27.869 43.97 27.923 43.895 27.943 43.912 28.027 43.748 28.077 43.675 27.988 43.599 28.04 43.602 28.114 43.702 28.129 43.712 28.186 43.509 28.182 43.502 28.061 43.412 27.998 43.261 28.165 43.298 28.226 43.277 28.284 43.214 28.298 43.213 28.432 43.1 28.433 43.068 28.501 42.84 28.408 42.898 28.642 42.805 28.633 42.78 28.72 42.977 28.619"/><polygon class="cls-2" points="42.55 27.892 42.556 27.825 42.46 27.926 42.488 27.965 42.55 27.892"/><polygon class="cls-2" points="44.074 27.958 44.383 27.842 44.376 27.783 44.514 27.755 44.529 27.678 44.566 27.678 44.617 27.595 44.59 27.555 44.657 27.364 44.504 27.475 44.517 27.518 44.137 27.716 44.111 27.841 44.019 27.79 44.074 27.958"/><polygon class="cls-2" points="26.264 27.738 26.8 27.674 26.645 27.349 26.187 27.495 26.256 27.601 26.163 27.843 26.264 27.738"/><polygon class="cls-2" points="22.577 26.894 22.643 26.934 22.665 26.891 22.51 26.81 22.533 26.901 22.577 26.894"/><polygon class="cls-2" points="6.169 29.505 9.493 29.523 9.711 29.08 8.782 28.581 8.559 28.763 8.577 28.913 8.494 28.97 8.658 28.02 8.13 27.605 8.296 27.249 7.914 26.477 6.783 27.506 6.969 27.463 7.127 27.633 7.241 27.542 7.479 27.827 7.45 27.901 7.231 27.608 6.924 27.91 6.989 27.995 7.046 27.994 7.018 28.409 7.403 28.606 7.427 28.741 7.625 28.735 7.669 28.844 7.64 28.869 7.574 28.754 7.44 28.802 7.199 28.584 7.118 28.725 7.221 28.748 7.177 28.865 7.277 28.913 7.258 28.997 7.139 28.864 7.204 28.78 7.096 28.726 7.15 28.517 7.084 28.458 6.784 28.802 6.32 28.586 6.244 29.067 6.313 29.142 6.075 29.099 6.169 29.505"/><polygon class="cls-2" points="21.788 25.811 21.815 25.833 21.945 25.696 21.81 25.693 21.71 25.823 21.746 25.84 21.788 25.811"/><polygon class="cls-2" points="8.214 26.214 8.327 26.474 8.262 26.474 8.219 26.765 8.329 26.768 8.762 27.864 8.796 27.849 8.79 28.1 8.74 28.129 9.067 28.643 9.21 28.596 9.297 28.767 9.348 28.744 11.597 30.202 14.094 28.202 14.077 28.168 14.682 28.211 14.877 27.364 15.025 27.421 15.007 26.929 14.928 26.941 14.885 26.875 14.791 26.888 14.759 26.959 14.644 26.826 14.689 26.787 14.588 26.617 14.639 26.533 14.442 26.39 14.519 26.285 14.478 26.161 14.272 26.115 14.266 26.312 14.149 26.354 14.114 26.151 13.838 26.102 13.848 26.196 13.642 26.174 13.756 25.98 13.519 25.703 13.493 25.754 13.414 25.709 13.01 26.379 13.179 26.412 13.122 26.629 12.876 26.446 12.899 26.284 12.849 26.234 12.86 26.159 12.756 26.065 12.113 26.472 12.173 26.623 12.057 26.768 11.809 26.692 11.785 26.602 10.097 26.876 10.051 27.124 10.396 27.246 10.404 27.323 10.486 27.358 10.467 27.471 10.803 27.795 10.182 27.39 10.163 27.503 10.035 27.349 10.078 27.213 10.042 27.246 9.81 26.581 9.387 26.959 9.571 27.117 9.235 26.91 9.263 26.617 9.481 26.496 9.194 26.164 9.088 26.273 8.283 25.563 8.108 25.592 8.093 26.155 8.214 26.214"/><polygon class="cls-2" points="23.031 25.404 22.993 25.452 23.111 25.587 23.255 25.523 23.362 25.586 23.342 25.418 23.031 25.404"/><polygon class="cls-2" points="23.066 24.931 23.115 24.851 23.003 24.837 22.966 24.919 23.066 24.931"/><polygon class="cls-2" points="23.788 24.958 23.824 25.094 23.882 25.086 23.951 24.973 23.718 24.828 23.788 24.958"/><polygon class="cls-2" points="44.82 27.215 44.92 27.153 44.972 27.175 44.951 27.232 45.596 26.424 45.561 26.387 45.709 26.146 45.791 26.151 45.898 26.031 45.854 25.906 45.926 25.846 45.988 25.879 46.417 24.764 46.364 24.717 46.292 24.729 46.26 24.864 46.17 24.817 46.117 24.902 46.225 24.936 46.189 25.141 46.105 25.152 46.103 25.196 46.151 25.226 45.853 25.748 45.809 25.677 45.762 25.676 45.68 25.825 45.581 25.796 45.08 26.767 45.02 26.758 44.916 26.922 44.806 26.918 44.789 27.191 44.666 27.258 44.783 27.329 44.82 27.215"/><polygon class="cls-2" points="20.915 25.066 20.924 25.374 20.772 25.502 20.713 25.46 20.673 25.508 21.382 26.699 21.544 25.683 21.641 25.683 21.456 25.588 21.435 25.639 21.38 25.628 21.371 25.411 21.468 25.423 21.422 24.388 21.195 24.534 21.214 24.743 20.979 24.889 20.625 24.768 20.769 25.037 20.915 25.066"/></g><g id="highlight"><polygon class="cls-3" points="146.327 125.044 146.305 124.936 146.326 124.916 146.265 126.006 146.233 126.011 146.327 125.044"/><polygon class="cls-3" points="146.28 124.887 146.151 124.969 146.106 124.929 146.28 124.887"/><polygon class="cls-3" points="145.834 124.944 145.836 124.889 146.188 125.064 145.914 125.096 145.834 124.944"/><polygon class="cls-3" points="146.041 124.854 146.13 124.969 146.036 125.014 145.937 124.934 145.979 124.862 146.041 124.854"/><polygon class="cls-3" points="145.965 124.727 146.184 124.887 145.897 124.723 145.965 124.727"/><polygon class="cls-3" points="145.944 124.676 146.026 124.674 146.085 124.817 145.944 124.676"/><polygon class="cls-3" points="145.613 124.572 145.598 124.496 145.63 124.482 145.714 124.592 145.613 124.572"/><polygon class="cls-3" points="145.813 124.313 145.858 124.527 145.811 124.545 145.813 124.313"/><polygon class="cls-3" points="145.877 124.327 146.175 124.274 146.021 124.358 146.069 124.596 145.988 124.675 145.88 124.6 145.955 124.464 145.927 124.43 145.882 124.446 145.877 124.327"/><polygon class="cls-3" points="145.62 124.33 145.656 124.23 145.73 124.31 145.661 124.443 145.62 124.33"/><polygon class="cls-3" points="145.869 123.919 145.846 124.089 145.874 124.118 145.895 124.053 145.942 124.132 145.85 124.208 145.77 124.152 145.844 123.902 145.869 123.919"/><polygon class="cls-3" points="145.921 123.366 145.931 123.409 145.755 123.5 145.71 123.414 145.723 123.39 145.814 123.378 145.84 123.336 145.921 123.366"/><polygon class="cls-3" points="146.223 123.238 146.33 122.775 146.939 122.973 146.409 124.798 146.127 124.823 146.223 123.238"/><polygon class="cls-3" points="144.793 122.677 144.815 122.835 144.694 122.78 144.673 122.819 144.628 122.819 144.707 122.655 144.793 122.677"/><polygon class="cls-3" points="145.115 122.463 145.167 122.365 145.258 122.426 145.196 122.506 145.115 122.463"/><polygon class="cls-3" points="145.95 120.721 146.481 120.61 146.258 122.608 145.854 120.79 145.95 120.721"/><polygon class="cls-3" points="144.384 119.568 144.463 119.337 144.867 120.998 144.676 121.018 144.126 119.957 144.384 119.568"/><polygon class="cls-3" points="143.384 111.33 143.413 111.419 143.166 111.609 143.132 111.445 143.384 111.33"/><path class="cls-3" d="M143.626,110.083l.3.376Z" transform="translate(-0.282)"/><polygon class="cls-3" points="145.268 106.631 145.629 108.226 145.773 108.219 144.152 113.183 143.843 113.138 143.905 109.787 143.644 109.828 143.624 109.787 144.994 108.436 144.549 107.353 144.386 107.327 145.268 106.631"/><polygon class="cls-3" points="141.966 103.153 141.942 103.144 141.972 103.109 141.986 103.124 141.966 103.153"/><polygon class="cls-3" points="134.353 102.57 134.345 102.406 134.955 102.63 134.962 102.676 134.353 102.57"/><polygon class="cls-3" points="133.67 100.989 134.025 101.709 133.935 101.745 133.811 101.372 133.718 101.407 133.67 100.989"/><polygon class="cls-3" points="131.353 99.735 131.45 99.779 131.447 100.061 131.061 100.137 130.937 99.929 131.353 99.735"/><polygon class="cls-3" points="132.055 99.154 132.914 99.547 132.844 99.611 132.867 99.656 133.027 99.515 133.005 99.48 133.092 99.362 133.122 99.378 133.246 100.451 133.33 100.44 133.581 101.005 133.426 101.03 133.401 101.232 133.262 101.11 133.162 101.135 133.164 101.219 133.018 101.252 131.568 99.409 131.779 99.301 131.798 99.173 132.005 99.197 132.009 99.152 132.055 99.154"/><polygon class="cls-3" points="137.185 99.122 137.162 99.11 137.168 99.104 137.197 99.118 137.185 99.122"/><polygon class="cls-3" points="131.407 97.599 131.335 97.648 131.309 97.476 131.544 97.37 131.562 97.401 131.532 97.434 131.549 97.49 131.661 97.527 131.623 97.614 131.566 97.561 131.407 97.599"/><polygon class="cls-3" points="131.051 96.857 131.049 96.79 131.182 96.941 131.175 96.989 131.149 96.987 131.12 96.941 131.033 96.962 131.004 96.928 131.051 96.857"/><polygon class="cls-3" points="124.092 92.556 124.306 92.705 123.983 93.213 123.985 92.609 124.092 92.556"/><polygon class="cls-3" points="125.012 91.885 125.059 91.984 124.956 91.959 124.965 91.882 125.012 91.885"/><polygon class="cls-3" points="127.641 91.885 127.625 91.936 127.522 91.969 127.486 91.903 127.641 91.885"/><polygon class="cls-3" points="125.198 91.897 125.151 92.018 125.096 92.032 125.182 91.834 125.198 91.897"/><polygon class="cls-3" points="128.484 91.822 128.48 92.025 128.255 92.165 128.279 92.2 128.23 92.266 128.198 92.155 128.33 92.016 128.283 91.983 128.484 91.822"/><polygon class="cls-3" points="128.701 91.741 129.056 92.247 129.026 92.3 128.964 92.267 128.954 92.396 128.763 92.51 128.755 92.468 128.597 92.565 128.535 92.239 128.483 92.277 128.455 92.25 128.686 91.915 128.64 91.836 128.548 91.863 128.521 91.8 128.58 91.706 128.701 91.741"/><polygon class="cls-3" points="125.71 91.205 125.71 91.103 125.766 91.078 125.849 91.136 125.37 91.502 125.313 91.353 125.462 91.253 125.524 91.275 125.657 91.153 125.71 91.205"/><polygon class="cls-3" points="124.994 90.879 125.124 90.782 125.081 91.879 124.902 91.803 124.994 90.879"/><polygon class="cls-3" points="124.974 90.419 124.99 90.438 124.875 90.551 124.769 90.498 124.896 90.475 124.915 90.428 124.974 90.419"/><polygon class="cls-3" points="126.794 90.3 126.818 90.34 126.77 90.369 126.784 90.463 126.708 90.494 126.612 90.301 126.662 90.338 126.794 90.3"/><polygon class="cls-3" points="122.693 89.402 122.711 89.458 122.629 89.493 122.522 89.404 122.693 89.402"/><polygon class="cls-3" points="127.878 88.841 127.775 88.933 127.78 89.06 127.692 89.105 127.498 88.948 127.873 88.781 127.878 88.841"/><polygon class="cls-3" points="127.16 88.527 127.186 88.189 127.501 88.494 127.346 88.561 127.222 88.482 127.16 88.527"/><polygon class="cls-3" points="124.487 88.078 124.525 88.026 124.576 88.033 124.557 88.074 124.618 88.117 124.389 88.151 124.413 88.081 124.487 88.078"/><polygon class="cls-3" points="123.748 86.285 123.753 86.331 123.865 86.364 123.874 86.427 123.824 86.473 123.687 86.337 123.712 86.287 123.748 86.285"/><polygon class="cls-3" points="122.423 83.917 122.472 83.98 122.36 84.129 122.338 84.107 122.267 84.155 122.243 84.117 122.295 83.98 122.265 83.97 122.255 83.928 122.423 83.917"/><polygon class="cls-3" points="122.194 83.863 122.242 84.03 122.15 84.028 122.113 83.972 122.07 83.992 122.019 83.94 122.023 83.907 122.194 83.863"/><polygon class="cls-3" points="123.344 83.655 123.327 83.568 123.446 83.62 123.461 83.702 123.287 83.793 123.177 83.705 123.209 83.652 123.327 83.684 123.344 83.655"/><polygon class="cls-3" points="119.07 83.569 119.062 83.458 119.124 83.458 119.203 83.599 119.098 83.612 119.07 83.569"/><polygon class="cls-3" points="121.23 83.312 121.355 83.261 121.445 83.378 121.423 83.406 121.23 83.312"/><polygon class="cls-3" points="121.47 83.142 121.475 83.204 121.511 83.207 121.505 83.282 121.369 83.243 121.349 83.156 121.389 83.118 121.47 83.142"/><polygon class="cls-3" points="120.746 82.518 120.795 82.482 120.874 82.514 120.831 82.538 120.84 82.619 120.746 82.518"/><polygon class="cls-3" points="120.686 82.469 120.71 82.584 120.546 82.654 120.527 82.6 120.549 82.588 120.583 82.614 120.604 82.554 120.581 82.534 120.632 82.509 120.617 82.461 120.686 82.469"/><polygon class="cls-3" points="120.109 82.243 120.245 82.444 120.226 82.457 120.043 82.195 120.109 82.243"/><polygon class="cls-3" points="120.21 81.096 120.339 81.373 120.3 81.43 120.203 81.391 120.124 81.588 119.973 81.619 119.973 81.529 120.098 81.505 120.123 81.35 120.165 81.375 120.157 81.275 120.205 81.245 120.159 81.172 120.21 81.096"/><polygon class="cls-3" points="119.952 81.115 120.03 81.104 120.048 81.18 119.916 81.248 119.86 81.127 119.901 81.118 119.912 81.066 119.952 81.115"/><polygon class="cls-3" points="119.285 80.703 119.264 80.521 119.281 80.508 119.326 80.524 119.348 80.766 119.285 80.703"/><polygon class="cls-3" points="119.453 80.515 119.446 80.553 119.604 80.569 119.57 80.672 119.508 80.677 119.513 80.605 119.431 80.746 119.403 80.477 119.453 80.515"/><polygon class="cls-3" points="118.836 80.382 118.964 80.842 118.916 80.857 118.801 80.408 118.836 80.382"/><polygon class="cls-3" points="118.7 80.085 118.688 80.031 118.705 80.018 118.754 80.057 118.81 80.03 118.676 80.193 118.669 80.112 118.7 80.085"/><polygon class="cls-3" points="119.163 80.038 119.19 80.007 119.244 80.01 119.235 80.114 119.179 80.137 119.146 80.108 119.182 80.07 119.163 80.038"/><polygon class="cls-3" points="120.276 80.104 120.33 79.991 120.24 80.173 120.278 80.222 120.228 80.316 120.157 80.287 120.18 80.087 120.248 80.078 120.276 80.104"/><polygon class="cls-3" points="119.513 79.425 119.582 79.46 119.551 79.535 119.614 79.599 119.569 79.719 119.688 79.707 119.692 79.913 119.762 79.904 120.089 80.252 119.84 80.399 119.652 80.292 119.622 80.312 119.631 80.416 119.491 80.457 119.485 80.312 119.398 80.278 119.335 80.323 119.188 80.218 119.188 80.182 119.484 79.957 119.441 79.925 119.463 79.853 119.365 79.948 119.34 79.925 119.462 79.429 119.513 79.425"/><polygon class="cls-3" points="119.977 79.424 119.943 79.586 119.883 79.471 119.835 79.465 119.85 79.423 119.94 79.39 119.977 79.424"/><polygon class="cls-3" points="119.441 78.856 119.518 78.915 119.403 78.99 119.412 79.044 119.468 79.057 119.456 79.127 119.335 79.099 119.308 79.56 119.299 79.285 119.187 79.515 119.126 79.485 119.196 79.279 119.049 79.492 119.179 79.027 119.128 78.96 119.248 78.862 119.231 78.924 119.271 78.979 119.441 78.856"/><polygon class="cls-3" points="118.989 78.838 118.998 78.712 119.091 78.772 119.081 78.865 118.989 78.838"/><polygon class="cls-3" points="116.356 78.392 116.387 78.334 116.587 78.492 116.564 78.788 116.384 78.756 116.356 78.392"/><polygon class="cls-3" points="111.005 76.628 111.214 76.558 111.35 76.643 111.303 76.767 110.93 76.629 111.005 76.628"/><polygon class="cls-3" points="111.313 76.385 111.366 76.502 111.265 76.477 111.268 76.374 111.313 76.385"/><polygon class="cls-3" points="106.468 73.188 106.69 73.177 106.726 73.125 106.907 73.191 106.902 73.11 107.023 73.167 106.965 73.41 106.835 73.449 106.817 73.576 106.406 73.276 106.468 73.188"/><polygon class="cls-3" points="105.196 70.564 105.583 70.999 105.864 70.942 105.829 71.088 105.143 71.079 105.134 71.004 105.194 71.001 105.163 70.593 105.196 70.564"/><polygon class="cls-3" points="104.797 70.487 104.827 70.462 104.894 70.536 104.852 70.79 104.785 70.701 104.844 70.607 104.797 70.487"/><polygon class="cls-3" points="104.964 70.457 105.001 70.417 105.137 70.527 105.07 70.629 104.964 70.457"/><polygon class="cls-3" points="104.621 70.014 104.639 69.907 104.753 70.438 104.67 70.507 104.734 70.303 104.635 70.189 104.679 70.171 104.621 70.014"/><polygon class="cls-3" points="104.717 69.732 104.763 69.835 104.735 69.882 104.667 69.849 104.682 69.733 104.717 69.732"/><polygon class="cls-3" points="102.83 68.769 102.891 69.08 102.806 68.743 102.83 68.769"/><polygon class="cls-3" points="102.67 68.79 102.608 68.659 102.626 68.649 102.716 68.718 102.737 68.696 102.763 68.698 102.818 68.955 102.808 68.962 102.67 68.79"/><polygon class="cls-3" points="103.123 67.689 103.238 67.928 103.528 67.894 103.694 69.414 103.081 69.377 102.162 67.985 103.086 68.2 103.076 67.671 103.123 67.689"/><polygon class="cls-3" points="102.674 67.56 102.699 67.419 102.873 67.505 102.721 67.589 102.674 67.56"/><polygon class="cls-3" points="102.645 66.074 102.799 66.319 102.541 66.12 102.615 66.066 102.645 66.074"/><polygon class="cls-3" points="63.477 61.153 63.549 60.886 63.63 60.98 63.48 61.352 63.373 61.314 63.363 61.188 63.477 61.153"/><polygon class="cls-3" points="61.037 60.618 61.04 60.536 61.39 60.865 61.3 60.85 61.283 60.788 61.195 60.793 61.133 60.706 61.084 60.734 61.037 60.618"/><polygon class="cls-3" points="62.813 60.421 63.26 61.078 62.881 61.186 62.906 61.254 62.695 61.234 62.628 61.092 62.347 61.233 62.433 61.329 62.402 61.352 62.162 61.005 62.753 60.397 62.813 60.421"/><polygon class="cls-3" points="101.635 60.129 101.768 60.059 101.664 60.175 101.635 60.129"/><polygon class="cls-3" points="60.25 59.948 60.075 59.829 60.24 59.863 60.25 59.948"/><polygon class="cls-3" points="60.629 59.376 60.71 59.452 60.476 59.614 60.365 59.576 60.361 59.398 60.592 59.304 60.629 59.376"/><polygon class="cls-3" points="101.595 59.081 101.564 59.072 101.565 59.062 101.603 59.077 101.595 59.081"/><polygon class="cls-3" points="60.67 58.676 60.824 58.545 60.928 58.599 60.918 58.847 60.781 58.934 60.77 59.011 60.645 59.043 60.67 58.676"/><polygon class="cls-3" points="62.458 58.613 62.597 58.521 62.66 58.596 62.516 58.763 62.442 58.741 62.458 58.613"/><polygon class="cls-3" points="65 58.468 65.022 58.391 65.105 58.434 64.925 58.581 64.882 58.493 65 58.468"/><polygon class="cls-3" points="64.046 57.35 64.098 57.222 64.178 57.251 64.178 57.528 63.999 57.372 64.046 57.35"/><polygon class="cls-3" points="63.174 56.903 64.064 57.703 63.93 57.73 63.895 57.643 63.369 57.845 63.145 57.419 63.044 57.445 62.969 57.623 62.67 57.681 62.707 57.772 62.887 57.804 62.834 57.98 62.795 57.966 62.768 57.882 62.525 57.941 62.544 57.972 62.601 57.934 62.588 58.286 62.441 58.303 62.501 58.516 62.292 58.551 62.153 58.343 62.069 58.407 62.093 58.457 62.009 58.543 62.038 58.637 61.183 58.907 61.126 58.777 60.994 58.765 60.952 58.522 60.794 58.527 60.768 58.171 61.105 57.865 61.078 57.817 63.097 56.864 63.174 56.903"/><polygon class="cls-3" points="98.469 46.504 98.446 46.419 98.472 46.411 98.602 46.533 98.546 46.622 98.431 46.618 98.399 46.557 98.469 46.504"/><polygon class="cls-3" points="95.628 45.499 95.684 45.591 95.45 45.534 95.628 45.499"/><polygon class="cls-3" points="91.27 43.859 91.349 43.89 91.411 43.84 91.421 43.922 91.371 43.971 91.225 43.866 91.27 43.859"/><polygon class="cls-3" points="91.254 43.503 91.39 43.493 91.454 43.709 91.141 43.645 91.147 43.593 91.261 43.596 91.254 43.503"/><polygon class="cls-3" points="91.188 43.333 91.213 43.399 91.362 43.429 91.223 43.451 91.19 43.518 91.141 43.513 91.01 43.65 91.176 43.319 91.188 43.333"/><polygon class="cls-3" points="75.98 38.931 76.065 38.969 76.063 39.092 75.939 39.112 75.98 38.931"/><polygon class="cls-3" points="75.896 38.682 76.088 38.753 76.091 38.833 76.068 38.847 75.896 38.682"/><polygon class="cls-3" points="75.783 38.664 75.816 38.686 75.815 38.756 75.591 38.788 75.749 38.646 75.783 38.664"/><polygon class="cls-3" points="86.108 35.86 86.255 36.053 86.238 36.102 86.013 36.066 86.066 35.874 86.108 35.86"/><polygon class="cls-3" points="81.838 24.051 81.998 24.302 81.92 24.32 81.887 24.19 81.673 24.111 81.682 24.051 81.838 24.051"/><polygon class="cls-3" points="81.319 22.938 81.273 22.857 81.503 23.034 81.49 23.055 81.319 22.938"/><polygon class="cls-3" points="80.213 22.824 80.234 22.84 80.085 23.072 80.069 23.037 80.129 22.953 80.107 22.878 80.213 22.824"/><polygon class="cls-3" points="79.588 22.82 79.599 22.916 79.511 22.974 79.459 22.874 79.54 22.781 79.588 22.82"/><polygon class="cls-3" points="53.801 114.419 53.775 57.752 55.745 59.021 55.804 58.949 64.066 63.832 64.121 63.801 64.302 63.893 64.308 63.967 71.106 62.806 73.335 57.838 73.402 57.866 75.068 50.635 75.031 50.591 75.292 49.73 75.568 49.819 75.322 49.711 75.127 39.535 74.963 39.985 75.221 39.935 75.041 39.776 75.564 38.762 75.985 38.803 75.922 39.121 76.104 39.132 76.096 39.043 76.157 38.985 76.149 38.856 76.186 38.837 75.884 38.631 75.909 38.568 76.195 38.477 76.194 38.349 75.804 38.625 75.698 38.582 75.591 36.004 75.621 36.062 76.7 34.584 77.317 35.903 77.467 35.883 77.248 35.016 77.469 35.012 77.496 34.932 77.622 34.92 77.52 34.863 77.335 34.975 76.74 34.462 77.669 34.104 77.402 33.915 76.693 34.163 76.384 33.948 76.392 33.871 76.349 33.86 76.334 33.79 75.93 33.646 75.976 33.529 76.07 33.534 76.124 33.447 76.272 33.459 75.992 33.352 75.969 33.416 75.718 33.34 75.694 33.663 75.943 33.746 75.943 33.896 75.326 33.938 76.063 31.966 76.599 32.111 76.662 31.992 76.138 31.923 77.227 30.292 77.09 30.461 77.378 31.372 77.408 31.382 77.36 30.995 77.574 30.814 77.894 30.996 78.013 30.538 77.874 30.823 77.423 30.401 77.679 29.171 77.817 29.115 77.876 29.155 78.099 29.028 78.218 29.073 78.278 29.015 77.801 29.093 78.162 28.179 77.937 28.538 77.916 28.517 78.105 27.831 78.429 27.74 78.183 27.749 78.514 27.178 78.36 27.281 78.632 24.217 79.003 24.054 79.052 24.205 79.06 24.099 79.699 23.999 80.402 22.819 80.825 22.826 80.834 22.769 80.949 22.707 80.997 22.743 80.998 22.808 81.423 23.065 81.349 23.12 81.364 23.156 80.571 24.405 80.75 24.394 80.946 24.104 81.079 24.156 81.049 23.91 81.302 23.778 81.482 24.088 81.423 24.172 81.911 24.423 82.064 24.335 82.579 26.314 82.684 26.317 83.055 29.792 83.987 30.165 84.352 29.913 84.798 30.409 85.109 30.285 85.231 30.408 85.129 30.494 85.06 30.409 84.297 31.512 84.265 31.456 84.235 31.493 84.272 31.594 84.332 31.599 84.27 32.646 85.358 32.922 85.409 33.638 86.39 34.225 86.177 34.625 86.272 34.61 85.869 35.897 86.023 35.964 85.999 36.072 86.161 36.138 86.27 36.075 86.151 35.858 87.023 35.609 86.767 36.299 86.836 36.326 87.118 38.748 87.248 38.788 88.988 45.404 89.405 45.497 89.389 45.58 90.929 44.106 91.006 44.115 91.051 44.065 91.781 44.372 92.699 43.537 93.272 44.703 93.614 44.629 93.462 45.39 93.855 45.854 94.393 45.81 94.444 46.099 95.29 46.369 95.29 46.515 97.116 47.524 97.064 47.831 97.595 48.302 97.83 48.202 97.371 50.079 97.688 50.054 97.78 49.89 97.883 50.173 97.439 50.493 97.526 50.59 97.188 51.278 97.369 51.367 97.394 51.486 97.437 51.496 97.376 51.776 97.46 51.879 97.569 51.837 97.707 52.155 97.663 52.148 97.893 53.508 97.973 53.52 98.412 55.728 98.557 55.788 98.564 55.938 98.633 55.971 98.304 57.368 100.403 59.799 100.311 59.908 100.426 60.051 100.831 59.743 100.913 59.933 101.047 59.956 101.126 59.886 101.176 59.896 101.236 59.702 102.201 63.503 102.126 63.558 102.535 68.716 102.583 68.689 106.676 74.023 106.749 73.956 106.75 74.119 107.456 74.295 107.758 73.95 107.741 73.909 107.866 73.781 107.822 73.593 108.094 74.16 108.039 74.137 107.973 74.287 108.455 75.019 108.544 74.997 108.544 74.933 108.702 74.927 108.727 74.991 110.382 75.022 110.075 74.321 111.166 76.081 111.026 76.019 110.957 76.058 111.182 76.15 111.252 76.449 110.831 76.483 110.819 76.54 112.464 77.547 112.253 76.747 112.799 76.86 113.036 77.779 115.257 78.408 115.279 78.351 115.321 78.622 115.086 78.703 115.387 78.933 115.384 79.087 116.478 79.351 116.59 79.194 116.402 79.189 116.439 78.85 116.895 79.052 117.093 78.889 117.273 79.543 117.212 79.578 117.211 79.674 117.304 79.698 117.435 79.548 117.323 79.741 117.508 79.795 117.545 79.513 117.59 79.532 117.587 79.757 117.632 79.785 117.777 79.552 117.72 79.888 117.808 79.879 117.786 80.149 118.008 80.067 118.07 80.139 118.112 80.131 118.118 80.009 118.232 80.062 118.228 79.902 118.296 79.891 118.374 80.124 118.52 80.161 118.318 80.235 118.984 81.308 119.108 81.269 119.184 81.348 119.056 81.345 119.019 81.423 119.297 81.695 119.085 81.745 119.015 81.619 118.856 81.654 118.532 81.167 118.417 81.164 118.296 81.353 118.233 81.317 118.137 81.371 117.938 81.224 117.901 81.273 118.006 81.456 117.72 81.931 117.889 82.3 118.077 82.287 118.092 82.353 117.952 82.503 118.111 82.62 118.106 82.78 118.381 82.876 118.398 83.058 118.758 83.23 118.497 83.346 118.81 83.562 118.771 83.738 119.027 83.627 119.054 83.75 119.442 83.744 119.506 83.868 119.684 83.836 119.744 83.956 119.816 83.955 119.886 83.868 120.074 84.04 119.79 84.087 119.896 84.223 119.797 84.433 120.215 84.334 120.465 84.524 120.518 84.452 120.659 84.483 120.743 84.711 120.767 84.675 120.831 84.685 120.958 84.928 121.069 84.857 120.9 85.85 120.962 85.856 120.995 85.943 120.786 86.177 120.9 86.256 121.245 85.947 121.417 86.161 121.472 86.108 121.501 86.119 121.493 86.522 121.6 86.605 121.56 86.666 121.613 86.834 121.522 86.878 121.431 86.811 121.368 86.882 121.696 86.939 121.722 87.072 121.497 87.035 121.355 87.348 121.492 87.545 121.747 87.325 121.878 87.501 122.083 87.435 121.978 87.672 122.391 87.938 122.517 87.686 122.615 87.667 122.455 88.743 122.548 88.742 122.586 88.932 122.458 88.851 122.301 89.256 122.487 89.401 122.48 89.506 122.538 89.505 123.326 92.1 123.063 92.262 123.478 92.248 123.656 92.599 123.859 92.554 123.612 93.602 124.572 92.762 125.883 94.3 125.188 92.52 125.283 92.553 125.3 92.462 125.535 92.448 125.194 92.397 125.956 91.235 126.111 91.398 126.188 91.382 126.855 92.421 126.771 92.637 129.474 94.4 129.097 93.578 129.319 93.601 129.434 93.812 129.604 93.678 129.014 93.372 129.07 92.37 129.41 92.47 129.454 92.436 129.664 93.161 129.601 92.683 129.665 92.652 129.655 92.583 129.701 92.549 129.997 93.131 130.2 93.141 130.244 93.281 130.187 93.333 130.143 93.309 130.052 93.572 129.883 93.504 129.873 93.433 129.795 93.384 129.7 93.603 129.848 93.789 130.001 93.789 130.105 94.231 130.142 94.236 130.234 93.614 130.429 93.684 130.381 93.707 130.42 94.364 130.519 94.346 130.532 94.503 130.688 94.571 130.561 95.373 130.521 95.361 130.42 96.006 130.496 96.063 130.445 96.128 130.413 96.009 130.111 96.036 130.186 96.158 130.332 96.141 130.271 96.428 130.331 96.213 130.344 97.444 130.467 97.438 130.459 97.517 130.5 97.554 130.458 97.751 130.515 97.821 130.622 97.795 130.653 98.135 130.332 98.296 130.321 98.367 130.463 98.398 130.937 99.35 129.913 99.493 130.966 99.773 130.955 99.851 130.531 99.796 130.489 99.839 131.245 100.189 131.292 100.566 131.281 100.19 131.504 100.089 131.538 99.8 132.429 100.498 132.288 100.528 132.497 100.649 132.388 100.678 132.646 100.952 132.557 101.08 133.487 101.615 133.467 101.967 133.635 101.705 134.356 102.971 134.349 102.615 134.432 102.677 134.429 102.769 134.527 102.84 134.572 102.827 134.563 102.745 134.629 102.702 134.857 102.83 134.795 102.876 135.068 103.126 135.08 102.676 135.758 102.996 135.76 103.116 135.309 102.494 135.354 102.331 136.071 102.589 135.95 102.705 135.985 102.978 136.083 102.825 136.042 102.753 136.159 102.647 136.144 102.462 136.944 103.483 136.832 103.684 137.007 103.35 138.021 105.532 137.948 105.608 137.72 105.535 138.068 105.629 138.066 105.558 139.953 106.874 139.93 107.051 140.165 107.001 141.482 109.355 140.928 109.589 140.972 109.675 140.981 109.578 142.534 110.025 142.513 109.931 142.652 109.932 142.707 110.113 143.114 110.142 143.138 110.214 143.085 110.267 143.232 111.027 142.969 111.101 142.928 111.068 142.652 111.389 142.496 111.359 142.374 111.482 143.417 111.04 143.132 111.645 143.044 111.654 142.922 111.875 142.976 111.911 142.942 112.123 143.027 112.14 143.114 112.498 142.973 112.485 142.953 112.537 143.205 112.681 143.157 112.871 143.307 112.909 143.301 113.014 143.589 113.053 143.576 113.197 143.309 113.222 143.364 113.309 143.578 113.231 143.837 113.551 143.773 113.567 143.762 113.609 143.874 113.703 143.836 113.821 143.746 113.824 143.731 113.969 143.855 114.053 143.701 114.154 143.728 114.311 143.861 114.283 143.934 114.145 143.877 114.126 143.964 114.042 143.957 114.009 143.846 113.971 143.846 113.882 144.03 113.84 144.011 113.403 144.105 113.4 144.097 113.351 144.005 113.305 144.101 113.303 144.655 114.137 144.74 114.11 144.769 114.008 144.834 114.033 144.15 116.721 144.396 116.713 144.286 118.27 144.1 118.278 144.263 118.362 144.293 118.322 144.413 118.525 144.513 118.51 144.583 119.245 144.428 119.269 144.082 120.065 143.959 120.1 144.546 120.868 143.858 121.512 143.903 121.598 144.37 121.569 144.311 122.002 144.256 121.958 144.065 122.119 144.64 122.692 144.498 122.96 144.71 122.834 144.743 123.069 144.811 123.106 144.843 123.263 145.244 123.32 145.253 123.529 145.397 123.536 145.425 123.807 145.535 123.82 145.611 124.633 145.465 124.654 145.481 124.697 145.602 124.69 145.658 124.596 145.798 124.603 145.853 125.062 146.155 125.149 146.229 126.263 146.221 126.047 146.258 126.031 146.983 127.406 146.879 127.481 146.536 127.364 145.708 127.919 145.653 127.835 144.735 127.918 144.734 128.068 144.643 128.102 144.686 128.189 144.536 128.253 144.538 128.291 144.431 128.326 144.46 128.4 141.362 128.048 141.154 128.444 140.83 128.247 140.882 128 137.615 129.574 137.566 129.432 137.403 129.74 137.761 130.404 137.932 130.404 137.998 130.507 138.075 130.493 137.784 131.505 137.837 131.555 137.898 131.525 137.824 131.745 137.766 131.761 137.746 131.844 137.694 131.861 137.672 131.786 136.786 131.864 136.62 132.195 136.57 132.157 136.584 132.114 136.319 132.143 136.037 131.623 134.63 132.749 134.69 132.794 133.727 133.485 133.547 133.305 133.597 133.234 133.375 133.03 133.434 132.718 133.32 132.592 133.37 132.278 133.325 132.229 133.382 132.137 131.918 131.381 131.951 131.214 131.839 131.175 131.805 131.052 131.873 131.03 130.61 130.412 130.606 130.363 129.786 130.386 129.739 130.323 129.302 130.445 129.182 130.352 129.076 130.388 129.011 130.342 129.012 130.431 128.854 130.417 128.931 130.382 128.178 130.317 128.193 130.224 128.11 130.177 128.032 130.221 127.877 130.054 127.905 130.004 127.452 129.637 127.117 129.734 127.132 129.77 127.086 129.745 127.071 129.818 126.986 129.813 126.975 129.855 126.852 129.81 126.804 129.843 126.818 129.805 126.767 129.789 126.799 129.753 126.725 129.789 126.71 129.716 126.62 129.754 126.621 129.713 126.561 129.779 126.521 129.763 126.534 129.802 126.431 129.772 126.37 129.834 126.249 129.8 126.261 129.87 126.179 129.916 126.136 129.874 125.992 129.946 125.975 129.906 124.62 130.109 124.569 130.056 123.924 130.123 123.927 130.217 123.805 130.172 123.774 130.225 123.715 130.208 123.727 130.156 122.731 129.861 122.721 129.899 122.595 129.91 122.589 129.96 122.345 130.086 122.368 130.133 122.29 130.176 122.292 130.272 122.214 130.32 122.249 130.344 121.338 130.816 121.326 130.874 121.28 130.822 120.544 131.264 120.567 131.347 120.474 131.425 120.39 131.391 120.333 131.441 120.321 131.407 120.045 131.735 120.097 131.748 71.776 132.407 71.777 114.416 53.801 114.419"/><polygon class="cls-3" points="81.635 22.314 81.769 22.353 81.65 22.511 81.597 22.49 81.595 22.468 81.634 22.468 81.671 22.398 81.56 22.334 81.614 22.278 81.635 22.314"/><polygon class="cls-3" points="78.892 22.159 78.992 22.141 79.429 22.806 79.359 22.934 79.3 22.854 79.252 22.851 79.151 23.007 79.107 22.909 78.898 23.047 78.888 23.166 78.671 23.159 78.429 22.681 78.458 22.651 78.436 22.553 78.506 22.484 78.489 22.444 78.624 22.419 78.686 22.308 78.783 22.311 78.892 22.159"/><polygon class="cls-3" points="78.657 22.121 78.841 22.084 78.785 22.207 78.7 22.199 78.657 22.121"/><polygon class="cls-3" points="79.36 22.029 79.611 21.997 79.728 22.249 79.375 22.425 79.193 22.236 79.36 22.029"/><polygon class="cls-3" points="79.165 22.015 79.034 22.106 79.01 22.034 79.117 21.989 79.165 22.015"/><polygon class="cls-3" points="78.998 21.784 79.048 21.702 79.11 21.714 79.151 21.788 78.94 22.021 78.849 21.939 78.924 21.833 78.973 21.855 78.998 21.784"/><polygon class="cls-3" points="79.643 21.606 79.695 21.773 79.62 21.829 79.474 21.74 79.643 21.606"/><polygon class="cls-3" points="78.502 20.787 78.519 20.694 78.567 20.699 78.583 20.89 78.549 20.896 78.502 20.787"/><polygon class="cls-3" points="79.377 19.271 79.833 19.588 79.441 20.133 78.874 19.712 79.377 19.271"/><polygon class="cls-3" points="78.862 18.932 78.751 19.661 78.33 19.401 78.456 18.987 78.862 18.932"/><polygon class="cls-3" points="82.722 18.757 82.739 18.7 82.908 18.694 82.971 18.821 82.91 18.895 82.722 18.757"/><polygon class="cls-3" points="78.76 18.28 78.97 18.249 78.977 18.295 78.939 18.291 78.828 18.41 78.76 18.28"/><polygon class="cls-3" points="89.987 18.073 90.114 18.03 90.136 18.072 90.024 18.15 89.982 18.117 89.987 18.073"/><polygon class="cls-3" points="83.15 17.699 83.17 17.653 83.455 17.712 83.188 17.77 83.15 17.699"/><polygon class="cls-3" points="81.499 17.214 81.536 17.125 81.657 17.154 81.658 17.212 81.499 17.214"/><polygon class="cls-3" points="88.464 16.043 88.408 16.173 88.332 16.178 88.293 16.125 88.312 16.064 88.391 16.063 88.422 16.006 88.44 16.006 88.464 16.043"/><polygon class="cls-3" points="79.319 15.91 79.336 15.884 79.686 15.988 79.655 16.023 79.319 15.91"/><polygon class="cls-3" points="80.933 15.113 80.944 15.045 81.079 15.107 80.962 15.2 80.933 15.113"/><polygon class="cls-3" points="81.363 14.907 82.551 14.815 82.57 14.874 81.353 15.028 81.363 14.907"/><path class="cls-3" d="M82.4,14.792l-.348.009Z" transform="translate(-0.282)"/><polygon class="cls-3" points="78.565 14.161 79.533 14.143 79.417 14.32 78.602 14.226 78.565 14.161"/><polygon class="cls-3" points="78.705 14.033 78.757 13.927 78.901 13.982 78.718 14.069 78.705 14.033"/></g></svg>