<svg xmlns="http://www.w3.org/2000/svg" viewBox="0 0 169.762 149.516"><defs><style>.cls-1{fill:#eff9fe;}.cls-2{fill:#e6e6e6;}.cls-3{fill:#495b14;}</style></defs><title>SA-ICON</title><g id="Layer_3" data-name="Layer 3"><rect class="cls-1" x="10.385" y="-9.615" width="149.512" height="169.718" transform="translate(9.659 159.897) rotate(-90)"/></g><g id="aus5fgd_r_area"><polygon class="cls-2" points="155.166 149.516 155.115 149.385 155.006 149.347 155.009 149.29 155.077 149.222 155.263 149.209 155.309 149.259 155.448 149.253 155.511 149.166 155.6 149.143 155.437 149.037 155.417 148.897 155.314 148.759 155.128 148.756 155.026 148.666 154.751 149.029 154.799 149.056 154.823 149.132 154.756 149.197 154.665 149.216 154.743 149.258 154.891 149.183 154.963 149.228 154.987 149.322 154.936 149.361 154.825 149.358 154.755 149.512 155.166 149.516"/><polygon class="cls-2" points="156.475 147.148 156.492 147.082 156.407 147.022 156.34 147.011 156.267 147.053 156.116 147.008 156.007 147.094 156.011 147.152 156.078 147.216 156.251 147.202 156.472 147.321 156.664 147.3 156.551 147.258 156.475 147.148"/><polygon class="cls-2" points="152.456 137.999 152.442 137.94 152.347 138.081 152.286 138.126 152.316 138.15 152.401 138.105 152.456 137.999"/><polygon class="cls-2" points="136.881 137.957 137.079 138.031 137.216 138.037 137.242 138.027 137.211 137.987 136.881 137.775 136.855 137.904 136.881 137.957"/><polygon class="cls-2" points="155.123 137.706 155.148 137.729 155.185 137.698 155.229 137.722 155.328 137.674 155.344 137.643 155.299 137.628 155.237 137.668 155.148 137.675 155.123 137.706"/><polygon class="cls-2" points="154.264 149.512 154.275 149.503 154.225 149.452 154.333 149.36 154.365 149.272 154.314 149.216 154.33 149.132 154.182 149.048 154.268 148.896 154.089 148.786 154.008 148.647 153.876 148.651 153.862 148.583 153.92 148.525 154.085 148.528 154.069 148.438 153.982 148.388 154.039 148.309 154.164 148.437 154.184 148.551 154.239 148.535 154.282 148.571 154.318 148.562 154.32 148.483 154.399 148.426 154.404 148.374 154.489 148.349 154.554 148.412 154.658 148.305 154.571 148.262 154.566 148.128 154.665 147.957 154.651 147.893 154.589 147.882 154.564 147.777 154.475 147.683 154.541 147.564 154.646 147.494 154.651 147.43 154.749 147.353 154.683 147.207 154.701 147.145 154.539 147.137 154.47 147.207 154.491 147.272 154.343 147.37 154.321 147.315 154.212 147.34 154.189 147.289 154.418 147.248 154.408 147.202 154.477 147.114 154.596 147.107 154.682 146.863 154.758 146.821 154.668 146.747 154.675 146.688 154.864 146.466 154.988 146.407 155.022 146.307 155.081 146.259 155.022 145.94 155.076 145.886 155.211 145.828 155.989 145.824 155.821 145.763 155.28 145.717 155.36 145.627 155.497 145.63 155.56 145.582 155.558 145.491 155.448 145.445 155.45 145.36 155.51 145.286 155.608 145.239 155.626 145.311 155.777 145.38 155.889 145.276 155.882 145.189 155.974 145.159 156.039 145.186 156.044 145.259 155.876 145.47 155.626 145.514 155.61 145.591 155.526 145.652 155.541 145.699 155.72 145.72 155.761 145.664 155.837 145.663 155.851 145.723 156.036 145.804 156.003 145.845 156.074 145.954 156.191 145.928 156.398 146.05 156.155 146.223 156.151 146.261 156.239 146.281 156.336 146.409 156.246 146.501 156.209 146.608 156.094 146.646 156.136 146.767 156.327 146.821 156.34 146.94 156.472 146.914 156.533 146.773 156.525 146.693 156.554 146.635 156.666 146.591 156.645 146.527 156.719 146.414 156.716 146.336 156.623 146.343 156.478 146.272 156.412 146.304 156.371 146.253 156.531 146.149 156.505 146.053 156.611 146.05 156.594 146.014 156.657 145.983 156.627 145.873 156.583 145.887 156.444 145.598 156.374 145.6 156.287 145.473 156.29 145.247 156.337 145.1 156.445 145.026 156.397 144.961 156.4 144.875 156.524 144.759 156.411 144.609 156.451 144.502 156.314 144.456 156.221 144.358 156.17 144.097 156.278 143.822 156.337 143.755 156.402 143.748 156.399 143.693 156.314 143.66 156.291 143.564 156.327 143.255 156.376 143.143 156.478 143.059 156.502 142.974 156.473 142.686 156.423 142.676 156.382 142.604 156.322 142.604 156.282 142.539 156.262 142.351 156.18 142.172 156.186 142.021 156.341 141.521 156.458 141.351 156.541 141.106 156.738 140.943 156.716 140.906 156.575 140.957 156.531 141.045 156.454 141.094 156.443 141.155 156.224 141.29 156.168 141.299 156.07 141.231 156.245 141.152 156.21 141.11 156.275 140.95 156.444 140.989 156.569 140.907 156.615 140.803 156.563 140.753 156.498 140.788 156.457 140.745 156.391 140.774 156.23 140.509 156.218 140.342 156.289 140.233 156.208 140.134 156.215 139.952 156.368 139.643 156.28 139.574 156.157 139.567 156.142 139.531 156.331 139.454 156.303 139.548 156.357 139.601 156.365 139.482 156.594 139.235 156.676 139.218 156.649 139.187 156.56 139.208 156.515 139.181 156.486 139.093 156.406 139.031 156.396 138.907 156.227 138.785 156.152 138.615 156.01 138.58 155.936 138.515 155.901 138.44 155.928 138.343 155.773 138.304 155.649 138.192 155.631 138.242 155.421 138.243 155.1 137.906 154.855 137.869 154.781 137.771 154.699 137.784 154.655 137.739 154.452 137.712 154.288 137.744 154.223 137.706 154.246 137.781 154.34 137.852 154.314 137.916 154.252 137.922 154.268 138.024 153.887 138.499 153.847 138.484 153.603 138.583 153.383 138.565 153.172 138.476 153.138 138.411 152.85 138.432 152.613 138.229 152.61 138.19 152.454 138.293 152.194 138.353 151.658 139.051 151.258 139.272 150.97 139.28 150.903 139.145 150.746 139.127 150.723 138.983 150.667 138.9 150.537 138.979 150.391 139.008 150.304 138.976 150.267 138.917 150.091 138.984 150.045 139.081 149.897 139.223 149.485 139.335 149.284 139.235 149.015 139.253 148.95 139.191 148.788 139.206 148.719 139.148 148.565 139.182 148.307 139.404 147.956 139.438 147.843 139.377 147.787 139.436 147.571 139.519 147.433 139.641 147.323 139.587 147.466 139.762 147.57 140.079 147.727 140.096 147.903 140.052 148.051 140.117 148.089 140.191 148.301 140.336 148.147 140.385 148.133 140.43 148.259 140.513 148.271 140.63 148.536 140.755 148.687 140.907 148.678 140.958 148.592 140.968 148.506 141.047 148.506 141.1 148.588 141.155 148.845 141.172 148.868 141.273 149.042 141.251 149.092 141.315 149.047 141.363 149.062 141.435 149.24 141.638 149.132 141.638 149.041 141.555 149.027 141.306 148.926 141.302 148.799 141.363 148.637 141.191 148.519 141.184 148.422 141.113 148.412 141.033 148.47 140.948 148.403 140.835 148.273 140.819 148.195 140.646 147.998 140.508 148.084 140.445 148.136 140.278 147.86 140.16 147.742 140.288 147.551 140.252 147.539 140.163 147.492 140.128 147.344 140.138 147.229 140.25 147.206 140.163 147.272 140.158 147.406 140.067 147.509 140.085 147.461 139.97 147.256 139.757 147.165 139.731 147.068 139.768 146.847 139.643 146.884 139.705 146.747 139.819 146.639 139.867 146.536 139.821 146.466 139.834 146.487 139.923 146.315 140.067 146.143 140.135 145.989 140.148 145.97 140.206 146.001 140.241 146.082 140.197 146.201 140.206 146.096 140.29 146.105 140.585 146.059 140.698 146.014 140.702 145.977 140.689 145.99 140.627 146.043 140.58 145.978 140.445 146.038 140.393 145.934 140.23 145.857 140.198 145.874 140.039 145.804 139.973 145.734 140.067 144.972 140.3 144.791 140.292 144.791 140.258 144.551 140.186 144.346 140.227 144.155 140.175 144.113 140.214 143.98 140.218 143.808 140.166 143.62 140.164 143.57 140.11 143.381 140.074 143.32 139.977 143.071 139.955 142.99 139.878 142.367 139.638 142.154 139.661 142.062 139.607 142.074 139.556 141.919 139.527 141.872 139.483 141.456 139.44 141.214 139.245 141.038 139.19 140.956 139.078 141.005 138.999 140.983 138.935 140.35 138.864 140.327 138.819 140.191 138.812 140.086 138.743 139.961 138.753 139.74 138.588 139.668 138.444 139.704 138.41 139.644 138.374 139.537 138.463 139.291 138.493 138.945 138.367 138.66 138.368 138.483 138.292 138.325 138.047 138.363 138.196 138.238 138.141 138.213 138.066 138.347 137.863 138.466 137.848 138.391 137.698 138.274 137.679 138.178 137.54 138.13 137.561 138.121 137.644 138.181 137.739 138.225 137.748 138.217 137.999 138.166 138.097 138.06 138.144 137.918 138.124 138.069 138.071 138.115 138.005 137.757 138.089 137.301 138.029 137.292 138.071 137.539 138.131 137.6 138.189 137.416 138.18 137.348 138.278 137.237 138.13 137.154 138.144 136.864 137.96 136.753 137.954 136.761 137.887 136.607 137.827 136.495 137.724 136.434 137.772 136.246 137.796 136.157 137.863 136.124 137.798 135.725 137.697 135.658 137.721 135.63 137.571 135.482 137.625 135.443 137.544 135.331 137.516 135.293 137.544 135.274 137.683 135.225 137.697 135.24 137.48 135.139 137.448 134.975 137.115 134.9 137.207 134.777 137.244 134.725 137.308 134.804 137.404 134.693 137.562 134.769 137.794 134.851 137.776 134.881 137.835 134.875 137.899 134.809 137.961 134.857 138.028 134.802 138.133 134.891 138.271 134.9 138.365 134.743 138.69 134.685 138.72 134.515 138.665 134.557 138.742 134.301 138.879 134.295 138.929 134.355 138.934 134.416 139.031 134.414 139.209 134.374 139.289 134.265 139.316 134.458 139.531 134.58 139.579 134.682 139.88 134.658 139.96 134.613 139.983 134.643 140.089 134.696 140.125 134.659 140.229 134.788 140.457 134.723 140.679 134.875 140.826 134.938 141.06 135.068 141.127 135.035 141.164 135.051 141.213 135.192 141.312 135.271 141.426 135.302 141.663 135.243 141.728 135.159 141.716 135.098 141.785 135.355 141.943 135.383 142.031 135.488 142.124 135.512 142.21 136.048 143.021 136.003 143.092 136.171 143.27 136.08 143.375 136.137 143.541 136.216 143.604 136.302 143.56 136.415 143.608 136.666 143.884 136.664 143.961 136.713 144.029 137.022 144.278 137.051 144.384 137.341 144.597 137.379 144.673 137.653 144.825 138.083 145.472 138.194 146.134 138.147 146.34 137.97 146.528 138.229 146.648 138.336 146.629 138.339 146.505 138.272 146.509 138.223 146.466 138.308 146.369 138.595 146.298 138.641 146.256 138.758 146.303 138.752 146.468 138.842 146.608 138.776 146.657 138.803 146.762 138.874 146.762 139.032 146.938 139.146 146.993 139.206 147.138 139.39 147.196 139.414 147.33 139.477 147.346 139.608 147.247 139.716 147.286 139.72 147.341 139.812 147.43 139.876 147.366 139.959 147.392 139.823 147.597 139.836 147.654 139.768 147.791 139.677 147.857 139.644 147.865 139.555 147.784 139.401 147.851 139.481 148.13 139.448 148.253 139.492 148.43 139.407 148.365 139.367 148 139.291 147.878 139.326 147.681 139.27 147.662 139.223 147.569 139.077 147.474 138.972 147.5 138.833 147.377 138.604 147.285 138.601 147.236 138.477 147.176 138.484 147.046 138.37 147.026 138.348 146.95 138.247 146.957 138.213 146.999 138.139 146.986 138.114 146.942 138.146 146.857 138.032 146.83 138.027 146.721 137.897 146.522 137.801 146.491 137.796 146.439 137.618 146.434 137.734 146.578 137.757 146.707 137.852 146.778 137.9 146.927 137.891 147.048 137.784 147.125 137.794 147.217 137.96 147.389 137.988 147.48 137.963 147.57 138.036 147.604 138.061 147.782 138.135 147.877 138.139 147.936 138.032 148.082 138.141 148.177 138.28 148.626 138.431 148.674 138.399 148.813 138.301 148.936 138.196 148.924 138.189 148.971 138.236 149.022 138.322 149.033 138.348 148.984 138.483 148.971 138.601 149.074 138.625 149.179 138.701 149.154 138.809 149.191 138.806 149.372 138.852 149.411 138.883 149.512 154.264 149.512"/><polygon class="cls-2" points="136.766 137.372 136.244 137.166 136.193 137.002 136.133 137.017 136.071 137.168 135.844 137.349 135.874 137.521 135.823 137.595 135.913 137.677 136.051 137.699 136.134 137.634 136.274 137.649 136.392 137.537 136.478 137.51 136.633 137.541 136.805 137.503 136.88 137.57 137.022 137.54 136.878 137.396 136.912 137.346 136.766 137.372"/><polygon class="cls-2" points="136.181 136.731 136.155 136.757 136.133 136.938 136.208 136.979 136.234 137.041 136.31 136.988 136.224 136.848 136.24 136.797 136.181 136.731"/><polygon class="cls-2" points="156.627 136.367 156.664 136.396 156.679 136.376 156.647 136.26 156.575 136.246 156.551 136.281 156.601 136.298 156.627 136.367"/><polygon class="cls-2" points="156.063 136.251 156.067 136.145 155.95 136.181 155.841 136.289 155.743 136.205 155.363 136.282 155.158 136.446 155.175 136.489 155.307 136.499 155.266 136.66 155.35 136.693 155.376 136.661 155.48 136.663 155.663 136.829 155.773 136.8 155.736 136.71 155.992 136.463 155.952 136.422 155.971 136.32 156.063 136.251"/><polygon class="cls-2" points="155.045 136.207 155.078 136.177 154.991 136.103 154.934 136.08 154.874 136.111 154.881 136.129 155.016 136.156 155.045 136.207"/><polygon class="cls-2" points="135.008 136.198 134.968 136.142 134.886 136.165 134.875 136.321 134.951 136.368 135.017 136.564 134.979 136.718 135.038 136.826 135.165 136.899 135.276 136.754 135.24 136.609 135.253 136.457 135.365 136.312 135.34 136.253 135.376 136.219 135.374 135.769 135.329 135.66 135.326 135.774 135.272 135.817 135.212 135.975 135.252 136.059 135.155 136.18 135.008 136.198"/><polygon class="cls-2" points="135.759 135.869 135.666 135.851 135.633 135.935 135.72 135.982 135.753 136.059 135.977 136.165 136.092 136.151 136.325 136.027 136.308 135.895 136.434 135.821 136.36 135.753 136.386 135.681 136.344 135.616 136.266 135.653 136.168 135.616 136.097 135.649 135.999 135.601 135.941 135.599 135.868 135.673 135.926 135.713 135.89 135.793 135.759 135.869"/><polygon class="cls-2" points="154.546 135.444 154.485 135.447 154.48 135.483 154.634 135.461 154.738 135.393 154.729 135.373 154.634 135.374 154.546 135.444"/><polygon class="cls-2" points="157.329 135.787 157.331 135.728 157.278 135.713 157.247 135.548 157.131 135.501 157.043 135.509 156.902 135.359 156.803 135.316 156.662 135.095 156.58 135.042 156.394 135.197 156.278 135.189 156.179 135.299 156.033 135.234 155.95 135.25 155.94 135.202 155.864 135.175 155.836 135.306 155.76 135.391 155.689 135.337 155.457 135.327 155.442 135.291 155.141 135.342 155.077 135.306 154.955 135.421 154.822 135.419 154.504 135.605 154.524 135.797 154.7 135.755 154.844 135.861 154.867 135.961 155.107 136.011 155.134 135.969 155.272 135.953 155.339 135.905 155.432 135.963 155.444 136.024 155.495 135.966 155.677 135.94 155.759 135.891 155.82 135.917 155.879 136.035 155.937 136.064 156.1 135.981 156.227 135.853 156.288 135.836 156.352 135.873 156.441 135.826 156.601 136.057 156.608 136.176 156.648 136.212 156.693 136.226 156.849 136.13 156.968 136.208 156.988 136.11 157.064 136.045 157.162 136.061 157.195 135.99 157.159 135.965 157.205 135.912 157.285 135.887 157.424 135.926 157.472 135.882 157.378 135.841 157.329 135.787"/><polygon class="cls-2" points="153.773 135.187 153.872 135.222 154.016 135.167 154.029 135.033 153.977 135.021 153.96 135.069 153.842 135.103 153.798 135.055 153.637 135.036 153.61 135.099 153.693 135.098 153.67 135.211 153.773 135.187"/><polygon class="cls-2" points="154.056 134.933 154.116 134.965 154.157 134.959 154.21 134.899 154.182 134.82 154.092 134.871 154.056 134.933"/><polygon class="cls-2" points="156.354 134.817 156.31 134.948 156.263 134.957 156.262 134.993 156.424 135.027 156.518 134.983 156.46 134.867 156.354 134.817"/><polygon class="cls-2" points="155.98 134.79 156.035 134.767 156.08 134.808 156.13 134.816 156.182 134.806 156.139 134.728 155.95 134.718 155.98 134.79"/><polygon class="cls-2" points="152.939 133.829 152.952 133.891 153.084 133.868 153.141 133.82 153.145 133.685 153.312 133.526 153.246 133.464 153.245 133.412 153.178 133.444 153.072 133.753 152.939 133.829"/><polygon class="cls-2" points="156.635 133.022 156.665 132.99 156.654 132.951 156.624 132.945 156.611 132.905 156.56 132.866 156.528 132.94 156.488 132.953 156.521 133.029 156.607 133.006 156.635 133.022"/><polygon class="cls-2" points="153.235 132.385 153.203 132.472 153.075 132.515 153.135 132.617 153.329 132.672 153.414 132.772 153.6 132.681 153.753 132.66 153.896 132.784 154.019 133.068 154.006 133.219 153.729 133.398 153.848 133.405 153.99 133.497 154.085 133.452 154.221 133.501 154.294 133.638 154.308 133.863 154.407 133.79 154.527 133.823 154.638 133.915 154.688 134.052 154.694 134.294 154.841 134.484 154.814 134.557 154.762 134.571 154.755 134.649 154.834 134.654 154.866 134.767 154.95 134.764 154.984 134.821 155.178 134.85 155.318 134.914 155.706 134.761 155.743 134.67 155.72 134.625 155.846 134.535 156.138 134.53 156.217 134.575 156.213 134.652 156.294 134.658 156.593 134.537 156.311 133.758 156.277 133.766 156.289 133.944 156.258 133.971 155.989 134.038 155.926 133.999 156.013 133.884 156.2 133.818 156.281 133.73 156.305 133.599 156.258 133.327 156.33 133.064 156.14 133.071 155.816 132.948 155.752 132.973 154.341 131.648 154.236 131.594 154.103 131.741 154.018 131.754 153.894 131.842 153.819 131.826 153.766 131.759 153.676 131.78 153.69 131.84 153.795 131.92 153.763 132.062 153.632 132.126 153.689 132.211 153.66 132.262 153.531 132.302 153.404 132.289 153.405 132.328 153.32 132.383 153.235 132.385"/><polygon class="cls-2" points="154.057 131.47 154.09 131.475 154.096 131.5 154.245 131.487 154.261 131.457 154.166 131.394 154.03 131.411 153.988 131.367 153.924 131.38 153.914 131.42 153.927 131.476 153.995 131.503 154.057 131.47"/><polygon class="cls-2" points="154.378 131.235 154.439 131.262 154.532 131.255 154.574 131.203 154.637 131.188 154.65 131.163 154.587 131.115 154.481 131.098 154.46 131.137 154.498 131.187 154.395 131.21 154.378 131.235"/><polygon class="cls-2" points="131.288 132.751 131.252 132.611 131.265 132.461 131.388 132.216 131.29 132.059 131.236 131.871 131.281 131.291 131.031 131.133 130.937 131.025 130.704 130.931 130.647 130.864 130.524 130.88 130.322 130.754 130.237 130.847 130.172 130.846 130.229 131.117 130.145 131.304 129.981 131.459 129.693 131.563 129.741 131.708 129.726 131.897 129.805 132.018 129.783 132.17 129.828 132.271 129.75 132.471 129.708 132.497 129.678 132.585 129.705 132.642 129.642 132.686 129.662 132.739 129.629 132.772 129.664 132.892 129.898 133.075 129.956 133.183 129.937 133.262 129.977 133.333 129.93 133.442 129.966 133.6 129.911 133.645 129.802 133.63 129.771 133.657 129.846 133.746 129.88 133.971 130.054 134.001 130.077 134.039 130.029 134.1 130.175 134.214 130.206 134.153 130.155 134.072 130.305 133.96 130.396 133.927 130.454 133.974 130.546 133.869 130.79 133.836 131.041 133.582 131.137 133.557 131.187 133.582 131.256 133.532 131.23 133.441 131.316 133.379 131.3 133.318 131.389 133.228 131.449 132.869 131.435 132.823 131.288 132.751"/><polygon class="cls-2" points="150.16 130.139 150.201 130.163 150.269 130.123 150.309 130.158 150.375 130.076 150.358 130.05 150.296 130.088 150.221 130.079 150.16 130.139"/><polygon class="cls-2" points="150.594 129.986 150.519 129.994 150.424 130.124 150.434 130.178 150.496 130.176 150.509 130.29 150.545 130.307 150.584 130.281 150.58 130.22 150.645 130.209 150.706 130.26 150.742 130.162 150.673 130.105 150.766 130.065 150.594 129.986"/><polygon class="cls-2" points="150.409 129.907 150.318 129.91 150.285 129.932 150.242 129.942 150.36 130.046 150.394 130.047 150.426 130.007 150.395 129.96 150.422 129.933 150.409 129.907"/><polygon class="cls-2" points="148.502 128.533 148.472 128.619 148.481 128.69 148.518 128.681 148.566 128.621 148.531 128.593 148.553 128.554 148.502 128.533"/><polygon class="cls-2" points="145.56 125.922 145.859 126.022 145.982 125.984 146.216 125.825 146.413 125.806 146.465 125.762 146.218 125.797 146.216 125.749 146.072 125.691 145.857 125.819 145.753 125.834 145.651 125.791 145.853 125.652 145.715 125.679 145.653 125.585 145.573 125.661 145.406 125.671 145.41 125.758 145.56 125.922"/><polygon class="cls-2" points="145.569 125.633 145.624 125.577 145.279 125.555 145.237 125.629 145.29 125.652 145.411 125.586 145.488 125.586 145.569 125.633"/><polygon class="cls-2" points="146.318 125.474 146.238 125.478 146.141 125.556 146.213 125.609 146.643 125.568 146.667 125.527 146.637 125.494 146.345 125.531 146.354 125.499 146.318 125.474"/><polygon class="cls-2" points="146.889 125.414 146.941 125.353 147.007 125.347 147.035 125.319 147.021 125.268 146.964 125.25 146.924 125.284 146.919 125.342 146.869 125.339 146.783 125.399 146.786 125.431 146.825 125.441 146.889 125.414"/><polygon class="cls-2" points="147.411 125.28 147.485 125.29 147.567 125.25 147.406 125.212 147.362 125.228 147.323 125.302 147.411 125.28"/><polygon class="cls-2" points="147.846 125.125 147.784 125.116 147.709 125.187 147.611 125.21 147.627 125.277 147.612 125.334 147.846 125.125"/><polygon class="cls-2" points="147.881 124.985 147.708 124.954 147.658 124.987 147.566 124.982 147.531 124.954 147.415 125.014 147.409 125.077 147.343 125.084 147.38 125.159 147.513 125.183 147.863 125.042 147.881 124.985"/><polygon class="cls-2" points="137.813 123.995 137.607 124.091 137.489 124.308 137.373 124.321 137.314 124.393 137.641 124.343 137.939 124.452 138.046 124.325 138.239 124.314 138.487 124.416 138.644 124.546 138.668 124.638 138.731 124.687 138.789 124.592 138.653 124.497 138.68 124.421 138.789 124.378 138.754 124.338 138.608 124.316 138.504 124.343 138.443 124.201 138.356 124.165 138.474 124.057 138.386 123.994 137.813 123.995"/><polygon class="cls-2" points="138.275 123.658 138.483 123.707 138.531 123.763 138.64 123.765 138.704 123.819 138.774 123.728 138.928 123.724 138.967 123.658 138.957 123.591 139.047 123.522 139.467 123.48 139.614 123.392 139.451 123.278 139.333 123.124 138.813 123.158 138.684 123.129 138.585 123.032 138.419 122.975 138.354 122.993 138.248 123.444 138.275 123.658"/><polygon class="cls-2" points="134.832 122.749 134.797 122.733 134.722 122.751 134.703 122.718 134.687 122.714 134.597 122.797 134.643 122.823 134.805 122.776 134.832 122.749"/><polygon class="cls-2" points="138.431 122.764 138.441 122.686 138.401 122.627 138.286 122.651 138.305 122.74 138.396 122.77 138.431 122.764"/><polygon class="cls-2" points="153.051 120.7 152.99 120.741 152.973 120.795 152.921 120.84 152.955 120.853 153.215 120.758 153.256 120.623 153.157 120.684 153.051 120.7"/><polygon class="cls-2" points="8.124 99.423 8.055 99.462 8.067 99.508 8.001 99.534 7.987 99.575 8.014 99.59 8.07 99.527 8.155 99.481 8.143 99.392 8.124 99.423"/><polygon class="cls-2" points="0.325 98.09 0.282 98.007 0.198 97.975 0.197 98.076 0.24 98.097 0.221 98.268 0.274 98.296 0.307 98.25 0.306 98.203 0.347 98.181 0.325 98.09"/><polygon class="cls-2" points="6.092 97.809 6.057 97.867 6.012 97.881 5.964 97.868 5.887 97.897 5.845 97.862 5.817 97.872 5.746 97.985 5.768 98.024 5.864 97.99 5.897 97.964 5.964 97.975 5.959 98.027 6.024 98.007 6.04 98.04 6.061 98.031 6.094 97.969 6.061 97.948 6.1 97.862 6.092 97.809"/><polygon class="cls-2" points="3.801 97.289 3.744 97.283 3.689 97.342 3.74 97.341 3.762 97.316 3.893 97.283 3.981 97.225 3.865 97.223 3.801 97.289"/><polygon class="cls-2" points="11.595 96.36 11.574 96.394 11.614 96.438 11.573 96.496 11.609 96.513 11.636 96.497 11.634 96.451 11.671 96.385 11.595 96.36"/><polygon class="cls-2" points="169.762 28.734 169.578 28.651 169.517 28.552 169.397 28.581 169.243 28.558 169.113 28.417 168.996 28.385 168.959 28.29 168.87 28.216 168.779 28.201 168.703 28.124 168.559 28.066 168.501 27.985 168.374 27.952 168.353 27.838 167.873 27.78 167.804 27.639 167.638 27.592 167.623 27.515 167.722 27.376 167.513 27.255 167.478 26.984 167.323 26.908 167.169 26.733 167.055 26.337 166.978 26.354 166.926 26.241 166.822 26.191 166.747 26.282 166.577 26.289 166.492 26.408 166.354 26.472 166.228 26.697 166.235 26.802 166.158 27.011 166.076 27.082 166.066 27.197 166.105 27.256 166.061 27.352 166.402 27.404 166.167 27.417 166.149 27.509 166.055 27.476 166.049 27.5 166.587 28.604 166.603 28.808 166.753 29.135 166.75 29.256 166.657 29.213 166.593 29.075 166.519 29.033 166.518 28.943 166.348 28.66 166.135 28.553 166.104 28.477 165.901 28.38 165.671 27.921 165.543 27.847 165.438 27.717 165.39 27.746 165.301 27.984 164.681 28.431 164.58 28.445 164.479 28.557 164.486 28.413 164.691 28.309 164.792 28.167 164.72 28.007 164.737 27.887 164.822 27.788 164.795 27.628 164.726 27.509 164.66 27.499 164.592 27.56 164.523 27.554 164.511 27.441 164.344 27.204 163.93 27.217 163.967 27.165 164.193 27.055 164.178 26.992 164.018 26.825 163.896 26.27 163.833 26.232 163.837 26.167 163.676 25.879 163.714 25.59 163.515 25.365 163.479 25.288 163.486 25.179 163.371 24.994 163.349 24.684 163.405 24.46 163.347 24.461 163.354 24.356 163.222 24.302 163.168 24.212 163.213 23.891 163.325 23.807 163.453 23.888 163.414 23.697 163.322 23.698 163.309 23.5 163.247 23.437 163.207 23.271 163.296 23.049 163.414 22.967 163.441 22.861 163.492 22.855 163.482 22.622 163.384 22.641 163.258 22.893 163.202 22.755 163.11 22.713 162.984 22.721 162.961 22.668 162.845 22.628 162.95 22.391 162.745 22.456 162.613 22.28 162.584 22.351 162.387 22.436 162.359 22.5 162.296 22.356 162.222 22.303 162.311 22.211 162.364 21.99 162.589 22.027 162.605 21.994 162.563 21.895 162.348 21.927 162.235 21.838 162.298 21.767 162.389 21.833 162.48 21.789 162.427 21.622 162.467 21.56 162.359 21.478 162.385 21.444 162.338 21.342 162.368 21.074 162.339 21.064 162.283 21.116 162.22 21.1 162.164 21.053 162.111 20.903 161.926 21.016 161.767 21.212 161.652 21.132 161.667 21.081 161.772 21.043 161.862 20.898 161.829 20.812 161.767 20.805 161.74 20.552 161.776 20.392 161.907 20.223 161.958 19.86 161.936 19.812 161.825 19.883 161.697 19.641 161.634 19.63 161.61 19.666 161.549 19.603 161.525 19.438 161.385 19.407 161.332 19.479 161.082 19.289 160.967 19.286 160.879 19.31 160.828 19.372 160.664 19.388 160.701 19.231 160.763 19.178 160.657 19.042 160.748 18.978 160.853 19.02 160.941 18.995 160.855 18.855 160.753 18.824 160.683 18.91 160.611 18.912 160.548 18.848 160.551 18.791 160.373 18.824 160.309 18.699 160.21 18.767 160.057 18.755 159.92 18.705 159.894 18.583 159.638 18.694 159.676 18.517 159.613 18.385 159.364 18.301 159.49 18.25 159.532 18.18 159.624 18.185 159.558 18.098 159.448 18.067 159.396 18.094 159.265 18.014 159.247 17.831 158.972 17.735 158.977 17.575 158.819 17.459 158.959 17.308 158.944 17.242 158.756 17.255 158.587 16.887 158.873 16.411 158.865 16.332 158.768 16.229 158.805 16.18 159.004 16.326 159.099 16.273 159.163 16.308 159.271 16.22 159.284 16.119 159.398 16.123 159.515 16.254 159.509 16.416 159.538 16.449 159.648 16.452 159.719 16.517 159.723 16.609 159.882 16.574 159.951 16.7 160.016 16.644 160.164 16.65 160.096 16.517 159.886 16.378 159.923 16.3 160.051 16.304 159.975 16.225 159.851 16.263 159.664 16.032 159.611 16.019 159.592 15.915 159.622 15.809 159.565 15.743 159.627 15.555 159.526 15.468 159.476 15.367 159.345 15.331 159.185 15.19 159.295 15.199 159.387 15.117 159.24 15.079 159.22 14.897 159.162 14.847 159.095 14.857 159.099 15.017 158.985 14.965 158.978 15.087 158.937 15.094 158.875 15.023 158.792 15.081 158.653 15.104 158.645 14.969 158.684 14.863 158.675 14.834 158.587 14.844 158.545 14.744 158.642 14.594 158.644 14.507 158.499 14.74 158.454 14.712 158.457 14.488 158.412 14.469 158.353 14.59 158.375 14.751 158.27 14.766 158.19 14.696 158.301 14.504 158.171 14.654 158.078 14.63 158.079 14.534 158.14 14.498 158.044 14.371 158.052 14.208 157.911 14.128 157.908 14.008 157.979 13.938 157.959 13.845 157.828 13.902 157.762 14.007 157.663 14.004 157.545 13.968 157.442 13.846 157.306 13.805 157.232 13.892 157.246 14.111 157.269 14.144 157.321 14.11 157.457 14.149 157.345 14.307 157.264 14.316 157.182 14.413 157.053 14.436 156.636 14.362 156.616 14.282 156.509 14.261 156.405 14.108 156.251 14.042 156.254 13.888 156.006 13.771 155.968 13.717 155.953 13.658 156.018 13.587 156.09 13.545 156.188 13.577 156.186 13.361 156.146 13.306 156.124 13.363 156.031 13.361 155.93 13.231 155.702 13.11 155.572 13.194 155.258 13.095 155.169 12.996 155.067 12.738 154.965 12.789 154.868 12.762 154.744 12.81 154.676 12.931 154.571 13.005 154.158 12.941 153.976 12.748 153.903 12.734 153.764 12.518 153.675 12.132 153.707 11.925 153.666 11.816 153.606 11.804 153.535 11.71 153.12 11.702 153.159 11.813 153.063 12.066 153.179 12.164 153.218 12.43 153.331 12.503 153.28 12.518 153.079 12.455 152.942 12.495 152.831 12.442 152.619 12.418 152.57 12.305 152.221 12.03 152.126 11.806 151.999 11.77 151.962 11.676 151.824 11.647 151.686 11.496 151.698 11.439 151.852 11.44 151.909 11.388 152.118 11.405 152.048 11.105 151.824 11.013 151.893 10.974 152.033 11.036 151.913 10.678 151.822 10.618 151.697 10.399 151.591 10.354 151.203 9.456 151.094 9.335 150.942 9.276 151.119 9.385 151.097 9.442 151.275 9.653 151.328 9.82 151.249 9.977 151.062 10.003 150.422 9.901 150.111 10.065 149.98 9.962 149.861 9.992 149.66 9.914 149.594 9.946 149.569 9.883 149.411 9.888 149.41 9.953 149.322 9.974 149.334 9.92 149.263 9.838 149.269 9.759 148.997 9.534 148.901 9.305 148.84 9.242 148.863 9.122 148.906 9.092 148.961 9.115 148.959 8.993 148.865 8.879 148.833 8.693 148.688 8.548 148.733 8.736 148.643 8.805 148.607 8.865 148.625 8.906 148.471 9.149 148.322 9.25 148.24 9.221 147.99 9.284 147.895 9.273 147.711 9.104 147.617 9.075 147.616 8.911 147.543 8.979 147.43 8.884 147.344 8.889 147.268 8.773 147.243 8.586 147.204 8.557 146.938 8.539 146.862 8.599 146.72 8.613 146.325 8.45 146.197 8.345 145.977 8.312 145.83 8.137 145.698 8.051 145.542 8.024 145.416 7.901 145.325 7.895 144.976 7.444 144.881 7.44 144.728 7.217 144.631 7.202 144.252 6.602 144.412 5.687 144.583 5.339 144.549 5.272 144.635 5.099 144.674 4.813 144.629 4.618 144.482 4.59 144.346 4.5 144.209 4.489 144.145 4.428 143.958 4.448 143.871 4.29 143.739 4.301 143.734 4.219 143.608 4.131 143.553 3.828 143.45 3.644 143.402 3.672 143.219 3.551 143.092 3.348 142.973 3.257 142.904 3.123 142.762 3.036 142.701 2.93 142.644 2.22 142.85 1.724 142.934 1.641 143.038 1.431 143.2 1.296 143.151 1.193 143.191 0.845 143.296 0.611 143.235 0.565 143.201 0.464 143.238 0.358 143.149 0.264 143.274 0.094 143.258 0 0 0 0.193 0.062 0.114 0.086 0.042 0.04 0.003 0.105 0.057 1.069 0 1.196 0 1.458 0.053 1.516 0.075 1.398 0.231 1.286 0.313 1.177 0.824 1.342 0.92 1.314 1.044 1.425 1.085 1.613 1.061 2.075 0.991 2.222 0.699 2.495 0.379 2.568 0.263 2.657 0.098 2.685 0.04 2.765 0.083 2.803 0.049 2.899 0 2.845 0 97.392 0.015 97.375 0.076 97.377 0.185 97.251 0.273 97.289 0.306 97.352 0.394 97.299 0.463 97.323 0.494 97.263 0.446 97.23 0.419 97.133 0.457 97.081 0.994 96.806 1.812 96.944 1.866 97.045 2.024 96.936 2.153 96.944 2.172 96.994 2.306 97.015 2.391 96.948 2.32 96.922 2.297 96.823 2.519 96.682 3.215 96.676 3.448 96.591 3.681 96.661 3.781 96.785 4.414 96.642 4.624 96.666 4.659 96.739 4.678 96.649 4.817 96.638 4.833 96.55 4.904 96.472 4.971 96.464 5.301 96.554 5.638 96.788 5.768 97 5.782 97.096 5.766 97.149 5.693 97.182 5.8 97.214 5.839 97.282 5.794 97.374 5.718 97.392 5.806 97.422 6.079 97.335 6.165 97.257 6.313 97.309 6.454 97.18 6.552 97.177 6.759 96.935 6.782 96.837 6.907 96.781 6.95 96.719 7.273 96.688 7.825 96.837 7.871 96.979 8.004 96.965 8.116 96.891 8.146 96.761 8.214 96.721 8.239 96.651 8.633 96.587 8.735 96.407 8.959 96.314 9.043 96.224 9.251 96.181 9.355 96.112 9.292 96.024 9.282 95.911 9.339 95.665 9.657 95.316 10.062 95.126 9.997 95.039 10.046 94.921 10.38 94.847 10.409 94.789 10.497 94.781 10.651 94.679 11.442 92.305 12.206 91.452 16.154 90.331 16.355 90.1 16.745 89.911 16.943 89.708 22.999 86.951 23.264 86.99 23.74 86.765 31.891 86.617 32.055 86.484 37.724 84.813 37.767 84.76 37.92 84.712 38.066 84.612 38.296 84.573 38.334 84.521 40.131 83.646 51.572 82.978 53.079 82.475 53.224 82.291 53.504 82.134 53.624 82.128 59.402 85.021 59.425 85.106 59.638 85.356 59.728 85.369 59.784 85.446 59.927 85.5 60.079 85.489 60.351 85.543 60.357 85.504 60.433 85.475 60.731 85.515 60.786 85.428 61.035 85.4 61.092 85.347 61.23 85.333 61.543 85.519 61.562 85.475 61.489 85.4 61.385 85.387 61.347 85.297 61.442 85.115 61.622 85.008 62.282 84.946 62.78 85.087 62.838 85.044 63.122 85.076 63.144 85.036 63.212 85.036 64.559 85.771 64.606 85.845 64.594 85.977 64.744 85.837 65.392 86.219 65.548 86.392 65.488 86.472 65.473 86.584 65.594 86.509 65.593 86.389 65.691 86.355 65.825 86.375 66.261 86.576 66.361 86.507 66.392 86.437 66.657 86.419 67.145 86.537 67.25 86.526 67.265 86.448 67.374 86.407 67.64 86.537 67.658 86.514 67.5 86.293 67.289 86.248 67.229 86.268 67.116 86.179 67.222 86.112 67.28 86.13 67.54 85.939 67.601 85.975 67.607 86.095 67.727 86.116 67.693 86.25 67.776 86.261 67.859 86.197 67.85 86.272 68.021 86.359 68.047 86.294 68.216 86.185 68.149 86.06 68.204 85.916 68.264 85.865 68.403 85.86 68.73 85.976 68.736 86.142 68.575 86.194 68.583 86.247 68.75 86.195 68.86 86.263 68.878 86.306 68.783 86.558 68.998 86.51 69.26 86.59 69.28 86.691 69.238 86.755 69.335 86.926 69.396 86.868 69.491 86.859 69.552 86.8 69.555 86.734 69.637 86.746 69.685 86.868 69.767 86.879 69.867 87.013 69.934 87.036 69.991 87.169 70.12 87.25 70.293 87.514 70.303 87.618 70.371 87.63 70.417 87.688 70.354 87.839 70.199 87.894 70.105 87.737 69.909 87.731 69.908 87.869 69.817 88.103 69.88 88.245 69.809 88.3 69.788 88.378 69.908 88.565 69.963 88.536 70.069 88.587 70.084 88.483 70.227 88.313 70.391 88.302 70.654 88.371 70.668 88.257 70.93 88.102 71.216 88.172 71.206 88.12 71.243 88.093 71.467 88.07 71.821 88.246 72.293 88.762 72.373 88.986 72.38 89.229 72.471 89.327 72.091 90.023 71.988 90.104 71.921 90.118 71.866 90.083 71.846 89.928 71.917 89.822 71.716 89.744 71.789 89.704 71.993 89.722 71.937 89.689 71.77 89.646 71.351 89.663 71.194 89.596 71.093 89.63 71.082 89.695 71.147 89.775 71.296 89.879 71.51 90.218 71.537 90.379 71.499 90.472 71.407 90.548 71.142 90.636 71.184 90.706 71.16 90.773 71.069 90.778 71.196 90.895 71.251 90.895 71.337 90.815 71.424 90.825 71.484 90.901 71.457 90.93 71.552 91 71.595 90.894 71.793 90.938 71.922 91.133 71.925 91.348 71.846 91.428 71.712 91.392 71.54 91.444 71.739 91.63 71.811 91.622 71.885 91.544 72.096 91.6 72.193 91.857 72.278 91.924 72.307 92.165 72.272 92.25 72.673 92.529 72.816 92.473 72.776 92.307 72.817 92.168 72.608 92.095 72.583 92.005 72.465 92.045 72.285 91.836 72.281 91.696 72.385 91.653 72.293 91.521 72.383 91.484 72.508 91.636 72.443 91.699 72.472 91.793 72.547 91.868 72.651 91.877 72.863 92.101 72.916 92.386 73.016 92.371 73.199 92.224 73.411 92.201 73.534 92.265 73.741 92.3 74.018 92.478 74.147 92.487 74.497 92.789 74.552 92.66 74.423 92.482 74.386 92.467 74.301 92.515 74.169 92.472 74.058 92.298 74.278 92.167 74.501 92.306 74.705 92.3 74.946 92.415 75.007 92.514 75.015 92.709 74.894 92.663 74.852 92.707 74.686 92.729 74.828 92.832 74.873 92.911 75.015 92.918 75.188 93.048 75.266 93.189 75.513 93.307 75.873 94.407 75.879 94.627 75.744 94.887 75.757 95.054 75.681 95.083 77.568 96.435 77.669 96.592 77.716 96.564 77.787 96.586 77.859 96.838 78.322 97.413 78.332 97.467 78.289 97.516 78.384 97.731 78.333 97.89 78.375 98.041 78.268 98.088 78.143 98.219 78.53 98.442 78.79 98.964 78.855 99.378 78.804 99.525 78.886 99.629 78.845 99.826 79.017 99.951 79.07 100.285 78.96 100.398 78.972 100.48 79.019 100.504 79.088 100.651 79.032 100.887 79.061 100.918 79.228 100.93 79.172 100.858 79.14 100.648 79.231 100.609 79.212 100.557 79.273 100.484 79.367 100.543 79.325 100.84 79.362 100.894 79.445 100.84 79.576 100.901 79.77 100.918 79.798 100.986 79.757 101.046 79.663 101.001 79.167 101.146 79.089 101.133 79.091 101.085 79.042 101.058 78.874 101.044 78.8 100.933 78.842 100.85 78.824 100.798 78.554 100.701 78.483 100.63 78.59 100.443 78.824 100.446 78.52 100.412 78.475 100.367 78.271 100.375 78.005 100.292 77.969 99.967 78.002 99.922 77.937 99.893 77.85 99.955 77.814 100.082 77.74 100.106 77.582 100.326 77.564 100.439 77.481 100.487 77.503 100.569 77.454 100.778 77.37 100.808 77.356 100.853 77.561 100.87 77.599 100.734 77.739 100.653 77.957 100.668 77.954 100.613 78.04 100.585 78.204 100.622 78.37 100.743 78.49 100.924 78.627 100.971 78.744 101.084 78.783 101.299 78.741 101.345 78.671 101.336 78.62 101.4 78.647 101.438 78.801 101.408 79.153 101.528 79.558 101.801 79.663 101.93 79.669 102.009 80.319 102.594 80.327 102.667 80.374 102.671 80.44 102.759 80.412 102.949 80.439 102.993 80.533 102.973 80.546 102.937 80.819 102.983 80.827 102.854 80.782 102.801 80.933 102.75 80.976 102.511 81.201 102.457 81.63 102.538 81.817 102.64 81.854 102.715 81.829 102.879 81.911 102.838 82.263 103.01 82.282 103.143 82.386 103.198 82.344 103.233 82.352 103.331 82.435 103.351 82.455 103.269 82.552 103.287 82.627 103.201 82.712 103.227 82.685 103.075 82.618 103.067 82.605 102.767 82.467 102.568 82.454 102.413 82.686 102.237 82.724 102.103 82.706 102.01 82.778 101.859 82.731 101.739 82.667 101.673 82.567 101.701 82.63 101.944 82.576 102.026 82.464 102.021 82.426 101.859 82.391 101.909 82.268 101.929 82.068 102.146 81.862 102.162 81.729 102.227 81.418 102.172 81.788 101.825 81.877 101.934 82.05 101.828 82.004 101.669 81.818 101.612 81.865 101.124 82.032 101.016 82.166 101.037 82.166 101.105 82.253 101.199 82.317 101.216 82.296 100.983 82.166 100.982 82.103 100.877 82.276 100.513 82.539 100.347 82.657 100.426 82.79 100.359 82.794 100.301 82.87 100.211 83.032 100.194 83.153 100.239 83.199 100.305 83.152 100.364 83.235 100.468 83.207 100.565 83.269 100.557 83.284 100.469 83.365 100.42 83.399 100.255 83.353 100.196 83.422 100.124 83.378 100.015 83.411 99.921 83.335 99.855 83.394 99.774 83.372 99.656 83.319 99.616 83.374 99.463 83.533 99.365 83.763 99.354 84.255 98.929 84.362 98.647 84.5 98.496 84.64 98.413 84.68 98.214 84.829 98.057 84.779 98.008 84.771 97.93 84.868 97.742 85.344 97.367 85.695 97.271 86.016 97.027 86.145 96.976 86.126 96.849 86.245 96.721 86.669 96.607 87.062 96.341 87.35 96.309 87.354 96.263 87.475 96.151 87.813 96.122 88.496 95.781 88.475 95.74 88.241 95.7 88.204 95.742 88.245 95.79 88.24 95.865 88.161 95.875 88.094 95.962 87.959 95.99 87.921 95.908 87.908 95.76 88.1 95.664 88.214 95.561 88.279 95.362 88.54 95.406 88.54 95.463 88.474 95.503 88.492 95.536 88.677 95.561 88.622 95.683 88.816 95.655 88.904 95.576 89.702 95.464 89.763 95.377 89.968 95.283 90.034 95.14 90.191 94.978 90.249 94.815 90.348 94.72 90.443 94.383 90.506 94.331 90.488 94.295 90.599 94.118 90.813 93.973 90.846 93.805 90.985 93.587 90.938 93.4 90.959 93.184 90.994 93.1 91.15 92.946 91.315 92.653 91.34 92.282 91.387 92.161 91.442 92.113 91.624 92.071 91.952 91.849 92.12 91.603 92.246 91.548 92.192 91.465 92.271 91.437 92.245 91.324 92.339 91.183 92.65 91.049 92.84 91.096 92.952 91.179 93.002 91.277 93.382 91.306 93.176 90.85 93.224 90.779 93.398 90.825 93.43 90.792 93.466 90.688 93.431 90.556 93.54 90.4 93.48 90.079 93.536 89.853 93.501 89.756 93.359 89.606 93.229 89.613 93.183 89.577 93.23 89.508 93.188 89.366 93.267 88.976 93.213 88.712 93.225 88.633 93.293 88.569 93.208 88.521 93.258 88.399 93.202 88.302 93.276 88.339 93.313 88.418 93.265 88.489 93.346 88.497 93.383 88.552 93.325 88.689 93.611 88.696 93.593 88.85 93.493 88.971 93.629 89.121 93.723 89.164 93.819 89.338 93.728 89.503 93.82 89.575 94.002 89.625 94.213 89.825 94.122 89.929 94.063 89.939 94.058 89.988 94.103 90.023 94.372 91.378 94.492 91.458 94.588 91.448 94.773 91.54 94.945 91.862 94.835 91.906 94.816 91.968 94.915 91.987 94.956 92.061 94.912 92.136 94.742 92.234 94.702 92.196 94.731 92.14 94.667 92.11 94.59 92.178 94.311 92.258 94.2 92.374 94.157 92.336 93.802 92.458 93.668 92.578 93.676 92.647 93.58 92.804 93.602 92.832 93.554 92.887 93.536 92.978 93.648 93.127 93.713 93.159 93.791 93.296 93.968 93.311 93.979 93.445 93.919 93.515 93.894 93.707 94.247 94.212 94.264 94.319 94.356 94.421 94.314 94.47 94.31 94.622 94.488 94.634 94.537 94.681 94.461 94.763 94.396 94.764 94.355 94.658 94.286 94.649 94.229 95.034 94.132 95.114 94.081 95.114 94.043 95.061 94.071 94.996 94.113 95.032 94.155 95.011 94.205 94.867 94.038 94.855 93.935 94.922 93.82 95.111 93.687 95.178 93.488 95.422 93.325 95.498 93.087 95.763 93.023 95.944 92.276 96.585 92.426 96.705 92.449 96.857 92.268 96.944 92.128 97.121 92.054 97.156 92.003 97.268 91.93 97.264 91.847 97.347 92.005 97.413 92.087 97.583 91.994 97.761 91.949 97.775 91.921 97.892 91.843 97.955 91.817 98.091 91.723 98.145 91.439 98.116 91.38 98.147 91.685 98.673 91.681 99.169 91.585 99.366 91.535 99.677 91.469 99.727 91.356 99.711 91.307 99.889 91.164 100.027 91.238 100.155 91.401 99.903 91.518 99.904 91.578 99.951 91.597 100.226 91.527 100.382 91.723 100.812 91.717 101.217 91.637 101.315 91.378 102.772 91.177 102.945 90.923 103.036 90.81 102.984 90.763 102.888 90.541 102.881 90.426 102.712 90.339 102.674 90.185 102.68 90.016 102.738 89.868 102.711 89.57 102.816 89.14 102.82 88.975 102.731 88.739 102.684 88.756 102.834 88.543 102.967 88.493 103.323 88.273 103.48 88.412 103.698 88.452 103.84 88.349 103.95 88.331 104.077 88.276 104.155 88.046 104.276 88.051 104.378 88.01 104.422 87.885 104.473 87.761 104.449 87.764 104.683 87.65 104.803 87.77 105.002 87.909 105.038 87.978 105.118 88.094 105.029 88.333 105.016 88.354 104.927 88.49 104.913 88.505 104.827 88.577 104.812 88.577 104.727 88.699 104.652 89.164 104.675 89.347 104.771 89.388 104.739 89.524 104.776 89.822 104.692 89.824 104.563 89.943 104.415 90.104 104.301 90.272 104.268 90.465 104.323 90.68 104.324 90.748 104.292 90.72 104.218 90.77 104.135 91.215 103.904 91.472 103.913 91.746 104.031 91.813 103.997 91.975 104.007 92.497 104.319 92.754 104.325 92.861 104.166 93.087 104.096 93.243 103.995 93.139 103.917 93.178 103.805 93.046 103.604 93.268 103.559 93.234 103.307 93.416 102.867 93.508 102.79 93.457 102.754 93.453 102.689 93.67 102.199 93.861 101.983 93.821 101.938 93.956 101.478 93.938 101.318 94.119 101.01 93.984 100.965 93.93 100.894 94.183 99.883 94.713 99.412 94.813 98.976 94.705 98.897 94.735 98.721 94.86 98.627 94.878 98.495 95.096 98.146 95.216 98.111 95.297 98.158 95.321 98.257 95.482 98.456 95.533 98.474 95.648 98.67 95.652 98.798 95.543 98.88 95.545 98.924 95.827 98.948 96.014 99.193 96.053 99.365 96.022 99.504 96.147 99.712 96.268 100.182 96.652 100.428 96.734 100.543 96.769 100.714 96.833 100.803 96.981 100.874 97.138 101.052 97.207 101.039 97.259 101.086 97.344 101.24 97.28 101.246 97.253 101.326 97.378 101.41 97.426 101.5 97.52 101.51 97.631 101.642 97.861 101.774 97.987 102.054 97.956 102.172 97.878 102.207 97.757 102.176 97.721 102.105 97.761 101.943 97.709 101.899 97.649 101.901 97.539 102.011 97.607 102.104 97.612 102.197 97.525 102.45 97.774 103.509 97.633 103.822 97.529 103.923 97.479 104.033 97.483 104.76 97.414 104.89 97.318 104.973 97.351 105.223 97.311 105.412 97.138 105.505 96.907 105.552 96.715 105.668 96.434 106.119 95.835 106.452 95.669 106.427 95.435 106.645 95.32 106.869 95.245 106.913 95.244 107.053 95.649 107.273 95.841 107.298 96.067 107.263 96.252 107.164 97.117 107.15 97.269 107.087 97.801 107.167 98.047 106.972 98.29 106.875 98.263 106.782 98.362 106.672 98.424 106.658 98.463 106.57 98.772 106.537 98.839 106.484 98.829 106.442 98.927 106.391 99.984 106.667 99.523 106.481 99.526 106.445 99.596 106.43 99.954 106.608 100.061 106.607 100.213 106.708 100.305 106.657 100.404 106.657 100.568 106.762 100.646 106.771 101.65 107.415 101.726 107.532 101.786 107.53 102.233 107.83 102.387 108.025 102.489 108.034 102.712 108.201 102.796 108.328 102.967 108.374 103.065 108.693 103.097 108.694 103.084 108.586 103.135 108.548 103.236 108.644 103.161 108.649 103.133 108.717 103.21 108.764 103.31 108.705 104.058 109.432 104.071 109.528 104.121 109.542 104.134 109.615 104.261 109.698 104.23 109.76 104.286 109.905 104.41 109.923 104.472 109.99 104.509 110.074 104.468 110.177 104.984 110.976 104.986 111.02 104.949 111.012 103.985 109.704 103.944 109.57 103.81 109.518 103.684 109.333 103.583 109.255 103.565 109.174 103.438 109.112 103.444 109.078 103.227 108.842 103.029 108.721 102.886 108.563 102.849 108.462 102.679 108.393 101.499 107.455 101.496 107.398 101.416 107.401 101.341 107.309 101.114 107.194 101.025 107.096 100.909 107.071 100.878 107.016 100.593 106.879 100.579 106.813 100.528 106.783 100.451 106.799 100.293 106.709 100.212 106.732 100.03 106.678 102.925 108.665 105.504 112.405 105.833 113.433 105.764 114.242 105.577 114.513 104.873 114.929 104.715 114.955 104.689 115.057 105.105 115.438 105.122 115.749 105.298 115.817 105.415 115.994 105.437 116.128 105.379 116.267 105.325 116.296 105.165 116.28 105.119 116.238 105.097 116.397 105.222 116.49 105.739 117.265 105.853 117.312 106.001 117.559 106.14 117.653 106.243 117.809 106.347 117.883 106.366 117.95 106.415 117.956 106.641 118.158 106.655 118.219 106.751 118.242 106.782 118.157 106.866 118.146 107.008 118.195 107.4 118.5 107.446 118.647 107.382 118.72 107.307 118.694 107.338 118.766 108.186 119.462 108.907 120.684 108.996 120.711 109.034 120.799 109.088 120.797 109.182 120.877 109.377 120.912 109.459 120.996 109.624 121.075 109.755 121.23 109.912 121.31 110.051 121.333 110.126 121.468 110.196 121.433 110.303 121.456 110.389 121.536 110.511 121.537 110.627 121.656 110.948 121.592 111.133 121.64 111.264 121.631 111.35 121.561 111.496 121.58 111.688 121.532 111.894 121.594 112.061 121.57 112.595 121.64 114.795 122.939 114.959 123.137 115.034 123.313 114.876 123.435 114.829 123.539 114.885 123.601 115.083 123.668 115.131 123.666 115.083 123.508 115.333 123.446 115.766 123.629 115.818 123.722 115.771 123.772 115.903 123.882 115.982 123.845 116.001 123.724 116.081 123.63 116.318 123.651 116.4 123.725 116.543 123.643 116.373 123.389 116.299 123.386 116.255 123.163 116.714 122.896 117.074 122.808 118.219 122.956 119.506 123.627 120.08 123.653 120.125 123.536 120.253 123.465 120.906 123.393 121.485 123.711 121.504 123.66 121.578 123.648 123.411 124.718 123.573 124.744 123.592 124.798 123.683 124.811 123.888 124.939 124.049 124.949 124.245 125.039 124.323 124.999 124.727 125.028 124.976 125.172 125.11 125.194 126.034 125.882 126.179 125.906 126.445 125.783 126.592 125.826 126.774 125.811 126.988 125.903 127.038 125.966 127.191 125.981 127.674 126.419 127.946 126.414 128.102 126.299 128.145 126.209 128.317 126.054 128.492 126.032 128.619 125.958 128.648 125.796 128.714 125.706 129.652 125.437 129.686 125.351 129.818 125.317 129.852 125.213 129.992 125.135 129.976 125.094 130.093 125.017 130.166 124.843 130.475 124.679 130.55 124.58 130.49 124.534 130.493 124.49 130.842 124.138 131.256 124.095 131.427 123.888 131.718 123.858 131.705 123.795 131.806 123.729 132.132 123.665 132.159 123.58 132.306 123.512 132.444 123.372 132.582 123.326 132.587 123.243 133.183 122.979 133.623 123.029 133.586 122.988 133.651 122.939 133.85 122.913 134.3 123.038 134.358 122.93 134.588 122.921 134.613 122.863 134.429 122.885 134.365 122.819 134.619 122.544 134.789 122.453 134.839 122.495 134.782 122.594 134.825 122.601 134.933 122.323 134.937 122.165 134.767 122.006 134.407 121.935 133.947 122.223 133.468 122.274 133.258 122.17 133.167 122.035 133.117 122.218 133.027 122.214 132.917 122.147 132.833 122.167 132.754 122.116 132.776 121.98 132.909 121.87 132.956 121.745 133.286 121.836 133.37 121.747 133.479 121.748 133.663 121.836 133.735 121.582 133.96 121.509 134.164 121.32 134.243 121.292 134.542 121.285 134.746 121.132 134.812 121.129 135.026 120.95 135.383 120.849 135.407 120.721 135.504 120.539 135.838 120.448 135.886 120.5 136.061 120.522 136.105 120.488 136.038 120.463 135.99 120.384 136.006 120.339 136.219 120.347 136.437 120.462 136.528 120.85 136.677 121.063 136.668 121.113 136.796 121.256 136.836 121.271 136.947 121.219 137.202 121.436 137.346 121.78 137.357 121.975 137.322 122.144 137.198 122.263 137.141 122.267 136.988 122.489 136.882 122.564 136.809 122.564 136.757 122.821 136.626 122.911 136.515 123.065 136.582 123.113 136.544 123.186 135.76 123.488 135.533 123.503 135.216 123.422 135.027 123.225 134.521 123.107 135.936 124.148 135.936 124.264 136.107 124.223 136.126 124.265 136.238 124.266 136.309 124.219 136.459 124.23 136.675 124.166 136.809 124.202 136.772 124.108 136.919 123.866 137.078 123.834 137.077 123.796 137.187 123.703 137.39 123.628 138.017 123.738 137.977 123.676 137.91 123.66 137.879 123.449 137.917 123.366 137.752 123.242 137.799 123.153 137.768 123.061 137.827 123.035 137.852 123.107 137.946 123.119 137.979 123.032 137.93 122.975 138.109 122.765 138.1 122.663 138.145 122.606 138.298 122.622 138.341 122.582 138.333 122.534 138.482 122.583 138.454 122.648 138.541 122.694 138.639 122.661 138.678 122.571 139.079 122.655 139.156 122.584 139.319 122.6 139.395 122.656 139.549 122.687 139.595 122.936 139.734 123.069 139.693 123.316 139.824 123.304 139.919 123.397 139.856 123.594 139.713 123.77 139.57 123.78 139.481 123.73 139.333 123.761 139.14 123.737 139.212 123.917 139.176 123.952 139.17 124.066 139.115 124.111 139.203 124.167 139.212 124.236 139.134 124.358 138.794 124.411 138.845 124.501 139.148 124.497 139.483 124.604 139.848 124.965 139.976 125.196 140.248 125.351 140.439 125.32 140.539 125.344 140.81 125.167 141.04 125.092 141.228 125.088 141.516 125.165 141.681 125.443 141.66 125.458 141.461 125.384 141.397 125.308 141.415 125.251 141.226 125.217 141.191 125.177 141.008 125.162 141.329 125.374 141.976 126.242 141.983 126.359 142.107 126.548 142.075 126.628 142.137 126.734 142.24 126.657 142.427 126.659 142.611 126.57 142.639 126.537 142.584 126.392 142.672 126.228 142.833 126.156 142.989 126.153 143.645 126.451 143.654 126.412 143.572 126.38 143.509 126.294 143.617 126.182 143.627 126.326 143.725 126.41 143.708 126.499 144.237 127.161 144.207 127.22 144.109 127.253 144.252 127.264 144.664 127.644 144.65 127.734 144.535 127.765 144.684 128.034 144.915 128.09 145.136 128.033 145.254 127.818 145.159 127.783 145.195 127.673 145.263 127.664 145.336 127.606 145.488 127.676 145.502 127.631 145.47 127.542 145.442 127.556 145.37 127.498 145.452 127.432 145.37 127.397 145.236 127.406 145.2 127.372 145.203 127.33 145.276 127.312 145.285 127.272 145.224 127.151 145.254 127.064 145.529 126.668 145.415 126.529 145.46 126.336 145.425 126.287 145.431 126.163 145.482 126.075 145.396 125.964 145.223 125.965 145.223 126.037 145.135 126.105 145.097 126.387 144.964 126.385 144.627 126.564 144.554 126.698 144.405 126.717 144.351 126.687 144.374 126.54 144.332 126.468 144.24 126.427 144.191 126.239 144.218 126.116 143.994 126.126 143.94 125.952 143.82 125.866 143.734 125.713 143.751 125.634 143.885 125.622 143.973 125.508 143.994 125.414 144.064 125.38 144.074 125.462 144.246 125.428 144.363 125.458 144.626 125.432 144.654 125.335 144.72 125.335 144.881 125.426 144.92 125.61 145.027 125.607 145.232 125.474 145.388 125.493 145.601 125.431 145.719 125.45 145.973 125.352 146.055 125.388 146.062 125.453 146.104 125.472 146.536 125.259 146.528 125.147 146.622 125.27 146.585 125.319 146.773 125.321 146.836 125.271 146.865 125.286 146.894 125.188 147.052 125.269 147.283 125.24 147.32 125.154 147.301 125.09 147.512 124.947 147.642 124.977 147.69 124.924 147.893 124.911 148.012 124.97 147.923 125.007 147.902 125.09 154.412 120.636 154.311 120.622 154.082 120.698 153.909 120.707 153.841 120.688 153.801 120.627 153.747 120.723 153.599 120.687 153.48 120.791 153.53 120.841 153.484 120.884 153.207 120.923 153.17 120.998 153.23 121.051 153.108 121.086 153.024 121.065 152.946 121.125 152.864 121.019 152.502 121.189 152.501 121.255 152 121.613 151.795 121.635 151.73 121.61 151.589 121.727 151.51 121.702 151.374 121.724 151.338 121.622 151.417 121.486 151.538 121.422 151.632 121.459 151.707 121.428 151.797 121.453 152.191 121.29 152.185 121.237 152.84 120.897 152.889 120.81 152.951 120.796 152.978 120.702 152.729 120.669 152.685 120.596 152.535 120.543 152.513 120.491 152.534 120.379 152.628 120.47 152.712 120.455 152.762 120.386 152.906 120.33 153.159 120.422 153.349 120.374 153.451 120.399 153.499 120.432 153.515 120.595 153.802 120.563 153.884 120.624 153.967 120.564 154.317 120.557 154.462 120.626 158.777 120.096 158.908 120.121 158.961 120.171 159.076 120.069 161.435 119.956 161.306 119.898 161.328 119.837 161.252 119.814 161.282 119.744 161.33 119.732 161.388 119.744 161.418 119.796 161.401 119.86 161.452 119.956 162.005 119.962 162.155 120.008 162.174 120.077 162.228 120.11 162.32 120.02 163.375 119.905 163.495 119.941 163.547 119.891 163.558 119.812 163.679 119.782 163.707 119.728 163.953 119.642 164.153 119.646 164.187 119.567 164.278 119.499 164.621 119.412 164.667 119.278 164.812 119.159 164.991 118.836 165.175 118.731 165.13 118.563 165.048 118.531 164.933 118.383 164.748 118.348 164.81 118.289 164.927 118.315 165.041 118.251 165.083 118.312 165.003 118.34 164.976 118.394 165.045 118.442 165.09 118.398 165.22 118.405 165.256 118.309 165.375 118.296 165.391 118.341 165.296 118.449 165.384 118.493 165.221 118.569 165.238 118.639 165.429 118.568 166.004 118.551 166.121 118.449 166.347 118.386 166.429 118.325 166.429 118.122 166.395 118.086 166.433 118.034 166.41 117.941 166.308 117.821 166.269 117.541 166.399 117.242 166.386 117.154 166.284 117.073 166.234 116.949 166.33 116.826 166.486 116.734 166.64 116.829 166.882 116.875 166.665 116.5 166.625 116.33 166.592 116.317 166.626 116.259 166.604 116.146 166.392 116.057 166.393 115.998 166.204 115.894 166.166 115.897 166.144 115.961 166.043 115.967 165.938 115.877 165.892 115.92 165.81 115.867 165.84 115.76 166.026 115.713 166.105 115.582 166.243 115.614 166.209 115.535 166.235 115.412 166.129 115.288 166.151 115.094 166.21 114.991 166.144 114.958 166.055 114.99 165.989 114.81 166.018 114.735 166.104 114.668 166.191 114.716 166.149 114.566 166.241 114.412 166.176 114.369 166.184 114.274 166.241 114.112 166.397 113.994 166.461 113.841 166.467 113.729 166.52 113.658 166.448 113.637 166.475 113.51 166.553 113.454 166.571 113.289 166.834 112.834 166.906 112.795 166.936 112.648 166.978 112.622 166.901 112.551 166.941 112.335 166.895 112.236 166.934 112.123 167.003 112.065 167.003 111.971 167.063 111.875 167.06 111.843 166.964 111.805 166.968 111.697 167.126 111.404 167.401 111.132 167.357 111.039 167.457 110.891 167.424 110.612 167.362 110.559 167.384 110.331 167.321 110.257 167.314 110.158 167.412 109.88 167.372 109.837 167.376 109.708 167.432 109.645 167.435 109.533 167.529 109.385 167.548 109.265 167.495 109.255 167.483 109.193 167.538 108.906 167.483 108.746 167.543 108.522 167.649 108.464 167.637 108.383 167.691 108.31 167.756 108.279 167.919 108.294 167.946 108.211 167.918 108.161 167.987 108.045 167.961 107.936 167.836 107.865 167.867 107.772 167.767 107.687 167.744 107.614 167.636 107.525 167.559 107.506 167.514 107.564 167.481 107.551 167.474 107.492 167.59 107.445 167.673 107.527 167.814 107.522 167.843 107.559 167.968 107.528 168.163 107.643 168.234 107.631 168.263 107.525 168.353 107.461 168.409 107.315 168.348 107.269 168.369 107.189 168.452 107.126 168.516 107.133 168.508 106.987 168.625 106.93 168.742 106.749 168.826 106.739 168.889 106.686 168.892 106.573 169.012 106.491 168.976 106.353 168.909 106.294 168.924 106.091 169.077 105.864 169.231 105.773 169.256 105.657 169.439 105.519 169.512 105.515 169.423 105.39 169.412 105.312 169.468 105.256 169.396 105.182 169.444 105.037 169.671 104.872 169.732 104.868 169.758 104.815 169.762 104.76 169.754 104.756 169.762 104.734 169.762 28.734"/><polygon class="cls-2" points="164.789 27.893 164.771 27.993 164.85 28.168 165.038 27.988 165.056 27.738 165.173 27.661 164.959 27.512 164.852 27.564 164.866 27.811 164.789 27.893"/><polygon class="cls-2" points="165.822 26.914 165.89 26.948 165.926 26.939 165.928 26.914 165.879 26.84 165.831 26.838 165.822 26.914"/><polygon class="cls-2" points="168.389 26.924 168.492 26.891 168.508 26.84 168.453 26.824 168.353 26.858 168.389 26.924"/><polygon class="cls-2" points="165.963 26.987 166.018 26.973 166.048 26.928 166.064 26.853 166.048 26.79 165.948 26.929 165.963 26.987"/><polygon class="cls-2" points="169.065 27.111 169.097 27.222 169.146 27.156 169.122 27.12 169.151 27.06 169.346 26.981 169.351 26.777 169.206 26.821 169.15 26.938 169.197 26.972 169.173 27.032 169.065 27.111"/><polygon class="cls-2" points="169.762 27.034 169.684 26.776 169.568 26.697 169.447 26.661 169.388 26.756 169.415 26.818 169.506 26.791 169.553 26.87 169.483 26.885 169.382 27.027 169.4 27.085 169.321 27.205 169.35 27.232 169.402 27.195 169.482 27.291 169.421 27.436 169.464 27.521 169.595 27.431 169.622 27.424 169.629 27.465 169.762 27.387 169.762 27.034"/><polygon class="cls-2" points="166.422 26.379 166.478 26.292 166.622 26.195 166.694 26.188 166.716 26.092 166.633 26.033 166.577 26.058 166.577 26.161 166.524 26.108 166.441 26.132 166.391 26.231 166.329 26.209 166.179 26.309 166.237 26.458 166.422 26.379"/><polygon class="cls-2" points="165.791 26.152 165.82 26.183 165.801 26.307 165.742 26.416 165.763 26.557 165.846 26.648 165.768 26.758 165.948 26.835 166.082 26.656 166.095 26.355 166.151 26.229 166.084 26.163 165.997 25.889 166.032 25.777 165.991 25.737 165.861 25.835 165.871 25.906 165.791 26.152"/><polygon class="cls-2" points="165.742 25.506 165.748 25.47 165.843 25.434 165.857 25.394 165.84 25.375 165.782 25.384 165.763 25.43 165.667 25.427 165.636 25.453 165.672 25.499 165.742 25.506"/><polygon class="cls-2" points="167.569 25.367 167.575 25.449 167.65 25.418 167.637 25.324 167.685 25.295 167.661 25.255 167.529 25.294 167.478 25.257 167.495 25.309 167.569 25.367"/><polygon class="cls-2" points="163.389 24.36 163.496 24.448 163.577 24.414 163.559 24.358 163.486 24.337 163.389 24.36"/><polygon class="cls-2" points="168.559 24.06 168.647 24.016 168.659 23.93 168.642 23.888 168.745 23.796 168.74 23.737 168.706 23.809 168.606 23.878 168.548 23.892 168.451 23.867 168.365 23.903 168.559 24.06"/><polygon class="cls-2" points="168.213 23.516 168.368 23.45 168.313 23.294 168.151 23.278 168.053 23.145 168.027 23.482 168.089 23.438 168.213 23.516"/><polygon class="cls-2" points="165.39 23.08 165.425 23.096 165.484 23.072 165.424 23.03 165.443 22.988 165.392 22.981 165.353 23.033 165.28 23.037 165.256 23.107 165.321 23.13 165.39 23.08"/><polygon class="cls-2" points="164.691 21.428 164.741 21.383 164.731 21.32 164.62 21.286 164.615 21.24 164.579 21.242 164.554 21.293 164.611 21.326 164.691 21.428"/><polygon class="cls-2" points="163.162 18.935 163.109 19.072 163.134 19.11 163.148 19.082 163.205 19.063 163.226 19.085 163.289 19.037 163.339 18.936 163.29 18.872 163.255 18.855 163.21 18.854 163.186 18.879 163.122 18.884 163.132 18.925 163.162 18.935"/><polygon class="cls-2" points="162.979 18.927 163.017 18.984 163.08 19 163.109 18.985 163.111 18.955 163.062 18.907 163.06 18.819 163.033 18.849 162.99 18.828 162.89 18.862 162.886 18.896 162.937 18.947 162.979 18.927"/><polygon class="cls-2" points="164.212 18.714 164.275 18.718 164.328 18.658 164.313 18.576 164.193 18.523 164.184 18.561 164.211 18.61 164.194 18.639 164.075 18.607 164.044 18.66 164.154 18.749 164.212 18.714"/><polygon class="cls-2" points="159.929 18.414 159.936 18.524 159.965 18.568 159.998 18.575 160.07 18.554 160.022 18.5 159.99 18.413 159.929 18.414"/><polygon class="cls-2" points="162.211 18.313 162.289 18.361 162.311 18.333 162.222 18.217 162.128 18.235 162.096 18.267 162.211 18.313"/><polygon class="cls-2" points="162.277 18.225 162.372 18.238 162.377 18.163 162.341 18.16 162.337 18.097 162.256 18.073 162.216 18.112 162.235 18.199 162.277 18.225"/><polygon class="cls-2" points="161.707 17.574 161.698 17.493 161.74 17.469 161.661 17.438 161.612 17.473 161.707 17.574"/><polygon class="cls-2" points="161.526 17.539 161.577 17.54 161.553 17.424 161.484 17.417 161.498 17.465 161.448 17.489 161.47 17.51 161.467 17.549 161.449 17.569 161.416 17.543 161.394 17.555 161.413 17.609 161.526 17.539"/><polygon class="cls-2" points="160.987 17.245 160.976 17.198 160.909 17.15 160.921 17.216 161.093 17.412 161.112 17.399 161.025 17.277 160.987 17.245"/><polygon class="cls-2" points="160.839 16.574 160.99 16.543 160.996 16.467 161.077 16.395 161.07 16.347 161.167 16.385 161.205 16.328 161.083 16.197 161.113 16.135 161.077 16.051 161.026 16.127 161.072 16.2 161.023 16.23 161.032 16.33 160.99 16.305 160.965 16.461 160.84 16.484 160.839 16.574"/><polygon class="cls-2" points="160.914 16.135 160.896 16.059 160.818 16.071 160.779 16.021 160.768 16.074 160.727 16.083 160.782 16.203 160.851 16.189 160.914 16.135"/><polygon class="cls-2" points="160.147 15.464 160.131 15.476 160.152 15.658 160.214 15.721 160.192 15.48 160.147 15.464"/><polygon class="cls-2" points="160.437 15.628 160.471 15.525 160.431 15.507 160.341 15.528 160.313 15.509 160.32 15.47 160.27 15.432 160.248 15.618 160.298 15.701 160.318 15.606 160.38 15.561 160.374 15.633 160.437 15.628"/><polygon class="cls-2" points="159.685 15.43 159.663 15.482 159.666 15.606 159.705 15.679 159.697 15.734 159.783 15.812 159.83 15.797 159.815 15.773 159.829 15.736 159.753 15.592 159.687 15.523 159.687 15.468 159.721 15.406 159.703 15.338 159.667 15.363 159.685 15.43"/><polygon class="cls-2" points="159.543 15.148 159.633 15.105 159.676 14.985 159.621 15.013 159.572 14.973 159.555 14.986 159.567 15.041 159.536 15.067 159.543 15.148"/><polygon class="cls-2" points="160.046 15.093 160.102 15.069 160.111 14.965 160.057 14.963 160.03 14.993 160.049 15.026 160.013 15.063 160.046 15.093"/><polygon class="cls-2" points="161.041 15.255 161.095 15.271 161.137 15.233 161.144 15.177 161.107 15.129 161.188 15.041 161.197 14.946 161.143 15.06 161.115 15.034 161.047 15.042 161.031 15.064 161.038 15.117 161.004 15.15 160.999 15.208 161.023 15.243 161.041 15.255"/><polygon class="cls-2" points="160.379 14.38 160.328 14.385 160.34 14.567 160.291 14.76 160.226 14.803 160.207 14.881 160.232 14.903 160.33 14.809 160.307 14.88 160.351 14.912 160.234 15.05 160.159 15.065 160.134 15.129 160.055 15.137 160.055 15.174 160.201 15.279 160.265 15.234 160.352 15.267 160.358 15.412 160.497 15.371 160.489 15.268 160.518 15.247 160.707 15.354 160.956 15.208 160.836 15.165 160.629 14.86 160.558 14.868 160.518 14.805 160.561 14.736 160.555 14.663 160.436 14.675 160.481 14.554 160.418 14.49 160.449 14.415 160.379 14.38"/><polygon class="cls-2" points="160.81 14.541 160.821 14.51 160.798 14.433 160.844 14.379 160.807 14.345 160.717 14.378 160.702 14.421 160.75 14.426 160.81 14.541"/><polygon class="cls-2" points="159.885 14.18 159.878 14.361 159.916 14.448 160.062 14.235 159.993 14.44 160.054 14.47 160.102 14.315 160.165 14.241 160.186 14.389 160.137 14.461 160.174 14.515 160.253 14.364 160.201 14.055 160.323 14.082 160.335 14.012 160.279 13.999 160.27 13.945 160.385 13.87 160.307 13.811 160.179 13.859 160.138 13.935 160.098 13.88 160.115 13.817 159.995 13.915 160.046 13.982 159.885 14.18"/><polygon class="cls-2" points="159.947 13.82 159.957 13.727 159.865 13.667 159.856 13.793 159.902 13.791 159.947 13.82"/><polygon class="cls-2" points="157.266 13.658 157.251 13.712 157.327 13.756 157.431 13.743 157.454 13.447 157.387 13.413 157.33 13.294 157.254 13.289 157.222 13.347 157.249 13.487 157.211 13.572 157.266 13.658"/><polygon class="cls-2" points="151.973 11.496 151.872 11.583 151.797 11.584 151.884 11.65 151.99 11.656 152.132 11.722 152.17 11.723 152.174 11.666 152.217 11.598 152.081 11.514 151.973 11.496"/><polygon class="cls-2" points="152.227 11.41 152.18 11.34 152.135 11.329 152.132 11.432 152.233 11.457 152.227 11.41"/><polygon class="cls-2" points="147.416 8.411 147.611 8.542 147.684 8.531 147.702 8.404 147.832 8.365 147.843 8.253 147.897 8.211 147.89 8.122 147.769 8.066 147.774 8.146 147.673 8.156 147.593 8.08 147.557 8.132 147.426 8.16 147.335 8.143 147.273 8.231 147.35 8.281 147.416 8.411"/><polygon class="cls-2" points="146.067 5.818 146.061 5.956 146.001 5.96 146.01 6.034 146.258 6.004 146.395 6.031 146.471 6.115 146.696 6.043 146.737 5.99 146.73 5.897 146.693 5.885 146.45 5.954 146.316 5.703 146.186 5.646 146.169 5.552 146.062 5.52 146.029 5.548 146.133 5.729 146.067 5.818"/><polygon class="cls-2" points="145.718 5.745 145.739 5.718 145.761 5.491 145.732 5.431 145.693 5.417 145.663 5.442 145.711 5.562 145.651 5.656 145.718 5.745"/><polygon class="cls-2" points="145.915 5.501 145.937 5.584 146.004 5.482 145.896 5.375 145.868 5.372 145.831 5.413 145.867 5.425 145.915 5.501"/><polygon class="cls-2" points="145.502 5.144 145.6 5.259 145.536 5.361 145.536 5.462 145.62 5.393 145.648 5.195 145.601 5.132 145.626 5.061 145.583 4.948 145.506 4.863 145.488 4.97 145.546 5.127 145.502 5.144"/><polygon class="cls-2" points="145.63 4.791 145.62 4.724 145.584 4.688 145.549 4.689 145.534 4.804 145.602 4.837 145.63 4.791"/><polygon class="cls-2" points="143.758 4.035 143.775 4.014 143.778 3.981 143.759 3.912 143.765 3.834 143.735 3.803 143.697 3.725 143.672 3.698 143.688 3.733 143.674 3.812 143.694 3.863 143.687 3.904 143.71 3.93 143.683 3.964 143.701 4 143.758 4.035"/><polygon class="cls-2" points="143.663 3.808 143.677 3.734 143.629 3.653 143.604 3.651 143.583 3.673 143.493 3.604 143.475 3.614 143.597 3.876 143.675 3.917 143.685 3.911 143.686 3.871 143.663 3.808"/><polygon class="cls-2" points="143.78 3.128 143.366 2.868 143.226 2.867 143.028 2.941 143.205 3.165 143.513 3.338 143.666 3.592 143.75 3.66 143.844 3.846 143.808 4.083 143.947 4.332 144.089 4.392 144.34 4.383 144.409 4.423 144.561 4.37 144.574 4.142 144.728 3.975 144.633 3.921 144.59 3.634 144.517 3.586 144.437 3.591 144.409 3.5 144.342 3.467 144.342 3.413 144.255 3.365 144.291 3.157 144.427 2.914 144.394 2.849 144.249 2.9 144.105 2.883 143.992 2.778 143.989 2.644 143.943 2.627 143.901 2.825 144.002 2.982 144.007 3.069 143.953 3.155 143.78 3.128"/><polygon class="cls-2" points="143.566 2.374 143.541 2.515 143.588 2.544 143.659 2.547 143.74 2.46 143.635 2.368 143.566 2.374"/><polygon class="cls-2" points="143.408 1.075 143.509 1.18 143.583 1.186 143.666 1.274 143.642 1.138 143.541 1.08 143.512 1.029 143.481 1.021 143.408 1.075"/><polygon class="cls-2" points="95.389 108.228 95.425 108.117 95.304 108.162 95.16 108.099 95.077 107.997 95.075 107.861 94.95 107.764 94.708 107.664 94.35 107.639 94.32 107.609 94.074 107.634 94.032 107.689 94.026 107.859 93.788 108.077 93.594 108.108 93.357 108.027 93.343 108.087 93.253 108.098 93.225 108.146 93.303 108.195 93.334 108.161 93.506 108.186 93.552 108.255 93.44 108.311 93.198 108.313 93.151 108.244 93.153 108.119 93.31 108.031 93.313 107.991 93.495 107.858 93.357 107.658 92.261 107.726 92.14 107.646 92.149 107.569 92.286 107.476 92.298 107.427 92.538 107.235 92.516 107.158 92.376 107.131 92.207 107.169 92.096 107.104 92.095 107.025 92.223 106.912 92.354 106.848 92.438 106.893 92.485 106.706 92.411 106.678 92.304 106.741 92.23 106.697 92.07 106.741 91.968 106.833 91.805 106.887 91.709 106.869 91.699 106.829 91.617 106.789 91.366 106.886 90.546 106.787 90.382 106.899 90.113 106.933 89.906 107.053 89.784 107.041 89.664 107.102 89.53 107.089 89.366 107.243 89.127 107.289 89.104 107.32 87.385 107.508 87.356 107.579 87.24 107.637 87.01 107.627 86.869 107.742 86.207 107.799 86.128 107.901 86.152 108.067 86.043 108.276 86.063 108.404 85.926 108.457 85.878 108.563 85.891 108.622 86.157 108.884 86.161 108.996 86.24 109.02 86.254 109.068 86.424 109.027 86.594 109.095 86.939 109.519 86.93 109.613 86.869 109.634 86.917 109.693 87.046 109.58 87.141 109.565 87.248 109.602 87.325 109.577 87.375 109.497 87.577 109.527 87.734 109.412 87.882 109.418 88.185 109.564 88.329 109.473 88.661 109.408 88.924 109.464 89.027 109.427 89.235 109.45 89.324 109.417 89.469 109.502 89.559 109.429 89.657 109.456 89.814 109.287 89.747 109.243 89.775 109.186 89.901 109.154 90.215 109.19 90.352 109.259 90.896 109.286 90.965 109.385 91.422 109.704 91.444 109.751 91.597 109.649 91.703 109.635 91.922 109.449 92.201 109.417 92.294 109.356 92.386 109.179 92.305 109.092 92.26 108.944 92.352 108.776 92.636 108.618 93.033 108.57 93.11 108.434 93.783 108.459 93.92 108.532 94.141 108.468 94.796 108.718 94.924 108.728 95.336 108.396 95.48 108.351 95.412 108.31 95.389 108.228"/><polygon class="cls-2" points="85.507 104.216 85.431 104.134 85.396 104.126 85.411 104.186 85.336 104.21 85.355 104.282 85.407 104.315 85.505 104.3 85.623 104.377 85.655 104.318 85.645 104.279 85.507 104.216"/><polygon class="cls-2" points="83.752 103.358 83.591 103.243 83.334 102.906 83.188 102.991 83.163 103.034 83.197 103.127 83.346 103.136 83.367 103.189 83.628 103.357 83.647 103.446 83.578 103.477 83.63 103.599 83.751 103.684 83.873 103.624 83.828 103.348 83.752 103.358"/><polygon class="cls-2" points="82.744 102.51 82.697 102.548 82.697 102.598 82.753 102.668 82.774 102.656 82.782 102.589 82.771 102.521 82.744 102.51"/><polygon class="cls-2" points="97.946 102.13 97.914 102.042 97.796 101.888 97.763 102.141 97.802 102.175 97.865 102.124 97.946 102.13"/><polygon class="cls-2" points="82.28 101.668 82.317 101.64 82.382 101.681 82.411 101.658 82.379 101.607 82.334 101.591 82.347 101.481 82.33 101.447 82.194 101.363 82.165 101.495 82.235 101.533 82.22 101.603 82.28 101.668"/><polygon class="cls-2" points="84.706 101.234 84.676 101.303 84.774 101.415 84.842 101.303 84.807 101.247 84.706 101.234"/><polygon class="cls-2" points="84.419 100.363 84.368 100.346 84.355 100.524 84.316 100.569 84.351 100.62 84.408 100.596 84.407 100.501 84.384 100.443 84.401 100.409 84.511 100.363 84.525 100.352 84.505 100.332 84.419 100.363"/><polygon class="cls-2" points="90.869 100.097 90.801 100.194 90.712 100.247 90.728 100.471 90.774 100.486 90.79 100.518 90.877 100.487 90.909 100.353 90.971 100.305 90.921 100.203 90.941 100.147 90.869 100.097"/><polygon class="cls-2" points="73.531 95.503 73.496 95.554 73.512 95.713 73.395 95.967 73.658 95.804 73.771 95.669 73.988 95.669 73.868 95.388 73.531 95.503"/><polygon class="cls-2" points="75.403 94.878 75.359 94.896 75.376 94.929 75.426 94.924 75.541 94.99 75.574 94.881 75.535 94.899 75.403 94.878"/><polygon class="cls-2" points="66.562 88.33 66.481 88.357 66.43 88.33 66.437 88.287 66.336 88.32 66.33 88.348 66.377 88.359 66.412 88.405 66.386 88.448 66.434 88.489 66.444 88.51 66.533 88.47 66.525 88.442 66.573 88.393 66.562 88.33"/><polygon class="cls-2" points="68.464 88.081 68.542 88.115 68.596 88.102 68.64 88.046 68.477 88.048 68.464 88.081"/><polygon class="cls-2" points="68.726 87.955 68.721 87.99 68.685 87.997 68.654 88.046 68.662 88.072 68.776 88.017 68.811 87.976 68.779 87.943 68.726 87.955"/><polygon class="cls-2" points="69.817 87.625 69.821 87.575 69.688 87.453 69.578 87.475 69.486 87.465 69.438 87.491 69.626 87.595 69.744 87.611 69.847 87.666 69.817 87.625"/><polygon class="cls-2" points="67.73 87.193 67.721 87.249 67.832 87.221 67.894 87.165 67.79 87.151 67.73 87.193"/><polygon class="cls-2" points="68.395 86.88 68.747 86.731 68.458 86.773 68.274 86.9 68.192 86.859 68.008 86.936 67.956 87.024 68.01 87.185 68.144 87.255 68.312 87.184 68.44 86.988 68.373 86.916 68.395 86.88"/></g><g id="highlight"><polygon class="cls-3" points="95.389 108.228 95.425 108.117 95.304 108.162 95.16 108.099 95.077 107.997 95.075 107.861 94.708 107.664 94.35 107.639 94.32 107.609 94.074 107.634 94.032 107.689 94.026 107.859 93.788 108.077 93.594 108.108 93.357 108.027 93.343 108.087 93.253 108.098 93.225 108.146 93.303 108.195 93.334 108.161 93.506 108.186 93.552 108.255 93.44 108.311 93.198 108.313 93.151 108.244 93.153 108.119 93.31 108.031 93.313 107.991 93.495 107.858 93.357 107.658 92.261 107.726 92.14 107.646 92.149 107.569 92.286 107.476 92.298 107.427 92.538 107.235 92.516 107.158 92.376 107.131 92.207 107.169 92.096 107.104 92.095 107.025 92.354 106.848 92.438 106.893 92.485 106.706 92.411 106.678 92.304 106.741 92.23 106.697 92.07 106.741 91.968 106.833 91.805 106.887 91.709 106.869 91.699 106.829 91.617 106.789 91.366 106.886 90.546 106.787 90.382 106.899 90.113 106.933 89.906 107.053 89.784 107.041 89.664 107.102 89.53 107.089 89.366 107.243 89.127 107.289 89.104 107.32 87.385 107.508 87.356 107.579 87.24 107.637 87.01 107.627 86.869 107.742 86.207 107.799 86.128 107.901 86.152 108.067 86.043 108.276 86.063 108.404 85.926 108.457 85.878 108.563 85.891 108.622 86.157 108.884 86.161 108.996 86.24 109.02 86.254 109.068 86.424 109.027 86.594 109.095 86.939 109.519 86.93 109.613 86.869 109.634 86.917 109.693 87.046 109.58 87.141 109.565 87.248 109.602 87.325 109.577 87.375 109.497 87.577 109.527 87.734 109.412 87.882 109.418 88.185 109.564 88.329 109.473 88.661 109.408 88.924 109.464 89.027 109.427 89.235 109.45 89.324 109.417 89.469 109.502 89.559 109.429 89.657 109.456 89.814 109.287 89.747 109.243 89.775 109.186 89.901 109.154 90.215 109.19 90.352 109.259 90.896 109.286 91.422 109.704 91.444 109.751 91.597 109.649 91.703 109.635 91.922 109.449 92.201 109.417 92.294 109.356 92.386 109.179 92.305 109.092 92.26 108.944 92.352 108.776 92.636 108.618 93.033 108.57 93.11 108.434 93.783 108.459 93.92 108.532 94.141 108.468 94.924 108.728 95.336 108.396 95.48 108.351 95.412 108.31 95.389 108.228"/><polygon class="cls-3" points="85.507 104.216 85.431 104.134 85.396 104.126 85.411 104.186 85.336 104.21 85.355 104.282 85.407 104.315 85.505 104.3 85.623 104.377 85.655 104.318 85.645 104.279 85.507 104.216"/><polygon class="cls-3" points="83.752 103.358 83.334 102.906 83.188 102.991 83.163 103.034 83.197 103.127 83.346 103.136 83.367 103.189 83.628 103.357 83.647 103.446 83.578 103.477 83.63 103.599 83.751 103.684 83.873 103.624 83.828 103.348 83.752 103.358"/><polygon class="cls-3" points="82.744 102.51 82.697 102.548 82.697 102.598 82.753 102.668 82.774 102.656 82.771 102.521 82.744 102.51"/><polygon class="cls-3" points="97.946 102.13 97.796 101.888 97.763 102.141 97.802 102.175 97.865 102.124 97.946 102.13"/><polygon class="cls-3" points="82.28 101.668 82.317 101.64 82.382 101.681 82.411 101.658 82.379 101.607 82.334 101.591 82.347 101.481 82.33 101.447 82.194 101.363 82.165 101.495 82.235 101.533 82.22 101.603 82.28 101.668"/><polygon class="cls-3" points="84.706 101.234 84.676 101.303 84.774 101.415 84.842 101.303 84.807 101.247 84.706 101.234"/><polygon class="cls-3" points="84.419 100.363 84.368 100.346 84.355 100.524 84.316 100.569 84.351 100.62 84.408 100.596 84.407 100.501 84.384 100.443 84.401 100.409 84.525 100.352 84.505 100.332 84.419 100.363"/><polygon class="cls-3" points="90.869 100.097 90.801 100.194 90.712 100.247 90.728 100.471 90.774 100.486 90.79 100.518 90.877 100.487 90.909 100.353 90.971 100.305 90.921 100.203 90.941 100.147 90.869 100.097"/><polygon class="cls-3" points="73.531 95.503 73.496 95.554 73.512 95.713 73.395 95.967 73.771 95.669 73.988 95.669 73.868 95.388 73.531 95.503"/><polygon class="cls-3" points="75.403 94.878 75.359 94.896 75.376 94.929 75.426 94.924 75.541 94.99 75.574 94.881 75.535 94.899 75.403 94.878"/><polygon class="cls-3" points="66.562 88.33 66.481 88.357 66.43 88.33 66.437 88.287 66.336 88.32 66.33 88.348 66.377 88.359 66.412 88.405 66.386 88.448 66.434 88.489 66.444 88.51 66.533 88.47 66.525 88.442 66.573 88.393 66.562 88.33"/><polygon class="cls-3" points="68.464 88.081 68.542 88.115 68.596 88.102 68.64 88.046 68.477 88.048 68.464 88.081"/><polygon class="cls-3" points="68.726 87.955 68.721 87.99 68.685 87.997 68.654 88.046 68.662 88.072 68.776 88.017 68.811 87.976 68.779 87.943 68.726 87.955"/><polygon class="cls-3" points="69.817 87.625 69.821 87.575 69.688 87.453 69.486 87.465 69.438 87.491 69.626 87.595 69.744 87.611 69.847 87.666 69.817 87.625"/><polygon class="cls-3" points="67.73 87.193 67.721 87.249 67.832 87.221 67.894 87.165 67.79 87.151 67.73 87.193"/><polygon class="cls-3" points="68.395 86.88 68.747 86.731 68.458 86.773 68.274 86.9 68.192 86.859 68.008 86.936 67.956 87.024 68.01 87.185 68.144 87.255 68.312 87.184 68.44 86.988 68.373 86.916 68.395 86.88"/><polygon class="cls-3" points="112.664 97.019 112.644 49.372 40.763 49.385 40.759 83.47 53.079 82.475 53.224 82.291 53.504 82.134 53.624 82.128 59.402 85.021 59.425 85.106 59.638 85.356 59.728 85.369 59.784 85.446 60.351 85.543 60.357 85.504 60.433 85.475 60.731 85.515 60.786 85.428 61.035 85.4 61.092 85.347 61.23 85.333 61.543 85.519 61.562 85.475 61.489 85.4 61.385 85.387 61.347 85.297 61.442 85.115 61.859 84.953 62.78 85.087 62.838 85.044 63.122 85.076 63.144 85.036 63.212 85.036 64.559 85.771 64.606 85.845 64.594 85.977 64.744 85.837 65.548 86.392 65.488 86.472 65.473 86.584 65.594 86.509 65.593 86.389 65.691 86.355 66.261 86.576 66.361 86.507 66.392 86.437 67.25 86.526 67.265 86.448 67.374 86.407 67.64 86.537 67.658 86.514 67.5 86.293 67.289 86.248 67.229 86.268 67.116 86.179 67.222 86.112 67.28 86.13 67.54 85.939 67.601 85.975 67.607 86.095 67.727 86.116 67.693 86.25 67.776 86.261 67.859 86.197 67.85 86.272 68.021 86.359 68.047 86.294 68.216 86.185 68.149 86.06 68.204 85.916 68.264 85.865 68.403 85.86 68.73 85.976 68.736 86.142 68.575 86.194 68.583 86.247 68.75 86.195 68.86 86.263 68.878 86.306 68.783 86.558 68.998 86.51 69.26 86.59 69.28 86.691 69.238 86.755 69.335 86.926 69.396 86.868 69.491 86.859 69.552 86.8 69.555 86.734 69.637 86.746 69.685 86.868 69.767 86.879 69.867 87.013 69.934 87.036 69.991 87.169 70.12 87.25 70.293 87.514 70.303 87.618 70.371 87.63 70.417 87.688 70.354 87.839 70.199 87.894 70.105 87.737 69.909 87.731 69.908 87.869 69.817 88.103 69.88 88.245 69.809 88.3 69.788 88.378 69.908 88.565 69.963 88.536 70.069 88.587 70.084 88.483 70.227 88.313 70.654 88.371 70.668 88.257 70.93 88.102 71.216 88.172 71.206 88.12 71.243 88.093 71.467 88.07 71.821 88.246 72.293 88.762 72.38 89.229 72.471 89.327 72.091 90.023 71.988 90.104 71.921 90.118 71.866 90.083 71.846 89.928 71.917 89.822 71.716 89.744 71.789 89.704 71.993 89.722 71.77 89.646 71.351 89.663 71.194 89.596 71.093 89.63 71.082 89.695 71.51 90.218 71.537 90.379 71.499 90.472 71.407 90.548 71.142 90.636 71.184 90.706 71.16 90.773 71.069 90.778 71.196 90.895 71.251 90.895 71.337 90.815 71.424 90.825 71.484 90.901 71.457 90.93 71.552 91 71.595 90.894 71.793 90.938 71.922 91.133 71.925 91.348 71.846 91.428 71.712 91.392 71.54 91.444 71.739 91.63 71.811 91.622 71.885 91.544 72.096 91.6 72.193 91.857 72.278 91.924 72.307 92.165 72.272 92.25 72.673 92.529 72.816 92.473 72.776 92.307 72.817 92.168 72.608 92.095 72.583 92.005 72.465 92.045 72.285 91.836 72.281 91.696 72.385 91.653 72.293 91.521 72.383 91.484 72.508 91.636 72.443 91.699 72.472 91.793 72.547 91.868 72.651 91.877 72.863 92.101 72.916 92.386 73.016 92.371 73.199 92.224 73.411 92.201 74.018 92.478 74.147 92.487 74.497 92.789 74.552 92.66 74.423 92.482 74.386 92.467 74.301 92.515 74.169 92.472 74.058 92.298 74.278 92.167 74.501 92.306 74.705 92.3 74.946 92.415 75.007 92.514 75.015 92.709 74.894 92.663 74.852 92.707 74.686 92.729 74.828 92.832 74.873 92.911 75.015 92.918 75.188 93.048 75.266 93.189 75.513 93.307 75.879 94.627 75.744 94.887 75.757 95.054 75.681 95.083 77.568 96.435 77.669 96.592 77.716 96.564 77.787 96.586 77.859 96.838 78.322 97.413 78.332 97.467 78.289 97.516 78.384 97.731 78.333 97.89 78.375 98.041 78.268 98.088 78.143 98.219 78.53 98.442 78.855 99.378 78.804 99.525 78.886 99.629 78.845 99.826 79.017 99.951 79.07 100.285 78.96 100.398 78.972 100.48 79.019 100.504 79.088 100.651 79.032 100.887 79.061 100.918 79.228 100.93 79.172 100.858 79.14 100.648 79.231 100.609 79.212 100.557 79.273 100.484 79.367 100.543 79.325 100.84 79.362 100.894 79.445 100.84 79.576 100.901 79.77 100.918 79.798 100.986 79.757 101.046 79.663 101.001 79.167 101.146 79.089 101.133 79.091 101.085 79.042 101.058 78.874 101.044 78.8 100.933 78.842 100.85 78.824 100.798 78.554 100.701 78.483 100.63 78.59 100.443 78.824 100.446 78.52 100.412 78.475 100.367 78.005 100.292 77.969 99.967 78.002 99.922 77.937 99.893 77.85 99.955 77.814 100.082 77.74 100.106 77.582 100.326 77.564 100.439 77.481 100.487 77.503 100.569 77.454 100.778 77.37 100.808 77.356 100.853 77.561 100.87 77.599 100.734 77.739 100.653 77.957 100.668 77.954 100.613 78.04 100.585 78.204 100.622 78.37 100.743 78.49 100.924 78.627 100.971 78.744 101.084 78.783 101.299 78.741 101.345 78.671 101.336 78.62 101.4 78.647 101.438 78.801 101.408 79.663 101.93 79.669 102.009 80.319 102.594 80.327 102.667 80.374 102.671 80.44 102.759 80.412 102.949 80.439 102.993 80.533 102.973 80.546 102.937 80.819 102.983 80.827 102.854 80.782 102.801 80.933 102.75 80.976 102.511 81.201 102.457 81.817 102.64 81.854 102.715 81.829 102.879 81.911 102.838 82.263 103.01 82.282 103.143 82.386 103.198 82.344 103.233 82.352 103.331 82.435 103.351 82.455 103.269 82.552 103.287 82.627 103.201 82.712 103.227 82.685 103.075 82.618 103.067 82.605 102.767 82.467 102.568 82.454 102.413 82.686 102.237 82.724 102.103 82.706 102.01 82.778 101.859 82.731 101.739 82.667 101.673 82.567 101.701 82.63 101.944 82.576 102.026 82.464 102.021 82.426 101.859 82.391 101.909 82.268 101.929 82.068 102.146 81.862 102.162 81.729 102.227 81.418 102.172 81.788 101.825 81.877 101.934 82.05 101.828 82.004 101.669 81.818 101.612 81.865 101.124 82.032 101.016 82.166 101.037 82.166 101.105 82.253 101.199 82.317 101.216 82.296 100.983 82.166 100.982 82.103 100.877 82.276 100.513 82.539 100.347 82.657 100.426 82.79 100.359 82.794 100.301 82.87 100.211 83.032 100.194 83.153 100.239 83.199 100.305 83.152 100.364 83.235 100.468 83.207 100.565 83.269 100.557 83.284 100.469 83.365 100.42 83.399 100.255 83.353 100.196 83.422 100.124 83.378 100.015 83.411 99.921 83.335 99.855 83.394 99.774 83.372 99.656 83.319 99.616 83.374 99.463 83.533 99.365 83.763 99.354 84.255 98.929 84.362 98.647 84.64 98.413 84.68 98.214 84.829 98.057 84.779 98.008 84.771 97.93 84.868 97.742 86.145 96.976 86.126 96.849 86.245 96.721 87.35 96.309 87.354 96.263 87.475 96.151 88.496 95.781 88.475 95.74 88.241 95.7 88.204 95.742 88.245 95.79 88.24 95.865 88.161 95.875 88.094 95.962 87.959 95.99 87.921 95.908 87.908 95.76 88.214 95.561 88.279 95.362 88.54 95.406 88.54 95.463 88.474 95.503 88.492 95.536 88.677 95.561 88.622 95.683 88.816 95.655 88.904 95.576 89.702 95.464 89.763 95.377 89.968 95.283 90.443 94.383 90.506 94.331 90.488 94.295 90.599 94.118 90.813 93.973 90.846 93.805 90.985 93.587 90.959 93.184 91.315 92.653 91.387 92.161 91.442 92.113 91.624 92.071 91.952 91.849 92.12 91.603 92.246 91.548 92.192 91.465 92.271 91.437 92.245 91.324 92.339 91.183 92.65 91.049 92.84 91.096 92.952 91.179 93.002 91.277 93.382 91.306 93.176 90.85 93.224 90.779 93.398 90.825 93.43 90.792 93.466 90.688 93.431 90.556 93.54 90.4 93.48 90.079 93.536 89.853 93.501 89.756 93.359 89.606 93.229 89.613 93.183 89.577 93.23 89.508 93.188 89.366 93.267 88.976 93.213 88.712 93.225 88.633 93.293 88.569 93.208 88.521 93.258 88.399 93.202 88.302 93.276 88.339 93.313 88.418 93.265 88.489 93.346 88.497 93.383 88.552 93.325 88.689 93.611 88.696 93.593 88.85 93.493 88.971 93.629 89.121 93.723 89.164 93.819 89.338 93.728 89.503 93.82 89.575 94.002 89.625 94.213 89.825 94.122 89.929 94.063 89.939 94.058 89.988 94.103 90.023 94.372 91.378 94.492 91.458 94.588 91.448 94.773 91.54 94.945 91.862 94.835 91.906 94.816 91.968 94.915 91.987 94.956 92.061 94.912 92.136 94.742 92.234 94.702 92.196 94.731 92.14 94.667 92.11 94.59 92.178 94.311 92.258 94.2 92.374 94.157 92.336 93.802 92.458 93.668 92.578 93.676 92.647 93.58 92.804 93.602 92.832 93.554 92.887 93.536 92.978 93.648 93.127 93.713 93.159 93.791 93.296 93.968 93.311 93.979 93.445 93.919 93.515 93.894 93.707 94.247 94.212 94.264 94.319 94.356 94.421 94.314 94.47 94.31 94.622 94.488 94.634 94.537 94.681 94.461 94.763 94.396 94.764 94.355 94.658 94.286 94.649 94.229 95.034 94.132 95.114 94.081 95.114 94.043 95.061 94.071 94.996 94.113 95.032 94.155 95.011 94.205 94.867 94.038 94.855 92.276 96.585 92.426 96.705 92.449 96.857 92.268 96.944 92.128 97.121 92.054 97.156 92.003 97.268 91.93 97.264 91.847 97.347 92.005 97.413 92.087 97.583 91.994 97.761 91.949 97.775 91.921 97.892 91.843 97.955 91.817 98.091 91.723 98.145 91.439 98.116 91.38 98.147 91.685 98.673 91.535 99.677 91.469 99.727 91.356 99.711 91.307 99.889 91.164 100.027 91.238 100.155 91.401 99.903 91.518 99.904 91.578 99.951 91.597 100.226 91.527 100.382 91.723 100.812 91.717 101.217 91.637 101.315 91.378 102.772 91.177 102.945 90.923 103.036 90.81 102.984 90.763 102.888 90.541 102.881 90.426 102.712 90.339 102.674 89.14 102.82 88.739 102.684 88.756 102.834 88.543 102.967 88.493 103.323 88.273 103.48 88.452 103.84 88.349 103.95 88.331 104.077 88.276 104.155 88.046 104.276 88.051 104.378 88.01 104.422 87.885 104.473 87.761 104.449 87.764 104.683 87.65 104.803 87.77 105.002 87.909 105.038 87.978 105.118 88.094 105.029 88.333 105.016 88.354 104.927 88.49 104.913 88.505 104.827 88.577 104.812 88.577 104.727 88.699 104.652 89.164 104.675 89.347 104.771 89.388 104.739 89.524 104.776 89.822 104.692 89.824 104.563 90.104 104.301 90.68 104.324 90.748 104.292 90.72 104.218 90.77 104.135 91.215 103.904 91.472 103.913 91.746 104.031 91.813 103.997 91.975 104.007 92.497 104.319 92.754 104.325 92.861 104.166 93.243 103.995 93.139 103.917 93.178 103.805 93.046 103.604 93.268 103.559 93.234 103.307 93.416 102.867 93.508 102.79 93.457 102.754 93.453 102.689 93.861 101.983 93.821 101.938 93.956 101.478 93.938 101.318 94.119 101.01 93.984 100.965 93.93 100.894 94.183 99.883 94.713 99.412 94.813 98.976 94.705 98.897 94.735 98.721 94.86 98.627 94.878 98.495 95.096 98.146 95.216 98.111 95.297 98.158 95.321 98.257 95.482 98.456 95.533 98.474 95.648 98.67 95.652 98.798 95.543 98.88 95.545 98.924 95.827 98.948 96.014 99.193 96.053 99.365 96.022 99.504 96.268 100.182 96.652 100.428 96.734 100.543 96.769 100.714 96.833 100.803 96.981 100.874 97.138 101.052 97.207 101.039 97.344 101.24 97.28 101.246 97.253 101.326 97.378 101.41 97.426 101.5 97.52 101.51 97.631 101.642 97.861 101.774 97.987 102.054 97.956 102.172 97.878 102.207 97.757 102.176 97.721 102.105 97.761 101.943 97.709 101.899 97.649 101.901 97.539 102.011 97.607 102.104 97.612 102.197 97.525 102.45 97.774 103.509 97.633 103.822 97.529 103.923 97.479 104.033 97.483 104.76 97.414 104.89 97.318 104.973 97.311 105.412 96.715 105.668 96.434 106.119 95.835 106.452 95.669 106.427 95.32 106.869 95.245 106.913 95.244 107.053 95.649 107.273 97.801 107.167 98.29 106.875 98.263 106.782 98.362 106.672 98.424 106.658 98.463 106.57 98.772 106.537 98.839 106.484 98.829 106.442 98.927 106.391 99.984 106.667 99.523 106.481 99.526 106.445 99.596 106.43 99.954 106.608 100.061 106.607 100.213 106.708 100.305 106.657 100.404 106.657 100.568 106.762 100.646 106.771 101.65 107.415 101.726 107.532 101.786 107.53 102.387 108.025 102.489 108.034 102.796 108.328 102.967 108.374 103.065 108.693 103.097 108.694 103.084 108.586 103.135 108.548 103.236 108.644 103.161 108.649 103.133 108.717 103.21 108.764 103.31 108.705 104.058 109.432 104.071 109.528 104.121 109.542 104.134 109.615 104.261 109.698 104.23 109.76 104.286 109.905 104.41 109.923 104.509 110.074 104.468 110.177 104.984 110.976 104.986 111.02 104.949 111.012 103.944 109.57 103.81 109.518 103.583 109.255 103.565 109.174 103.438 109.112 103.444 109.078 102.886 108.563 102.849 108.462 101.499 107.455 101.496 107.398 101.416 107.401 101.341 107.309 101.114 107.194 101.025 107.096 100.909 107.071 100.878 107.016 100.593 106.879 100.579 106.813 100.528 106.783 100.451 106.799 100.293 106.709 100.212 106.732 100.03 106.678 102.925 108.665 105.504 112.405 105.84 113.754 105.764 114.242 105.354 114.69 104.715 114.955 104.689 115.057 105.105 115.438 105.122 115.749 105.298 115.817 105.415 115.994 105.437 116.128 105.379 116.267 105.325 116.296 105.165 116.28 105.119 116.238 105.097 116.397 105.739 117.265 105.853 117.312 106.001 117.559 106.14 117.653 106.243 117.809 106.347 117.883 106.366 117.95 106.415 117.956 106.641 118.158 106.655 118.219 106.751 118.242 106.782 118.157 106.866 118.146 107.4 118.5 107.446 118.647 107.382 118.72 107.307 118.694 107.338 118.766 108.186 119.462 108.907 120.684 108.996 120.711 109.034 120.799 109.088 120.797 109.182 120.877 109.377 120.912 109.755 121.23 110.051 121.333 110.126 121.468 110.196 121.433 110.303 121.456 110.389 121.536 110.511 121.537 110.627 121.656 111.264 121.631 111.35 121.561 111.496 121.58 111.688 121.532 112.443 121.627 112.423 97.206 112.465 97.24 112.456 97.299 112.538 97.328 112.504 97.374 112.572 97.386 112.54 97.414 112.574 97.497 112.664 97.452 112.664 97.019"/></g></svg>