<svg xmlns="http://www.w3.org/2000/svg" viewBox="0 0 169.718 150"><defs><style>.cls-1{fill:#eff9fe;}.cls-2{fill:#e6e6e6;}.cls-3{fill:#495b14;}</style></defs><title>TAS-ICON</title><g id="Layer_3" data-name="Layer 3"><rect class="cls-1" width="169.718" height="150"/></g><g id="aus5fgd_r_area"><polygon class="cls-2" points="87.69 46.933 86.277 47.037 86.782 46.69 86.438 46.757 86.282 46.521 85.665 46.736 86.048 47.364 88.311 46.964 87.694 47.052 87.69 46.933 87.69 46.933"/><polygon class="cls-2" points="86.072 46.642 86.208 46.501 85.347 46.447 85.241 46.631 86.072 46.642 86.072 46.642"/><polygon class="cls-2" points="88.627 46.293 88.012 46.387 88.033 46.308 87.502 46.45 88.818 46.377 88.627 46.293 88.627 46.293"/><polygon class="cls-2" points="89.559 45.683 89.107 46.056 89.114 46.137 89.737 45.857 89.701 45.728 89.559 45.683 89.559 45.683"/><polygon class="cls-2" points="90.555 45.629 90.458 45.815 91.067 45.683 90.555 45.629 90.555 45.629"/><polygon class="cls-2" points="91.421 45.526 91.177 45.584 91.178 45.895 91.764 45.372 91.61 45.349 91.421 45.526 91.421 45.526"/><polygon class="cls-2" points="91.295 45.026 90.687 45.095 90.672 45.252 90.506 45.27 90.599 45.456 91.806 45.165 91.852 45.021 91.295 45.026 91.295 45.026"/><polygon class="cls-2" points="69.122 43.504 68.04 42.971 68.333 42.703 65.435 43.541 68.976 44.277 69.121 44.04 68.783 43.802 69.122 43.504 69.122 43.504"/><polygon class="cls-2" points="67.837 41.705 68.91 42.107 69.084 41.88 69.469 41.868 69.54 41.537 71.184 41.039 68.034 40.042 67.837 41.705 67.837 41.705"/><polygon class="cls-2" points="59.228 39.431 58.865 39.345 58.642 39.551 59.228 39.431 59.228 39.431"/><polygon class="cls-2" points="68.227 39.47 68.152 39.127 67.864 39.187 67.912 39.409 68.227 39.47 68.227 39.47"/><polygon class="cls-2" points="104.776 34.31 104.452 34.659 105.187 34.456 105.289 34.117 104.776 34.31 104.776 34.31"/><polygon class="cls-2" points="143.476 0 0 0 0 36.659 9.735 40.842 9.221 41.407 9.977 41.725 9.858 41.329 11.564 41.632 11.694 41.865 11.577 41.99 11.905 42.264 12.352 41.633 13.506 41.666 13.081 41.033 12.897 41.024 12.786 40.468 22.35 41.692 22.781 41.223 25.861 41.837 25.908 41.71 42.015 48.594 47.128 45.397 47.088 45.294 48.523 44.01 48.373 43.895 51.445 42.204 51.411 42.047 53.605 40.874 53.617 40.667 56.207 40.132 56.114 40.029 57.898 40.153 58.043 39.885 58.618 39.863 58.683 39.717 58.221 39.773 58.063 39.607 59.121 38.693 59.247 38.798 59.104 39.043 59.211 39.063 59.068 37.576 55.294 37.984 55.065 37.647 54.941 38.104 54.035 37.85 62.411 33.78 62.125 33.519 62.164 33.406 64.24 35.736 64.517 35.606 65.454 37.92 63.435 40.221 63.603 40.342 58.45 40.327 61.988 43.219 62.417 43.116 62.463 43.221 64.171 43.064 64.078 42.83 67.19 41.904 66.924 41.71 66.94 40.974 66.528 40.666 66.569 40.212 66.716 40.147 66.778 40.327 67.014 40.357 67.097 40.14 66.975 39.996 67.511 39.073 68.001 39.013 67.981 38.895 68.353 39.018 68.284 39.18 68.747 39.213 68.844 38.987 71.485 40.233 71.381 40.85 71.947 41.052 71.432 41.984 69.999 41.903 70.074 42.725 69.936 42.837 70.158 42.977 69.984 43.455 69.133 43.588 76.353 46.166 76.299 46.205 75.641 45.829 75.688 45.688 74.669 45.463 77.416 48.929 77.337 49.13 77.491 49.395 78.746 48.901 78.68 48.348 81.261 48.687 81.283 48.589 80.921 48.296 81.191 48.016 82.741 50.461 82.422 50.692 83.809 51.669 83.774 51.895 83.485 51.971 84.436 52.785 85.284 52.105 85.046 52.016 85.489 51.574 85.87 51.75 85.823 51.416 85.753 51.45 85.575 51.305 85.778 51.14 85.148 50.989 85.157 50.884 85.338 50.839 85.639 47.47 83.027 49.277 82.979 48.73 82.748 48.628 82.694 47.849 82.133 47.875 81.526 46.643 82.309 46.008 82.333 46.214 83.713 46.139 83.783 45.896 84.351 46.124 84.45 46.584 87.285 46.029 87.305 46.193 87.408 46.241 88.49 45.706 88.47 45.427 88.704 45.734 88.611 45.857 89.31 45.773 89.384 45.529 90.357 45.659 90.402 45.285 92.179 44.985 91.957 45.077 91.905 45.283 108.179 34.15 106.753 34.279 106.652 34.126 106.516 34.367 106.146 34.277 105.849 34.536 105.974 34.662 105.166 34.866 105.075 35.055 105.225 35.188 104.515 35.372 104.31 35.107 103.404 35.533 103.402 35.697 100.583 36.87 100.691 36.274 102.628 35.784 102.613 35.651 104.594 34.313 103.487 33.916 103.483 33.506 105.897 33.639 105.936 34.047 125.738 32.448 125.414 32.303 125.47 32.152 125.278 32.095 125.354 31.918 125.619 31.918 125.778 32.45 127.537 32.579 127.718 32.833 135.086 29.387 134.019 28.428 134.752 28.187 134.857 28.34 134.59 28.545 135.2 28.572 135.288 28.332 135.586 28.299 135.626 28.412 135.39 28.683 135.61 28.792 135.203 28.982 135.244 29.158 138.221 28.373 137.734 24.932 138.364 24.395 139.353 24.747 137.565 22.301 137.509 22.461 136.994 22.251 136.88 22.359 136.675 22.226 137.41 21.514 137.756 21.594 137.674 20.036 137.286 20.034 137.193 19.398 137.409 19.229 137.626 19.35 137.752 18.589 137.59 18.481 138.45 16.703 138.27 16.651 139.799 12.166 139.56 12.072 141.02 5.721 140.887 5.696 141.377 3.334 141.946 3.295 142.052 2.399 141.739 2.221 141.815 1.99 141.047 1.323 140.933 1.469 140.852 1.437 140.833 1.291 142.555 1.668 143.172 0.846 143.02 0.732 143.279 0.374 143.439 0.392 143.42 0.028 143.476 0 143.476 0"/></g><g id="highlight"><polygon class="cls-3" points="82.673 120.527 82.961 120.442 82.801 120.21 82.673 120.527 82.673 120.527"/><polygon class="cls-3" points="83.737 119.513 83.788 119.721 84.306 119.643 84.305 119.456 83.737 119.513 83.737 119.513"/><polygon class="cls-3" points="99.815 113.687 99.765 113.189 99.527 113.125 99.007 111.623 98.233 112.355 98.553 112.628 98.7 112.463 98.904 112.628 98.589 112.789 98.577 112.945 98.249 112.714 98.007 112.852 98.071 113.026 97.778 113.155 98.118 113.206 98.122 113.372 98.696 113.209 98.786 113.275 98.615 113.438 98.947 113.457 99.07 113.303 99.397 113.401 99.272 113.881 99.096 113.794 98.847 113.964 98.982 114.552 98.242 115.116 98.016 114.275 96.752 116.404 96.477 115.902 96.325 115.941 96.284 116.985 96.419 116.926 96.521 117.088 96.259 117.224 96.218 117.424 96.347 117.529 96.046 117.614 95.387 116.838 95.035 116.962 95.85 118.084 96.009 117.907 96.388 117.982 96.344 117.723 96.687 117.472 96.668 117.233 97.373 117.319 97.474 117.538 97.27 117.653 97.391 118.054 97.586 117.976 98.061 118.393 98.561 118.068 98.622 117.274 98.802 117.209 98.712 117.009 99.361 116.13 99.141 115.912 98.889 116.18 98.561 116.049 98.926 114.686 99.882 114.275 99.969 114.455 100.096 114.435 100.045 113.784 99.815 113.687 99.815 113.687"/><polygon class="cls-3" points="110.692 104.801 109.714 104.223 109.026 105.132 109.206 105.39 108.812 105.6 109.007 105.705 109.377 105.517 109.617 105.865 108.82 106.482 108.848 106.813 110.022 106.485 109.936 106.022 109.664 105.926 109.841 105.613 111.149 105.417 110.692 104.801 110.692 104.801"/><polygon class="cls-3" points="113.337 100.429 113.379 100.264 112.167 100.294 113.809 100.81 113.337 100.429 113.337 100.429"/><polygon class="cls-3" points="103.152 77.821 103.254 77.409 102.863 77.875 102.939 77.933 103.152 77.821 103.152 77.821"/><polygon class="cls-3" points="64.288 77.319 65.255 77.628 64.352 76.996 64.288 77.319 64.288 77.319"/><polygon class="cls-3" points="109.957 76.825 110.018 76.882 110.111 76.805 110.222 76.865 110.509 76.668 109.957 76.825 109.957 76.825"/><polygon class="cls-3" points="113.002 86.363 113.995 84.916 113.938 84.825 112.569 85.806 112.325 85.637 112.76 85.44 112.674 85.336 112.835 84.934 113.572 84.826 113.688 84.567 113.556 84.441 113.394 84.53 113.291 84.422 113.127 84.494 113.069 81.667 112.504 81.387 112.978 81.196 112.906 81.429 113.041 81.563 113.839 80.605 111.272 78.04 111.227 78.165 107.707 76.823 107.999 77.189 107.934 77.349 107.779 77.364 106.866 78.807 103.682 78.132 103.675 78.034 99.575 80.758 99.407 80.421 99.015 80.376 98.816 79.81 90.458 81.528 92.902 83.4 92.516 83.522 92.481 83.634 92.797 83.841 92.827 84.134 93.865 84.826 93.843 84.954 93.413 85.177 93.413 85.309 94.262 85.488 94.319 85.741 94.755 85.686 94.878 85.846 94.767 85.966 95.249 86.655 94.75 86.447 94.716 85.825 93.178 85.142 93.323 84.928 92.144 83.829 92.489 83.254 91.8 82.96 91.503 83.279 91.027 83.189 90.879 82.881 90.221 83.183 90.163 82.966 90.921 82.771 89.267 81.667 89.358 81.822 88.313 82.145 88.367 82.367 87.074 83.074 87.152 83.161 87.652 83.075 87.297 84.304 87.091 84.283 87.257 84.008 87.095 83.673 87.245 83.541 86.658 82.493 84.126 83.289 84.126 83.204 77.304 81.576 77.334 81.449 74.539 80.255 74.661 80.057 74.606 79.897 71.318 78.67 71.41 78.585 67.962 77.677 68.056 78.05 67.682 77.725 68.315 77.18 67.593 76.41 67.475 76.461 67.602 76.906 67.712 76.928 67.3 77.92 66.945 77.869 67.437 77.572 65.4 77.631 65.379 77.737 66.148 78.032 65.69 78.008 65.519 78.255 64.031 77.445 64.051 77.277 61.295 76.861 61.223 76.486 60.854 76.623 60.477 76.349 60.333 76.768 60.212 76.802 59.587 75.346 58.961 75.83 59.159 76.068 58.882 76.464 59.072 77.044 59.276 77 59.336 77.307 59.172 77.463 59.291 77.629 59.153 77.891 59.4 78.472 58.862 79.359 58.437 79.223 58.54 79.415 57.902 79.756 57.887 79.882 58.037 79.895 58.184 80.583 57.811 80.85 58.855 82.26 58.683 82.517 59.818 85.378 59.736 85.47 60.405 86.717 60.255 86.88 60.047 86.848 59.894 87.022 62.268 90.112 62.156 90.289 62.576 90.735 62.349 90.996 67.634 97.893 67.075 98.88 67.99 99.132 67.998 98.821 67.707 98.723 69.043 98.317 69.253 99.078 69.09 99.203 70.842 100.924 71.169 100.678 71.678 101.133 71.838 100.974 72.046 101.04 71.26 102.221 71.037 102.018 70.652 102.186 70.878 103.633 68.019 99.933 67.433 99.914 67.514 99.701 66.194 98.645 66.9 99.878 66.609 100.372 67.485 102.251 67.229 102.764 68.225 104.244 67.9 104.9 67.638 104.87 67.622 104.986 67.953 105.141 68.019 105.02 68.651 105.245 68.711 105.507 69.172 105.537 69.431 106.585 69.581 106.534 71.158 109.929 71.059 110.008 71.179 110.474 73.967 111.482 73.97 111.66 73.805 111.736 73.712 112.13 73.803 112.219 73.952 112.196 74.202 112.461 74.65 112.374 74.552 112.723 76.738 115.497 76.856 115.331 77.107 115.369 77.166 115.174 77.585 115.174 77.543 114.677 76.899 115.008 76.645 114.816 76.772 114.543 77.142 114.623 77.308 114.38 77.585 114.374 77.446 113.907 78.318 114.163 78.283 114.767 77.996 114.895 78.435 115.502 78.74 115.468 78.745 115.638 79.564 115.605 79.404 115.488 79.607 115.226 80.633 115.9 81.036 115.348 80.946 115.228 81.216 115.051 81.325 115.565 81.448 115.403 82.11 115.55 82.077 116.44 81.917 116.456 81.796 116.136 81.093 116.149 81.192 116.359 81.051 116.547 80.614 116.154 80.629 116.001 77.516 116.392 77.687 116.516 78.138 116.392 78.322 116.61 78.247 116.714 78.628 116.766 79.113 119.208 79.173 119.217 79.357 118.953 79.709 118.999 79.877 118.775 80.027 118.811 80.082 119.004 80.31 119.017 80.289 118.576 80.711 118.433 80.881 118.589 80.806 118.229 81.039 118.212 81.092 118.409 81.315 118.322 81.647 118.755 81.839 118.665 81.886 118.113 82.759 118.14 82.696 118.552 82.982 118.82 84.12 118.43 84.264 118.685 88.49 119.413 88.545 119.759 88.936 119.612 89.228 120.145 90.452 119.66 91.226 120.124 91.049 120.304 91.711 120.208 91.758 120.001 92.463 119.649 92.451 119.22 92.038 119.404 91.96 119.341 92.095 118.562 92.307 118.649 92.206 118.758 92.94 118.659 93.308 118.066 93.212 118.029 92.809 118.339 92.796 118.198 92.579 118.08 93.212 117.698 93.363 117.771 93.362 117.973 93.686 117.846 92.388 117.365 92.57 117.189 92.481 116.932 92.899 117.37 93.248 117.148 93.443 117.278 93.566 117.171 93.919 117.305 94.551 115.996 93.951 115.671 93.754 115.806 93.711 115.52 94.348 115.357 94.632 115.649 94.863 115.051 95.137 115.044 93.046 113.063 93.344 113.052 93.223 112.755 93.632 112.409 93.742 112.463 93.537 113.29 93.398 113.344 93.399 113.513 94.593 114.03 94.911 113.144 95.233 113.715 95.025 113.953 95.129 114.242 94.993 114.319 97.267 114.677 97.351 112.515 98.148 111.993 97.496 111.742 97.902 110.823 98.366 111.564 98.804 111.389 99.004 109.307 98.622 109.162 98.681 108.631 98.366 108.38 98.477 108.185 97.521 107.906 97.478 107.748 97.667 107.56 96.316 106.783 96.677 106.575 97.556 106.996 97.637 107.375 97.921 107.373 98.035 107.52 97.862 107.649 98.446 107.93 98.413 108.05 99.71 108.932 99.783 109.749 99.963 109.767 100.18 109.299 100.914 109.365 100.917 109.605 100.797 109.448 100.336 110.134 100.375 110.266 100.764 110.306 100.733 110.952 100.071 111.056 99.918 110.438 99.707 110.34 99.776 110.272 99.711 110.111 99.659 110.278 99.523 110.306 99.704 110.432 99.59 110.76 99.86 110.971 99.698 111.221 99.918 111.42 101.45 110.98 101.491 110.574 101.942 110.46 101.064 109.346 101.304 108.82 101.19 108.684 102.697 108.33 101.417 108.077 101.336 107.854 101.01 108.089 100.701 107.944 100.73 107.866 100.185 107.432 100.439 107.346 100.441 107.405 100.937 107.721 101.357 107.429 101.452 107.463 101.516 107.719 101.642 107.758 101.711 107.634 101.564 107.43 101.663 107.3 102.953 108.306 102.837 108.693 103.243 108.793 103.281 109.034 105.125 109.251 105.187 109.168 105.493 109.208 105.509 109.061 105.851 109.159 105.974 109.448 105.815 109.635 106.119 109.702 106.251 110.03 105.797 110.105 106.261 110.64 106.197 110.722 106.946 110.979 106.561 111.209 106.525 111.503 106.458 111.298 106.221 111.226 106.154 111.293 106.29 111.501 105.828 111.573 105.703 111.378 105.321 111.407 105.125 111.17 104.864 111.326 104.737 110.884 104.245 110.779 104.68 110.212 104.447 109.92 104.224 110.017 103.838 109.689 103.636 109.752 103.779 110.036 103.682 110.123 103.907 110.286 102.905 110.799 102.972 111.654 104.817 112.343 104.659 112.371 104.603 112.539 104.205 112.499 103.973 112.792 104.094 112.854 104.052 113.206 105.589 114.256 105.581 113.931 106.266 113.49 106.727 113.773 106.753 113.535 106.411 113.38 106.525 113.135 106.306 112.993 106.47 112.83 106.374 112.527 106.57 112.292 106.655 112.632 106.92 112.532 107.057 113.526 107.783 113.585 107.857 113.896 108.779 113.988 108.069 113.535 108.697 112.75 108.188 112.695 108.074 112.807 107.936 112.72 107.943 112.554 108.312 112.52 107.803 111.552 107.924 111.452 107.898 111.26 107.544 111.118 108.619 110.132 108.391 109.786 108.602 109.377 108.189 108.64 107.693 108.822 107.455 108.634 107.454 108.447 107.003 108.317 106.664 108.775 107.198 108.913 107.148 109.162 105.807 109.019 106.558 107.977 106.838 108.353 106.808 107.185 107.819 106.599 107.762 106.386 107.836 106.316 107.711 106.188 108.06 105.739 107.933 105.6 107.973 105.389 107.605 105.18 107.819 104.798 106.805 104.017 107.361 103.879 107.322 103.654 107.105 103.528 107.247 103.332 107.608 103.937 107.747 103.897 107.855 103.987 108.37 103.431 108.534 103.59 108.793 103.322 108.577 103.215 108.776 102.293 108.337 101.767 109.022 100.943 108.901 100.422 108.324 100.578 108.376 100.739 108.006 100.985 107.951 100.847 107.68 100.91 107.621 100.783 108.194 100.679 108.34 100.344 108.64 100.326 109.043 99.611 108.818 99.426 109.85 98.206 109.705 97.408 112.122 97.119 110.349 96.851 111.048 96.514 111.044 96.286 110.77 96.172 111.168 95.656 111.215 95.837 111.592 96.011 111.872 95.749 111.853 95.531 112.247 95.524 110.963 96.689 111 96.807 111.45 96.86 111.552 96.721 111.74 96.716 111.776 96.867 112.239 97.07 112.155 97.171 113.144 97.685 112.527 98.212 112.99 98.582 112.383 99.176 112.489 99.477 112.966 99.613 112.999 99.909 113.939 98.4 113.076 98.193 113.476 97.932 113.411 97.693 113.677 97.684 113.635 97.594 113.791 97.516 113.718 97.242 113.605 97.278 113.259 96.554 113.084 96.56 113.276 93.813 112.701 93.455 112.844 92.113 113.154 91.929 113.147 91.791 112.934 91.71 113.103 89.068 112.954 89.068 113.002 86.363 113.002 86.363"/><polygon class="cls-3" points="62.631 75.065 61.705 76.548 64.704 76.408 64.344 76.05 64.43 75.923 62.76 75.475 62.631 75.065 62.631 75.065"/><polygon class="cls-3" points="62.601 74.388 62.481 74.903 62.733 75.161 62.923 75.029 62.601 74.388 62.601 74.388"/><polygon class="cls-3" points="113.716 73.477 113.809 73.551 113.846 73.498 113.767 73.211 113.586 73.173 113.527 73.261 113.652 73.305 113.716 73.477 113.716 73.477"/><polygon class="cls-3" points="112.307 73.187 112.316 72.922 111.752 73.281 111.507 73.071 110.045 73.675 110.085 73.781 110.416 73.807 110.315 74.208 110.524 74.292 110.589 74.211 111.58 74.559 111.489 74.335 112.128 73.717 112.028 73.614 112.307 73.187 112.307 73.187"/><polygon class="cls-3" points="109.762 73.076 109.844 73.001 109.485 72.758 109.333 72.836 109.762 73.076 109.762 73.076"/><polygon class="cls-3" points="59.692 73.97 59.745 74.625 60.062 74.807 60.473 71.71 59.668 73.055 59.568 72.916 59.364 72.971 59.692 73.97 59.692 73.97"/><polygon class="cls-3" points="61.531 72.707 62.96 72.626 62.919 72.297 63.233 72.111 63.049 71.942 63.115 71.762 63.01 71.6 61.819 71.741 61.964 71.842 61.546 72.232 61.314 72.188 61.23 72.396 61.531 72.707 61.531 72.707"/><polygon class="cls-3" points="108.514 71.171 108.361 71.178 108.349 71.268 108.993 71.042 108.971 70.991 108.514 71.171 108.514 71.171"/><polygon class="cls-3" points="115.593 72.162 113.599 70.164 112.025 70.684 111.998 70.564 111.809 70.497 111.55 71.036 110.792 70.877 110.753 70.787 108.409 71.572 108.459 72.053 109.259 72.213 109.317 72.462 110.497 72.322 110.758 72.62 111.547 72.288 111.992 72.719 113.25 72.123 113.881 73.124 114.272 72.884 114.568 73.08 114.808 72.673 115.054 72.712 115.136 72.534 115.048 72.471 115.828 72.264 115.593 72.162 115.593 72.162"/><polygon class="cls-3" points="106.58 70.526 107.19 70.476 107.221 70.143 107.091 70.113 107.049 70.231 106.24 70.149 106.173 70.306 106.383 70.305 106.324 70.586 106.58 70.526 106.58 70.526"/><polygon class="cls-3" points="107.289 69.891 107.541 69.956 107.674 69.806 107.605 69.608 107.289 69.891 107.289 69.891"/><polygon class="cls-3" points="113.033 69.602 112.924 69.929 112.807 69.951 112.804 70.043 113.445 70.016 113.033 69.602 113.033 69.602"/><polygon class="cls-3" points="112.1 69.533 112.603 69.575 112.497 69.379 112.025 69.354 112.1 69.533 112.1 69.533"/><polygon class="cls-3" points="104.859 67.23 105.43 66.374 105.262 66.09 104.528 67.287 104.859 67.23 104.859 67.23"/><polygon class="cls-3" points="113.665 65.074 113.737 65.113 113.812 65.034 113.55 64.725 113.37 64.943 113.452 65.131 113.665 65.074 113.665 65.074"/><polygon class="cls-3" points="105.471 64.239 105.683 64.49 106.532 64.21 107.163 65.608 106.473 66.055 107.702 66.312 107.919 67.216 108.167 67.034 109.251 68.769 109.184 68.951 109.053 68.987 109.037 69.181 109.235 69.195 109.314 69.478 111.505 69.234 111.45 69.123 112.692 68.996 112.681 69.189 113.632 68.901 112.927 66.956 112.841 66.975 112.871 67.418 111.964 67.556 112.975 65.22 107.738 61.544 106.697 62.124 106.564 61.957 106.338 62.01 106.636 62.359 106.556 62.714 106.23 62.874 106.371 63.087 105.659 63.281 105.662 63.38 105.235 63.521 105.156 63.738 104.837 63.846 105.471 64.239 105.471 64.239"/><polygon class="cls-3" points="107.136 61.316 107.373 61.247 107.388 61.31 107.761 61.276 107.803 61.201 106.959 61.009 106.965 61.249 107.136 61.316 107.136 61.316"/><polygon class="cls-3" points="108.478 60.698 108.775 60.467 108.351 60.304 108.3 60.401 108.394 60.527 108.095 60.647 108.478 60.698 108.478 60.698"/><polygon class="cls-3" points="50.37 64.438 50.35 60.788 47.578 59.675 47.51 60.82 46.382 61.466 46.412 64.165 46.255 64.274 46.303 64.408 46.221 64.49 47.064 66.559 46.577 66.702 46.85 67.486 47.341 67.657 47.221 67.809 47.587 68.094 47.663 67.943 47.536 67.739 48.138 67.377 48.283 67.493 49.991 66.452 50.117 66.515 50.773 64.731 50.37 64.438 50.37 64.438"/><polygon class="cls-3" points="97.821 57.867 97.921 57.954 98.088 57.75 98.044 57.684 97.55 57.906 97.65 57.966 97.821 57.867 97.821 57.867"/><polygon class="cls-3" points="98.233 58.005 98.389 58 98.422 58.285 98.512 58.328 98.609 58.261 98.6 58.109 98.913 58.208 99.004 57.964 98.832 57.822 99.063 57.721 98.447 57.543 98.233 58.005 98.233 58.005"/><polygon class="cls-3" points="98.134 57.678 98.215 57.576 98.136 57.459 98.203 57.392 98.172 57.328 97.754 57.414 98.134 57.678 98.134 57.678"/><polygon class="cls-3" points="93.444 54.263 93.564 54.112 93.476 54.043 93.531 53.945 93.404 53.891 93.352 54.284 93.444 54.263 93.444 54.263"/></g></svg>