<svg xmlns="http://www.w3.org/2000/svg" viewBox="0 0 170 150"><defs><style>.cls-1{fill:#eff9fe;}.cls-2{fill:#e6e6e6;}.cls-3{fill:#495b14;}</style></defs><title>VIC-ICON</title><g id="Layer_3" data-name="Layer 3"><rect class="cls-1" x="0.282" width="169.718" height="150"/></g><g id="aus5fgd_r_area"><polygon class="cls-2" points="98.96 142.494 99.139 142.441 99.039 142.296 98.96 142.494 98.96 142.494"/><polygon class="cls-2" points="99.624 141.861 99.656 141.991 99.98 141.942 99.979 141.825 99.624 141.861 99.624 141.861"/><polygon class="cls-2" points="109.673 138.219 109.642 137.908 109.493 137.868 109.168 136.929 108.684 137.387 108.885 137.557 108.976 137.454 109.104 137.557 108.907 137.658 108.9 137.756 108.695 137.612 108.543 137.698 108.583 137.806 108.4 137.887 108.612 137.919 108.615 138.022 108.974 137.92 109.03 137.962 108.923 138.064 109.131 138.076 109.208 137.979 109.412 138.04 109.334 138.341 109.224 138.286 109.068 138.392 109.152 138.76 108.69 139.112 108.549 138.587 107.758 139.917 107.587 139.604 107.492 139.628 107.466 140.28 107.551 140.244 107.614 140.345 107.451 140.43 107.425 140.555 107.506 140.62 107.318 140.674 106.906 140.189 106.686 140.266 107.195 140.968 107.294 140.857 107.531 140.904 107.504 140.742 107.718 140.585 107.706 140.436 108.147 140.489 108.21 140.626 108.082 140.698 108.158 140.949 108.28 140.9 108.577 141.16 108.889 140.957 108.928 140.461 109.04 140.421 108.984 140.295 109.389 139.746 109.252 139.61 109.094 139.778 108.889 139.695 109.118 138.844 109.715 138.587 109.769 138.699 109.849 138.687 109.817 138.28 109.673 138.219 109.673 138.219"/><polygon class="cls-2" points="116.471 132.666 115.86 132.305 115.43 132.873 115.543 133.034 115.296 133.165 115.418 133.23 115.649 133.113 115.799 133.331 115.301 133.716 115.319 133.923 116.053 133.718 115.998 133.429 115.829 133.369 115.939 133.173 116.757 133.051 116.471 132.666 116.471 132.666"/><polygon class="cls-2" points="118.124 129.933 118.151 129.83 117.393 129.849 118.419 130.171 118.124 129.933 118.124 129.933"/><polygon class="cls-2" points="111.845 115.637 111.822 115.546 111.578 115.837 111.626 115.873 111.845 115.637 111.845 115.637"/><polygon class="cls-2" points="87.509 115.573 88.073 115.682 87.509 115.287 87.509 115.573 87.509 115.573"/><polygon class="cls-2" points="116.012 115.18 116.05 115.216 116.108 115.168 116.177 115.206 116.357 115.082 116.012 115.18 116.012 115.18"/><polygon class="cls-2" points="117.915 121.142 118.535 120.238 118.5 120.18 117.644 120.794 117.492 120.688 117.764 120.565 117.71 120.5 117.811 120.249 118.271 120.181 118.344 120.019 118.261 119.941 118.16 119.996 118.095 119.929 117.993 119.974 117.957 118.207 117.604 118.032 117.9 117.912 117.855 118.058 117.939 118.142 118.438 117.543 116.833 115.94 116.805 116.018 114.605 115.18 114.788 115.408 114.748 115.508 114.65 115.518 114.08 116.419 112.09 115.998 112.085 115.936 109.523 117.639 109.418 117.428 109.173 117.4 109.049 117.046 103.825 118.12 105.353 119.29 105.111 119.366 105.09 119.436 105.287 119.565 105.306 119.749 105.955 120.181 105.94 120.261 105.672 120.4 105.672 120.483 106.203 120.595 106.238 120.753 106.511 120.719 106.587 120.819 106.518 120.894 106.82 121.324 106.508 121.194 106.486 120.806 105.525 120.379 105.616 120.245 104.879 119.558 105.094 119.198 104.664 119.015 104.478 119.214 104.181 119.158 104.088 118.965 103.677 119.154 103.64 119.019 104.114 118.897 103.081 118.207 103.138 118.303 102.484 118.506 102.518 118.644 101.71 119.086 101.759 119.14 102.071 119.087 101.85 119.855 101.72 119.842 101.824 119.67 101.723 119.461 101.817 119.378 101.45 118.723 99.868 119.221 99.868 119.168 95.604 118.15 95.622 118.07 93.875 117.324 93.952 117.201 93.918 117.101 91.863 116.334 91.92 116.28 89.765 115.713 89.824 115.946 89.59 115.743 89.986 115.402 89.534 114.921 89.461 114.953 89.54 115.231 89.608 115.245 89.351 115.865 89.129 115.833 89.437 115.648 88.164 115.684 88.151 115.751 88.631 115.935 88.345 115.92 88.238 116.075 87.308 115.568 87.32 115.463 85.598 115.203 85.553 114.969 85.323 115.054 85.087 114.883 84.997 115.145 84.921 115.166 84.531 114.257 84.139 114.559 84.263 114.708 84.09 114.955 84.209 115.317 84.336 115.29 84.374 115.482 84.271 115.579 84.345 115.683 84.259 115.847 84.414 116.21 84.078 116.764 83.812 116.679 83.876 116.799 83.478 117.013 83.468 117.091 83.562 117.1 83.654 117.529 83.421 117.696 84.073 118.578 83.965 118.738 84.675 120.526 84.623 120.584 85.042 121.363 84.948 121.465 84.818 121.445 84.723 121.554 86.206 123.485 86.136 123.596 86.398 123.875 86.257 124.037 89.56 128.348 89.211 128.965 89.783 129.123 89.787 128.928 89.606 128.867 90.441 128.613 90.572 129.089 90.47 129.167 91.565 130.242 91.769 130.089 92.087 130.373 92.188 130.274 92.318 130.315 91.826 131.053 91.687 130.927 91.446 131.031 91.587 131.936 89.8 129.623 89.434 129.611 89.485 129.478 88.66 128.818 89.101 129.589 88.919 129.898 89.467 131.072 89.307 131.393 89.93 132.318 89.726 132.728 89.563 132.709 89.552 132.781 89.759 132.878 89.8 132.803 90.195 132.943 90.233 133.107 90.521 133.125 90.683 133.781 90.777 133.749 91.763 135.87 91.701 135.92 91.776 136.211 93.518 136.841 93.52 136.952 93.417 137 93.359 137.246 93.416 137.302 93.508 137.288 93.665 137.453 93.945 137.399 93.884 137.617 95.25 139.351 95.324 139.247 95.481 139.27 95.517 139.149 95.78 139.149 95.753 138.838 95.351 139.045 95.192 138.925 95.271 138.755 95.502 138.804 95.606 138.653 95.78 138.649 95.693 138.357 96.237 138.517 96.216 138.894 96.036 138.975 96.31 139.354 96.501 139.332 96.504 139.439 97.016 139.418 96.916 139.345 97.043 139.181 97.685 139.603 97.936 139.257 97.88 139.182 98.049 139.072 98.117 139.393 98.194 139.292 98.608 139.384 98.587 139.94 98.487 139.95 98.411 139.75 97.972 139.758 98.034 139.889 97.946 140.007 97.672 139.761 97.682 139.665 95.736 139.91 95.843 139.987 96.125 139.91 96.24 140.046 96.193 140.111 96.431 140.144 96.734 141.67 96.772 141.675 96.887 141.511 97.107 141.54 97.212 141.399 97.305 141.422 97.34 141.542 97.482 141.551 97.469 141.275 97.733 141.186 97.839 141.283 97.792 141.058 97.938 141.047 97.971 141.171 98.111 141.116 98.318 141.387 98.438 141.331 98.467 140.985 99.013 141.002 98.974 141.26 99.152 141.427 99.864 141.184 99.954 141.343 102.595 141.798 102.629 142.014 102.874 141.922 103.056 142.256 103.821 141.952 104.305 142.243 104.195 142.355 104.608 142.295 104.637 142.166 105.078 141.946 105.071 141.677 104.812 141.792 104.764 141.753 104.848 141.266 104.981 141.321 104.917 141.389 105.376 141.327 105.606 140.956 105.546 140.933 105.295 141.127 105.286 141.039 105.15 140.965 105.546 140.726 105.641 140.772 105.64 140.898 105.842 140.819 105.031 140.518 105.145 140.408 105.09 140.248 105.351 140.521 105.569 140.383 105.691 140.464 105.767 140.397 105.988 140.481 106.383 139.663 106.008 139.459 105.885 139.544 105.858 139.365 106.256 139.263 106.434 139.445 106.578 139.072 106.749 139.067 105.442 137.83 105.629 137.822 105.553 137.637 105.808 137.421 105.878 137.454 105.75 137.971 105.662 138.005 105.663 138.11 106.409 138.433 106.608 137.88 106.809 138.237 106.679 138.386 106.745 138.566 106.659 138.614 108.081 138.838 108.133 137.487 108.631 137.16 108.224 137.004 108.477 136.429 108.768 136.893 109.041 136.783 109.166 135.482 108.928 135.391 108.964 135.06 108.768 134.902 108.837 134.781 108.24 134.607 108.213 134.507 108.33 134.39 107.486 133.904 107.712 133.774 108.261 134.037 108.312 134.274 108.49 134.273 108.561 134.365 108.452 134.445 108.817 134.621 108.797 134.696 109.607 135.248 109.653 135.758 109.766 135.769 109.901 135.477 110.36 135.518 110.362 135.668 110.287 135.57 109.999 135.999 110.023 136.081 110.266 136.106 110.247 136.51 109.833 136.575 109.737 136.189 109.606 136.128 109.649 136.085 109.608 135.984 109.576 136.088 109.49 136.106 109.604 136.185 109.532 136.39 109.701 136.522 109.6 136.678 109.737 136.803 110.695 136.527 110.72 136.274 111.002 136.203 110.454 135.506 110.603 135.178 110.532 135.092 111.474 134.871 110.675 134.713 110.624 134.574 110.42 134.721 110.227 134.63 110.245 134.581 109.904 134.31 110.063 134.256 110.064 134.293 110.374 134.49 110.637 134.308 110.696 134.329 110.736 134.489 110.815 134.514 110.858 134.436 110.766 134.309 110.828 134.227 111.634 134.856 111.562 135.098 111.816 135.161 111.839 135.311 112.992 135.447 113.031 135.395 113.222 135.42 113.232 135.328 113.446 135.389 113.522 135.57 113.423 135.687 113.613 135.729 113.696 135.934 113.412 135.981 113.702 136.315 113.662 136.366 114.13 136.527 113.889 136.671 113.867 136.854 113.825 136.726 113.677 136.681 113.635 136.723 113.72 136.853 113.432 136.898 113.353 136.776 113.114 136.794 112.992 136.646 112.829 136.744 112.749 136.468 112.442 136.402 112.714 136.047 112.568 135.865 112.429 135.926 112.187 135.721 112.061 135.76 112.151 135.938 112.09 135.992 112.23 136.094 111.604 136.414 111.646 136.949 112.8 137.379 112.7 137.397 112.666 137.502 112.417 137.477 112.272 137.66 112.347 137.699 112.321 137.919 113.282 138.575 113.277 138.372 113.705 138.096 113.993 138.273 114.009 138.125 113.796 138.027 113.867 137.875 113.73 137.786 113.832 137.684 113.772 137.495 113.895 137.348 113.948 137.56 114.114 137.497 114.199 138.119 114.653 138.155 114.699 138.35 115.276 138.407 114.832 138.125 115.224 137.634 114.906 137.599 114.835 137.67 114.749 137.615 114.753 137.511 114.984 137.49 114.665 136.885 114.741 136.822 114.725 136.703 114.503 136.614 115.176 135.998 115.033 135.781 115.165 135.526 114.907 135.065 114.597 135.178 114.448 135.061 114.447 134.944 114.165 134.863 113.954 135.149 114.287 135.236 114.256 135.391 113.418 135.302 113.887 134.65 114.063 134.885 114.044 134.155 114.676 133.789 114.64 133.656 114.686 133.612 114.608 133.533 114.826 133.252 114.747 133.165 114.772 133.033 114.542 132.903 114.676 132.664 114.042 132.175 114.389 132.089 114.365 131.949 114.229 131.87 114.318 131.747 114.544 132.126 114.631 132.1 114.698 132.157 115.02 131.809 115.122 131.909 115.284 131.741 115.149 131.674 115.274 131.098 115 130.769 115.427 130.254 115.352 129.929 114.991 130.026 115.024 130.127 114.793 130.281 114.758 130.194 114.589 130.234 114.552 130.154 114.91 130.09 115.001 129.88 115.189 129.869 115.44 129.422 115.3 129.306 115.945 128.544 115.854 128.045 117.365 127.864 116.257 127.697 116.694 127.486 116.691 127.344 116.52 127.273 116.769 126.95 116.798 127.063 117.034 127.172 117.209 127.008 117.197 126.872 117.443 126.867 116.641 127.596 116.664 127.67 116.945 127.702 117.009 127.615 117.127 127.613 117.149 127.707 117.438 127.833 117.386 127.897 118.004 128.218 117.618 128.548 117.907 128.779 117.528 129.15 117.595 129.338 117.892 129.423 117.913 129.608 118.501 128.665 117.962 128.536 118.211 128.373 118.17 128.223 118.337 128.217 118.311 128.161 118.408 128.112 118.362 127.941 118.292 127.964 118.076 127.511 117.966 127.515 118.086 125.798 117.727 125.575 117.816 124.736 118.01 124.621 118.006 124.534 117.873 124.484 117.978 122.833 117.885 122.833 117.915 121.142 117.915 121.142"/><polygon class="cls-2" points="87.328 114.658 86.514 114.337 86.433 114.081 85.854 115.007 87.729 114.92 87.504 114.697 87.557 114.617 87.328 114.658 87.328 114.658"/><polygon class="cls-2" points="86.414 113.657 86.339 113.979 86.497 114.14 86.616 114.058 86.414 113.657 86.414 113.657"/><polygon class="cls-2" points="118.361 113.088 118.419 113.134 118.443 113.101 118.393 112.922 118.28 112.898 118.243 112.953 118.321 112.981 118.361 113.088 118.361 113.088"/><polygon class="cls-2" points="117.48 112.907 117.486 112.741 117.134 112.966 116.98 112.835 116.067 113.212 116.092 113.278 116.299 113.294 116.235 113.545 116.366 113.597 116.407 113.547 117.026 113.764 116.969 113.625 117.369 113.238 117.306 113.173 117.48 112.907 117.48 112.907"/><polygon class="cls-2" points="115.89 112.837 115.941 112.791 115.717 112.639 115.622 112.688 115.89 112.837 115.89 112.837"/><polygon class="cls-2" points="84.581 112.824 84.519 112.737 84.391 112.772 84.828 113.919 85.084 111.984 84.581 112.824 84.581 112.824"/><polygon class="cls-2" points="85.755 112.31 85.61 112.282 85.558 112.412 86.275 112.751 86.639 112.556 86.613 112.351 86.809 112.234 86.694 112.129 86.735 112.016 86.67 111.915 85.926 112.003 86.016 112.066 85.755 112.31 85.755 112.31"/><polygon class="cls-2" points="115.11 111.647 115.015 111.651 115.007 111.707 115.41 111.566 115.396 111.534 115.11 111.647 115.11 111.647"/><polygon class="cls-2" points="119.458 112.182 118.288 111.017 117.304 111.342 117.288 111.267 117.17 111.225 117.008 111.562 116.534 111.463 116.51 111.407 115.044 111.897 115.075 112.198 115.575 112.298 115.612 112.453 116.349 112.366 116.512 112.553 117.006 112.345 117.284 112.615 118.07 112.242 118.464 112.867 118.709 112.717 118.894 112.84 119.044 112.586 119.197 112.61 119.249 112.498 119.194 112.459 119.681 112.33 119.458 112.182 119.458 112.182"/><polygon class="cls-2" points="113.901 111.244 114.282 111.212 114.302 111.004 114.221 110.986 114.195 111.06 113.689 111.008 113.647 111.106 113.778 111.105 113.741 111.281 113.901 111.244 113.901 111.244"/><polygon class="cls-2" points="114.344 110.847 114.502 110.887 114.585 110.794 114.542 110.67 114.344 110.847 114.344 110.847"/><polygon class="cls-2" points="117.934 110.666 117.866 110.87 117.793 110.885 117.791 110.942 118.192 110.925 117.934 110.666 117.934 110.666"/><polygon class="cls-2" points="117.351 110.623 117.666 110.65 117.599 110.527 117.304 110.511 117.351 110.623 117.351 110.623"/><polygon class="cls-2" points="112.599 109.122 112.619 109.219 113.182 108.649 113.078 108.471 112.599 109.122 112.599 109.122"/><polygon class="cls-2" points="118.374 107.861 118.421 107.811 118.257 107.618 118.145 107.754 118.197 107.872 118.374 107.861 118.374 107.861"/><polygon class="cls-2" points="113.061 106.866 113.011 107.001 112.812 107.069 113.341 107.471 113.872 107.296 114.266 108.17 113.834 108.45 114.603 108.61 114.738 109.175 114.893 109.061 115.571 110.146 115.529 110.259 115.447 110.282 115.437 110.403 115.56 110.412 115.61 110.589 116.98 110.436 116.945 110.367 117.721 110.287 117.714 110.408 118.309 110.228 117.868 109.012 117.815 109.024 117.833 109.302 117.266 109.388 117.898 107.927 114.625 105.63 113.974 105.992 113.891 105.888 113.75 105.921 113.936 106.139 113.886 106.361 113.682 106.461 113.77 106.594 113.326 106.716 113.328 106.778 113.061 106.866 113.061 106.866"/><polygon class="cls-2" points="114.345 105.437 114.397 105.445 114.406 105.484 114.639 105.462 114.665 105.416 114.138 105.296 114.142 105.445 114.345 105.437 114.345 105.437"/><polygon class="cls-2" points="114.848 105.069 115.251 104.996 115.273 104.957 115.008 104.855 114.976 104.916 115.035 104.994 114.848 105.069 114.848 105.069"/><polygon class="cls-2" points="78.77 107.439 78.758 105.157 77.025 104.462 76.983 105.178 76.278 105.581 76.296 107.268 76.198 107.336 76.228 107.42 76.177 107.471 76.704 108.764 76.399 108.854 76.57 109.344 76.877 109.45 76.802 109.546 77.03 109.724 77.078 109.629 76.999 109.502 77.375 109.275 77.466 109.348 78.533 108.698 78.612 108.737 79.022 107.622 78.77 107.439 78.77 107.439"/><polygon class="cls-2" points="108.257 103.356 108.32 103.393 108.427 103.332 108.49 103.386 108.594 103.259 108.566 103.217 108.257 103.356 108.257 103.356"/><polygon class="cls-2" points="108.935 103.117 108.669 103.334 108.684 103.418 108.782 103.415 108.802 103.593 108.858 103.62 108.919 103.578 108.914 103.483 109.109 103.545 109.166 103.393 109.059 103.304 109.203 103.241 108.935 103.117 108.935 103.117"/><polygon class="cls-2" points="108.646 102.995 108.385 103.049 108.623 103.214 108.673 103.15 108.623 103.077 108.666 103.035 108.646 102.995 108.646 102.995"/><polygon class="cls-2" points="105.666 100.847 105.633 101.092 105.766 100.985 105.711 100.942 105.746 100.881 105.666 100.847 105.666 100.847"/><polygon class="cls-2" points="22.678 69.121 22.733 68.948 20.556 68.279 20.175 68.885 19.501 68.807 19.481 68.9 19.339 68.918 19.296 68.993 19.417 69.07 19.467 69.016 19.807 69.163 19.253 69.254 19.184 68.95 19.429 68.813 19.433 68.75 19.718 68.543 19.501 68.231 17.6 68.212 18.223 67.569 18.188 67.448 17.532 67.365 17.934 66.964 18.066 67.035 18.139 66.743 16.927 66.997 16.912 66.934 8.207 68.61 7.816 69.644 9.46 71.285 9.365 71.318 9.44 71.409 13.967 70.776 13.862 70.707 17.986 70.607 17.788 70.24 22.82 69.313 22.678 69.121 22.678 69.121"/><polygon class="cls-2" points="7.236 62.853 7.063 62.711 7.086 62.805 6.969 62.843 7.418 63.104 7.452 62.951 7.236 62.853 7.236 62.853"/><polygon class="cls-2" points="4.494 61.511 3.841 60.805 3.574 61.005 4.33 61.649 4.222 61.697 4.492 62.021 4.683 61.927 4.614 61.495 4.494 61.511 4.494 61.511"/><polygon class="cls-2" points="2.919 60.187 2.845 60.246 2.933 60.434 2.966 60.414 2.961 60.204 2.919 60.187 2.919 60.187"/><polygon class="cls-2" points="140.878 60.153 140.575 60.373 141.01 60.514 140.878 60.153 140.878 60.153"/><polygon class="cls-2" points="26.673 59.593 26.438 59.214 26.387 59.61 26.448 59.663 26.673 59.593 26.673 59.593"/><polygon class="cls-2" points="2.194 58.871 2.253 58.826 2.354 58.892 2.399 58.855 2.06 58.394 2.015 58.6 2.125 58.66 2.1 58.769 2.194 58.871 2.194 58.871"/><polygon class="cls-2" points="5.984 58.193 5.938 58.3 6.092 58.475 6.197 58.301 6.143 58.212 5.984 58.193 5.984 58.193"/><polygon class="cls-2" points="5.537 56.832 5.456 56.805 5.43 57.234 5.519 57.196 5.483 56.957 5.703 56.815 5.671 56.784 5.537 56.832 5.537 56.832"/><polygon class="cls-2" points="15.614 56.417 15.369 56.65 15.492 57.074 15.775 56.741 15.614 56.417 15.614 56.417"/><polygon class="cls-2" points="157.219 35.592 157.27 35.56 157.237 35.228 156.991 35.229 157.025 35.496 157.219 35.592 157.219 35.592"/><polygon class="cls-2" points="0 60.591 0.089 60.561 0.157 60.187 1.47 60.39 1.49 60.763 1.618 60.7 2.168 60.968 2.198 61.175 2.36 61.262 2.294 61.316 2.306 61.47 2.437 61.5 2.467 61.373 2.619 61.4 2.736 61.266 2.87 61.307 2.827 61.069 2.722 61.057 2.799 58.879 2.643 58.923 2.656 59.43 2.481 59.423 2.422 59.17 0.847 59.659 1.425 59.117 1.565 59.287 1.834 59.121 1.763 58.872 1.473 58.783 1.546 58.02 2.017 57.885 2.252 58.164 2.219 57.801 2.017 57.798 1.918 57.635 2.598 56.807 2.784 56.931 3.117 56.594 3.631 56.741 3.557 56.833 3.686 56.996 3.643 57.148 3.9 55.728 3.817 55.664 6.177 53.229 6.087 53.03 8.233 51.539 8.203 51.341 11.906 49.673 11.875 49.608 11.508 49.546 11.451 49.612 11.508 49.803 11.068 49.998 10.988 49.64 11.568 49.017 11.976 49.087 11.976 49.176 11.872 49.237 11.9 49.29 12.189 49.329 12.103 49.519 15.048 47.407 15.02 47.351 17.767 43.059 17.682 42.929 17.806 42.886 17.912 42.489 18.869 42.482 18.947 42.635 19.542 42.681 19.22 41.968 19.294 41.857 19.567 41.928 19.505 40.024 19.23 39.978 19.402 38.403 19.27 38.328 19.348 38.137 19.26 37.986 19.433 38.167 19.359 38.279 19.543 38.377 19.453 38.591 19.899 38.603 19.715 39.031 20.224 39.604 20.082 39.864 20.84 40.366 20.598 40.62 21.983 43.548 21.811 43.618 21.782 43.714 21.937 43.744 22.001 43.86 21.667 44.131 21.604 44.071 21.649 43.984 19.851 45.021 20.992 47.862 21.346 47.954 21.126 48.083 21.062 47.918 20.953 47.904 20.713 48.63 20.634 48.63 20.574 48.547 20.618 48.446 20.684 48.503 20.827 48.245 17.813 50.928 18.083 51.354 17.143 52.12 17.518 52.488 16.948 53.367 16.413 53.37 16.655 55.759 16.076 56.306 16.191 56.507 16.446 56.113 16.723 56.188 16.41 60.596 12.286 60.458 11.558 61.702 11.838 62.264 10.585 63.769 11.098 64.262 11.652 64.102 11.685 63.963 11.898 63.941 11.921 63.807 12.033 63.783 12.034 63.65 15.426 62.972 15.382 62.855 19.324 62.506 19.161 62.385 19.222 62.21 19.016 61.895 19.364 61.826 19.738 60.625 19.659 60.568 20.29 59.364 20.228 59.293 20.693 57.842 20.397 57.661 21.777 54.664 21.609 54.542 22.219 53.368 22.534 53.386 23.088 54.386 22.917 54.515 25.409 57.909 25.517 57.888 25.731 58.202 25.632 58.211 25.59 58.337 26.736 59.474 26.688 59.659 26.376 59.665 26.383 59.301 26.208 59.235 22.451 67.285 27.211 67.006 27.168 66.861 28.068 66.395 28.052 66.33 29.856 66.682 29.136 66.39 29.141 66.335 34.72 69.849 34.701 69.68 34.78 69.621 34.938 69.771 34.821 69.779 34.776 69.885 34.897 69.959 35.054 69.866 37.672 73.483 29.929 66.699 38.596 78.941 37.25 79.632 38.287 81.682 37.88 81.636 40.431 84.767 40.479 84.635 41.516 85.401 41.416 85.514 41.299 85.475 49.323 90.056 49.292 51.899 49.359 51.951 49.344 52.044 49.473 52.089 49.42 52.162 49.525 52.181 49.475 52.225 49.528 52.354 49.763 52.319 49.676 52.45 49.87 52.636 49.964 52.422 50.064 52.488 50.055 52.652 50.255 52.554 50.302 52.651 51.102 52.596 51.005 52.724 51.089 52.727 51.088 52.843 51.178 52.866 51.288 52.775 51.364 52.937 51.437 52.924 51.391 52.826 51.73 52.663 51.794 52.764 51.935 52.677 51.927 52.897 52.086 52.822 52.631 53.141 52.593 53.256 52.699 53.264 52.688 53.373 53 53.113 53.099 53.258 53.127 53.199 53.292 53.336 53.484 53.283 53.478 53.459 53.725 53.442 53.708 53.573 54.313 53.541 54.514 53.783 54.407 53.857 54.511 53.981 54.418 54.101 54.643 54.045 54.638 53.877 54.76 53.957 54.9 53.868 55.101 53.937 55.16 53.835 55.302 53.847 55.167 53.775 55.288 53.654 55.271 53.589 55.105 53.514 55.441 53.539 55.382 53.382 55.539 53.432 55.566 53.214 56.274 52.974 56.392 53.146 56.459 52.935 56.794 53.003 56.729 53.122 56.944 53.041 56.924 53.166 57.867 53.334 57.954 53.25 57.933 53.158 58.291 53.145 58.366 53.359 58.474 53.198 58.709 53.352 58.748 53.152 59.186 53.248 59.127 53.061 59.391 53.015 59.3 53.264 59.738 53.316 59.631 53.492 60.134 53.707 60.134 53.546 60.291 53.576 60.367 53.478 60.543 53.494 60.579 53.785 61.081 53.784 61.176 54.022 61.304 54.027 61.191 54.476 61.348 54.572 61.35 54.764 61.202 54.863 61.211 54.938 61.814 54.952 61.693 54.979 61.675 55.129 62.706 55.205 62.734 55.302 62.631 55.312 62.659 55.475 62.407 55.482 62.542 55.512 62.454 55.558 62.514 55.715 62.426 55.698 62.309 55.793 62.386 55.933 62.31 56.023 62.415 56.033 62.329 56.475 62.57 56.45 62.607 56.544 62.38 56.741 62.459 56.783 62.539 56.676 62.691 56.685 62.553 56.937 62.705 56.909 62.761 56.991 62.504 57.047 62.672 57.21 62.813 57.152 62.829 57.387 63.019 57.348 63.051 57.461 63.261 57.529 63.22 57.325 63.37 57.351 63.421 57.482 63.323 57.596 63.431 57.629 63.342 57.767 63.401 57.831 63.315 57.861 63.358 57.951 63.262 58.002 63.555 58.041 63.441 58.336 63.606 58.359 63.565 58.282 63.698 58.296 63.752 58.221 63.845 58.294 63.681 58.365 63.823 58.568 63.681 58.659 63.872 58.655 63.69 59.004 63.807 59.018 63.763 59.078 63.905 59.175 64.01 59.126 64.05 59.208 64.136 59.2 64.225 59.33 64.332 59.25 64.934 59.41 65.048 59.229 64.808 59.17 64.777 58.907 65.214 58.836 65.242 58.94 65.364 58.994 65.423 58.949 65.328 58.896 65.356 58.838 65.538 58.867 65.404 58.75 65.469 58.651 65.357 58.451 65.427 58.35 65.645 58.424 65.637 58.284 65.457 58.185 65.637 57.891 65.456 57.857 65.587 57.823 65.592 57.667 65.697 57.695 65.783 57.62 66.131 57.683 66.149 57.616 65.978 57.536 66.045 57.467 66.34 57.502 66.215 57.4 66.414 57.189 66.593 57.336 66.473 57.431 66.509 57.504 66.373 57.582 66.467 57.667 66.59 57.586 66.536 57.756 66.661 57.803 66.71 57.695 66.893 57.94 67.013 57.877 67.142 57.954 67.018 58.069 67.098 58.061 67.17 58.162 67.066 58.294 67.306 58.381 67.298 58.445 67.415 58.371 67.367 58.307 67.665 58.144 67.647 58.225 67.991 58.303 68.115 58.58 68.193 58.48 68.131 58.366 68.275 58.277 68.319 58.386 68.533 58.385 68.445 58.516 68.493 58.579 68.629 58.463 68.729 58.643 68.748 58.497 68.876 58.618 69.034 58.444 69.089 58.597 69.222 58.641 69.416 58.446 69.508 58.513 69.419 58.517 69.38 58.639 69.547 58.559 69.471 58.647 69.744 58.764 69.886 58.615 69.92 58.798 70.065 58.72 70.053 58.787 70.241 58.797 70.266 58.949 70.42 58.909 70.374 58.979 70.478 59.178 70.5 59.084 70.617 59.054 70.703 59.171 70.851 59.081 70.929 59.122 70.728 59.313 70.926 59.357 70.844 59.401 70.947 59.411 70.975 59.504 71.042 59.516 71.023 59.428 71.115 59.476 71.276 59.383 71.333 59.476 71.655 59.517 71.617 59.629 71.731 59.728 71.565 60.011 71.679 59.997 71.6 60.07 71.664 60.118 71.533 60.228 71.581 60.312 71.376 60.404 71.566 60.819 71.502 60.924 71.474 60.874 71.372 60.908 71.504 61.794 71.394 61.785 71.443 61.865 71.516 61.844 71.463 61.953 71.522 61.897 71.525 62.009 71.648 62.051 71.543 62.091 71.594 62.133 71.532 62.195 71.598 62.251 71.562 62.327 72.024 62.81 71.955 63.048 72.054 63.099 71.996 63.169 73.803 63.45 73.773 63.605 73.636 63.66 73.723 63.943 73.831 63.923 73.67 64.65 74.292 65.034 74.259 65.1 74.364 65.188 74.608 65.049 74.608 64.921 74.749 64.937 74.759 64.885 74.858 65.029 74.927 64.977 74.95 65.076 75.021 65.036 75.005 65.11 75.557 65.197 75.507 65.391 76.028 65.549 75.977 65.612 76.374 65.77 76.412 65.931 76.863 66.064 76.842 66.116 76.898 66.068 77.116 66.118 77.106 66.177 77.448 66.129 77.461 66.211 77.376 66.249 77.496 66.43 77.685 66.45 77.714 66.553 77.635 66.618 77.833 66.712 77.848 66.627 78.159 66.61 78.171 66.709 78.332 66.78 78.326 66.838 79.802 67.928 79.755 68.055 80.248 68.5 80.503 68.341 80.552 68.409 80.498 68.504 80.797 68.488 80.71 68.613 80.99 68.62 81.12 68.886 81.245 68.849 81.169 69.041 81.265 69.063 81.14 69.129 81.325 69.112 81.221 69.215 81.305 69.233 81.227 69.279 81.324 69.318 81.305 69.414 81.573 69.49 81.514 69.682 81.65 69.808 81.557 69.904 81.715 69.875 81.626 69.939 81.699 69.923 82.036 70.23 82.102 70.185 82.103 70.3 82.3 70.336 82.235 70.406 82.301 70.397 82.347 70.5 82.417 70.41 82.414 70.521 82.599 70.515 82.555 70.733 82.926 70.846 82.964 70.943 83.018 70.89 83.093 71.037 83.196 71.025 83.196 71.171 83.432 71.199 83.508 71.109 83.517 71.527 83.608 71.424 83.539 71.37 83.6 71.384 83.584 71.3 83.665 71.259 83.763 71.344 83.854 71.313 83.857 71.509 84.18 71.388 84.137 71.7 84.467 71.618 84.526 71.731 84.455 71.855 84.537 71.91 84.673 71.82 84.74 71.947 84.934 71.898 85.016 72.019 85.164 71.908 85.291 71.96 85.334 71.882 85.275 71.818 85.362 71.843 85.313 71.772 85.614 71.74 85.761 71.426 85.785 71.477 85.818 71.367 86.921 71.476 86.387 70.557 86.671 70.444 86.787 69.539 87.943 69.171 87.953 69.264 88.165 69.122 88.168 69.17 88.24 69.125 88.263 69.207 88.297 69.131 88.36 69.242 88.589 69.226 88.551 69.329 89.166 69.324 89.192 69.229 89.531 69.257 89.567 69.336 89.512 69.392 91.021 69.278 90.94 69.219 91.234 69.263 91.313 69.13 91.423 69.176 91.516 69.015 91.975 69.095 92.098 68.951 92.162 69.021 92.131 69.13 92.203 69.048 92.361 69.059 92.32 69.185 92.39 69.169 92.374 69.242 92.654 69.394 92.591 69.501 92.688 69.508 92.717 69.629 92.723 69.563 92.945 69.509 92.978 69.56 92.851 69.622 92.941 69.614 92.91 69.726 92.957 69.676 93.36 70.045 93.442 70.024 93.397 70.093 93.479 70.149 93.599 70.054 93.671 70.096 93.606 70.107 93.614 70.197 93.845 70.196 93.903 70.292 93.792 70.319 93.962 70.348 93.942 70.423 94.186 70.41 94.25 70.488 94.374 70.431 94.369 70.544 94.513 70.545 94.517 70.635 94.638 70.637 94.671 70.719 94.711 70.645 94.843 70.641 94.839 70.571 95.019 70.629 95.006 70.553 95.12 70.565 95.023 70.508 95.612 70.382 95.536 70.504 95.769 70.478 95.77 70.552 95.986 70.437 95.95 70.64 96.127 70.776 96.083 70.88 96.174 70.856 96.205 70.946 96.997 70.802 97.003 70.93 97.34 70.978 97.298 70.891 97.529 70.9 97.566 70.949 97.696 70.846 97.772 70.89 97.716 70.951 98.199 71.192 98.3 71.08 98.366 71.169 98.434 71.073 98.418 71.165 98.504 71.148 98.522 71.085 98.789 71.019 98.736 70.977 98.861 70.919 99.007 71.051 99.084 70.905 99.194 71.006 99.088 71.026 99.195 71.08 99.097 71.191 99.175 71.168 99.255 71.251 99.255 71.151 99.531 71.2 99.488 71.123 99.611 71.051 99.903 71.277 99.991 71.224 99.974 71.158 100.065 71.149 100.004 70.933 100.186 70.86 100.163 70.763 100.316 70.659 100.313 70.57 100.408 70.553 100.389 70.481 100.591 70.576 100.631 70.474 100.769 70.481 100.813 70.648 101.155 70.663 101.062 70.66 101.152 70.406 101.593 70.72 101.684 70.526 101.933 70.641 101.922 70.565 102.244 70.572 102.149 70.684 102.456 70.897 102.453 70.846 102.615 70.937 102.548 70.981 102.707 71.07 102.689 70.985 102.739 71.048 102.818 71.018 102.779 71.066 102.876 71.184 102.942 71.138 102.902 71.088 103.072 71.137 103.082 71.074 103.292 71.025 103.33 71.249 103.496 71.204 103.459 71.368 103.583 71.288 103.593 71.36 103.905 71.413 103.888 71.35 103.973 71.324 104.083 71.48 104.183 71.481 104.164 71.627 104.637 71.503 104.705 71.619 104.926 71.598 104.917 71.722 104.987 71.784 104.943 71.845 105.026 71.851 105.14 71.721 105.134 71.795 105.311 71.87 105.424 71.543 105.624 71.682 105.882 71.594 105.952 71.636 105.951 71.789 106.009 71.732 106.193 71.906 106.334 71.75 106.296 71.702 106.39 71.426 106.429 71.457 106.456 71.374 106.503 71.407 106.75 71.163 106.682 71.092 106.757 70.98 106.719 70.933 106.82 70.933 106.8 70.879 106.879 70.878 106.868 70.839 108.827 71.4 109.457 70.398 110.434 70.273 110.602 70.45 110.693 70.435 110.731 70.472 110.633 70.585 110.98 70.848 111.273 70.642 110.939 70.606 110.942 70.482 114.221 70.791 114.195 70.74 114.355 70.765 114.353 71.065 114.455 71.082 114.473 71.215 114.937 71.177 114.93 71.249 115.003 71.189 115.058 71.302 115.173 71.249 115.015 71.648 115.172 71.74 115.109 71.867 115.161 71.898 115.089 71.945 115.177 71.982 115.192 72.089 115.535 72.136 115.502 72.244 115.39 72.248 115.501 72.345 115.412 72.402 115.519 73.732 115.727 73.827 115.657 73.847 115.536 74.239 115.601 74.238 115.541 74.459 116.329 75.147 116.306 75.318 116.362 75.351 116.29 75.44 116.474 75.732 116.343 75.949 116.427 76.122 116.579 76.035 116.684 76.228 116.96 76.212 116.966 76.284 117.201 76.405 117.072 76.54 117.177 76.537 116.898 77.208 116.935 77.264 116.404 77.688 116.409 77.849 116.296 77.908 116.345 77.933 116.095 78.181 116.852 78.262 116.888 78.34 116.998 78.26 133.677 84.898 133.372 82.748 133.767 82.412 134.384 82.632 133.267 81.103 133.232 81.203 132.91 81.072 132.839 81.139 132.711 81.056 133.17 80.611 133.386 80.661 133.335 79.687 133.092 79.686 133.034 79.289 133.169 79.183 133.305 79.259 133.384 78.783 133.283 78.716 133.82 77.604 133.708 77.572 134.663 74.769 134.514 74.71 135.426 70.741 135.343 70.725 135.649 69.248 136.005 69.224 136.071 68.664 135.876 68.553 135.923 68.409 135.443 67.992 135.372 68.083 135.321 68.063 135.309 67.972 136.386 68.207 136.772 67.693 136.676 67.622 136.838 67.399 136.938 67.41 138.495 64.882 138.339 64.565 138.426 64.478 138.313 64.361 139.003 63.767 138.872 63.696 139.454 63.221 139.444 63.169 140.412 63.147 140.404 63.314 140.687 63.065 140.809 63.125 141.06 62.611 140.778 62.72 140.393 62.379 140.423 62.103 140.218 62.039 140.336 61.598 140.668 61.504 140.676 61.43 141.073 61.398 141.182 61.51 141.084 61.594 141.265 61.781 141.142 62.16 141.378 62.204 141.39 62.298 141.449 62.322 141.787 61.91 141.694 61.824 141.847 61.557 141.712 61.469 141.544 61.573 141.116 60.488 140.856 60.596 140.996 60.652 141.013 60.752 140.75 60.653 140.776 60.559 140.564 60.428 140.584 60.316 139.543 60.168 140.915 60.142 141.99 58.154 141.913 58.1 141.909 57.841 142.342 57.68 142.098 57.598 142.201 56.862 142.528 56.699 142.329 56.466 142.415 56.036 142.344 55.967 142.608 55.533 142.512 55.455 144.847 52.79 144.239 52.806 144.169 52.629 144.327 52.641 144.303 52.753 144.709 52.759 144.797 52.464 145.351 52.424 145.425 52.198 145.357 52.094 144.57 52.217 144.718 52.359 144.57 52.418 144.043 52.034 144.207 52.007 144.234 52.083 144.657 52.031 144.877 51.596 144.923 51.764 144.986 51.78 145.02 51.581 145.283 51.735 145.258 51.93 145.397 51.873 145.592 52.087 145.899 50.54 145.816 50.708 145.737 50.695 145.762 50.872 144.688 50.575 145.774 50.473 145.625 50.459 145.577 50.305 145.414 50.331 145.45 50.133 145.48 50.235 145.6 50.227 145.708 50.378 145.828 50.31 145.743 50.204 145.976 50.288 145.938 50.396 146.068 50.432 146.11 50.285 145.95 50.104 146.098 49.897 146.053 49.753 146.233 49.673 146.065 49.45 146.465 48.57 146.366 48.456 146.399 48.383 146.31 48.309 146.383 48.165 146.291 48.153 146.219 48.355 146.332 48.538 146.223 48.482 146.208 48.632 146.116 48.681 146.093 48.906 145.853 48.693 146.111 48.372 146.05 48.356 146.171 48.155 145.318 48.341 145.318 48.429 145.094 48.534 145.572 48.138 145.405 47.838 145.143 47.859 144.915 47.541 144.657 47.75 144.688 47.858 144.582 47.792 144.694 47.409 144.619 47.36 144.753 47.087 144.63 47.136 144.648 47.035 144.803 47.065 144.802 47.544 144.854 47.43 144.962 47.422 145.146 47.725 145.176 47.605 145.64 47.712 145.565 47.929 145.688 48.063 145.817 47.883 146.128 47.932 146.407 47.552 146.544 47.549 146.366 47.408 146.409 47.26 146.326 47.249 146.207 47.033 146.264 46.945 146.341 46.944 146.396 46.761 146.44 46.75 146.475 46.858 146.692 46.875 146.581 47.015 146.626 47.112 146.408 47.159 146.574 47.254 146.521 47.457 146.66 47.604 146.449 47.631 146.425 47.744 146.502 47.81 147.159 47.624 147.18 47.503 147.267 47.461 147.273 47.337 147.438 47.271 147.341 47.109 147.494 46.941 147.417 46.869 147.972 45.95 147.884 45.872 147.704 46.135 147.374 45.924 147.379 45.824 147.519 45.755 147.423 45.576 147.549 45.501 147.625 45.528 147.717 45.36 147.823 45.347 147.896 45.186 148.116 45.159 148.035 44.795 148.202 44.782 148.265 44.956 148.476 44.934 148.544 44.656 148.463 44.585 148.663 44.558 148.744 44.656 148.281 45.172 148.376 45.314 147.974 45.921 148.67 45.35 148.544 45.255 149.484 43.561 149.248 43.523 149.196 43.376 148.848 44.231 148.731 43.895 148.568 43.989 148.481 43.954 148.442 44.083 148.616 44.164 148.575 44.358 148.158 44.098 148.196 44.02 148.122 43.956 148.553 43.822 148.556 43.667 148.076 43.699 148.037 43.475 148.817 43.387 148.709 43.246 148.956 42.92 148.844 42.811 148.886 42.683 148.962 42.71 149.018 42.368 149.285 42.498 149.189 42.978 149.41 43.052 149.357 43.201 149.255 43.236 149.299 43.423 149.431 43.452 150.762 41.949 150.6 41.994 150.585 41.106 150.777 41.083 150.844 41.168 150.552 41.885 150.615 41.967 153.759 40.709 153.722 40.61 154.369 40.298 154.367 40.089 153.586 40.075 153.587 40.16 153.215 39.896 153.149 40.326 152.184 40.659 153.018 40.247 152.106 40.217 152.109 40.064 152.431 39.945 152.422 39.833 152.194 39.809 152.274 39.241 153.017 39.726 153.12 39.442 153.205 39.453 153.164 39.784 153.708 39.738 153.772 39.536 154.408 39.912 157.689 37.51 157.664 37.418 157.485 37.364 157.787 36.485 157.74 36.428 157.646 36.436 157.968 35.367 157.418 34.985 157.375 35.018 157.368 35.396 157.614 35.481 157.39 36.291 157.562 36.457 157.304 36.566 157.182 36.49 157.228 36.201 156.791 35.907 156.823 35.806 157.023 35.744 157.089 35.575 156.772 35.343 156.697 35.42 156.5 35.202 156.296 35.226 156.378 35.386 156.244 35.53 156.314 35.384 156.227 35.246 156.326 35.129 156.917 35.22 157.004 34.926 157.233 35.071 159.625 31.935 159.528 31.598 160.174 30.779 160.06 30.645 160.552 30.027 160.449 29.969 161.427 28.422 161.173 27.986 161.776 26.933 161.67 26.88 161.709 26.35 161.629 26.325 162.595 24.457 162.493 24.504 162.697 22.864 162.615 22.838 162.547 22.948 162.114 20.712 162.178 20.719 165.414 9.279 165.237 9.334 165.043 9.172 164.934 9.27 165.251 9.561 165.061 9.955 164.946 9.98 164.9 10.187 164.573 9.973 164.579 9.91 164.928 9.798 165.039 9.07 164.734 8.828 165.399 9.222 165.505 8.712 165.211 8.452 166.222 6.38 166.08 6.34 167.474 4.111 166.987 4.073 167.501 4.09 167.795 2.521 167.735 2.456 167.972 1.84 167.789 1.925 167.224 0 0 0 0 60.591 0 60.591"/></g><g id="highlight"><polygon class="cls-3" points="102.095 96.498 101.212 96.563 101.527 96.346 101.312 96.388 101.215 96.24 100.829 96.375 101.069 96.767 102.483 96.517 102.098 96.573 102.095 96.498 102.095 96.498"/><polygon class="cls-3" points="101.084 96.316 101.169 96.228 100.631 96.195 100.564 96.31 101.084 96.316 101.084 96.316"/><polygon class="cls-3" points="102.681 96.098 102.296 96.157 102.309 96.107 101.978 96.196 102.8 96.151 102.681 96.098 102.681 96.098"/><polygon class="cls-3" points="103.263 95.717 102.98 95.95 102.985 96.001 103.375 95.826 103.352 95.745 103.263 95.717 103.263 95.717"/><polygon class="cls-3" points="103.886 95.683 103.825 95.799 104.206 95.717 103.886 95.683 103.886 95.683"/><polygon class="cls-3" points="104.427 95.619 104.274 95.655 104.275 95.849 104.641 95.522 104.545 95.508 104.427 95.619 104.427 95.619"/><polygon class="cls-3" points="104.348 95.306 103.968 95.349 103.959 95.447 103.855 95.459 103.913 95.575 104.667 95.393 104.696 95.303 104.348 95.306 104.348 95.306"/><polygon class="cls-3" points="90.49 94.355 89.813 94.022 89.997 93.854 88.186 94.378 90.399 94.838 90.489 94.69 90.278 94.541 90.49 94.355 90.49 94.355"/><polygon class="cls-3" points="89.687 93.231 90.357 93.482 90.466 93.34 90.707 93.333 90.752 93.126 91.778 92.814 89.81 92.192 89.687 93.231 89.687 93.231"/><polygon class="cls-3" points="84.306 91.81 84.08 91.755 83.94 91.884 84.306 91.81 84.306 91.81"/><polygon class="cls-3" points="89.93 91.834 89.884 91.62 89.704 91.657 89.734 91.796 89.93 91.834 89.93 91.834"/><polygon class="cls-3" points="112.773 88.609 112.571 88.827 113.031 88.7 113.095 88.488 112.773 88.609 112.773 88.609"/><polygon class="cls-3" points="133.524 84.837 116.366 78.263 116.3 78.347 116.095 78.181 116.345 77.933 116.296 77.908 116.409 77.849 116.404 77.688 116.935 77.264 116.898 77.208 117.237 76.67 117.177 76.537 117.072 76.54 117.201 76.405 116.966 76.284 116.96 76.212 116.684 76.228 116.579 76.035 116.427 76.122 116.343 75.949 116.474 75.732 116.29 75.44 116.362 75.351 116.306 75.318 116.329 75.147 115.541 74.459 115.601 74.238 115.536 74.239 115.657 73.847 115.727 73.827 115.519 73.732 115.412 72.402 115.501 72.345 115.39 72.248 115.502 72.244 115.535 72.136 115.192 72.089 115.177 71.982 115.089 71.945 115.161 71.898 115.109 71.867 115.172 71.74 115.015 71.648 115.173 71.249 115.058 71.302 115.003 71.189 114.93 71.249 114.937 71.177 114.473 71.215 114.455 71.082 114.353 71.065 114.355 70.765 114.195 70.74 114.221 70.791 110.942 70.482 110.939 70.606 111.273 70.642 110.98 70.848 110.633 70.585 110.731 70.472 110.693 70.435 110.602 70.45 110.434 70.273 109.457 70.398 108.827 71.4 106.868 70.839 106.879 70.878 106.8 70.879 106.82 70.933 106.719 70.933 106.757 70.98 106.682 71.092 106.75 71.163 106.503 71.407 106.456 71.374 106.429 71.457 106.39 71.426 106.296 71.702 106.334 71.75 106.193 71.906 106.009 71.732 105.951 71.789 105.952 71.636 105.882 71.594 105.624 71.682 105.424 71.543 105.311 71.87 105.134 71.795 105.14 71.721 105.026 71.851 104.943 71.845 104.987 71.784 104.917 71.722 104.926 71.598 104.705 71.619 104.637 71.503 104.164 71.627 104.183 71.481 104.083 71.48 103.973 71.324 103.888 71.35 103.905 71.413 103.593 71.36 103.583 71.288 103.459 71.368 103.496 71.204 103.33 71.249 103.292 71.025 103.082 71.074 103.072 71.137 102.902 71.088 102.942 71.138 102.876 71.184 102.779 71.066 102.818 71.018 102.739 71.048 102.689 70.985 102.707 71.07 102.548 70.981 102.615 70.937 102.453 70.846 102.456 70.897 102.149 70.684 102.244 70.572 101.922 70.565 101.933 70.641 101.684 70.526 101.593 70.72 101.152 70.406 101.062 70.66 101.155 70.663 100.813 70.648 100.769 70.481 100.631 70.474 100.591 70.576 100.389 70.481 100.408 70.553 100.313 70.57 100.316 70.659 100.163 70.763 100.186 70.86 100.004 70.933 100.065 71.149 99.974 71.158 99.991 71.224 99.903 71.277 99.611 71.051 99.488 71.123 99.531 71.2 99.255 71.151 99.255 71.251 99.175 71.168 99.097 71.191 99.195 71.08 99.088 71.026 99.194 71.006 99.084 70.905 99.007 71.051 98.861 70.919 98.736 70.977 98.789 71.019 98.522 71.085 98.504 71.148 98.418 71.165 98.434 71.073 98.366 71.169 98.3 71.08 98.199 71.192 97.716 70.951 97.772 70.89 97.696 70.846 97.566 70.949 97.529 70.9 97.298 70.891 97.34 70.978 97.003 70.93 96.997 70.802 96.205 70.946 96.174 70.856 96.083 70.88 96.127 70.776 95.95 70.64 95.986 70.437 95.77 70.552 95.769 70.478 95.536 70.504 95.612 70.382 95.023 70.508 95.12 70.565 95.006 70.553 95.019 70.629 94.839 70.571 94.843 70.641 94.711 70.645 94.671 70.719 94.638 70.637 94.517 70.635 94.513 70.545 94.369 70.544 94.374 70.431 94.25 70.488 94.186 70.41 93.942 70.423 93.962 70.348 93.792 70.319 93.903 70.292 93.845 70.196 93.614 70.197 93.606 70.107 93.671 70.096 93.599 70.054 93.479 70.149 93.397 70.093 93.442 70.024 93.36 70.045 92.957 69.676 92.91 69.726 92.941 69.614 92.851 69.622 92.978 69.56 92.945 69.509 92.723 69.563 92.717 69.629 92.688 69.508 92.591 69.501 92.654 69.394 92.374 69.242 92.39 69.169 92.32 69.185 92.361 69.059 92.203 69.048 92.131 69.13 92.162 69.021 92.098 68.951 91.975 69.095 91.516 69.015 91.423 69.176 91.313 69.13 91.234 69.263 90.94 69.219 91.021 69.278 89.755 69.456 89.652 69.355 89.567 69.42 89.512 69.392 89.567 69.336 89.192 69.229 89.166 69.324 88.551 69.329 88.589 69.226 88.36 69.242 88.297 69.131 88.263 69.207 88.24 69.125 88.168 69.17 88.165 69.122 87.953 69.264 87.943 69.171 86.612 70.118 86.671 70.444 86.387 70.557 86.921 71.476 85.818 71.367 85.785 71.477 85.761 71.426 85.614 71.74 85.313 71.772 85.362 71.843 85.275 71.818 85.334 71.882 85.291 71.96 85.164 71.908 85.016 72.019 84.934 71.898 84.74 71.947 84.673 71.82 84.537 71.91 84.455 71.855 84.526 71.731 84.467 71.618 84.137 71.7 84.18 71.388 83.857 71.509 83.854 71.313 83.763 71.344 83.665 71.259 83.584 71.3 83.6 71.384 83.539 71.37 83.608 71.424 83.517 71.527 83.508 71.109 83.27 71.215 83.196 71.171 83.196 71.025 83.093 71.037 83.018 70.89 82.964 70.943 82.926 70.846 82.555 70.733 82.599 70.515 82.414 70.521 82.417 70.41 82.347 70.5 82.301 70.397 82.235 70.406 82.3 70.336 82.103 70.3 82.102 70.185 82.036 70.23 81.699 69.923 81.626 69.939 81.715 69.875 81.557 69.904 81.65 69.808 81.514 69.682 81.573 69.49 81.305 69.414 81.324 69.318 81.227 69.279 81.305 69.233 81.221 69.215 81.325 69.112 81.14 69.129 81.265 69.063 81.169 69.041 81.245 68.849 81.12 68.886 80.99 68.62 80.71 68.613 80.797 68.488 80.498 68.504 80.552 68.409 80.503 68.341 80.248 68.5 79.755 68.055 79.802 67.928 78.326 66.838 78.332 66.78 78.171 66.709 78.159 66.61 77.848 66.627 77.833 66.712 77.635 66.618 77.714 66.553 77.685 66.45 77.496 66.43 77.376 66.249 77.461 66.211 77.448 66.129 77.106 66.177 77.116 66.118 76.898 66.068 76.842 66.116 76.863 66.064 76.412 65.931 76.374 65.77 75.977 65.612 76.028 65.549 75.507 65.391 75.504 65.11 75.005 65.11 75.021 65.036 74.95 65.076 74.927 64.977 74.858 65.029 74.759 64.885 74.749 64.937 74.608 64.921 74.608 65.049 74.364 65.188 74.259 65.1 74.292 65.034 73.67 64.65 73.831 63.923 73.723 63.943 73.636 63.66 73.773 63.605 73.803 63.45 71.996 63.169 72.054 63.099 71.955 63.048 72.024 62.81 71.562 62.327 71.598 62.251 71.532 62.195 71.594 62.133 71.543 62.091 71.648 62.051 71.525 62.009 71.522 61.897 71.463 61.953 71.516 61.844 71.443 61.865 71.394 61.785 71.504 61.794 71.458 61.404 71.353 61.371 71.372 60.908 71.474 60.874 71.502 60.924 71.376 60.404 71.581 60.312 71.533 60.228 71.664 60.118 71.6 60.07 71.679 59.997 71.565 60.011 71.731 59.728 71.617 59.629 71.655 59.517 71.333 59.476 71.276 59.383 71.115 59.476 71.023 59.428 71.042 59.516 70.975 59.504 70.947 59.411 70.844 59.401 70.926 59.357 70.728 59.313 70.929 59.122 70.851 59.081 70.703 59.171 70.617 59.054 70.5 59.084 70.478 59.178 70.374 58.979 70.42 58.909 70.266 58.949 70.241 58.797 70.053 58.787 70.065 58.72 69.92 58.798 69.886 58.615 69.744 58.764 69.471 58.647 69.547 58.559 69.38 58.639 69.419 58.517 69.508 58.513 69.416 58.446 69.222 58.641 69.089 58.597 69.034 58.444 68.876 58.618 68.748 58.497 68.729 58.643 68.629 58.463 68.493 58.579 68.445 58.516 68.533 58.385 68.319 58.386 68.275 58.277 68.131 58.366 68.193 58.48 68.115 58.58 67.991 58.303 67.647 58.225 67.665 58.144 67.367 58.307 67.415 58.371 67.298 58.445 67.306 58.381 67.066 58.294 67.17 58.162 67.098 58.061 67.018 58.069 67.142 57.954 67.013 57.877 66.893 57.94 66.71 57.695 66.661 57.803 66.536 57.756 66.59 57.586 66.467 57.667 66.373 57.582 66.509 57.504 66.473 57.431 66.593 57.336 66.414 57.189 66.215 57.4 66.34 57.502 66.045 57.467 65.978 57.536 66.149 57.616 66.131 57.683 65.783 57.62 65.697 57.695 65.592 57.667 65.587 57.823 65.456 57.857 65.637 57.891 65.457 58.185 65.637 58.284 65.645 58.424 65.427 58.35 65.357 58.451 65.469 58.651 65.404 58.75 65.538 58.867 65.356 58.838 65.328 58.896 65.423 58.949 65.364 58.994 65.242 58.94 65.214 58.836 64.777 58.907 64.808 59.17 65.048 59.229 64.821 59.432 64.332 59.25 64.225 59.33 64.136 59.2 64.05 59.208 64.01 59.126 63.905 59.175 63.763 59.078 63.807 59.018 63.69 59.004 63.872 58.655 63.681 58.659 63.823 58.568 63.681 58.365 63.845 58.294 63.752 58.221 63.698 58.296 63.565 58.282 63.606 58.359 63.441 58.336 63.555 58.041 63.262 58.002 63.358 57.951 63.315 57.861 63.401 57.831 63.342 57.767 63.431 57.629 63.323 57.596 63.421 57.482 63.37 57.351 63.22 57.325 63.261 57.529 63.051 57.461 63.019 57.348 62.829 57.387 62.813 57.152 62.672 57.21 62.504 57.047 62.761 56.991 62.705 56.909 62.553 56.937 62.691 56.685 62.539 56.676 62.459 56.783 62.38 56.741 62.607 56.544 62.57 56.45 62.329 56.475 62.415 56.033 62.31 56.023 62.386 55.933 62.309 55.793 62.426 55.698 62.514 55.715 62.454 55.558 62.542 55.512 62.407 55.482 62.659 55.475 62.631 55.312 62.734 55.302 62.706 55.205 61.675 55.129 61.693 54.979 61.814 54.952 61.211 54.938 61.202 54.863 61.35 54.764 61.348 54.572 61.191 54.476 61.304 54.027 61.176 54.022 61.081 53.784 60.579 53.785 60.543 53.494 60.367 53.478 60.291 53.576 60.134 53.546 60.134 53.707 59.631 53.492 59.738 53.316 59.3 53.264 59.391 53.015 59.127 53.061 59.186 53.248 58.748 53.152 58.709 53.352 58.474 53.198 58.366 53.359 58.291 53.145 57.933 53.158 57.954 53.25 57.867 53.334 56.924 53.166 56.944 53.041 56.729 53.122 56.794 53.003 56.459 52.935 56.392 53.146 56.274 52.974 55.566 53.214 55.539 53.432 55.382 53.382 55.441 53.539 55.105 53.514 55.271 53.589 55.288 53.654 55.167 53.775 55.302 53.847 55.16 53.835 55.101 53.937 54.9 53.868 54.76 53.957 54.638 53.877 54.643 54.045 54.418 54.101 54.511 53.981 54.407 53.857 54.514 53.783 54.313 53.541 53.708 53.573 53.725 53.442 53.478 53.459 53.484 53.283 53.292 53.336 53.127 53.199 53.099 53.258 53 53.113 52.688 53.373 52.699 53.264 52.593 53.256 52.631 53.141 52.086 52.822 51.927 52.897 51.935 52.677 51.794 52.764 51.73 52.663 51.391 52.826 51.437 52.924 51.364 52.937 51.288 52.775 51.178 52.866 51.088 52.843 51.089 52.727 51.005 52.724 51.102 52.596 50.302 52.651 50.255 52.554 50.055 52.652 50.064 52.488 49.964 52.422 49.87 52.636 49.676 52.45 49.763 52.319 49.528 52.354 49.475 52.225 49.525 52.181 49.42 52.162 49.473 52.089 49.344 52.044 49.359 51.951 49.292 51.899 49.323 90.056 53.373 92.691 53.052 93.044 53.525 93.243 53.45 92.996 54.516 93.185 54.597 93.331 54.524 93.409 54.729 93.58 55.008 93.186 55.73 93.206 55.464 92.81 55.349 92.805 55.28 92.457 61.257 93.222 61.527 92.929 63.452 93.313 63.482 93.233 73.548 97.536 76.744 95.538 76.719 95.474 77.615 94.671 77.522 94.599 79.442 93.542 79.42 93.444 80.792 92.711 80.799 92.582 82.418 92.248 82.36 92.183 83.475 92.261 83.566 92.093 83.925 92.079 83.965 91.988 83.677 92.023 83.578 91.919 84.24 91.348 84.318 91.414 84.228 91.567 84.296 91.579 84.206 90.65 81.848 90.905 81.705 90.695 81.627 90.98 81.06 90.821 86.295 88.277 86.117 88.115 86.141 88.043 87.438 89.5 87.612 89.419 88.198 90.865 86.936 92.303 87.041 92.379 83.82 92.369 86.031 94.177 86.299 94.112 86.328 94.178 87.395 94.08 87.337 93.934 89.283 93.355 89.116 93.233 89.126 92.774 88.869 92.581 88.894 92.297 88.986 92.257 89.025 92.369 89.172 92.388 89.225 92.252 89.148 92.163 89.483 91.586 89.723 91.612 89.789 91.548 89.777 91.474 90.009 91.551 89.966 91.652 90.255 91.673 90.316 91.532 91.967 92.31 91.902 92.696 92.256 92.823 91.934 93.405 91.038 93.354 91.085 93.868 90.999 93.938 91.137 94.025 91.029 94.324 90.497 94.407 95.009 96.018 94.975 96.043 94.564 95.808 94.593 95.72 93.957 95.579 95.674 97.746 95.624 97.871 95.721 98.037 96.505 97.728 96.464 97.382 98.077 97.594 98.091 97.533 97.864 97.35 98.033 97.175 99.002 98.703 98.802 98.848 99.669 99.458 99.648 99.599 99.467 99.647 100.061 100.155 100.591 99.73 100.443 99.675 100.72 99.399 100.957 99.508 100.928 99.3 100.884 99.321 100.773 99.23 100.9 99.127 100.506 99.033 100.512 98.967 100.625 98.939 100.813 96.834 99.181 97.963 99.151 97.621 99.006 97.557 98.973 97.071 98.622 97.087 98.243 96.317 98.732 95.92 98.747 96.048 99.609 96.002 99.653 95.85 100.008 95.992 100.07 96.28 101.842 95.933 101.854 96.035 101.919 96.065 102.595 95.731 102.583 95.557 102.729 95.749 102.671 95.826 103.108 95.773 103.154 95.621 103.762 95.702 103.79 95.468 104.9 95.281 104.762 95.338 104.729 95.467 114.9 88.509 114.009 88.589 113.946 88.494 113.861 88.644 113.63 88.588 113.445 88.75 113.522 88.829 113.018 88.956 112.961 89.074 113.054 89.157 112.611 89.273 112.482 89.107 111.916 89.373 111.915 89.476 110.153 90.209 110.221 89.836 111.431 89.53 111.422 89.447 112.66 88.611 111.968 88.363 111.966 88.106 113.475 88.19 113.499 88.444 125.875 87.445 125.673 87.354 125.707 87.26 125.587 87.224 125.635 87.114 125.801 87.114 125.9 87.446 126.999 87.527 127.112 87.686 131.717 85.532 131.051 84.933 131.509 84.782 131.574 84.877 131.407 85.006 131.788 85.023 131.844 84.873 132.03 84.852 132.055 84.922 131.907 85.092 132.045 85.16 131.79 85.279 131.817 85.389 133.677 84.898 133.524 84.837 133.524 84.837"/></g></svg>