<svg xmlns="http://www.w3.org/2000/svg" viewBox="0 0 169.723 150.002"><defs><style>.cls-1{fill:#eff9fe;}.cls-2{fill:#e6e6e6;}.cls-3{fill:#b40b47;}</style></defs><title>WA-ICON</title><g id="Layer_3" data-name="Layer 3"><rect class="cls-1" y="0.002" width="169.718" height="150"/></g><g id="aus5fgd_r_area"><polygon class="cls-2" points="169.718 144.199 168.679 144.466 168.429 145.128 169.481 146.179 169.42 146.2 169.468 146.258 169.718 146.139 169.718 144.199 169.718 144.199"/><polygon class="cls-2" points="168.058 140.782 167.947 140.691 167.962 140.751 167.887 140.776 168.174 140.942 168.196 140.844 168.058 140.782 168.058 140.782"/><polygon class="cls-2" points="166.303 139.923 165.885 139.471 165.714 139.599 166.198 140.011 166.129 140.042 166.302 140.25 166.424 140.189 166.379 139.913 166.303 139.923 166.303 139.923"/><polygon class="cls-2" points="165.295 139.075 165.248 139.114 165.304 139.233 165.325 139.221 165.322 139.087 165.295 139.075 165.295 139.075"/><polygon class="cls-2" points="164.831 138.233 164.868 138.205 164.933 138.247 164.962 138.223 164.745 137.928 164.716 138.06 164.786 138.098 164.771 138.168 164.831 138.233 164.831 138.233"/><polygon class="cls-2" points="167.257 137.799 167.227 137.868 167.325 137.98 167.393 137.869 167.358 137.812 167.257 137.799 167.257 137.799"/><polygon class="cls-2" points="166.97 136.929 166.919 136.911 166.902 137.186 166.959 137.161 166.935 137.008 167.076 136.917 167.056 136.897 166.97 136.929 166.97 136.929"/><polygon class="cls-2" points="156.082 132.068 155.946 132.532 156.539 132.234 156.419 131.953 156.082 132.068 156.082 132.068"/><polygon class="cls-2" points="157.954 131.443 157.909 131.461 158.092 131.555 158.125 131.446 157.954 131.443 157.954 131.443"/><polygon class="cls-2" points="149.113 124.895 148.981 124.896 148.988 124.852 148.887 124.885 148.881 124.913 148.963 124.97 148.937 125.013 148.995 125.075 149.084 125.035 149.076 125.007 149.124 124.958 149.113 124.895 149.113 124.895"/><polygon class="cls-2" points="151.015 124.646 151.147 124.667 151.191 124.612 151.028 124.613 151.015 124.646 151.015 124.646"/><polygon class="cls-2" points="151.277 124.52 151.205 124.611 151.213 124.637 151.362 124.541 151.33 124.508 151.277 124.52 151.277 124.52"/><polygon class="cls-2" points="152.368 124.19 152.372 124.14 151.989 124.056 152.398 124.231 152.368 124.19 152.368 124.19"/><polygon class="cls-2" points="150.281 123.758 150.272 123.814 150.445 123.73 150.281 123.758 150.281 123.758"/><polygon class="cls-2" points="150.946 123.445 151.298 123.296 150.559 123.501 150.561 123.75 150.695 123.821 150.991 123.553 150.924 123.481 150.946 123.445 150.946 123.445"/><path class="cls-2" d="M170,25.531l-.244.1-.093-.163.133-.293-.23-.257.024-.042-2.828-2.43.019-.04-2.823-1.674-.169.072.038-.131-.1,0,.019-.085-1.922-2.174-.149.015-.035-.044.288.017.035.077.477-.416.087.052.03-.061.061-.006.027-.068.11.023.012-.088-.073-.009.167-.627.053.021.027-.036-.028-.056.334-.607.29.022.372-.78-.07-.073.957-.609.147.055-.143-.151,1.181-3.051-.147-.076-.119.094.017.121-.712.388-.226-.27.261-.152-.084-.1-.168.059-.237-.609.177-.028-.038-.758.188-.06.206.25.042-.052-.051-.048.027-.063.1-.024.048.075.084-.237-.262.055-.044-.08.039-.049-.03-.112-.243-.087.2-.408-.028-.049.238-.2.1.242.069-.371.214-.1.2.575.1-.5.136.035-.04-.138.18-.223-.056-.035.276-.258.2.949.034-.014-.141-.167.093-.112.159.084.1-.259.135-.009L166.909,9l-.1-.005.024-.1.043-.017.108.061.055-.146.014.192L167.2,9l.029.074.19-.057-.057-.084.087-.148-.17-.079.243-.436.224.2-.085.295.09.133-.093.046.192.479-.177.162-.047-.049-.133.032.008.245-.065.038.079.162.644-.648.087.042-.044.144.048.037.357-.687.1.086.212-.572-.2-.042.014-.2-.147-.018-.022-.116-.317-.023.006-.087.043-.031.177.116.143-.091.083.057.077-.045-.018-.053.115-.032.023.318.132,0-.026-.1.242-.2.064.287.209-.072-.707-.513.029-.26-.428-.2,0-.158.049-.011-.007-.073-.117-.045.018-.127.071-.03.28.22-.027-.284.145-.1.431.594-.124-.606.181-.228.1.015.027.051h.246l.031-.042-.122-.21.41-.561-.121-.279.083-.072-.114-.137.023-.074L170,4.91V3.669l-.125.063-.032-.055-.071.125-.369-.108-.36-1.11-.1.014-.24-.571-.113-.021-.055.059.01.045-.052.026-.015.092-.142-.152-.057.035-.069-.1.044-.06.094.112V1.84L169,1.577l-.106-.238-.025.058.1.095-.153.127-.027-.039-.111.04-.012.094-.039.015L168.6,1.7l-.129.1-.29-.066-.079.177-.028-.076-.057,0-.279.419-.06-.026-.124.215h-.042l-.049-.064-.095.044-.032-.045-.541.493.027.129-.3.064.052.034-.039.132.278-.034.074.168.652-.059.154.325-.116.027.064.084L166.5,4.853l-.076-.167-.388.132-.073-.055.013-.079-.072-.03-.142.293-.047-.03-.065.074-.041-.008.021-.151-.133-.123.118-.252-.239-.012.057-.207.061,0,.154-.246-.072-.168.12.015.031-.135.119-.01.043-.169-.286-.045-.074.208-.214.025-.2-.218.156-.322.093.019.43-.733-.288.169.029.154-.449.272-.031-.077-.058,0-.1.21-.1-.117.045-.088-.7.72-.019-.1-.344.344.075-.18-.428-.553,1.1-1.128-.038-.032.032-.066.227-.052.013.061.236-.155-.019-.046-4.482,1.675.161.086-.025.038.376.332-.011.028-2.336-1.1-.057-.4-.275-.083-.112-.266-.062.005-.051-.054.042-.04-.013-.111.04-.04-.161-.083-.957.728-.036-.046.018-.051-2.018-.419-.4.868-.1-.175.182-.419-.255-.277.015-.083.095.012.041-.094-.332-.356-.277.246-.036-.019.027-.037-.022-.078.064-.07-.1-.1.016-.1-.9.277-.009-.064-.187.034-.137-.207-.114,0-.1-.234.7-.406-.148-.167-.348.051-.129-.168-.354.108-.02.121-.655.108.081.058-.131.121.043.059-.312.143-.095-.054.069-.1L151.17.94l-.246-.013-.055.106-.07,0-.165.3.114-.688-.447.25L150.235.75l-.226.008-.07-.133h.095l-.027-.056.033-.052-.076-.044-.51.213L149.4.514l.278-.126-.067-.145L145.491,0l-.04.128.418-.058.022.042-.375.015-.209,2.426.735.358-1.151-.319-.008.075-.688.3-.389,1.39.328-.394-.459-.695-.423.153-.17-.319-5.317.443-.4-1.212-.41,1.029.111.016-.023.044-1.162-.4,0-.069-.036-.024-.3.156.2,1.064.066.025,0,.044-.864-.166-.473.734.175.108.033-.025,0-.1.254.095.023.131.192-.028.277.334-.282-.03-.036-.147-.081.052-.041-.028-.123.048-.072-.093-.063.005.018.118.08.031.054.26.108.024,0-.037.36.457-.484-.256.133.274-.031.051-.346-.63-.153.017.021.1-.027.032-.029-.245-.061,0-.079.088.046.146-.07.087.036.06-.044.008-.02-.762-.118,0,.04-.243-1.12-.185.27.247-.253.089.148.233-.112.025-.088.545.089-.042.136.073-.15.152-.024-.03-.137.024-.048-.061.212.408.071-.08.1.038.033-.032.283.133-.006.058.347.046-.095.027v.041L133.3,6.3l-.026.04.134.192-.079.143.02-.239-.2-.059-.074.09-.066-.152-.076,0-.016-.037-.1.07-.153-.074-.01-.2-.449-.2-.11.07.026.069-.19.038.054.246-.3-.2-.113,1.263.034.022-.549.381-.327-.123,0-.09-.312.124-.149,1.382,1.244,1.225-.231.335.22.2-.264-.168.214-.371-.263-.208-.9.8-.084-.058-.252.284-.033-.026-.779.174-.208-.513-.15.278.039.058-.3.074-.238,1.56.05.046.093-.129.018.022-.584.792.193.154-.009.166.039.031-.158.341-.7.159-.067-.147-.044.131.122.183-.188.318,0-.184-.049-.027-.1.516-.35-.237-.195.394-.064-.015-.578,1.393.56.351.005.129,2.14.175-1.113.923.188.212.175-.026-.121.1.41.356.379-.233-.017-.08.063.071-.316.336.043.083,1.378-.582-.2.379-.538.072,0,.123-.1.041,0,.082-.445.037-.021-.045-.739-.041-.068.492-.042.017.062.687.1-.065.06.042-.142.071,1.775,2.4.627-.315.514.262.129-.091-.1.167-.654-.268-.475.357-.253-.239-.163.084-.534-1.477-.19-.057-.056.148-.391-.015-.035-.311-.566.033-.01.241h-.049l-.05-.248.264-.275-1.28-1.2.321.4-.044.216-.044-.254-.085.016-.587-.674-.3.035.027.216.231.143-.292-.1-.076.058L125,19.527l.092.861-.09.07.148.259.225-.06.032.043-.257.091-.142-.122.027.158-.158.147.1.218-.156-.187-.064,0-.127.364-.3.069.452-.65-.84-1.392-.039.033.018.069-.134.11.058-.146-.256-.134v100.7l19.592,2.074.007-.039,1.185.015.019-.044-.215-.178,1.775-.222.022-.04,1.415.735.035.207.15-.141.805.555-.075.193.12-.075v-.121l.668.188.132-.139.857.089.016-.079.375.089.018-.023-.369-.265-.061.019-.113-.088.106-.068.058.019.26-.191.061.036.007.12.119.021-.034.133.166-.052-.009.075.171.087.195-.174-.012-.269.526.06.007.165-.162.053.008.052.277.016-.077.3.478.032.075.336.3-.181.78.942-.219.206-.094-.156-.195-.007,0,.834.055-.028.107.051.157-.274.427.058.014-.115.548-.085-.01-.051.261-.05,1,1.257-.484.776-.122-.021.051-.26-.2-.078.277-.023-.9-.091.443.749-.394.256.042.071-.025.067-.091,0,.183.116.172-.069.06.076-.027.029.095.07.043-.106.327.239-.075.3-.307.016.271.178.075-.079.787.985.143-.055v-.306l-.208-.073-.025-.089-.119.04-.184-.349.1-.044-.091-.131.089-.037.125.152-.065.063,2.054,1.089.055-.128-.166-.194-.217.006-.111-.175.95.217.007.195-.329.019,1.071,2.325-.076.029,2.694,2.959-.231.178.926,2.066-.11.113.072.489.2.042-.088-.281.091-.039-.019-.053.061-.073.095.059-.006.351.408.024.028.069-.709.146,0-.048-.291-.152.024-.135-.341-.167.107-.187.234,0-.819-.155,0-.37-.065-.028-.581.96.205.017.178-.217.218.015,0-.056.829.687-.042.045-.07-.009-.051.065,1.821,1.358,0,.235.094-.02.013-.036.273.046-.036-.183.15-.051.043-.239.841.13.012.239.082-.041.352.172.019.132.1.056-.042.034.008.1.084.019.019-.081.1.017.075-.086.085.027-.027-.152-.067-.008.049-1.394-.1.028.008.325-.112,0-.038-.162-1.008.313.37-.347.089.109.173-.106-.046-.16-.185-.056.046-.489.3-.087.15.18-.021-.233-.129,0-.064-.1.436-.529.118.079.214-.216.329.094-.048.06.083.1-.028.1.165-.909-.053-.041,1.51-1.558-.057-.128,1.373-.954-.019-.127,1.041-.519V25.531Zm0-22.449-.12.029-.009.061-.249,0-.041.134.139-.088.192.178L170,3.372v-.29Z" transform="translate(-0.282 0.002)"/><polygon class="cls-2" points="168.926 24.635 168.943 24.624 168.889 24.419 168.835 24.488 168.886 24.524 168.876 24.551 168.849 24.549 168.839 24.56 168.86 24.641 168.926 24.635 168.926 24.635"/><polygon class="cls-2" points="168.648 24.498 168.72 24.428 168.712 24.386 168.593 24.413 168.648 24.498 168.648 24.498"/><polygon class="cls-2" points="168.706 24.533 168.732 24.594 168.826 24.579 168.846 24.524 168.825 24.49 168.892 24.302 168.674 24.534 168.706 24.533 168.706 24.533"/><polygon class="cls-2" points="169.326 24.716 169.583 24.228 169.463 24.228 169.417 24.149 169.327 24.155 169.27 24.041 169.226 24.119 169.089 24.091 168.93 24.522 169.326 24.716 169.326 24.716"/><polygon class="cls-2" points="169.718 23.91 169.648 23.928 169.674 24.623 169.712 24.547 169.718 24.546 169.718 23.91 169.718 23.91"/><polygon class="cls-2" points="169.28 23.721 169.322 23.704 169.311 23.654 169.174 23.609 169.128 23.684 169.28 23.721 169.28 23.721"/><polygon class="cls-2" points="168.375 23.974 168.775 23.92 168.899 23.192 168.709 23.115 168.658 23.224 168.389 23.235 168.391 23.279 168.309 23.309 168.37 23.451 168.264 23.601 168.318 23.784 168.206 23.909 168.375 23.974 168.375 23.974"/><polygon class="cls-2" points="127.43 20.916 127.402 20.911 127.403 21.252 127.638 21.129 127.494 21.038 127.519 20.967 127.43 20.916 127.43 20.916"/><polygon class="cls-2" points="126.844 20.145 126.768 20.154 126.759 20.173 126.963 20.434 126.844 20.145 126.844 20.145"/><polygon class="cls-2" points="124.076 20.101 124.381 20.567 124.434 19.977 124.051 19.757 123.967 19.951 124.076 20.101 124.076 20.101"/><polygon class="cls-2" points="127 19.463 126.922 19.377 126.92 19.719 126.948 19.74 127 19.463 127 19.463"/><polygon class="cls-2" points="124.693 19.433 124.783 19.538 124.877 19.156 124.764 19.127 124.75 19.097 124.671 19.091 124.693 19.433 124.693 19.433"/><polygon class="cls-2" points="163.366 19.477 163.492 19.532 163.627 19.411 163.822 19.459 163.8 19.141 163.599 19.064 163.501 19.167 163.57 19.217 163.366 19.477 163.366 19.477"/><polygon class="cls-2" points="126.823 19.108 127.084 19.359 127.076 19.089 126.752 18.85 126.823 19.108 126.823 19.108"/><polygon class="cls-2" points="126.463 18.867 126.296 18.796 126.89 19.881 126.463 18.867 126.463 18.867"/><polygon class="cls-2" points="127.681 18.909 127.689 18.88 127.33 18.754 127.324 18.792 127.681 18.909 127.681 18.909"/><polygon class="cls-2" points="127.163 18.08 127.776 17.581 127.721 17.523 126.808 17.74 126.884 18.103 127.163 18.08 127.163 18.08"/><polygon class="cls-2" points="162.86 17.005 162.918 17.168 163.027 17.035 162.994 16.988 162.86 17.005 162.86 17.005"/><polygon class="cls-2" points="126.221 14.518 126.307 14.561 126.288 14.76 126.364 14.811 126.356 14.85 126.476 14.833 126.501 14.403 126.334 14.472 126.246 14.346 126.163 14.367 126.221 14.518 126.221 14.518"/><polygon class="cls-2" points="167.36 13.114 167.456 13.109 167.441 12.934 167.367 12.926 167.255 13.129 167.334 13.14 167.36 13.114 167.36 13.114"/><polygon class="cls-2" points="168.197 12.355 168.064 12.388 168.358 12.82 168.486 12.705 168.392 12.273 168.289 12.264 168.345 12.325 168.313 12.383 168.197 12.355 168.197 12.355"/><polygon class="cls-2" points="166.94 12.509 167.05 12.477 166.996 12.312 166.883 12.298 166.84 12.217 166.753 12.223 166.769 12.113 166.362 12.117 166.395 12.143 166.282 12.307 166.326 12.375 166.282 12.429 166.33 12.482 166.282 12.554 166.112 12.549 166.078 12.479 166.027 12.496 165.957 12.4 165.874 12.959 166.249 13.071 166.253 12.984 166.172 12.965 166.118 12.748 166.354 12.673 166.436 13.186 166.727 13.164 166.708 13.094 166.767 13.056 166.799 12.769 166.88 12.823 166.941 12.786 166.898 12.603 166.793 12.629 166.754 12.578 166.837 12.49 166.94 12.509 166.94 12.509"/><polygon class="cls-2" points="168.82 12.05 168.852 12.007 168.742 11.994 168.689 12.061 168.82 12.05 168.82 12.05"/><polygon class="cls-2" points="169.232 12.173 169.331 12.018 169.23 11.991 169.208 12.007 169.208 12.038 169.248 12.048 169.203 12.111 169.232 12.173 169.232 12.173"/><polygon class="cls-2" points="169.723 15.175 169.593 15.196 169.434 14.749 169.581 14.531 169.559 14.481 169.655 14.455 169.662 14.532 169.718 14.565 169.718 13.792 169.577 13.921 169.499 13.893 169.529 13.688 169.666 13.619 169.718 13.734 169.718 13.075 169.597 13.123 169.56 13.072 169.611 12.982 169.511 12.827 169.563 12.735 169.632 12.734 169.648 12.69 169.418 12.714 169.341 12.437 169.555 12.372 169.591 11.97 169.54 12.061 169.499 12.011 169.421 12.046 169.385 12.005 169.288 12.26 169.079 12.285 169.029 12.388 168.939 12.301 169.055 12.196 168.95 12.197 168.943 12.138 168.703 12.189 168.683 12.231 168.791 12.245 168.745 12.369 169.064 12.766 168.801 12.786 168.846 12.901 168.74 12.916 168.724 12.862 168.682 12.856 168.687 12.917 168.486 12.961 168.493 12.799 168.422 12.775 168.313 13.057 168.015 13.071 167.98 12.979 167.774 12.957 167.71 15.069 167.179 15.358 167.201 15.521 169.005 15.651 169.04 15.761 169.11 15.776 169.135 15.837 169.718 15.613 169.723 15.175 169.723 15.175"/><polygon class="cls-2" points="166.638 11.536 166.627 11.592 166.556 11.596 166.591 11.67 166.722 11.665 166.664 11.531 166.638 11.536 166.638 11.536"/><polygon class="cls-2" points="165.716 10.921 165.882 10.895 165.887 10.831 165.734 10.729 165.711 10.744 165.729 10.822 165.686 10.865 165.716 10.921 165.716 10.921"/><polygon class="cls-2" points="166.761 10.79 166.85 10.868 166.877 10.835 166.729 10.683 166.672 10.723 166.716 10.802 166.761 10.79 166.761 10.79"/><polygon class="cls-2" points="166.211 10.572 165.817 10.212 165.776 10.256 166.003 10.315 166.027 11.074 166.085 11.059 166.14 11.133 166 11.329 166.088 11.451 166.171 11.179 166.23 11.21 166.178 11.014 166.135 11.038 166.093 10.889 166.146 10.877 166.233 10.979 166.281 10.866 166.341 10.852 166.405 10.902 166.475 10.796 166.303 10.693 166.323 10.625 166.211 10.572 166.211 10.572"/><polygon class="cls-2" points="165.743 9.925 165.732 9.946 165.76 9.949 165.792 9.998 165.814 9.859 165.71 9.855 165.743 9.925 165.743 9.925"/><polygon class="cls-2" points="129.839 9.226 129.803 9.328 129.94 9.414 129.905 9.233 129.839 9.226 129.839 9.226"/><polygon class="cls-2" points="129.736 9.142 129.743 9.097 129.46 8.975 129.404 8.737 129.416 9.148 129.736 9.142 129.736 9.142"/><polygon class="cls-2" points="131.553 5.776 131.48 5.824 131.514 5.934 131.691 5.837 131.553 5.776 131.553 5.776"/><polygon class="cls-2" points="131.787 5.644 131.695 5.56 131.64 5.624 131.702 5.686 131.787 5.644 131.787 5.644"/><polygon class="cls-2" points="131.896 5.554 131.814 5.456 131.723 5.518 131.791 5.627 131.896 5.554 131.896 5.554"/><polygon class="cls-2" points="132.297 5.953 132.492 6.33 132.555 6.314 132.35 5.619 132.418 5.61 132.393 5.42 132.198 5.557 132.297 5.953 132.297 5.953"/><polygon class="cls-2" points="165.503 3.88 165.539 3.942 165.58 3.827 165.633 3.813 165.665 3.733 165.53 3.786 165.503 3.88 165.503 3.88"/><polygon class="cls-2" points="169.413 3.418 169.443 3.461 169.512 3.38 169.49 3.3 169.412 3.329 169.464 3.362 169.459 3.394 169.413 3.418 169.413 3.418"/><polygon class="cls-2" points="165.924 3.273 166.177 3.219 166.136 3.114 166.099 3.119 166.078 3.093 166.02 3.144 165.955 3.089 165.948 3.138 165.907 3.142 165.868 3.216 165.892 3.265 165.924 3.273 165.924 3.273"/><polygon class="cls-2" points="143.34 3.111 143.386 3.212 143.398 3.009 143.34 3.111 143.34 3.111"/><polygon class="cls-2" points="135.359 2.788 135.373 2.817 135.539 2.827 135.574 2.752 135.468 2.673 135.359 2.788 135.359 2.788"/><polygon class="cls-2" points="165.455 2.634 165.414 3.036 165.474 2.714 165.527 2.688 165.455 2.634 165.455 2.634"/><polygon class="cls-2" points="154.246 2.685 154.29 2.754 154.364 2.668 154.35 2.598 154.246 2.685 154.246 2.685"/><polygon class="cls-2" points="158.381 2.775 158.413 2.8 158.371 2.567 158.381 2.775 158.381 2.775"/><polygon class="cls-2" points="143.741 2.908 143.762 2.632 143.298 2.574 143.292 2.64 143.741 2.908 143.741 2.908"/><polygon class="cls-2" points="158.935 2.606 158.99 2.649 158.99 2.528 158.91 2.498 158.935 2.606 158.935 2.606"/><polygon class="cls-2" points="159.188 2.642 159.258 2.631 159.238 2.513 159.11 2.473 159.188 2.642 159.188 2.642"/><polygon class="cls-2" points="160.768 3.318 161.235 3.516 162.679 2.705 162.371 2.448 161.973 2.763 161.678 2.69 161.772 2.581 161.628 2.571 161.623 2.612 161.084 2.824 161.074 2.893 161.153 2.939 160.591 3.218 160.768 3.318 160.768 3.318"/><polygon class="cls-2" points="135.861 2.536 136.021 2.5 136.039 2.421 135.665 2.481 135.66 2.502 135.861 2.536 135.861 2.536"/><polygon class="cls-2" points="158.449 2.503 158.461 2.825 158.652 2.912 158.827 2.623 158.334 2.345 158.449 2.503 158.449 2.503"/><polygon class="cls-2" points="135.662 2.36 135.669 2.284 135.296 2.394 135.662 2.36 135.662 2.36"/><polygon class="cls-2" points="158.872 2.371 158.894 2.447 159.014 2.467 159.192 2.289 158.702 2.22 158.872 2.371 158.872 2.371"/><polygon class="cls-2" points="158.237 2.357 158.071 2.157 158.026 2.25 158.237 2.357 158.237 2.357"/><polygon class="cls-2" points="158.358 2.305 158.439 2.254 158.439 2.207 158.274 2.118 158.224 2.243 158.358 2.305 158.358 2.305"/><polygon class="cls-2" points="167.103 2.144 167.099 1.917 166.563 2.28 166.439 2.211 166.487 2.129 166.461 2.078 166.338 2.217 166.276 2.192 166.203 2.322 166.134 2.315 166.115 2.256 166.041 2.231 166.015 2.288 166.082 2.308 166.128 2.422 166.07 2.442 166.019 2.392 165.998 2.427 165.958 2.385 166.01 2.521 166.408 2.539 166.444 2.494 166.427 2.44 167.103 2.144 167.103 2.144"/><polygon class="cls-2" points="159.736 1.776 159.984 1.645 159.592 1.596 159.532 1.724 159.592 1.807 159.736 1.776 159.736 1.776"/><polygon class="cls-2" points="167.847 1.597 167.989 1.556 167.986 1.465 167.847 1.597 167.847 1.597"/><polygon class="cls-2" points="167.729 1.459 167.827 1.446 167.798 1.279 167.754 1.301 167.698 1.267 167.614 1.352 167.638 1.377 167.441 1.498 167.666 1.494 167.653 1.462 167.691 1.442 167.729 1.459 167.729 1.459"/><polygon class="cls-2" points="164.942 1.508 165.196 1.197 165.189 1.181 165.136 1.169 164.895 1.359 164.91 1.495 164.942 1.508 164.942 1.508"/><polygon class="cls-2" points="169.103 1.125 169.356 1.016 169.103 1.125 169.103 1.125"/><polygon class="cls-2" points="168.222 0.845 168.186 0.897 168.104 0.886 168.003 1.273 168.056 1.346 168.013 1.359 168.029 1.505 168.222 0.845 168.222 0.845"/><polygon class="cls-2" points="165.503 0.889 165.544 0.795 165.489 0.784 165.416 0.957 165.503 0.889 165.503 0.889"/><polygon class="cls-2" points="162.646 2.504 164.871 0.902 164.796 0.711 164.702 0.691 164.685 0.625 164.502 0.615 164.439 0.778 164.577 0.901 164.34 1.174 164.254 1.107 163.246 1.694 163.251 1.779 162.939 1.903 162.958 1.838 162.803 1.795 162.734 1.847 162.778 1.902 162.571 2.37 162.646 2.504 162.646 2.504"/><polygon class="cls-2" points="165.715 0.721 165.867 0.572 165.852 0.535 165.707 0.599 165.719 0.663 165.684 0.699 165.715 0.721 165.715 0.721"/><polygon class="cls-2" points="168.999 0.524 168.564 0.761 168.44 0.643 168.443 0.741 168.331 0.803 168.328 0.916 168.999 0.524 168.999 0.524"/><polygon class="cls-2" points="165.006 0.643 165.104 0.477 164.958 0.478 164.977 0.51 164.957 0.535 164.898 0.532 164.89 0.673 165.006 0.643 165.006 0.643"/><polygon class="cls-2" points="160.255 0.338 160.265 0.288 160.192 0.2 160.153 0.206 160.188 0.316 160.255 0.338 160.255 0.338"/><polygon class="cls-2" points="166.097 0.392 166.162 0.235 166.082 0.174 165.992 0.349 166.03 0.434 166.097 0.392 166.097 0.392"/><polygon class="cls-2" points="165.229 0.002 164.965 0.143 164.948 0.267 165.131 0.371 165.186 0.306 165.202 0.398 165.577 0.001 165.229 0.002 165.229 0.002"/><polygon class="cls-2" points="144.276 0.002 144.271 0.175 145.057 0.405 144.276 0.002 144.276 0.002"/><polygon class="cls-2" points="149.437 0.002 149.486 0.171 149.605 0.108 149.641 0.123 149.679 0.041 149.646 0.002 149.437 0.002 149.437 0.002"/><polygon class="cls-2" points="166.251 0.002 166.316 0.162 166.223 0.153 166.197 0.24 166.582 0 166.627 0.016 166.644 0.077 166.816 0.051 166.83 0.002 166.495 0.002 166.486 0.022 166.251 0.002 166.251 0.002"/><polygon class="cls-2" points="130.481 0.002 130.202 0.322 129.738 0.106 129.662 0.587 129.73 0.663 129.493 0.62 129.587 1.026 132.911 1.044 133.129 0.601 132.199 0.102 131.977 0.284 131.995 0.434 131.911 0.49 131.961 0.401 131.93 0.361 132.085 0.002 130.693 0.002 130.844 0.262 131.043 0.256 131.087 0.365 131.057 0.389 130.992 0.274 130.857 0.323 130.617 0.104 130.536 0.246 130.639 0.269 130.595 0.386 130.695 0.434 130.676 0.517 130.557 0.384 130.621 0.301 130.513 0.247 130.568 0.037 130.481 0.002 130.481 0.002"/><polygon class="cls-2" points="132.246 0.002 132.485 0.164 132.627 0.117 132.715 0.288 132.766 0.265 135.015 1.723 137.374 0.002 132.246 0.002 132.246 0.002"/></g><g id="highlight"><polygon class="cls-3" points="60.044 139.311 60.016 139.353 60.262 139.504 60.315 139.41 60.044 139.311 60.044 139.311"/><polygon class="cls-3" points="90.675 135.988 90.606 136.027 90.618 136.074 90.538 136.14 90.565 136.155 90.706 136.046 90.694 135.957 90.675 135.988 90.675 135.988"/><polygon class="cls-3" points="82.876 134.655 82.749 134.54 82.747 134.642 82.791 134.662 82.772 134.833 82.825 134.861 82.876 134.655 82.876 134.655"/><polygon class="cls-3" points="88.643 134.374 88.438 134.462 88.396 134.427 88.297 134.55 88.319 134.589 88.515 134.54 88.51 134.592 88.575 134.572 88.591 134.605 88.645 134.534 88.612 134.513 88.643 134.374 88.643 134.374"/><polygon class="cls-3" points="81.26 134.104 81.304 134.146 81.431 134.034 81.417 134.018 81.26 134.104 81.26 134.104"/><polygon class="cls-3" points="79.053 133.961 78.993 133.987 78.993 134.057 78.925 134.058 79.002 134.125 79.042 134.097 79.018 134.036 79.06 133.999 79.053 133.961 79.053 133.961"/><polygon class="cls-3" points="86.352 133.854 86.295 133.848 86.24 133.907 86.532 133.79 86.352 133.854 86.352 133.854"/><polygon class="cls-3" points="94.146 132.925 94.125 132.959 94.165 133.003 94.124 133.061 94.16 133.078 94.222 132.95 94.146 132.925 94.146 132.925"/><polygon class="cls-3" points="43.513 123.13 43.434 122.848 43.378 122.845 43.495 123.362 43.559 123.381 43.538 123.288 43.601 123.24 43.513 123.13 43.513 123.13"/><polygon class="cls-3" points="42.465 121.984 42.585 122.072 42.609 121.996 42.769 121.934 42.679 121.899 42.678 121.849 42.118 122.063 42.465 121.984 42.465 121.984"/><polygon class="cls-3" points="33.173 103.721 33.157 103.796 33.206 103.843 33.459 103.336 33.173 103.721 33.173 103.721"/><polygon class="cls-3" points="31.639 100.58 31.535 100.669 31.55 100.847 31.612 100.842 31.616 100.75 31.685 100.726 31.639 100.58 31.639 100.58"/><polygon class="cls-3" points="31.782 100.504 31.74 100.52 31.763 100.622 31.903 100.496 31.782 100.504 31.782 100.504"/><polygon class="cls-3" points="32.95 85.344 32.892 84.868 32.718 84.765 32.545 84.857 32.762 85.306 32.95 85.344 32.95 85.344"/><polygon class="cls-3" points="28.696 86.773 28.737 86.932 28.813 86.819 28.778 86.71 28.854 86.696 28.805 86.589 28.854 86.566 28.758 86.178 28.704 86.187 28.449 85.621 28.342 85.61 28.362 85.813 28.26 85.823 28.199 85.493 28.289 85.41 28.273 85.364 28.375 85.286 27.823 84.331 27.867 84.283 27.576 82.957 27.265 82.845 28.696 86.773 28.696 86.773"/><polygon class="cls-3" points="27.973 81.391 28.156 79.923 27.897 81.604 27.973 81.391 27.973 81.391"/><polygon class="cls-3" points="28.241 79.681 28.39 78.495 28.154 79.889 28.241 79.681 28.241 79.681"/><polygon class="cls-3" points="34.32 64.926 34.465 64.667 34.439 64.668 34.32 64.926 34.32 64.926"/><polygon class="cls-3" points="36.66 62.297 36.701 62.26 36.661 62.042 36.49 61.956 36.43 62.058 36.639 62.364 36.66 62.297 36.66 62.297"/><polygon class="cls-3" points="35.436 60.047 35.539 59.996 35.531 59.957 35.266 60.266 35.436 60.047 35.436 60.047"/><polygon class="cls-3" points="35.781 59.794 35.771 59.747 35.578 59.903 35.781 59.794 35.781 59.794"/><polygon class="cls-3" points="37.552 59.727 37.527 59.782 37.589 59.746 37.416 59.544 37.552 59.727 37.552 59.727"/><polygon class="cls-3" points="40.84 59.454 40.909 59.421 40.892 59.386 40.701 59.601 40.84 59.454 40.84 59.454"/><polygon class="cls-3" points="41.94 59.108 42.041 59.168 42.211 58.958 41.94 59.108 41.94 59.108"/><polygon class="cls-3" points="39.571 58.743 39.253 58.754 39.524 58.789 39.571 58.743 39.571 58.743"/><polygon class="cls-3" points="44.821 55.628 44.761 55.609 44.705 55.7 44.822 55.737 44.821 55.628 44.821 55.628"/><polygon class="cls-3" points="41.366 55.604 41.437 55.442 41.362 55.373 41.346 55.383 41.326 55.633 41.366 55.604 41.366 55.604"/><polygon class="cls-3" points="49.021 54.374 49.297 54.099 49.23 54.053 48.884 54.158 48.852 54.254 48.955 54.307 48.859 54.391 49.021 54.374 49.021 54.374"/><polygon class="cls-3" points="41.347 55.352 41.507 55.192 41.633 55.244 41.67 55.371 42.223 54.083 42.018 54.006 41.347 55.352 41.347 55.352"/><polygon class="cls-3" points="51.682 53.854 51.839 53.744 51.892 53.76 51.942 53.703 51.641 53.798 51.646 53.834 51.682 53.854 51.682 53.854"/><polygon class="cls-3" points="55.719 53.908 55.797 53.927 55.857 53.785 55.703 53.651 55.668 53.863 55.719 53.908 55.719 53.908"/><polygon class="cls-3" points="49.472 53.588 49.358 53.564 49.228 53.8 49.316 53.764 49.309 53.733 49.409 53.78 49.472 53.588 49.472 53.588"/><polygon class="cls-3" points="48.205 53.689 48.727 53.73 48.775 53.661 48.74 53.546 48.786 53.524 48.865 53.573 48.926 53.459 48.668 53.44 48.681 53.476 48.609 53.594 48.502 53.595 48.488 53.501 48.276 53.533 48.278 53.575 48.2 53.628 48.205 53.689 48.205 53.689"/><polygon class="cls-3" points="49.091 53.564 48.989 53.629 49.01 53.678 49.463 53.294 49.435 53.28 49.307 53.394 49.27 53.368 49.091 53.564 49.091 53.564"/><polygon class="cls-3" points="49.549 53.12 49.557 53.03 49.524 53.061 49.484 53.025 49.48 53.083 49.447 53.107 49.492 53.152 49.549 53.12 49.549 53.12"/><polygon class="cls-3" points="50.134 53.095 50.187 53.126 50.372 52.802 50.166 52.975 50.174 53.028 50.128 53.062 50.134 53.095 50.134 53.095"/><polygon class="cls-3" points="48.929 53.014 49.063 52.87 49.112 52.884 49.031 52.741 48.823 52.922 48.929 53.014 48.929 53.014"/><polygon class="cls-3" points="50.709 52.645 50.693 52.601 50.304 53.113 50.544 53.076 50.596 53.121 50.729 52.896 50.598 52.97 50.573 52.943 50.631 52.807 50.581 52.78 50.709 52.645 50.709 52.645"/><polygon class="cls-3" points="51.832 52.739 51.862 52.8 51.914 52.687 51.881 52.618 51.897 52.596 51.824 52.586 51.832 52.739 51.832 52.739"/><polygon class="cls-3" points="50.21 52.846 50.431 52.556 50.203 52.715 50.229 52.749 50.196 52.837 50.21 52.846 50.21 52.846"/><polygon class="cls-3" points="42.592 52.969 42.611 53.035 42.618 52.905 42.571 52.922 42.592 52.758 42.564 52.732 42.647 52.702 42.611 52.836 42.653 52.832 42.692 52.734 42.625 52.666 42.655 52.608 42.611 52.542 42.513 52.917 42.592 52.969 42.592 52.969"/><polygon class="cls-3" points="42.841 52.418 42.843 52.479 42.911 52.531 42.893 52.463 42.931 52.427 42.777 52.275 42.694 52.296 42.841 52.418 42.841 52.418"/><polygon class="cls-3" points="50.504 52.28 51.124 52.527 50.398 52.132 50.504 52.28 50.504 52.28"/><polygon class="cls-3" points="60.457 51.95 60.559 51.881 60.394 51.895 60.401 51.93 60.457 51.95 60.457 51.95"/><polygon class="cls-3" points="89.736 33.878 89.89 33.978 89.748 33.838 89.736 33.878 89.736 33.878"/><polygon class="cls-3" points="90.628 33.776 90.651 33.767 90.612 33.43 90.628 33.776 90.628 33.776"/><polygon class="cls-3" points="91.445 32.224 91.413 32.166 91.367 32.171 91.334 32.251 91.409 32.292 91.444 32.269 91.445 32.224 91.445 32.224"/><polygon class="cls-3" points="92.341 32.003 92.473 32.062 92.332 31.927 92.164 31.953 92.341 32.003 92.341 32.003"/><polygon class="cls-3" points="90.364 29.781 90.089 29.743 90.382 29.884 90.532 29.693 90.364 29.781 90.364 29.781"/><polygon class="cls-3" points="90.537 29.621 90.574 29.628 90.581 29.595 90.53 29.592 90.497 29.521 90.46 29.522 90.498 29.675 90.537 29.621 90.537 29.621"/><polygon class="cls-3" points="89.492 29.286 89.503 29.226 89.443 29.271 89.679 29.668 89.492 29.286 89.492 29.286"/><polygon class="cls-3" points="89.754 29.211 89.741 29.119 89.632 29.144 89.736 29.217 89.754 29.211 89.754 29.211"/><polygon class="cls-3" points="87.978 28.666 88.132 28.655 87.899 28.597 87.978 28.666 87.978 28.666"/><polygon class="cls-3" points="89.472 28.554 89.43 28.557 89.432 28.625 89.407 28.637 89.427 28.725 89.474 28.697 89.472 28.676 89.509 28.676 89.472 28.554 89.472 28.554"/><polygon class="cls-3" points="88.556 28.592 88.661 28.542 88.65 28.51 88.708 28.489 88.688 28.473 88.7 28.443 88.631 28.401 88.547 28.573 88.556 28.592 88.556 28.592"/><polygon class="cls-3" points="88.424 28.511 88.349 28.58 88.412 28.642 88.453 28.611 88.467 28.639 88.508 28.638 88.521 28.552 88.536 28.569 88.621 28.398 88.358 28.38 88.424 28.511 88.424 28.511"/><polygon class="cls-3" points="97.472 28.305 97.664 28.311 97.604 28.204 97.417 28.253 97.472 28.305 97.472 28.305"/><polygon class="cls-3" points="96.07 28.285 96.13 28.177 95.942 28.25 96.006 28.305 96.07 28.285 96.07 28.285"/><polygon class="cls-3" points="97.387 28.184 97.491 28.23 97.559 28.183 97.497 28.138 97.387 28.184 97.387 28.184"/><polygon class="cls-3" points="94.771 28.446 94.855 28.446 94.9 28.352 94.866 28.353 94.867 28.331 94.828 28.314 94.808 28.363 94.758 28.266 94.725 28.267 94.694 28.192 94.73 28.174 94.673 28.128 94.679 28.165 94.653 28.191 94.771 28.446 94.771 28.446"/><polygon class="cls-3" points="97.238 28.141 96.73 28.107 97.238 28.141 97.238 28.141"/><polygon class="cls-3" points="89.448 28.081 89.36 28.039 89.367 28.195 89.421 28.178 89.427 28.205 89.496 28.21 89.448 28.081 89.448 28.081"/><polygon class="cls-3" points="91.105 28.178 91.116 28.113 90.952 28.007 91.105 28.178 91.105 28.178"/><polygon class="cls-3" points="90.636 27.635 90.415 27.606 90.525 27.708 90.532 27.699 90.513 27.676 90.63 27.684 90.636 27.635 90.636 27.635"/><polygon class="cls-3" points="92.581 27.741 92.607 27.724 92.616 27.776 92.645 27.781 92.646 27.682 92.492 27.569 92.581 27.741 92.581 27.741"/><polygon class="cls-3" points="92.729 27.585 92.781 27.701 92.987 27.705 92.516 27.46 92.729 27.585 92.729 27.585"/><polygon class="cls-3" points="92.175 27.507 92.219 27.642 92.244 27.627 92.255 27.658 92.344 27.427 92.283 27.427 92.265 27.492 92.238 27.495 92.21 27.46 92.175 27.507 92.175 27.507"/><polygon class="cls-3" points="93.941 27.518 93.972 27.588 94.021 27.584 94.015 27.548 94.211 27.549 94.133 27.507 94.17 27.485 94.023 27.418 94.029 27.482 93.966 27.475 93.941 27.518 93.941 27.518"/><polygon class="cls-3" points="90.029 27.371 90.276 27.672 90.249 27.712 90.327 27.754 90.387 27.648 90.309 27.609 90.333 27.541 90.525 27.591 90.189 27.314 90.029 27.371 90.029 27.371"/><polygon class="cls-3" points="92.569 27.289 92.598 27.356 92.667 27.315 92.672 27.265 92.691 27.261 92.651 27.176 92.552 27.192 92.612 27.241 92.569 27.289 92.569 27.289"/><polygon class="cls-3" points="92.025 27.083 92.027 27.046 91.982 27.034 92.101 27.249 92.198 27.247 92.025 27.083 92.025 27.083"/><polygon class="cls-3" points="89.984 26.974 89.95 27.02 90.111 27.07 90.076 26.972 90.026 26.996 89.984 26.974 89.984 26.974"/><polygon class="cls-3" points="89.427 27.061 89.46 27.034 89.41 26.938 89.355 26.971 89.286 26.914 89.294 26.984 89.427 27.061 89.427 27.061"/><polygon class="cls-3" points="90.488 27.022 90.483 26.904 90.403 26.939 90.382 27.016 90.488 27.022 90.488 27.022"/><polygon class="cls-3" points="93.872 26.901 93.82 26.834 93.737 26.958 93.936 27.022 93.93 26.98 93.894 26.962 93.912 26.897 93.872 26.901 93.872 26.901"/><polygon class="cls-3" points="89.753 26.851 89.769 26.818 89.824 26.811 89.836 26.865 89.886 26.835 89.726 26.69 89.71 26.71 89.754 26.745 89.687 26.818 89.753 26.851 89.753 26.851"/><polygon class="cls-3" points="91.862 26.937 92.081 27.003 92.08 26.726 92.013 26.72 92.037 26.752 92.009 26.798 91.446 26.716 91.862 26.937 91.862 26.937"/><polygon class="cls-3" points="90.86 26.533 90.86 26.558 91.106 26.685 91.129 26.657 91.17 26.669 91.181 26.634 90.86 26.533 90.86 26.533"/><polygon class="cls-3" points="93.713 26.702 93.778 26.764 93.948 26.625 93.77 26.531 93.767 26.583 93.804 26.608 93.697 26.679 93.713 26.702 93.713 26.702"/><polygon class="cls-3" points="90.003 26.726 90.026 26.714 89.956 26.596 89.994 26.603 90.026 26.564 89.945 26.521 89.944 26.569 89.898 26.571 90.003 26.726 90.003 26.726"/><polygon class="cls-3" points="90.71 26.478 90.503 26.413 90.503 26.564 90.543 26.562 90.557 26.598 90.613 26.557 90.689 26.627 90.647 26.513 90.71 26.478 90.71 26.478"/><polygon class="cls-3" points="89.135 26.315 89.234 26.245 89.022 26.286 89.022 26.313 89.135 26.315 89.135 26.315"/><polygon class="cls-3" points="90.531 26.348 90.657 26.33 90.551 26.225 90.528 26.247 90.505 26.235 90.517 26.176 90.482 26.149 90.4 26.191 90.531 26.348 90.531 26.348"/><polygon class="cls-3" points="91.498 25.793 91.514 25.792 91.503 25.762 91.566 25.685 91.497 25.603 91.484 25.848 91.498 25.793 91.498 25.793"/><polygon class="cls-3" points="94.721 25.675 94.624 25.555 94.63 25.757 94.721 25.675 94.721 25.675"/><polygon class="cls-3" points="94.737 25.874 94.755 25.858 94.742 25.762 94.612 25.772 94.573 25.587 94.484 25.546 94.55 25.835 94.737 25.874 94.737 25.874"/><polygon class="cls-3" points="96.855 25.756 96.909 25.479 96.53 25.84 96.855 25.756 96.855 25.756"/><polygon class="cls-3" points="96.039 25.953 96.121 25.429 96.1 25.434 96.106 25.494 96.059 25.493 96.068 25.564 96.09 25.566 96.039 25.953 96.039 25.953"/><polygon class="cls-3" points="88.352 23.221 88.294 23.11 88.269 23.125 88.289 23.263 88.352 23.221 88.352 23.221"/><polygon class="cls-3" points="96.91 22.689 96.924 22.719 96.953 22.698 96.976 22.763 96.997 22.692 97.025 22.736 97.061 22.642 96.91 22.689 96.91 22.689"/><polygon class="cls-3" points="95.46 22.215 95.392 22.276 95.573 22.445 95.561 22.274 95.46 22.215 95.46 22.215"/><polygon class="cls-3" points="99.22 22.164 99.243 22.109 99.196 22.089 99.035 22.205 99.052 22.24 99.22 22.164 99.22 22.164"/><polygon class="cls-3" points="99.453 22.268 99.555 22.024 99.532 21.984 99.466 21.98 99.31 22.305 99.453 22.268 99.453 22.268"/><polygon class="cls-3" points="95.271 22.147 95.355 22.122 95.38 22.045 95.443 22.04 95.409 21.929 95.18 22.16 95.248 22.192 95.271 22.147 95.271 22.147"/><polygon class="cls-3" points="118.981 22.021 118.875 21.905 118.986 22.07 118.981 22.021 118.981 22.021"/><polygon class="cls-3" points="98.498 21.752 98.432 21.811 98.465 21.872 98.381 21.928 98.43 21.947 98.435 21.923 98.513 21.914 98.517 21.83 98.498 21.813 98.519 21.775 98.498 21.752 98.498 21.752"/><polygon class="cls-3" points="94.8 21.961 94.803 21.928 95.062 21.886 95.002 21.729 94.739 21.836 94.734 21.963 94.8 21.961 94.8 21.961"/><polygon class="cls-3" points="97.129 21.732 97.178 21.75 97.169 21.698 97.105 21.712 97.061 21.643 97.049 21.796 97.129 21.732 97.129 21.732"/><polygon class="cls-3" points="96.181 22.287 96.244 22.22 96.172 22.466 96.242 22.467 96.229 22.399 96.375 22.315 96.359 22.411 96.414 22.446 96.436 22.337 96.552 22.349 96.475 22.303 96.509 22.195 96.563 22.295 96.617 22.207 96.631 22.373 96.84 22.294 96.862 22.331 96.404 22.647 96.481 22.736 96.993 22.575 97.034 22.614 97.268 22.448 97.057 22.34 97.097 22.299 96.97 22.102 96.88 22.131 96.881 21.947 96.81 21.919 96.731 21.972 96.678 21.937 96.689 21.55 96.31 21.804 96.327 21.859 96.489 21.903 96.333 21.897 96.358 21.995 96.286 21.977 96.106 22.258 96.181 22.287 96.181 22.287"/><polygon class="cls-3" points="95.693 22.043 95.711 21.931 95.759 21.928 95.819 21.808 95.948 21.981 96.108 21.873 96.088 21.826 96.042 21.838 96.012 21.707 96.058 21.725 95.992 21.55 95.558 21.781 95.545 21.901 95.5 21.888 95.499 21.798 95.399 21.91 95.693 22.043 95.693 22.043"/><polygon class="cls-3" points="98.095 21.615 98.084 21.776 98.209 21.888 98.483 21.589 98.33 21.47 98.305 21.501 98.215 21.461 98.207 21.424 98.095 21.615 98.095 21.615"/><polygon class="cls-3" points="98.094 21.385 98.096 21.354 98.181 21.379 98.139 21.275 98.04 21.365 98.094 21.385 98.094 21.385"/><polygon class="cls-3" points="118.229 21.127 118.443 21.33 118.229 21.127 118.229 21.127"/><polygon class="cls-3" points="117.923 21.08 117.904 21.227 117.989 21.093 117.956 21.037 117.923 21.08 117.923 21.08"/><polygon class="cls-3" points="100.76 20.568 100.734 20.55 100.702 20.625 100.717 20.646 100.85 20.607 100.861 20.566 100.822 20.52 100.76 20.568 100.76 20.568"/><polygon class="cls-3" points="99.006 20.505 99.111 20.323 99.092 20.301 98.976 20.456 99.006 20.505 99.006 20.505"/><polygon class="cls-3" points="99.196 20.478 99.247 20.387 99.198 20.296 99.152 20.305 99.074 20.482 99.11 20.489 99.125 20.524 99.057 20.647 99.196 20.478 99.196 20.478"/><polygon class="cls-3" points="118.49 20.803 118.059 20.296 118.068 20.989 118.492 21.216 118.49 20.803 118.49 20.803"/><polygon class="cls-3" points="100.201 20.326 100.39 20.627 100.333 20.667 100.362 20.771 100.459 20.793 100.72 20.477 100.699 20.444 100.556 20.431 100.548 20.399 100.466 20.401 100.441 20.462 100.394 20.451 100.335 20.177 100.201 20.326 100.201 20.326"/><polygon class="cls-3" points="97.988 20.266 98.078 20.143 98.062 20.114 97.976 20.161 98 20.173 97.97 20.228 97.988 20.266 97.988 20.266"/><polygon class="cls-3" points="100.754 20.045 100.786 20.049 100.856 19.922 100.831 19.861 100.819 19.908 100.782 19.918 100.789 19.966 100.708 20 100.754 20.045 100.754 20.045"/><polygon class="cls-3" points="100.521 19.857 100.571 19.78 100.542 19.698 100.509 19.714 100.52 19.74 100.465 19.824 100.521 19.857 100.521 19.857"/><polygon class="cls-3" points="119.455 20.336 119.192 19.608 119.084 19.679 119.376 20.36 119.455 20.336 119.455 20.336"/><polygon class="cls-3" points="98.638 20.029 98.702 20.032 98.746 19.953 98.864 19.937 98.819 20.033 98.773 20.019 98.724 20.081 98.745 20.108 98.802 20.081 98.843 20.121 98.804 20.176 98.833 20.229 98.862 20.222 98.896 20.282 98.929 20.25 98.986 20.282 98.976 20.349 99.094 20.238 99.028 20.218 99.01 20.167 99.089 20.087 98.971 20.069 99.015 19.847 98.948 19.821 98.967 19.742 98.926 19.742 98.897 19.614 98.849 19.59 98.825 19.641 98.918 19.744 98.858 19.875 98.726 19.903 98.708 19.821 98.613 19.907 98.641 19.939 98.599 19.972 98.638 20.029 98.638 20.029"/><polygon class="cls-3" points="97.752 19.683 97.773 19.706 97.824 19.493 97.738 19.523 97.752 19.683 97.752 19.683"/><polygon class="cls-3" points="119.825 20.295 120.007 20.348 119.462 19.364 119.437 19.379 119.825 20.295 119.825 20.295"/><polygon class="cls-3" points="120.141 19.498 119.98 19.334 120.11 19.625 120.141 19.498 120.141 19.498"/><polygon class="cls-3" points="99.46 18.777 99.5 18.812 99.492 18.647 99.439 18.737 99.48 18.736 99.46 18.777 99.46 18.777"/><polygon class="cls-3" points="119.126 18.593 119.174 18.633 119.208 18.603 119.308 18.621 119.08 18.464 119.126 18.593 119.126 18.593"/><polygon class="cls-3" points="100.689 17.897 100.654 17.881 100.56 17.966 100.705 18.008 100.749 17.872 100.823 17.975 100.926 17.921 100.802 17.745 100.689 17.897 100.689 17.897"/><polygon class="cls-3" points="100.875 17.511 100.861 17.533 100.99 17.573 100.998 17.491 100.942 17.44 100.916 17.459 100.935 17.514 100.902 17.54 100.875 17.511 100.875 17.511"/><polygon class="cls-3" points="99.294 17.188 99.336 17.159 99.299 16.973 99.279 16.965 99.277 17.05 99.247 17.044 99.239 17.103 99.198 17.1 99.23 17.131 99.215 17.203 99.287 17.232 99.294 17.188 99.294 17.188"/><polygon class="cls-3" points="102.176 17.13 102.292 17.065 102.239 16.969 102.179 17.042 102.002 16.943 102.176 17.13 102.176 17.13"/><polygon class="cls-3" points="100.895 16.823 100.826 16.846 100.823 16.89 100.929 16.905 100.958 16.958 100.973 16.929 100.895 16.823 100.895 16.823"/><polygon class="cls-3" points="99.98 17.87 99.985 17.914 100.021 17.888 100.009 17.827 100.117 17.86 100.155 17.974 100.243 17.989 100.235 17.873 100.342 17.781 100.421 17.864 100.469 17.736 100.447 17.717 100.52 17.691 100.534 17.734 100.621 17.701 100.625 17.639 100.582 17.64 100.525 17.431 100.458 17.475 100.426 17.447 100.43 17.372 100.505 17.394 100.33 16.699 100.052 17.066 100.131 17.232 100.181 17.19 100.233 17.213 100.15 17.334 100.245 17.452 100.168 17.466 100.114 17.36 100.057 17.402 99.913 17.335 99.902 17.81 99.98 17.87 99.98 17.87"/><polygon class="cls-3" points="105.336 16.724 105.356 16.688 105.244 16.679 105.227 16.739 105.336 16.724 105.336 16.724"/><polygon class="cls-3" points="99.22 16.663 99.19 16.658 99.172 16.682 99.214 16.723 99.188 16.768 99.202 16.788 99.306 16.735 99.245 16.623 99.22 16.663 99.22 16.663"/><polygon class="cls-3" points="102.473 16.968 102.688 17.024 102.708 16.976 102.561 16.906 102.511 16.594 102.401 16.725 102.473 16.968 102.473 16.968"/><polygon class="cls-3" points="100.834 16.63 100.943 16.608 100.964 16.547 100.904 16.523 100.894 16.55 100.858 16.526 100.814 16.554 100.812 16.579 100.872 16.573 100.834 16.63 100.834 16.63"/><polygon class="cls-3" points="103.855 16.558 103.72 16.507 103.694 16.757 103.639 16.781 103.653 16.935 103.861 16.817 103.763 16.634 103.854 16.593 103.855 16.558 103.855 16.558"/><polygon class="cls-3" points="99.198 16.472 99.172 16.528 99.237 16.604 99.252 16.43 99.178 16.36 99.094 16.469 99.177 16.444 99.198 16.472 99.198 16.472"/><polygon class="cls-3" points="105.154 16.385 105.182 16.403 105.203 16.374 105.241 16.386 105.235 16.319 105.298 16.328 105.291 16.229 105.154 16.385 105.154 16.385"/><polygon class="cls-3" points="116.182 16.325 116.252 16.259 116.175 16.189 116.145 16.205 116.182 16.325 116.182 16.325"/><polygon class="cls-3" points="104.987 16.393 105.152 16.147 105.085 15.993 104.988 16.076 105.023 16.133 104.938 16.225 104.987 16.255 104.927 16.323 104.953 16.384 104.987 16.393 104.987 16.393"/><polygon class="cls-3" points="100.669 15.781 100.605 15.948 100.705 15.885 100.669 15.781 100.669 15.781"/><polygon class="cls-3" points="105.312 15.987 105.29 16.081 105.461 16.18 105.468 16.03 105.574 16.087 105.602 16 105.469 15.863 105.437 15.902 105.36 15.883 105.386 15.757 105.248 15.796 105.283 15.872 105.239 15.939 105.312 15.987 105.312 15.987"/><polygon class="cls-3" points="101.115 15.796 101.125 15.825 101.19 15.705 101.072 15.739 101.077 15.794 101.115 15.796 101.115 15.796"/><polygon class="cls-3" points="105.439 15.412 105.289 15.522 105.546 15.515 105.544 15.486 105.587 15.461 105.439 15.412 105.439 15.412"/><polygon class="cls-3" points="108.861 15.398 108.882 15.352 108.795 15.235 108.778 15.247 108.782 15.354 108.861 15.398 108.861 15.398"/><polygon class="cls-3" points="103.716 15.218 103.757 15.203 103.757 15.125 103.712 15.109 103.666 15.158 103.716 15.218 103.716 15.218"/><polygon class="cls-3" points="103.497 14.9 103.521 14.896 103.542 14.925 103.553 14.767 103.484 14.708 103.497 14.9 103.497 14.9"/><polygon class="cls-3" points="107.544 13.998 107.631 14.131 107.689 14.117 107.748 13.997 107.584 13.911 107.5 13.959 107.511 13.992 107.544 13.998 107.544 13.998"/><polygon class="cls-3" points="110.728 13.974 110.52 13.798 110.492 13.821 110.273 13.765 110.23 13.844 110.58 13.908 110.62 14.018 110.728 13.974 110.728 13.974"/><polygon class="cls-3" points="109.484 13.73 109.524 13.727 109.484 13.659 109.392 13.835 109.484 13.73 109.484 13.73"/><polygon class="cls-3" points="106.301 13.848 106.495 13.679 106.465 13.627 106.258 13.803 106.301 13.848 106.301 13.848"/><polygon class="cls-3" points="107.204 13.83 107.226 13.728 107.252 13.715 107.202 13.624 107.129 13.871 107.204 13.83 107.204 13.83"/><polygon class="cls-3" points="107.192 13.601 107.201 13.467 107.13 13.542 107.155 13.618 107.192 13.601 107.192 13.601"/><polygon class="cls-3" points="107.239 13.38 107.148 13.265 107.135 13.364 107.213 13.432 107.239 13.38 107.239 13.38"/><polygon class="cls-3" points="108.488 13.471 108.541 13.509 108.597 13.425 108.686 13.439 108.681 13.482 108.885 13.454 108.975 13.546 109.03 13.512 108.994 13.446 109.02 13.414 108.353 13.278 108.407 13.503 108.488 13.471 108.488 13.471"/><polygon class="cls-3" points="109.084 13.313 109.13 13.324 109.076 13.183 109.013 13.238 109.05 13.359 109.084 13.313 109.084 13.313"/><polygon class="cls-3" points="123.313 81.042 123.31 19.332 121.976 19.163 121.973 19.102 121.618 19.015 121.613 18.952 120.958 18.795 121.006 18.854 119.587 18.953 120.408 20.044 119.747 19.317 119.724 19.336 120.042 20.028 120.31 20.091 120.024 20.058 120 20.375 119.473 20.011 119.601 20.481 119.496 20.469 119.453 20.368 119.369 20.385 119.033 19.897 118.473 20.614 119.106 22.661 118.08 21.154 116.434 23.773 116.364 23.701 118.137 19.289 117.848 19.257 118.477 19.066 118.413 18.522 118.513 18.482 118.604 18.584 118.64 18.57 118.66 18.497 118.613 18.498 118.594 18.455 118.638 18.407 118.098 18.179 118.133 18.123 117.831 17.891 117.832 17.934 117.744 17.966 117.269 17.395 117.087 17.6 117.027 17.574 117.032 17.481 116.905 17.405 116.945 17.239 117.018 17.227 116.861 17.065 116.836 17.108 116.594 16.884 116.413 16.965 116.562 16.812 116.546 16.682 116.456 16.655 116.373 16.794 116.259 16.761 116.283 16.474 116.228 16.434 116.187 16.458 116.152 16.355 116.095 16.405 114.529 14.656 114.541 14.58 114.482 14.572 114.457 14.477 114.402 14.459 114.406 14.5 114.01 14.386 114.07 14.269 114.007 14.211 114.119 14.068 113.874 13.859 113.896 13.721 113.762 13.775 113.475 13.515 113.248 13.551 113.382 13.705 113.303 13.829 112.911 13.475 112.811 13.504 112.767 13.473 112.466 13.82 112.462 13.487 112.316 13.57 112.391 13.618 112.264 13.666 112.173 13.956 112.082 13.857 112.057 13.896 112.001 13.839 112.055 13.752 111.965 13.731 111.936 13.369 111.707 13.437 111.807 13.104 111.585 13.157 111.594 13.064 111.654 13.033 111.602 12.899 111.539 13.056 111.356 13.007 111.504 12.888 111.401 12.777 111.33 12.787 111.087 12.509 110.813 12.542 110.978 12.657 110.429 12.614 110.558 12.858 110.405 12.851 110.38 12.965 110.278 12.916 110.31 12.786 110.224 12.676 109.935 12.795 109.897 12.761 109.785 12.804 110.155 13.646 110.358 13.629 110.362 13.688 110.754 13.96 110.621 14.038 110.456 13.892 110.193 13.99 110.042 13.884 109.954 13.962 109.93 13.915 109.826 13.896 109.831 14.013 109.695 14.042 109.559 13.903 109.534 14.19 109.662 14.238 109.827 14.128 109.709 14.605 109.631 14.603 109.583 14.663 109.64 14.785 109.579 14.792 109.552 14.844 109.457 14.857 109.472 14.683 109.232 14.5 109.192 14.524 109.231 15.102 109.126 15.202 108.965 15.141 108.946 15.465 108.713 15.361 108.737 14.895 108.694 14.901 108.658 14.968 108.466 14.995 108.326 14.657 108.474 14.616 108.476 14.552 108.406 14.515 108.197 14.72 108.05 14.636 108.225 14.346 108.307 14.337 108.27 14.114 108.788 13.786 108.751 13.706 108.641 13.763 108.546 13.67 108.347 13.858 108.296 13.809 108.235 14.036 108.146 14.034 108.114 14.096 108 14.076 107.988 13.968 107.955 13.959 107.858 14.129 107.704 14.152 107.691 14.373 107.331 14.362 107.395 14.649 107.213 14.646 107.159 14.99 107.199 14.972 107.204 14.918 107.248 14.914 107.495 15.188 107.202 15.268 107.13 15.462 106.961 15.304 106.843 15.495 106.772 15.401 106.711 15.483 106.727 15.283 106.815 15.325 106.767 15.249 106.815 15.175 106.757 15.101 106.521 15.135 106.444 15.047 106.571 14.888 106.402 14.848 106.654 14.716 106.561 14.611 106.612 14.521 106.321 14.747 106.478 14.459 106.238 14.518 106.223 14.471 106.677 14.228 106.531 14.068 106.518 14.099 106.217 14.174 106.193 14.149 106.652 13.99 106.621 13.868 105.979 14.188 106.279 13.884 106.084 13.847 106.297 13.609 106.264 13.54 106.132 13.577 106.109 13.73 106 13.673 106.024 13.634 105.975 13.578 105.839 13.589 105.932 13.464 105.871 13.439 105.718 13.627 105.74 13.666 105.704 13.721 105.55 13.623 105.56 13.589 105.408 13.639 105.901 14.151 105.846 14.177 105.938 14.335 105.826 14.27 105.776 14.311 105.72 13.992 105.557 13.952 105.459 14.044 105.664 14.222 105.537 14.292 105.568 14.213 105.488 14.163 105.42 14.459 105.389 14.455 105.237 14.005 105.166 14.054 105.186 14.3 105.281 14.363 105.287 14.471 105.523 14.632 105.712 14.502 105.854 14.579 105.954 14.516 106.326 14.956 106.175 15.008 106.288 15.12 105.648 15.585 105.783 16.201 105.495 16.351 105.458 16.325 105.387 16.386 105.401 16.432 105.365 16.458 105.305 16.437 105.283 16.474 105.189 16.419 105.241 16.576 105.446 16.527 105.633 17.236 105.579 17.278 105.421 17.175 105.362 17.208 105.412 17.263 105.33 17.387 105.117 17.174 104.829 17.308 104.853 17.37 104.754 17.441 104.937 17.757 104.811 18.02 104.776 18.02 104.698 17.795 104.638 17.814 104.587 17.695 104.422 17.718 104.425 17.607 104.313 17.568 104.343 17.466 104.431 17.441 104.302 17.314 104.429 17.273 104.233 17.044 104.484 16.92 104.444 16.802 104.165 16.94 104.228 16.761 104.121 16.727 104.098 16.857 103.775 16.972 103.717 16.92 103.238 17.957 103.21 17.939 103.425 16.875 103.381 16.879 103.394 16.781 103.287 16.709 103.296 16.607 103.355 16.581 103.298 16.536 103.297 16.451 103.24 16.42 103.254 16.34 103.333 16.356 103.318 16.071 103.372 16.047 103.543 16.147 103.566 16.105 103.685 16.114 103.66 15.793 103.551 15.884 103.107 15.462 102.774 15.63 102.835 15.621 102.925 15.703 102.836 16.004 102.954 16.125 102.859 16.207 102.902 17.272 102.837 17.212 102.769 17.359 102.868 17.41 102.517 17.39 102.532 17.347 102.62 17.349 102.6 17.268 102.679 17.242 102.696 17.147 102.581 17.117 102.506 17.192 102.505 17.075 102.454 17.06 102.424 17.136 102.288 17.144 102.257 17.201 102.306 17.241 102.281 17.42 102.216 17.251 102.132 17.271 102.132 17.514 102.041 17.555 102.122 17.682 101.976 17.62 101.95 17.644 102.028 17.815 101.913 17.906 101.89 17.863 101.96 17.727 101.894 17.701 101.896 17.662 101.837 17.66 101.825 17.36 101.746 17.34 101.484 17.568 101.548 17.423 101.497 17.406 101.469 17.24 101.519 17.208 101.502 17.127 101.387 17.187 101.39 17.292 101.435 17.321 101.401 17.357 101.415 17.434 101.348 17.392 101.303 17.413 101.285 17.547 101.137 17.407 100.829 17.724 101.009 17.893 101.033 17.83 101.185 17.957 100.899 18.003 100.865 18.086 100.944 18.202 100.907 18.215 100.741 18.024 100.618 18.073 100.605 18.371 100.542 18.244 100.531 18.296 100.448 18.29 100.469 18.538 100.294 18.449 100.192 18.556 100.24 18.706 100.291 18.672 100.336 18.798 100.415 18.725 100.5 18.762 100.503 18.98 100.449 19.018 100.448 19.074 100.59 19.124 100.596 19.244 100.678 19.225 100.68 19.167 100.724 19.172 100.748 19.26 101.338 19.342 101.201 19.488 101.154 19.456 101.124 19.487 101.179 19.589 100.97 19.644 100.902 19.593 100.929 19.516 100.872 19.454 100.771 19.594 100.721 19.574 100.582 19.737 100.615 19.87 100.759 19.825 100.792 19.719 100.878 19.733 100.869 19.929 100.927 19.909 100.917 19.857 100.962 19.812 101.165 19.83 101.003 19.927 101.048 20.049 101.107 20.03 101.141 20.073 101.165 20.045 101.246 20.089 101.371 19.975 101.358 20.07 101.417 20.059 101.451 20.107 101.556 20.031 101.649 20.249 102.097 20.053 101.538 20.428 101.554 20.496 101.727 20.476 101.745 20.561 101.48 20.703 102.21 20.87 102.23 20.943 102.345 20.956 102.374 21.012 101.566 20.92 101.534 20.98 101.332 20.934 101.367 21.016 101.343 21.03 101.028 20.915 101.073 20.651 101.021 20.638 100.961 20.735 100.925 20.729 100.931 20.653 100.315 20.961 99.969 20.253 99.941 20.44 99.78 20.45 99.837 20.297 99.694 20.273 99.892 19.974 99.462 19.97 99.485 20.372 99.55 20.365 99.52 20.459 99.623 20.516 99.516 20.732 99.403 20.614 99.393 20.676 99.33 20.674 99.184 20.865 99.106 20.765 98.974 20.803 98.896 20.705 98.87 20.753 98.8 20.693 98.779 20.748 98.562 20.81 98.552 20.922 98.388 21 98.359 21.134 98.716 21.093 98.524 21.222 98.551 21.514 98.613 21.546 98.61 21.616 98.785 21.526 98.779 21.436 99 21.331 98.986 21.217 99.067 21.285 99.169 21.078 99.241 21.072 99.267 21.238 99.423 21.107 99.387 21.054 99.416 20.994 99.474 20.989 99.462 21.07 99.629 21.002 99.698 21.137 99.586 21.124 99.617 21.185 99.364 21.399 99.37 21.504 99.154 21.325 98.849 21.523 98.85 21.579 98.765 21.584 98.595 21.864 98.858 22.19 99.852 21.922 99.842 21.608 99.872 22.082 100.264 21.996 99.756 22.692 101.089 23.676 99.642 22.867 99.587 22.953 99.619 23.028 99.415 23.209 99.447 22.879 99.051 22.901 99.324 22.806 99.358 22.705 98.573 22.106 98.551 22.182 98.478 22.151 98.436 22.175 98.381 22.095 98.435 22.064 98.36 21.915 98.433 21.855 98.252 21.953 98.055 21.812 98.019 21.85 98.042 21.922 97.858 22.178 97.756 22.11 97.953 21.861 97.57 21.572 97.579 21.702 97.548 21.722 97.413 21.636 97.43 21.575 97.388 21.582 97.405 21.699 97.376 21.725 97.416 21.783 97.372 21.829 97.521 21.83 97.495 21.906 97.587 21.955 97.492 22.049 97.385 21.998 97.339 22.057 97.311 22 97.341 22.222 97.68 22.167 97.662 22.311 97.389 22.471 97.442 22.553 97.39 22.554 97.399 22.827 97.465 22.807 97.345 22.952 97.186 22.784 97.263 22.654 97.214 22.598 97.048 22.846 97.099 22.885 97.009 23.103 96.935 23.088 96.909 23.182 96.82 23.047 96.669 23.066 96.651 22.994 96.515 22.956 96.52 22.913 96.017 23.08 96.29 22.998 96.375 23.179 96.26 23.033 96.112 23.119 96.129 23.247 96.018 23.222 95.96 23.331 95.894 23.293 95.853 23.342 95.922 23.496 95.77 23.74 95.833 23.775 95.8 23.705 95.92 23.605 95.937 23.695 95.984 23.702 95.954 23.896 96.028 23.96 96.015 24.055 95.871 24.052 95.86 23.89 95.828 23.872 95.791 24.155 95.757 24.159 95.683 24.022 95.618 24.009 95.555 24.079 95.598 24.128 95.687 24.09 95.725 24.423 95.689 24.445 95.819 25.314 95.852 25.301 95.891 25.132 95.919 25.25 95.976 25.268 96.009 25.021 96.044 25.041 96.06 24.952 96.102 24.94 96.202 25.695 96.231 25.657 96.296 25.661 96.333 26.034 97.513 24.538 97.392 24.756 97.536 24.729 97.63 24.816 97.613 24.856 97.76 24.925 97.755 24.964 97.567 24.931 97.601 25.087 97.395 25.223 97.451 25.353 97.395 25.357 97.268 25.168 96.972 25.437 97.074 25.557 96.931 25.851 97.09 25.943 96.877 25.884 96.895 26.741 97.224 26.621 96.503 27.016 96.535 27.114 96.47 27.156 96.156 26.66 96.221 26.609 96.205 26.516 96.126 26.475 96.111 26.517 96.061 26.515 96.011 26.436 96.035 26.706 96.002 26.726 96.04 26.776 95.908 27.14 95.897 27.102 95.734 27.06 95.673 27.16 95.743 27.253 95.614 27.405 95.789 27.547 95.746 28.044 95.786 28.054 95.787 28.15 96.086 28.159 96.127 28.09 96.207 28.112 96.224 28.181 99.057 28.27 99.024 28.402 98.871 28.389 98.841 28.567 96.05 28.497 96.039 28.373 95.97 28.416 95.907 28.391 95.899 28.243 95.755 28.263 95.758 28.156 95.667 28.116 95.362 28.554 95.675 28.533 96.211 29.106 95.921 29.032 95.899 29.231 95.794 29.296 95.696 29.238 95.833 29.101 95.751 29.026 95.71 29.039 95.786 28.912 95.683 28.712 94.844 28.769 95.348 28.613 95.279 28.57 95.293 28.531 94.656 28.518 94.473 28.159 94.513 28.098 94.394 28.011 94.419 27.896 94.13 27.761 94.098 27.776 94.091 27.726 92.806 27.305 93.346 27.794 92.948 27.825 93.271 28.265 93.249 28.319 92.649 27.867 92.743 28.395 92.684 28.409 92.746 28.579 92.718 28.585 92.677 28.499 92.645 28.542 92.6 28.503 92.549 28.519 92.601 28.71 92.573 28.724 92.399 28.339 92.616 28.292 92.546 28.207 92.621 28.158 92.41 27.933 92.33 27.989 91.792 27.622 92.01 27.554 92.05 27.614 92.129 27.621 92.09 27.433 92.167 27.351 92.223 27.377 92.237 27.346 91.664 26.898 91.68 26.968 91.537 26.985 91.509 26.95 90.854 27.031 91.134 27.415 90.807 27.083 90.687 27.114 90.757 27.163 90.738 27.289 90.941 27.344 90.732 27.341 90.917 27.615 90.853 27.606 90.773 27.7 90.681 27.626 90.64 27.649 90.744 27.851 91.101 27.932 91.02 27.761 91.645 28.281 91.327 28.25 91.386 28.341 91.257 28.259 91.301 28.219 91.144 28.176 91.122 28.202 91.621 28.558 90.9 28.545 90.98 28.535 90.418 28.39 90.842 28.607 90.348 28.495 91.257 28.891 91.238 28.92 91.325 28.982 91.301 29.015 90.981 29.012 90.965 28.985 90.845 29.038 91.216 29.188 91.207 29.221 90.119 28.903 90.362 29.065 90.313 29.136 89.923 29.048 89.897 29.078 90.419 29.627 90.464 29.444 90.603 29.473 90.569 29.328 90.821 29.34 90.841 29.279 91.048 29.393 91.031 29.462 90.882 29.447 90.901 29.484 90.843 29.604 90.73 29.57 90.729 29.818 90.386 29.901 90.464 29.942 90.372 29.998 92.124 31.508 92.999 31.15 92.999 30.975 93.072 30.95 93.055 31.243 92.305 31.789 92.582 32.188 92.72 32.201 92.655 32.251 92.126 32.06 92.836 33.269 92.522 33.334 91.575 32.292 91.487 32.459 91.747 32.872 91.722 32.919 91.269 32.052 90.953 32.1 91.492 33.62 91.56 33.64 91.498 33.669 91.414 33.348 91.361 33.335 91.312 33.224 91.199 33.197 91.279 33.448 91.217 33.462 91.208 33.486 91.268 33.584 91.243 33.63 91.198 33.454 91.246 33.428 91.219 33.389 91.242 33.309 91.104 33.206 90.908 34.2 90.868 34.129 90.835 34.134 90.906 35.48 90.841 35.504 88.333 31.192 88.384 31.211 87.97 30.617 88.066 30.428 88.149 30.467 88.186 30.17 88.152 30.187 88.159 30.267 87.917 30.294 87.855 30.151 87.81 30.206 87.571 30.069 87.605 29.98 87.55 29.906 87.586 29.768 87.517 29.742 87.494 29.667 87.327 29.864 87.284 29.793 87.333 29.651 87.274 29.682 87.245 29.648 87.263 29.598 87.105 29.57 87.276 29.369 87.241 29.355 87.293 29.235 87.402 29.211 87.394 29.174 87.212 29.13 87.328 28.906 87.261 28.879 87.299 28.785 87.487 28.76 87.497 28.817 87.574 28.782 87.638 28.819 87.814 28.667 87.538 28.617 87.559 28.566 87.498 28.561 87.443 28.476 87.587 28.197 87.016 28.451 86.907 28.379 86.73 28.851 86.782 28.866 85.984 29.582 86.006 29.57 85.82 30.24 85.933 30.301 85.964 30.231 86.054 30.241 85.995 30.266 86 30.441 86.339 30.618 86.297 30.658 86.406 30.764 85.078 30.806 85.017 30.633 84.791 30.674 84.824 30.708 84.678 30.87 84.786 31.021 84.561 31.06 84.697 31.416 84.744 31.414 84.902 31.771 84.437 31.744 84.477 31.639 84.377 31.579 84.378 31.533 84.252 31.461 84.257 31.401 84.226 31.419 84.209 31.898 84.157 31.904 84.164 31.85 83.982 31.948 84.171 31.656 83.558 32.023 83.578 32.085 82.871 32.788 82.964 32.857 83.103 32.793 83.141 32.842 82.795 33.169 82.761 33.12 82.551 36.565 82.744 36.627 82.593 36.605 82.518 37.834 82.413 37.872 82.604 38.081 82.864 37.742 83.471 37.879 83.542 38.787 82.591 39.33 82.634 39.368 82.6 39.464 82.551 39.41 80.474 40.794 80.404 40.687 79.742 41.477 80.087 41.74 79.681 42.258 79.134 42.275 79.134 42.22 79.075 42.259 79.085 42.473 79.299 42.624 79.075 43.207 78.983 43.235 78.823 43.704 78.686 43.68 78.475 44.276 78.519 44.328 67.787 49.844 67.843 49.885 67.849 50.082 67.645 50.147 67.592 49.98 66.864 50.462 66.316 50.161 66.322 50.115 66.018 50.107 66.02 50.074 64.417 49.75 64.421 50.057 64.651 50.114 64.661 50.137 63.986 49.767 63.919 49.833 63.942 49.953 61.426 51.989 61.238 51.881 61.231 51.796 60.83 51.909 61.085 51.977 60.888 52.034 60.774 51.877 60.826 51.795 60.551 51.84 60.677 51.837 60.665 51.926 60.596 51.881 60.315 51.992 60.314 52.069 60.277 52.088 60.129 52.018 60.044 52.071 60.031 52.038 59.618 52.112 59.593 52.23 59.471 51.987 59.131 52.096 59.16 52.168 59.118 52.179 59.081 52.128 58.94 52.161 58.915 52.258 58.393 52.318 58.381 52.255 58.502 52.197 58.55 52.236 58.595 52.221 58.576 52.035 56.987 53.165 57.15 53.289 56.874 53.309 56.882 53.388 56.689 53.318 55.561 54.12 55.483 54.004 55.437 54.082 55.363 54.063 55.322 54.235 55.216 54.05 55.29 53.977 54.945 54.08 54.966 54.134 53.729 54.416 53.718 54.602 53.613 54.41 53.58 54.41 53.592 54.495 53.492 54.575 53.55 54.462 53.116 54.353 53.112 54.326 52.558 54.113 52.5 54.153 52.607 54.004 52.498 54.018 52.475 53.794 52.563 53.836 52.596 53.793 52.46 53.642 52.502 53.56 52.174 53.931 51.981 53.856 52.002 53.784 51.971 53.763 51.644 54.001 51.583 53.954 51.623 53.894 51.08 54.182 51.103 54.217 50.626 54.338 50.177 53.995 50.356 53.551 50.308 53.544 50.612 53.163 50.256 53.194 50.237 53.258 50.302 53.255 49.887 53.733 49.999 53.804 49.264 54.232 49.27 54.288 49.409 54.337 49.225 54.346 49.193 54.269 47.831 54.98 47.806 54.936 46.98 55.227 46.641 55.006 46.56 55.333 46.631 55.364 46.547 55.42 46.496 55.861 46.441 55.863 46.401 55.815 42.724 58.477 42.773 58.615 42.376 58.912 42.417 59.069 42.329 59.032 42.292 59.065 42.296 59.174 42.226 59.086 42.218 59.151 42.169 59.181 42.163 59.048 36.851 62.004 36.88 62.088 36.753 62.145 36.715 62.361 36.532 62.391 36.549 62.488 36.606 62.496 36.551 62.727 36.439 62.761 36.455 63.014 36.162 62.949 36.15 62.988 36.279 63.073 36.259 63.134 36.391 63.285 36.227 63.217 36.211 63.262 36.147 63.239 36.176 63.611 36.068 63.581 36.007 63.636 36.147 63.766 36.113 63.808 36.031 63.76 35.88 63.977 36.042 64.145 35.871 64.095 35.784 64.549 35.741 64.552 35.711 64.637 35.78 64.743 35.559 64.992 35.504 64.928 35.43 64.955 35.327 64.626 34.784 64.733 34.742 64.972 34.377 65.134 34.164 64.484 34.2 64.436 34.277 64.445 34.496 63.81 34.119 63.959 34.139 63.873 34.19 63.874 34.577 60.887 34.393 60.714 31.773 64.966 31.682 64.969 31.458 66.29 31.498 66.325 31.691 66.279 30.766 72.571 30.678 72.563 31.226 79.171 31.154 79.203 31.334 79.399 31.401 79.356 33.089 82.712 33.037 82.816 33.669 83.904 33.644 83.936 34.166 84.384 34.118 84.431 35.031 85.286 34.976 85.859 35.022 85.851 34.772 85.883 34.784 85.801 34.741 85.772 34.599 85.86 34.953 86.889 34.783 86.948 34.762 86.922 34.814 86.705 34.771 86.671 33.949 88.765 33.066 86.737 32.941 86.741 32.871 85.719 32.683 85.627 32.174 87.201 32.007 87.23 31.955 87.067 31.906 87.191 31.786 87.184 30.924 83.686 30.897 83.68 30.92 83.728 30.884 83.783 30.663 83.716 30.503 82.982 29.922 84.302 30.253 84.673 30.162 84.55 30.225 84.512 30.105 84.218 30.189 84.178 30.272 84.217 30.277 84.344 30.238 84.374 30.312 84.545 30.275 84.583 30.309 84.66 30.203 84.816 31.579 87.22 31.563 87.261 32.736 88.001 32.28 89.619 32.051 89.477 31.574 89.642 31.612 89.669 31.589 89.909 31.52 89.903 31.431 90 31.417 89.53 31.359 89.521 31.318 89.648 31.25 89.636 31.223 88.737 31.094 89.042 30.996 89.025 31.078 89.59 31.024 89.638 30.786 89.397 30.889 88.929 30.814 88.917 30.671 87.672 30.546 87.663 30.438 88.668 30.475 88.672 30.35 88.864 29.612 86.059 29.59 86.348 29.706 86.429 29.679 86.54 29.759 86.608 29.726 87.193 29.625 87.221 29.574 87.504 29.37 87.521 29.238 86.06 29.059 87.407 29.004 87.104 28.393 86.823 28.376 86.867 29.277 88.332 29.218 88.356 37.082 102.563 36.884 102.605 39.2 110.353 39.327 110.399 39.656 111.715 39.542 111.828 43.964 122.667 43.882 122.731 44.007 122.75 43.751 123.564 43.524 123.505 43.625 123.737 43.801 123.77 43.844 124.067 43.695 124.128 43.89 124.77 43.688 125.039 44.08 125.471 44.019 125.664 44.054 125.711 43.882 125.777 43.741 125.693 43.719 125.744 43.415 125.596 43.743 126.586 43.679 126.612 43.286 125.553 43.439 125.474 43.441 125.354 43.717 125.249 43.625 125.015 43.448 129.713 43.493 129.71 43.571 129.123 43.635 129.085 43.615 129.725 43.562 129.719 43.541 129.808 43.478 129.827 43.446 129.725 43.26 129.807 43.236 129.754 41.607 131.736 39.627 131.155 39.603 131.095 39.444 131.085 39.354 132.087 39.276 132.079 40.25 136.101 40.376 136.09 40.358 135.539 40.399 135.509 40.586 135.56 40.415 135.689 40.459 135.826 42.669 136.365 42.665 136.422 45.442 138.764 45.394 138.867 49.182 140.153 49.158 140.198 49.185 140.241 49.881 140.097 49.859 140.059 49.792 140.054 49.789 140.018 49.6 139.953 49.581 139.891 49.746 139.833 49.785 139.864 49.832 139.821 49.942 139.882 49.816 140.052 50.571 140.211 50.603 140.166 50.942 140.262 51.158 139.994 51.126 139.983 51.175 139.91 51.059 139.927 51.247 139.719 51.385 139.799 51.15 139.972 52.347 140.234 52.34 140.166 52.398 140.151 52.383 140.066 53.407 140.136 53.431 140.096 53.365 140.032 53.443 139.832 53.559 139.821 53.617 139.701 54.295 139.833 54.117 139.945 54.124 139.99 53.802 139.94 53.78 139.883 53.41 140.013 54.317 140.36 54.316 140.416 54.476 140.384 54.494 140.337 55.153 140.69 55.193 140.655 55.247 140.687 55.257 140.635 55.183 140.562 55.522 140.146 56.799 140.626 56.837 140.573 57.043 140.577 57.066 140.644 57.214 140.57 57.206 140.513 57.526 140.539 57.405 140.406 57.064 140.432 57.033 140.238 56.9 140.172 56.864 140.202 56.966 140.259 56.969 140.322 56.496 140.17 56.551 140.049 56.916 140.097 56.945 140.047 56.906 140.032 57.094 139.545 57.263 139.593 57.277 139.827 57.09 139.891 58.531 140.038 58.666 139.753 58.548 139.688 58.492 139.72 58.423 139.61 59.731 139.328 59.738 139.374 59.81 139.389 59.817 139.318 59.954 139.287 59.914 139.166 59.786 139.15 62.079 137.54 61.854 137.426 61.931 137.149 62.829 136.905 62.835 136.769 62.799 136.754 64.815 136.983 64.718 137.075 64.923 137.091 64.914 137.044 64.97 136.984 65.068 137.016 65.016 136.704 65.521 136.589 65.585 136.673 65.521 136.732 65.706 136.775 65.681 136.712 65.734 136.644 65.892 136.646 65.8 136.598 65.803 136.443 65.734 136.395 65.837 136.263 65.788 136.246 65.787 136.203 66.096 136.111 66.108 136.159 66.287 136.147 66.343 136.24 66.259 136.302 66.84 136.209 66.435 136.043 67.225 134.566 67.187 134.537 68.933 133.706 68.946 133.757 72.19 133.693 72.203 133.635 72.746 133.415 72.697 133.31 74.406 133.134 74.421 133.088 75.427 133.13 75.455 133.061 76.177 133.01 76.32 132.744 76.455 132.78 76.209 132.963 76.209 133.028 76.432 133.114 76.546 133.038 76.534 132.984 77.148 132.935 77.137 132.87 77.473 132.872 77.477 132.812 77.948 132.863 77.981 132.817 79.415 133.137 79.426 133.069 80.767 133.164 80.728 133.071 80.854 132.92 81.261 132.925 81.281 132.866 82.044 133.992 83.014 133.888 83.045 133.828 82.97 133.699 84.704 133.509 84.723 133.559 84.942 133.513 84.871 133.487 84.848 133.388 86.232 133.226 86.332 133.35 87.174 133.231 87.21 133.304 87.229 133.214 87.368 133.203 87.455 133.037 88.319 133.565 88.316 133.714 88.244 133.747 88.39 133.847 88.345 133.939 88.269 133.957 90.376 133.403 90.422 133.545 92.613 131.691 92.548 131.605 123.31 120.035 123.313 81.042 123.313 81.042"/><polygon class="cls-3" points="90.868 5.372 90.968 5.425 90.986 5.376 90.878 5.31 90.868 5.372 90.868 5.372"/><polygon class="cls-3" points="90.714 5.189 90.881 5.169 90.816 5.055 90.611 5.038 90.714 5.189 90.714 5.189"/><polygon class="cls-3" points="87.768 3.827 87.888 3.703 87.865 3.664 87.672 3.677 87.68 3.808 87.768 3.827 87.768 3.827"/><polygon class="cls-3" points="87.387 3.785 87.435 3.76 87.435 3.692 87.302 3.664 87.274 3.698 87.287 3.753 87.387 3.785 87.387 3.785"/><polygon class="cls-3" points="87.038 3.627 87.094 3.565 87.052 3.498 86.947 3.556 86.978 3.615 87.038 3.627 87.038 3.627"/></g></svg>